<svg width="1504" height="958" viewBox="0 0 1504 958" fill="none" xmlns="http://www.w3.org/2000/svg">
<path d="M1481.32 817.381C1481.79 815.339 1480.56 813.292 1478.59 812.809C1476.61 812.327 1474.63 813.593 1474.16 815.635C1473.69 817.678 1474.92 819.725 1476.9 820.207C1478.87 820.689 1480.85 819.424 1481.32 817.381Z" fill="#ECE4C3"/>
<path d="M1465.18 817.384C1465.65 815.342 1464.43 813.295 1462.45 812.813C1460.47 812.331 1458.49 813.596 1458.02 815.639C1457.56 817.681 1458.78 819.728 1460.76 820.21C1462.74 820.692 1464.72 819.427 1465.18 817.384Z" fill="#ECE4C3"/>
<path d="M1448.12 819.25C1449.56 817.765 1449.56 815.359 1448.12 813.875C1446.68 812.391 1444.35 812.391 1442.92 813.875C1441.48 815.359 1441.48 817.765 1442.92 819.25C1444.35 820.734 1446.68 820.734 1448.12 819.25Z" fill="#ECE4C3"/>
<path d="M1431.99 819.249C1433.42 817.765 1433.42 815.359 1431.99 813.875C1430.55 812.391 1428.22 812.391 1426.78 813.875C1425.35 815.359 1425.35 817.765 1426.78 819.249C1428.22 820.733 1430.55 820.734 1431.99 819.249Z" fill="#ECE4C3"/>
<path d="M1416.93 817.218C1417.26 815.147 1415.89 813.195 1413.89 812.858C1411.88 812.522 1409.99 813.929 1409.67 816.001C1409.34 818.072 1410.71 820.025 1412.71 820.361C1414.72 820.697 1416.61 819.29 1416.93 817.218Z" fill="#ECE4C3"/>
<path d="M1400.79 817.219C1401.12 815.148 1399.76 813.196 1397.75 812.859C1395.75 812.523 1393.86 813.93 1393.53 816.002C1393.21 818.073 1394.57 820.025 1396.57 820.362C1398.58 820.698 1400.47 819.291 1400.79 817.219Z" fill="#ECE4C3"/>
<path d="M134.995 752.541C136.431 751.195 136.431 749.012 134.995 747.666C133.559 746.32 131.23 746.32 129.793 747.666C128.357 749.012 128.357 751.195 129.793 752.541C131.23 753.887 133.559 753.887 134.995 752.541Z" fill="#ECE4C3"/>
<path d="M119.885 750.606C120.209 748.727 118.846 746.957 116.841 746.653C114.835 746.35 112.947 747.627 112.623 749.506C112.299 751.385 113.662 753.155 115.667 753.459C117.673 753.762 119.561 752.485 119.885 750.606Z" fill="#ECE4C3"/>
<path d="M103.75 750.603C104.074 748.723 102.711 746.954 100.706 746.65C98.7005 746.346 96.8121 747.624 96.4881 749.503C96.164 751.382 97.5269 753.152 99.5323 753.455C101.538 753.759 103.426 752.482 103.75 750.603Z" fill="#ECE4C3"/>
<path d="M87.5573 750.94C88.0219 749.087 86.7953 747.232 84.8177 746.796C82.8401 746.361 80.8603 747.51 80.3957 749.364C79.9312 751.217 81.1577 753.072 83.1353 753.507C85.1129 753.943 87.0927 752.793 87.5573 750.94Z" fill="#ECE4C3"/>
<path d="M71.4186 750.944C71.8832 749.091 70.6566 747.235 68.679 746.8C66.7014 746.365 64.7216 747.514 64.2571 749.367C63.7925 751.22 65.019 753.076 66.9966 753.511C68.9742 753.946 70.9541 752.797 71.4186 750.944Z" fill="#ECE4C3"/>
<path d="M54.3085 752.54C55.745 751.194 55.7449 749.012 54.3085 747.665C52.872 746.319 50.5431 746.319 49.1067 747.665C47.6702 749.012 47.6702 751.194 49.1066 752.54C50.5431 753.886 52.872 753.886 54.3085 752.54Z" fill="#ECE4C3"/>
</svg>
