<svg width="1504" height="958" viewBox="0 0 1504 958" fill="none" xmlns="http://www.w3.org/2000/svg">
<path d="M277.099 9.1582C278.731 9.1582 280.054 7.79144 280.054 6.10547C280.054 4.41949 278.731 3.05273 277.099 3.05273C275.467 3.05273 274.145 4.41949 274.145 6.10547C274.145 7.79144 275.467 9.1582 277.099 9.1582Z" fill="#ECE4C3"/>
<path d="M5.91293 45.1188C5.91293 45.9615 5.24963 46.6468 4.434 46.6468C3.61837 46.6468 2.95508 45.9615 2.95508 45.1188C2.95508 44.2761 3.61837 43.5908 4.434 43.5908C5.24963 43.5908 5.91293 44.2761 5.91293 45.1188Z" fill="#ECE4C3"/>
<path d="M1386.26 77.361C1386.26 78.2037 1385.6 78.889 1384.79 78.889C1383.97 78.889 1383.31 78.2037 1383.31 77.361C1383.31 76.5183 1383.97 75.833 1384.79 75.833C1385.6 75.833 1386.26 76.5183 1386.26 77.361Z" fill="#ECE4C3"/>
<path d="M18.4364 335.803C18.4364 336.646 17.7731 337.331 16.9574 337.331C16.1418 337.331 15.4785 336.646 15.4785 335.803C15.4785 334.961 16.1418 334.275 16.9574 334.275C17.7731 334.275 18.4364 334.961 18.4364 335.803Z" fill="#ECE4C3"/>
<path d="M1334.34 535.528C1334.34 536.371 1333.68 537.056 1332.87 537.056C1332.05 537.056 1331.39 536.371 1331.39 535.528C1331.39 534.685 1332.05 534 1332.87 534C1333.68 534 1334.34 534.685 1334.34 535.528Z" fill="#ECE4C3"/>
<path d="M518.181 33.236C518.181 34.0787 517.517 34.764 516.702 34.764C515.886 34.764 515.223 34.0787 515.223 33.236C515.223 32.3933 515.886 31.708 516.702 31.708C517.517 31.708 518.181 32.3933 518.181 33.236Z" fill="#ECE4C3"/>
<path d="M812.645 28.9665C812.645 29.8092 811.982 30.4945 811.166 30.4945C810.351 30.4945 809.688 29.8092 809.688 28.9665C809.688 28.1238 810.351 27.4385 811.166 27.4385C811.982 27.4385 812.645 28.1238 812.645 28.9665Z" fill="#ECE4C3"/>
<path d="M1472.34 182.458C1472.34 183.3 1471.68 183.986 1470.87 183.986C1470.05 183.986 1469.39 183.304 1469.39 182.458C1469.39 181.612 1470.05 180.93 1470.87 180.93C1471.68 180.93 1472.34 181.612 1472.34 182.458Z" fill="#ECE4C3"/>
<path d="M1134.41 141.306C1134.41 142.149 1133.75 142.834 1132.93 142.834C1132.12 142.834 1131.45 142.149 1131.45 141.306C1131.45 140.464 1132.11 139.778 1132.93 139.778C1133.75 139.778 1134.41 140.464 1134.41 141.306Z" fill="#ECE4C3"/>
<path d="M1461.34 955.528C1461.34 956.371 1460.68 957.056 1459.87 957.056C1459.05 957.056 1458.39 956.374 1458.39 955.528C1458.39 954.682 1459.05 954 1459.87 954C1460.68 954 1461.34 954.685 1461.34 955.528Z" fill="#ECE4C3"/>
<path d="M1308.22 4.57781C1308.22 5.42051 1307.56 6.10582 1306.74 6.10582C1305.92 6.10582 1305.26 5.42051 1305.26 4.57781C1305.26 3.73511 1305.93 3.0498 1306.74 3.0498C1307.56 3.0498 1308.22 3.73511 1308.22 4.57781Z" fill="#ECE4C3"/>
<path d="M700.964 171.31C700.964 172.153 700.3 172.838 699.485 172.838C698.669 172.838 698.006 172.153 698.006 171.31C698.006 170.468 698.669 169.782 699.485 169.782C700.3 169.782 700.964 170.468 700.964 171.31Z" fill="#ECE4C3"/>
<path d="M89.8991 204.41C90.1598 202.745 89.0652 201.178 87.4543 200.909C85.8434 200.639 84.3263 201.77 84.0656 203.435C83.805 205.099 84.8996 206.667 86.5105 206.936C88.1214 207.205 89.6385 206.074 89.8991 204.41Z" fill="#ECE4C3"/>
<path d="M1467.34 611.674C1468.42 611.674 1469.3 610.77 1469.3 609.654C1469.3 608.539 1468.42 607.635 1467.34 607.635C1466.26 607.635 1465.39 608.539 1465.39 609.654C1465.39 610.77 1466.26 611.674 1467.34 611.674Z" fill="#ECE4C3"/>
<path d="M1450.34 505.256C1451.97 505.256 1453.3 503.889 1453.3 502.203C1453.3 500.517 1451.97 499.15 1450.34 499.15C1448.71 499.15 1447.39 500.517 1447.39 502.203C1447.39 503.889 1448.71 505.256 1450.34 505.256Z" fill="#ECE4C3"/>
<path d="M572.494 22.8545C574.126 22.8545 575.448 21.4877 575.448 19.8018C575.448 18.1158 574.126 16.749 572.494 16.749C570.862 16.749 569.539 18.1158 569.539 19.8018C569.539 21.4877 570.862 22.8545 572.494 22.8545Z" fill="#ECE4C3"/>
<path d="M1008.17 41.5554C1008.54 39.9145 1007.56 38.2703 1005.97 37.883C1004.38 37.4957 1002.79 38.512 1002.42 40.1529C1002.04 41.7938 1003.03 43.438 1004.61 43.8253C1006.2 44.2126 1007.79 43.1963 1008.17 41.5554Z" fill="#ECE4C3"/>
<path d="M1323.34 551.105C1324.97 551.105 1326.3 549.739 1326.3 548.053C1326.3 546.367 1324.97 545 1323.34 545C1321.71 545 1320.39 546.367 1320.39 548.053C1320.39 549.739 1321.71 551.105 1323.34 551.105Z" fill="#ECE4C3"/>
<path d="M1382.74 204.433C1383 202.769 1381.91 201.2 1380.3 200.93C1378.69 200.66 1377.17 201.79 1376.91 203.454C1376.65 205.119 1377.74 206.687 1379.35 206.957C1380.96 207.227 1382.48 206.097 1382.74 204.433Z" fill="#ECE4C3"/>
<path d="M1393.16 28.7322C1394.66 28.087 1395.38 26.3013 1394.76 24.7437C1394.13 23.1861 1392.4 22.4463 1390.9 23.0915C1389.39 23.7367 1388.67 25.5225 1389.3 27.0801C1389.92 28.6378 1391.65 29.3774 1393.16 28.7322Z" fill="#ECE4C3"/>
<path d="M1414.34 669.105C1415.97 669.105 1417.3 667.739 1417.3 666.053C1417.3 664.367 1415.97 663 1414.34 663C1412.71 663 1411.39 664.367 1411.39 666.053C1411.39 667.739 1412.71 669.105 1414.34 669.105Z" fill="#ECE4C3"/>
<path d="M1022.73 182.605C1024.23 181.96 1024.95 180.174 1024.32 178.617C1023.7 177.059 1021.97 176.319 1020.46 176.965C1018.96 177.61 1018.24 179.396 1018.87 180.953C1019.49 182.511 1021.22 183.25 1022.73 182.605Z" fill="#ECE4C3"/>
<path d="M790.166 155.535C790.427 153.871 789.333 152.303 787.723 152.033C786.112 151.763 784.594 152.893 784.333 154.557C784.071 156.221 785.165 157.789 786.776 158.059C788.387 158.33 789.904 157.199 790.166 155.535Z" fill="#ECE4C3"/>
<path d="M328.817 39.974C329.971 38.7819 329.971 36.849 328.817 35.6568C327.663 34.4647 325.792 34.4646 324.638 35.6568C323.484 36.849 323.484 38.7819 324.638 39.974C325.792 41.1662 327.663 41.1662 328.817 39.974Z" fill="#ECE4C3"/>
<path d="M36.3414 451.53C37.9732 451.53 39.2961 450.164 39.2961 448.478C39.2961 446.792 37.9732 445.425 36.3414 445.425C34.7096 445.425 33.3867 446.792 33.3867 448.478C33.3867 450.164 34.7096 451.53 36.3414 451.53Z" fill="#ECE4C3"/>
<path d="M535.643 86.9026C537.908 86.9026 539.744 85.0059 539.744 82.6661C539.744 80.3264 537.908 78.4297 535.643 78.4297C533.379 78.4297 531.543 80.3264 531.543 82.6661C531.543 85.0059 533.379 86.9026 535.643 86.9026Z" fill="#ECE4C3"/>
<path d="M257.801 176.108C258.104 173.79 256.53 171.656 254.286 171.343C252.042 171.03 249.977 172.656 249.674 174.974C249.371 177.293 250.944 179.427 253.188 179.74C255.433 180.053 257.498 178.427 257.801 176.108Z" fill="#ECE4C3"/>
<path d="M148.873 44.053C148.873 44.6432 148.41 45.1186 147.842 45.1186C147.274 45.1186 146.811 44.6399 146.811 44.053C146.811 43.466 147.274 42.9873 147.842 42.9873C148.41 42.9873 148.873 43.466 148.873 44.053Z" fill="#ECE4C3"/>
<path d="M341.703 86.9026C341.703 87.4928 341.24 87.9683 340.672 87.9683C340.104 87.9683 339.641 87.4895 339.641 86.9026C339.641 86.3156 340.104 85.8369 340.672 85.8369C341.24 85.8369 341.703 86.3156 341.703 86.9026Z" fill="#ECE4C3"/>
<path d="M200.071 69.4914C200.071 70.0817 199.607 70.5571 199.039 70.5571C198.471 70.5571 198.008 70.0784 198.008 69.4914C198.008 68.9045 198.471 68.4258 199.039 68.4258C199.607 68.4258 200.071 68.9045 200.071 69.4914Z" fill="#ECE4C3"/>
<path d="M7.9789 595.827C7.9789 596.418 7.51554 596.893 6.94746 596.893C6.37937 596.893 5.91602 596.414 5.91602 595.827C5.91602 595.24 6.37937 594.762 6.94746 594.762C7.51554 594.762 7.9789 595.24 7.9789 595.827Z" fill="#ECE4C3"/>
<path d="M911.246 4.57739C911.246 5.1676 910.783 5.64306 910.215 5.64306C909.647 5.64306 909.184 5.16433 909.184 4.57739C909.184 3.99045 909.647 3.51172 910.215 3.51172C910.783 3.51172 911.246 3.99045 911.246 4.57739Z" fill="#ECE4C3"/>
<path d="M1459.52 235.897C1459.52 236.487 1459.06 236.962 1458.49 236.962C1457.92 236.962 1457.46 236.484 1457.46 235.897C1457.46 235.31 1457.92 234.831 1458.49 234.831C1459.06 234.831 1459.52 235.31 1459.52 235.897Z" fill="#ECE4C3"/>
<path d="M1009.33 85.8372C1009.33 86.4274 1008.86 86.9028 1008.3 86.9028C1007.73 86.9028 1007.26 86.4241 1007.26 85.8372C1007.26 85.2502 1007.73 84.7715 1008.3 84.7715C1008.86 84.7715 1009.33 85.2502 1009.33 85.8372Z" fill="#ECE4C3"/>
<path d="M142.45 895.066C142.45 895.656 141.986 896.131 141.418 896.131C140.85 896.131 140.387 895.653 140.387 895.066C140.387 894.479 140.85 894 141.418 894C141.986 894 142.45 894.479 142.45 895.066Z" fill="#ECE4C3"/>
<path d="M513.875 177.682C513.875 178.272 513.412 178.748 512.844 178.748C512.276 178.748 511.812 178.269 511.812 177.682C511.812 177.095 512.276 176.616 512.844 176.616C513.412 176.616 513.875 177.095 513.875 177.682Z" fill="#ECE4C3"/>
<path d="M162.192 236.962C162.192 237.552 161.728 238.028 161.16 238.028C160.592 238.028 160.129 237.549 160.129 236.962C160.129 236.375 160.592 235.896 161.16 235.896C161.728 235.896 162.192 236.375 162.192 236.962Z" fill="#ECE4C3"/>
<path d="M133.395 336.989C133.395 337.579 132.932 338.054 132.363 338.054C131.795 338.054 131.332 337.575 131.332 336.989C131.332 336.402 131.795 335.923 132.363 335.923C132.932 335.923 133.395 336.402 133.395 336.989Z" fill="#ECE4C3"/>
<path d="M450.086 102.54C450.086 103.13 449.623 103.606 449.055 103.606C448.487 103.606 448.023 103.127 448.023 102.54C448.023 101.953 448.487 101.475 449.055 101.475C449.623 101.475 450.086 101.953 450.086 102.54Z" fill="#ECE4C3"/>
<path d="M1355.2 944.388C1354.36 944.479 1353.61 943.894 1353.52 943.083C1353.43 942.272 1354.04 941.539 1354.88 941.447C1355.72 941.356 1356.47 941.938 1356.56 942.753C1356.65 943.567 1356.04 944.297 1355.2 944.388Z" fill="#ECE4C3"/>
<path d="M1109.97 923.289C1109.14 923.38 1108.38 922.795 1108.3 921.984C1108.21 921.173 1108.81 920.44 1109.65 920.349C1110.5 920.257 1111.25 920.84 1111.33 921.654C1111.42 922.468 1110.81 923.198 1109.97 923.289Z" fill="#ECE4C3"/>
<path d="M1190.37 406.399C1189.54 406.49 1188.78 405.905 1188.69 405.094C1188.61 404.283 1189.22 403.549 1190.05 403.458C1190.89 403.367 1191.64 403.952 1191.73 404.763C1191.82 405.574 1191.21 406.308 1190.37 406.399Z" fill="#ECE4C3"/>
<path d="M1229.22 554.106C1228.39 554.197 1227.63 553.615 1227.55 552.801C1227.46 551.987 1228.07 551.256 1228.9 551.165C1229.74 551.074 1230.5 551.659 1230.58 552.47C1230.67 553.281 1230.06 554.015 1229.22 554.106Z" fill="#ECE4C3"/>
<path d="M1332.14 474.816C1330.55 474.989 1329.11 473.875 1328.94 472.33C1328.78 470.786 1329.94 469.389 1331.53 469.215C1333.13 469.042 1334.56 470.156 1334.73 471.701C1334.9 473.245 1333.74 474.642 1332.14 474.816Z" fill="#ECE4C3"/>
<path d="M1305.82 48.9691C1304.22 49.1427 1302.79 48.0339 1302.62 46.4835C1302.45 44.933 1303.61 43.5419 1305.21 43.3684C1306.8 43.1948 1308.24 44.3097 1308.41 45.8541C1308.57 47.3986 1307.41 48.7956 1305.82 48.9691Z" fill="#ECE4C3"/>
</svg>
