<svg width="1504" height="958" viewBox="0 0 1504 958" fill="none" xmlns="http://www.w3.org/2000/svg">
<path fill-rule="evenodd" clip-rule="evenodd" d="M466.465 834.151H419.693C413.11 834.151 407.771 828.638 407.771 821.833C407.771 815.028 413.107 809.515 419.693 809.515H433.232C439.815 809.515 445.154 804.002 445.154 797.198C445.154 790.393 439.818 784.88 433.232 784.88H228.379C221.796 784.88 216.457 790.393 216.457 797.198C216.457 804.002 221.793 809.515 228.379 809.515H370.835C377.418 809.515 382.757 815.028 382.757 821.833C382.757 828.638 377.421 834.151 370.835 834.151H170.309C163.726 834.151 158.387 839.664 158.387 846.468C158.387 853.273 163.723 858.786 170.309 858.786H308.358C314.941 858.786 320.28 864.299 320.28 871.104C320.28 877.908 314.944 883.421 308.358 883.421H296.063C289.48 883.421 284.141 888.934 284.141 895.739C284.141 902.544 289.477 908.057 296.063 908.057H422.134C428.717 908.057 434.056 902.544 434.056 895.739C434.056 888.934 428.72 883.421 422.134 883.421H357.21C350.627 883.421 345.288 877.908 345.288 871.104C345.288 864.299 350.624 858.786 357.21 858.786H466.465C473.048 858.786 478.387 853.273 478.387 846.468C478.387 839.664 473.051 834.151 466.465 834.151Z" fill="url(#paint0_linear_701_3712)"/>
<path d="M189.57 806.563C195.365 806.563 200.063 801.709 200.063 795.721C200.063 789.734 195.365 784.88 189.57 784.88C183.774 784.88 179.077 789.734 179.077 795.721C179.077 801.709 183.774 806.563 189.57 806.563Z" fill="url(#paint1_linear_701_3712)"/>
<path d="M1097.58 158.97C1092.51 158.97 1088.39 163.014 1088.39 167.985C1088.39 172.955 1092.51 177 1097.58 177H1305.56C1310.62 177 1314.75 172.955 1314.75 167.985C1314.75 163.014 1310.62 158.97 1305.56 158.97H1296.18C1290.22 158.97 1285.37 154.21 1285.37 148.362C1285.37 142.513 1290.22 137.754 1296.18 137.754H1349.78C1354.85 137.754 1358.97 133.709 1358.97 128.739C1358.97 123.768 1354.85 119.723 1349.78 119.723H1207.75C1202.68 119.723 1198.56 123.768 1198.56 128.739C1198.56 133.709 1202.68 137.754 1207.75 137.754H1255.21C1261.17 137.754 1266.02 142.513 1266.02 148.362C1266.02 154.21 1261.17 158.97 1255.21 158.97H1097.58Z" fill="url(#paint2_linear_701_3712)"/>
<path d="M1382.67 137.564C1387.72 137.564 1391.81 133.55 1391.81 128.599C1391.81 123.648 1387.72 119.634 1382.67 119.634C1377.63 119.634 1373.53 123.648 1373.53 128.599C1373.53 133.55 1377.63 137.564 1382.67 137.564Z" fill="url(#paint3_linear_701_3712)"/>
<path fill-rule="evenodd" clip-rule="evenodd" d="M1228.51 98.9716C1234.25 98.9716 1238.9 94.4125 1238.9 88.7856C1238.9 83.1586 1234.25 78.5996 1228.51 78.5996H1157.09C1151.35 78.5996 1146.7 83.1586 1146.7 88.7856C1146.7 94.4125 1151.35 98.9716 1157.09 98.9716H1228.51Z" fill="url(#paint4_linear_701_3712)"/>
<path d="M323.72 82.5047C327.954 82.5047 331.386 79.0728 331.386 74.8393C331.386 70.6058 327.954 67.1738 323.72 67.1738C319.487 67.1738 316.055 70.6058 316.055 74.8393C316.055 79.0728 319.487 82.5047 323.72 82.5047Z" fill="url(#paint5_linear_701_3712)"/>
<path fill-rule="evenodd" clip-rule="evenodd" d="M293.231 83.2556C298.04 83.2556 301.94 79.3576 301.94 74.5464C301.94 69.7352 298.042 65.8371 293.231 65.8371H259.064C254.255 65.8371 250.354 61.939 250.354 57.1278C250.354 52.3166 254.253 48.4185 259.064 48.4185H268.954C273.763 48.4185 277.664 44.5205 277.664 39.7093C277.664 34.8981 273.766 31 268.954 31H113.096C108.287 31 104.387 34.8981 104.387 39.7093C104.387 44.5205 108.285 48.4185 113.096 48.4185H223.374C228.183 48.4185 232.084 52.3166 232.084 57.1278C232.084 61.939 228.186 65.8371 223.374 65.8371H198.872C194.063 65.8371 190.163 69.7352 190.163 74.5464C190.163 79.3576 194.061 83.2556 198.872 83.2556H293.231Z" fill="url(#paint6_linear_701_3712)"/>
<defs>
<linearGradient id="paint0_linear_701_3712" x1="104.387" y1="469.506" x2="1391.81" y2="469.506" gradientUnits="userSpaceOnUse">
<stop stop-color="#F9F7ED"/>
<stop offset="1" stop-color="#EBE3C0"/>
</linearGradient>
<linearGradient id="paint1_linear_701_3712" x1="104.387" y1="469.528" x2="1391.81" y2="469.528" gradientUnits="userSpaceOnUse">
<stop stop-color="#EBE3C1"/>
<stop offset="1" stop-color="#EBE3C0"/>
</linearGradient>
<linearGradient id="paint2_linear_701_3712" x1="104.387" y1="469.528" x2="1391.81" y2="469.528" gradientUnits="userSpaceOnUse">
<stop stop-color="#FBD099"/>
<stop offset="0.598958" stop-color="#FCEFDF"/>
<stop offset="1" stop-color="#FFE299"/>
</linearGradient>
<linearGradient id="paint3_linear_701_3712" x1="104.387" y1="469.528" x2="1391.81" y2="469.528" gradientUnits="userSpaceOnUse">
<stop stop-color="#EBE3C1"/>
<stop offset="1" stop-color="#EBE3C0"/>
</linearGradient>
<linearGradient id="paint4_linear_701_3712" x1="104.387" y1="469.642" x2="1391.81" y2="469.642" gradientUnits="userSpaceOnUse">
<stop stop-color="#F9F7ED"/>
<stop offset="1" stop-color="#EBE3C0"/>
</linearGradient>
<linearGradient id="paint5_linear_701_3712" x1="104.387" y1="469.528" x2="1391.81" y2="469.528" gradientUnits="userSpaceOnUse">
<stop stop-color="#FBD099"/>
<stop offset="0.598958" stop-color="#FCEFDF"/>
<stop offset="1" stop-color="#FFE299"/>
</linearGradient>
<linearGradient id="paint6_linear_701_3712" x1="104.387" y1="469.528" x2="1391.81" y2="469.528" gradientUnits="userSpaceOnUse">
<stop stop-color="#FBD099"/>
<stop offset="0.598958" stop-color="#FCEFDF"/>
<stop offset="1" stop-color="#FFE299"/>
</linearGradient>
</defs>
</svg>
