<svg width="1504" height="958" viewBox="0 0 1504 958" fill="none" xmlns="http://www.w3.org/2000/svg">
<path d="M1481.93 817.381C1482.4 815.339 1481.17 813.292 1479.2 812.809C1477.22 812.327 1475.24 813.593 1474.77 815.635C1474.3 817.678 1475.53 819.725 1477.51 820.207C1479.48 820.689 1481.46 819.424 1481.93 817.381Z" fill="#ECE4C3"/>
<path d="M1465.79 817.384C1466.26 815.341 1465.04 813.295 1463.06 812.812C1461.08 812.33 1459.1 813.595 1458.63 815.638C1458.17 817.681 1459.39 819.728 1461.37 820.21C1463.35 820.692 1465.33 819.427 1465.79 817.384Z" fill="#ECE4C3"/>
<path d="M1448.73 819.25C1450.17 817.766 1450.17 815.359 1448.73 813.875C1447.3 812.391 1444.97 812.391 1443.53 813.875C1442.09 815.359 1442.09 817.766 1443.53 819.25C1444.97 820.734 1447.3 820.734 1448.73 819.25Z" fill="#ECE4C3"/>
<path d="M1432.6 819.25C1434.03 817.766 1434.03 815.359 1432.6 813.875C1431.16 812.391 1428.83 812.391 1427.39 813.875C1425.96 815.359 1425.96 817.766 1427.39 819.25C1428.83 820.734 1431.16 820.734 1432.6 819.25Z" fill="#ECE4C3"/>
<path d="M1417.54 817.218C1417.87 815.147 1416.51 813.195 1414.5 812.858C1412.5 812.522 1410.61 813.929 1410.28 816.001C1409.96 818.072 1411.32 820.025 1413.32 820.361C1415.33 820.697 1417.22 819.29 1417.54 817.218Z" fill="#ECE4C3"/>
<path d="M1401.41 817.22C1401.73 815.148 1400.37 813.196 1398.36 812.859C1396.36 812.523 1394.47 813.93 1394.14 816.002C1393.82 818.073 1395.18 820.026 1397.19 820.362C1399.19 820.698 1401.08 819.291 1401.41 817.22Z" fill="#ECE4C3"/>
<path d="M135.607 752.541C137.044 751.195 137.044 749.012 135.607 747.666C134.171 746.32 131.842 746.32 130.406 747.666C128.969 749.012 128.969 751.195 130.406 752.541C131.842 753.887 134.171 753.887 135.607 752.541Z" fill="#ECE4C3"/>
<path d="M120.498 750.606C120.822 748.727 119.459 746.957 117.453 746.654C115.448 746.35 113.559 747.627 113.235 749.507C112.911 751.386 114.274 753.155 116.28 753.459C118.285 753.763 120.173 752.486 120.498 750.606Z" fill="#ECE4C3"/>
<path d="M104.365 750.603C104.689 748.724 103.326 746.955 101.32 746.651C99.3149 746.347 97.4265 747.624 97.1024 749.504C96.7784 751.383 98.1413 753.152 100.147 753.456C102.152 753.76 104.041 752.483 104.365 750.603Z" fill="#ECE4C3"/>
<path d="M88.1707 750.941C88.6353 749.088 87.4087 747.232 85.4311 746.797C83.4535 746.362 81.4737 747.511 81.0092 749.364C80.5446 751.217 81.7711 753.073 83.7487 753.508C85.7263 753.943 87.7062 752.794 88.1707 750.941Z" fill="#ECE4C3"/>
<path d="M72.0321 750.944C72.4966 749.091 71.27 747.235 69.2924 746.8C67.3148 746.365 65.3351 747.514 64.8705 749.367C64.4059 751.22 65.6324 753.076 67.61 753.511C69.5877 753.946 71.5675 752.797 72.0321 750.944Z" fill="#ECE4C3"/>
<path d="M54.9219 752.541C56.3584 751.195 56.3584 749.012 54.9219 747.666C53.4854 746.32 51.1565 746.32 49.7201 747.666C48.2836 749.012 48.2836 751.195 49.72 752.541C51.1565 753.887 53.4855 753.887 54.9219 752.541Z" fill="#ECE4C3"/>
<path d="M245.789 440.382L245.789 440.381C245.287 439.105 245.865 437.62 247.147 437.082C248.438 436.54 249.888 437.191 250.397 438.48C253.696 446.836 261.305 449.039 267.42 448.282L267.42 448.282C273.291 447.558 279.383 443.897 280.297 437.597C280.433 436.66 281.072 435.865 281.97 435.559C282.872 435.252 283.857 435.501 284.518 436.179L284.52 436.181C289.894 441.733 295.447 443.728 300.451 443.661C305.478 443.593 310.043 441.442 313.401 438.54C319.483 433.284 322.861 424.402 318.201 417.48L318.201 417.48C317.755 416.817 317.645 415.982 317.893 415.228C318.141 414.474 318.729 413.867 319.495 413.621C330.27 410.115 338.747 415.634 346.576 420.731L346.704 420.814L346.704 420.814C351.252 423.776 355.393 426.46 359.7 427.451C368.127 429.387 376.711 427.166 384.647 421.046C384.95 420.812 384.992 420.495 384.832 420.182C384.664 419.85 384.3 419.614 383.854 419.675C374.764 420.92 365.737 419.48 357.254 415.374C346.308 410.075 336.916 400.604 330.781 388.724L330.781 388.724C326.763 380.939 321.413 376.229 314.917 374.56L314.917 374.56C304.647 371.918 295.389 377.572 292.759 379.405L292.756 379.407C292.07 379.881 291.188 379.986 290.408 379.652C289.63 379.324 289.085 378.621 288.926 377.802L288.925 377.802C286.522 365.441 275.795 360.236 266.106 360.602L245.789 440.382ZM245.789 440.382C249.02 448.567 256.438 453.507 265.12 453.508C265.146 453.508 265.172 453.506 265.197 453.504C266.122 453.501 267.063 453.444 268.017 453.325C274.875 452.478 280.531 448.869 283.387 443.731C283.722 443.127 284.53 442.965 285.015 443.33C296.241 451.786 308.645 449.306 316.61 442.422C323.11 436.805 327.379 427.443 324.407 418.819C324.308 418.53 324.343 418.228 324.463 418.007C324.577 417.797 324.754 417.674 324.979 417.657C331.735 417.122 337.586 420.899 344.036 425.098L344.124 425.156C348.628 428.089 353.435 431.218 358.611 432.406L358.611 432.407M245.789 440.382L358.611 432.407M251.267 371.041L251.267 371.043C251.136 372.107 250.361 372.993 249.304 373.217C248.243 373.442 247.179 372.937 246.65 372L246.65 371.999C243.883 367.094 239.008 366.176 235.252 366.306L251.267 371.041ZM251.267 371.041C251.675 367.669 253.619 365.145 256.36 363.408M251.267 371.041L256.36 363.408M215.997 377.839L215.997 377.84C214.277 381.422 214.563 384.897 216.878 388.276C217.295 388.884 217.43 389.649 217.25 390.366C217.071 391.083 216.592 391.693 215.925 392.02C203.26 398.291 197.139 407.635 198.294 418.28L197.488 418.367L198.294 418.28C198.904 423.895 201.375 429.067 204.622 433.053C207.877 437.049 211.85 439.778 215.396 440.612C221.934 442.068 226.869 441.641 230.574 440.353C234.281 439.066 236.814 436.897 238.518 434.782L238.518 434.782C243.654 428.407 244.017 419.234 241.711 413.523C240.819 411.314 238.844 407.942 235.141 407.608C230.556 407.196 227.457 408.124 225.67 410.101L225.67 410.101C224.388 411.518 223.877 413.339 223.7 414.871C223.612 415.63 223.609 416.299 223.628 416.779C223.638 417.018 223.653 417.21 223.666 417.34C223.672 417.405 223.678 417.455 223.682 417.488C223.684 417.512 223.686 417.527 223.687 417.534C223.887 418.892 222.988 420.2 221.62 420.423L221.617 420.424C220.238 420.644 218.985 419.664 218.777 418.304L218.777 418.302C218.75 418.127 218.507 416.401 218.788 414.139C219.068 411.88 219.879 409.02 222.021 406.655L222.021 406.655C225.029 403.333 229.656 402.021 235.574 402.552C240.311 402.977 244.19 406.356 246.301 411.588L246.301 411.589C249.09 418.504 249.048 429.693 242.348 438.012L242.348 438.012C236.221 445.617 226.196 448.219 214.309 445.569L214.301 445.567C209.539 444.45 204.619 440.998 200.734 436.178C196.64 431.1 194.016 424.947 193.352 418.839L193.352 418.839C192.966 415.277 193.112 410.241 195.459 404.884C197.81 399.517 202.344 393.888 210.634 389.113C211.026 388.886 211.215 388.357 211.021 387.872C209.431 383.894 209.596 379.634 211.53 375.6L211.53 375.599C215.326 367.69 225.441 361.565 235.075 361.228L235.075 361.228C239.588 361.071 243.562 362.205 246.67 364.54C247.238 364.966 248.165 364.797 248.547 364.195C251.81 359.059 258.173 355.82 265.914 355.524L265.914 355.523C272.05 355.293 278.127 356.967 283.029 360.26L283.029 360.26C287.433 363.222 290.665 367.338 292.528 372.302C292.736 372.856 293.392 373.102 293.891 372.842C298.788 370.29 307.048 367.298 316.13 369.632C324.143 371.69 330.541 377.368 335.177 386.352C345.376 406.107 368.246 422.259 394.406 411.59L215.997 377.839ZM215.997 377.839C217.456 374.8 220.289 371.979 223.784 369.879M215.997 377.839L223.784 369.879M358.611 432.407C360.97 432.945 363.335 433.215 365.691 433.215C376.991 433.215 387.979 427.052 397.245 415.564C397.961 414.677 398.003 413.405 397.348 412.47C396.688 411.529 395.476 411.152 394.407 411.59L358.611 432.407ZM256.36 363.408C259.115 361.662 262.65 360.734 266.106 360.602L256.36 363.408ZM223.784 369.879C227.275 367.781 231.359 366.443 235.252 366.306L223.784 369.879Z" fill="url(#paint0_linear_128_12680)" stroke="url(#paint1_linear_128_12680)" stroke-width="1.624" stroke-linejoin="round"/>
<path d="M299.09 407.566C299.064 407.568 299.038 407.569 299.013 407.569C295.002 407.569 290.361 405.653 285.925 400.611L285.925 400.611C282.607 396.839 281.099 392.739 281.574 388.452L299.09 407.566ZM299.09 407.566C301.159 407.554 303.035 407.031 304.59 406.186C308.874 403.861 311.02 399.064 309.938 394.274L309.938 394.274C309.632 392.925 308.307 392.046 306.945 392.375C305.593 392.702 304.793 394.079 305.096 395.42L299.09 407.566ZM289.939 375.224L289.939 375.224C291.08 374.409 292.635 374.716 293.412 375.87L293.413 375.872C294.177 377.013 293.909 378.58 292.79 379.383C292.718 379.435 291.3 380.484 289.82 382.207C288.307 383.968 286.802 386.352 286.509 389.037L286.509 389.037C286.216 391.73 287.208 394.473 289.619 397.213L289.619 397.213C294.747 403.039 299.569 403.161 302.261 401.7L302.261 401.7C304.571 400.448 305.679 397.998 305.096 395.421L289.939 375.224ZM289.939 375.224L289.935 375.227M289.939 375.224L289.935 375.227M289.935 375.227C289.764 375.351 287.904 376.701 285.976 378.98M289.935 375.227L285.976 378.98M285.976 378.98C284.053 381.253 282.01 384.512 281.574 388.452L285.976 378.98Z" fill="url(#paint2_linear_128_12680)" stroke="url(#paint3_linear_128_12680)" stroke-width="1.624" stroke-linejoin="round"/>
<path d="M38.8805 31.6406C40.5123 31.6406 41.8351 30.2739 41.8351 28.5879C41.8351 26.9019 40.5123 25.5352 38.8805 25.5352C37.2486 25.5352 35.9258 26.9019 35.9258 28.5879C35.9258 30.2739 37.2486 31.6406 38.8805 31.6406Z" fill="#ECE4C3"/>
<path d="M277.712 9.1582C279.344 9.1582 280.667 7.79144 280.667 6.10547C280.667 4.41949 279.344 3.05273 277.712 3.05273C276.081 3.05273 274.758 4.41949 274.758 6.10547C274.758 7.79144 276.081 9.1582 277.712 9.1582Z" fill="#ECE4C3"/>
<path d="M8.00155 227.552C9.63338 227.552 10.9562 226.185 10.9562 224.499C10.9562 222.813 9.63338 221.446 8.00155 221.446C6.36973 221.446 5.04688 222.813 5.04688 224.499C5.04688 226.185 6.36973 227.552 8.00155 227.552Z" fill="#ECE4C3"/>
<path d="M125.494 6.10547C127.126 6.10547 128.448 4.73871 128.448 3.05273C128.448 1.36676 127.126 0 125.494 0C123.862 0 122.539 1.36676 122.539 3.05273C122.539 4.73871 123.862 6.10547 125.494 6.10547Z" fill="#ECE4C3"/>
<path d="M70.0946 310.425C70.0946 311.267 69.4345 311.953 68.6156 311.953C67.7968 311.953 67.1367 311.27 67.1367 310.425C67.1367 309.579 67.7968 308.896 68.6156 308.896C69.4345 308.896 70.0946 309.582 70.0946 310.425Z" fill="#ECE4C3"/>
<path d="M1475.89 513.784C1475.89 514.627 1475.23 515.312 1474.41 515.312C1473.59 515.312 1472.93 514.63 1472.93 513.784C1472.93 512.938 1473.59 512.256 1474.41 512.256C1475.23 512.256 1475.89 512.941 1475.89 513.784Z" fill="#ECE4C3"/>
<path d="M1470.89 766.915C1470.89 767.757 1470.23 768.443 1469.41 768.443C1468.59 768.443 1467.93 767.761 1467.93 766.915C1467.93 766.069 1468.59 765.387 1469.41 765.387C1470.23 765.387 1470.89 766.072 1470.89 766.915Z" fill="#ECE4C3"/>
<path d="M19.0496 4.57781C19.0496 5.42051 18.3864 6.10582 17.5707 6.10582C16.7551 6.10582 16.0918 5.42051 16.0918 4.57781C16.0918 3.73511 16.7551 3.0498 17.5707 3.0498C18.3864 3.0498 19.0496 3.73511 19.0496 4.57781Z" fill="#ECE4C3"/>
<path d="M81.0907 587.958C81.0907 588.8 80.4305 589.486 79.6117 589.486C78.7929 589.486 78.1328 588.8 78.1328 587.958C78.1328 587.115 78.7929 586.43 79.6117 586.43C80.4305 586.43 81.0907 587.112 81.0907 587.958Z" fill="#ECE4C3"/>
<path d="M33.5961 682.044C34.4129 682.044 35.075 681.36 35.075 680.516C35.075 679.672 34.4129 678.988 33.5961 678.988C32.7793 678.988 32.1172 679.672 32.1172 680.516C32.1172 681.36 32.7793 682.044 33.5961 682.044Z" fill="#ECE4C3"/>
<path d="M301.845 104.068C301.845 104.911 301.184 105.596 300.366 105.596C299.547 105.596 298.887 104.911 298.887 104.068C298.887 103.225 299.547 102.54 300.366 102.54C301.184 102.54 301.845 103.225 301.845 104.068Z" fill="#ECE4C3"/>
<path d="M6.52621 45.1188C6.52621 45.9615 5.86292 46.6468 5.04729 46.6468C4.23165 46.6468 3.56836 45.9615 3.56836 45.1188C3.56836 44.2761 4.23165 43.5908 5.04729 43.5908C5.86292 43.5908 6.52621 44.2761 6.52621 45.1188Z" fill="#ECE4C3"/>
<path d="M1386.88 77.361C1386.88 78.2037 1386.22 78.889 1385.4 78.889C1384.59 78.889 1383.92 78.2037 1383.92 77.361C1383.92 76.5183 1384.58 75.833 1385.4 75.833C1386.22 75.833 1386.88 76.5183 1386.88 77.361Z" fill="#ECE4C3"/>
<path d="M19.0496 335.803C19.0496 336.646 18.3864 337.331 17.5707 337.331C16.7551 337.331 16.0918 336.646 16.0918 335.803C16.0918 334.961 16.7551 334.275 17.5707 334.275C18.3864 334.275 19.0496 334.961 19.0496 335.803Z" fill="#ECE4C3"/>
<path d="M1334.96 535.528C1334.96 536.371 1334.29 537.056 1333.48 537.056C1332.66 537.056 1332 536.371 1332 535.528C1332 534.685 1332.66 534 1333.48 534C1334.29 534 1334.96 534.685 1334.96 535.528Z" fill="#ECE4C3"/>
<path d="M518.794 33.236C518.794 34.0787 518.131 34.764 517.315 34.764C516.499 34.764 515.836 34.0787 515.836 33.236C515.836 32.3933 516.499 31.708 517.315 31.708C518.131 31.708 518.794 32.3933 518.794 33.236Z" fill="#ECE4C3"/>
<path d="M813.259 28.9665C813.259 29.8092 812.595 30.4945 811.78 30.4945C810.964 30.4945 810.301 29.8092 810.301 28.9665C810.301 28.1238 810.964 27.4385 811.78 27.4385C812.595 27.4385 813.259 28.1238 813.259 28.9665Z" fill="#ECE4C3"/>
<path d="M1472.96 182.458C1472.96 183.3 1472.29 183.986 1471.48 183.986C1470.66 183.986 1470 183.304 1470 182.458C1470 181.612 1470.66 180.93 1471.48 180.93C1472.3 180.93 1472.96 181.612 1472.96 182.458Z" fill="#ECE4C3"/>
<path d="M1135.02 141.306C1135.02 142.149 1134.36 142.834 1133.55 142.834C1132.73 142.834 1132.07 142.149 1132.07 141.306C1132.07 140.464 1132.73 139.778 1133.55 139.778C1134.36 139.778 1135.02 140.464 1135.02 141.306Z" fill="#ECE4C3"/>
<path d="M1125.4 330.6C1125.4 331.443 1124.74 332.128 1123.92 332.128C1123.11 332.128 1122.45 331.446 1122.45 330.6C1122.45 329.754 1123.11 329.072 1123.92 329.072C1124.74 329.072 1125.4 329.758 1125.4 330.6Z" fill="#ECE4C3"/>
<path d="M1098.04 105.875C1098.04 106.717 1097.38 107.403 1096.56 107.403C1095.74 107.403 1095.08 106.721 1095.08 105.875C1095.08 105.029 1095.74 104.347 1096.56 104.347C1097.37 104.347 1098.04 105.032 1098.04 105.875Z" fill="#ECE4C3"/>
<path d="M620.235 194.785C620.235 195.628 619.572 196.313 618.756 196.313C617.941 196.313 617.277 195.628 617.277 194.785C617.277 193.942 617.941 193.257 618.756 193.257C619.572 193.257 620.235 193.942 620.235 194.785Z" fill="#ECE4C3"/>
<path d="M393.208 175.547C393.208 176.389 392.548 177.075 391.729 177.075C390.91 177.075 390.25 176.389 390.25 175.547C390.25 174.704 390.913 174.019 391.729 174.019C392.545 174.019 393.208 174.704 393.208 175.547Z" fill="#ECE4C3"/>
<path d="M1444.23 156.558C1444.23 157.401 1443.57 158.086 1442.75 158.086C1441.94 158.086 1441.27 157.401 1441.27 156.558C1441.27 155.716 1441.93 155.03 1442.75 155.03C1443.57 155.03 1444.23 155.716 1444.23 156.558Z" fill="#ECE4C3"/>
<path d="M1467.97 424.49C1467.97 425.333 1467.31 426.018 1466.49 426.018C1465.67 426.018 1465.01 425.336 1465.01 424.49C1465.01 423.644 1465.67 422.962 1466.49 422.962C1467.31 422.962 1467.97 423.647 1467.97 424.49Z" fill="#ECE4C3"/>
<path d="M1461.96 955.528C1461.96 956.371 1461.29 957.056 1460.48 957.056C1459.66 957.056 1459 956.374 1459 955.528C1459 954.682 1459.66 954 1460.48 954C1461.3 954 1461.96 954.685 1461.96 955.528Z" fill="#ECE4C3"/>
<path d="M1300.11 279.097C1300.11 279.94 1299.45 280.625 1298.63 280.625C1297.81 280.625 1297.15 279.94 1297.15 279.097C1297.15 278.255 1297.81 277.569 1298.63 277.569C1299.45 277.569 1300.11 278.255 1300.11 279.097Z" fill="#ECE4C3"/>
<path d="M1239.59 311.953C1239.59 312.796 1238.93 313.481 1238.11 313.481C1237.29 313.481 1236.63 312.796 1236.63 311.953C1236.63 311.11 1237.29 310.425 1238.11 310.425C1238.93 310.425 1239.59 311.11 1239.59 311.953Z" fill="#ECE4C3"/>
<path d="M1231.87 15.2214C1231.87 16.0641 1231.21 16.7494 1230.39 16.7494C1229.57 16.7494 1228.91 16.0641 1228.91 15.2214C1228.91 14.3787 1229.58 13.6934 1230.39 13.6934C1231.21 13.6934 1231.87 14.3754 1231.87 15.2214Z" fill="#ECE4C3"/>
<path d="M1499.52 102.541C1499.52 103.383 1498.86 104.069 1498.04 104.069C1497.22 104.069 1496.56 103.383 1496.56 102.541C1496.56 101.698 1497.23 101.013 1498.04 101.013C1498.86 101.013 1499.52 101.698 1499.52 102.541Z" fill="#ECE4C3"/>
<path d="M861.54 63.8649C861.54 64.7076 860.877 65.3929 860.061 65.3929C859.245 65.3929 858.582 64.7076 858.582 63.8649C858.582 63.0222 859.242 62.3369 860.061 62.3369C860.88 62.3369 861.54 63.0222 861.54 63.8649Z" fill="#ECE4C3"/>
<path d="M1308.83 4.57781C1308.83 5.42051 1308.17 6.10582 1307.35 6.10582C1306.54 6.10582 1305.88 5.42051 1305.88 4.57781C1305.88 3.73511 1306.54 3.0498 1307.35 3.0498C1308.17 3.0498 1308.83 3.73511 1308.83 4.57781Z" fill="#ECE4C3"/>
<path d="M1467.97 3.05242C1467.97 3.89512 1467.31 4.58043 1466.49 4.58043C1465.67 4.58043 1465.01 3.89512 1465.01 3.05242C1465.01 2.20972 1465.67 1.52441 1466.49 1.52441C1467.31 1.52441 1467.97 2.20972 1467.97 3.05242Z" fill="#ECE4C3"/>
<path d="M1353.87 248.996C1353.87 249.838 1353.2 250.524 1352.39 250.524C1351.57 250.524 1350.91 249.838 1350.91 248.996C1350.91 248.153 1351.57 247.468 1352.39 247.468C1353.21 247.468 1353.87 248.153 1353.87 248.996Z" fill="#ECE4C3"/>
<path d="M1503.96 391.161C1503.96 392.004 1503.3 392.689 1502.48 392.689C1501.66 392.689 1501 392.004 1501 391.161C1501 390.318 1501.66 389.633 1502.48 389.633C1503.29 389.633 1503.96 390.318 1503.96 391.161Z" fill="#ECE4C3"/>
<path d="M931.317 175.547C931.317 176.389 930.657 177.075 929.838 177.075C929.019 177.075 928.359 176.389 928.359 175.547C928.359 174.704 929.023 174.019 929.838 174.019C930.654 174.019 931.317 174.704 931.317 175.547Z" fill="#ECE4C3"/>
<path d="M175.47 114.912C175.47 115.754 174.809 116.44 173.991 116.44C173.172 116.44 172.512 115.754 172.512 114.912C172.512 114.069 173.172 113.384 173.991 113.384C174.809 113.384 175.47 114.066 175.47 114.912Z" fill="#ECE4C3"/>
<path d="M790.958 307.528C790.958 308.371 790.295 309.056 789.479 309.056C788.663 309.056 788 308.374 788 307.528C788 306.682 788.66 306 789.479 306C790.298 306 790.958 306.682 790.958 307.528Z" fill="#ECE4C3"/>
<path d="M932.958 321.528C932.958 322.371 932.295 323.056 931.479 323.056C930.663 323.056 930 322.374 930 321.528C930 320.682 930.66 320 931.479 320C932.298 320 932.958 320.682 932.958 321.528Z" fill="#ECE4C3"/>
<path d="M708.524 247.468C708.524 248.311 707.861 248.996 707.045 248.996C706.23 248.996 705.566 248.314 705.566 247.468C705.566 246.622 706.23 245.94 707.045 245.94C707.861 245.94 708.524 246.626 708.524 247.468Z" fill="#ECE4C3"/>
<path d="M701.575 171.31C701.575 172.153 700.912 172.838 700.096 172.838C699.281 172.838 698.617 172.153 698.617 171.31C698.617 170.468 699.281 169.782 700.096 169.782C700.912 169.782 701.575 170.468 701.575 171.31Z" fill="#ECE4C3"/>
<path d="M1083.09 6.10516C1083.09 6.94785 1082.43 7.63316 1081.61 7.63316C1080.79 7.63316 1080.13 6.94785 1080.13 6.10516C1080.13 5.26246 1080.79 4.57715 1081.61 4.57715C1082.43 4.57715 1083.09 5.26246 1083.09 6.10516Z" fill="#ECE4C3"/>
<path d="M1302.62 37.8161C1302.62 38.6588 1301.96 39.3441 1301.14 39.3441C1300.32 39.3441 1299.66 38.6588 1299.66 37.8161C1299.66 36.9734 1300.32 36.2881 1301.14 36.2881C1301.96 36.2881 1302.62 36.9734 1302.62 37.8161Z" fill="#ECE4C3"/>
<path d="M383.431 16.7487C383.431 17.5914 382.767 18.2767 381.952 18.2767C381.136 18.2767 380.473 17.5947 380.473 16.7487C380.473 15.9027 381.136 15.2207 381.952 15.2207C382.767 15.2207 383.431 15.906 383.431 16.7487Z" fill="#ECE4C3"/>
<path d="M90.5124 204.41C90.773 202.745 89.6784 201.178 88.0676 200.909C86.4567 200.639 84.9395 201.77 84.6789 203.435C84.4183 205.099 85.5129 206.667 87.1238 206.936C88.7347 207.205 90.2518 206.074 90.5124 204.41Z" fill="#ECE4C3"/>
<path d="M8.00155 159.611C9.63338 159.611 10.9562 158.245 10.9562 156.559C10.9562 154.873 9.63338 153.506 8.00155 153.506C6.36973 153.506 5.04688 154.873 5.04688 156.559C5.04688 158.245 6.36973 159.611 8.00155 159.611Z" fill="#ECE4C3"/>
<path d="M20.167 294.331C21.6785 293.696 22.4053 291.915 21.7903 290.353C21.1753 288.791 19.4514 288.04 17.9399 288.676C16.4284 289.311 15.7017 291.092 16.3167 292.654C16.9316 294.215 18.6555 294.966 20.167 294.331Z" fill="#ECE4C3"/>
<path d="M1279.96 743.806C1281.48 743.17 1282.2 741.389 1281.59 739.827C1280.97 738.266 1279.25 737.515 1277.74 738.15C1276.23 738.786 1275.5 740.567 1276.11 742.128C1276.73 743.69 1278.45 744.441 1279.96 743.806Z" fill="#ECE4C3"/>
<path d="M3.56796 543.643C5.19978 543.643 6.52264 542.276 6.52264 540.59C6.52264 538.904 5.19978 537.537 3.56796 537.537C1.93614 537.537 0.613281 538.904 0.613281 540.59C0.613281 542.276 1.93614 543.643 3.56796 543.643Z" fill="#ECE4C3"/>
<path d="M1485 663.334C1485.55 663.334 1486 662.871 1486 662.301C1486 661.73 1485.55 661.268 1485 661.268C1484.45 661.268 1484 661.73 1484 662.301C1484 662.871 1484.45 663.334 1485 663.334Z" fill="#ECE4C3"/>
<path d="M1431.95 700.528C1433.03 700.528 1433.91 699.624 1433.91 698.509C1433.91 697.393 1433.03 696.489 1431.95 696.489C1430.88 696.489 1430 697.393 1430 698.509C1430 699.624 1430.88 700.528 1431.95 700.528Z" fill="#ECE4C3"/>
<path d="M1467.95 611.674C1469.03 611.674 1469.91 610.77 1469.91 609.654C1469.91 608.539 1469.03 607.635 1467.95 607.635C1466.88 607.635 1466 608.539 1466 609.654C1466 610.77 1466.88 611.674 1467.95 611.674Z" fill="#ECE4C3"/>
<path d="M1450.95 505.256C1452.59 505.256 1453.91 503.889 1453.91 502.203C1453.91 500.517 1452.59 499.15 1450.95 499.15C1449.32 499.15 1448 500.517 1448 502.203C1448 503.889 1449.32 505.256 1450.95 505.256Z" fill="#ECE4C3"/>
<path d="M573.107 22.8545C574.739 22.8545 576.062 21.4877 576.062 19.8018C576.062 18.1158 574.739 16.749 573.107 16.749C571.475 16.749 570.152 18.1158 570.152 19.8018C570.152 21.4877 571.475 22.8545 573.107 22.8545Z" fill="#ECE4C3"/>
<path d="M1008.78 41.5554C1009.16 39.9145 1008.17 38.2703 1006.58 37.883C1005 37.4957 1003.41 38.512 1003.03 40.1529C1002.66 41.7938 1003.64 43.438 1005.23 43.8253C1006.82 44.2126 1008.41 43.1963 1008.78 41.5554Z" fill="#ECE4C3"/>
<path d="M1323.95 551.105C1325.59 551.105 1326.91 549.739 1326.91 548.053C1326.91 546.367 1325.59 545 1323.95 545C1322.32 545 1321 546.367 1321 548.053C1321 549.739 1322.32 551.105 1323.95 551.105Z" fill="#ECE4C3"/>
<path d="M1383.35 204.433C1383.61 202.769 1382.52 201.2 1380.91 200.93C1379.3 200.66 1377.78 201.79 1377.52 203.454C1377.26 205.119 1378.35 206.687 1379.96 206.957C1381.57 207.227 1383.09 206.097 1383.35 204.433Z" fill="#ECE4C3"/>
<path d="M1393.77 28.7322C1395.28 28.087 1396 26.3013 1395.37 24.7437C1394.75 23.1861 1393.02 22.4463 1391.51 23.0915C1390 23.7367 1389.29 25.5225 1389.91 27.0801C1390.54 28.6378 1392.26 29.3774 1393.77 28.7322Z" fill="#ECE4C3"/>
<path d="M1414.95 669.105C1416.59 669.105 1417.91 667.739 1417.91 666.053C1417.91 664.367 1416.59 663 1414.95 663C1413.32 663 1412 664.367 1412 666.053C1412 667.739 1413.32 669.105 1414.95 669.105Z" fill="#ECE4C3"/>
<path d="M1023.34 182.605C1024.85 181.96 1025.56 180.174 1024.94 178.617C1024.31 177.059 1022.59 176.319 1021.08 176.965C1019.57 177.61 1018.85 179.396 1019.48 180.953C1020.1 182.511 1021.83 183.25 1023.34 182.605Z" fill="#ECE4C3"/>
<path d="M892.025 102.54C893.657 102.54 894.98 101.173 894.98 99.4873C894.98 97.8013 893.657 96.4346 892.025 96.4346C890.393 96.4346 889.07 97.8013 889.07 99.4873C889.07 101.173 890.393 102.54 892.025 102.54Z" fill="#ECE4C3"/>
<path d="M1455.53 387.519C1457.16 387.519 1458.49 386.152 1458.49 384.466C1458.49 382.78 1457.16 381.413 1455.53 381.413C1453.9 381.413 1452.58 382.78 1452.58 384.466C1452.58 386.152 1453.9 387.519 1455.53 387.519Z" fill="#ECE4C3"/>
<path d="M461.338 12.2109C462.969 12.2109 464.292 10.8442 464.292 9.1582C464.292 7.47222 462.969 6.10547 461.338 6.10547C459.706 6.10547 458.383 7.47222 458.383 9.1582C458.383 10.8442 459.706 12.2109 461.338 12.2109Z" fill="#ECE4C3"/>
<path d="M706.009 18.2734C707.641 18.2734 708.964 16.9067 708.964 15.2207C708.964 13.5347 707.641 12.168 706.009 12.168C704.378 12.168 703.055 13.5347 703.055 15.2207C703.055 16.9067 704.378 18.2734 706.009 18.2734Z" fill="#ECE4C3"/>
<path d="M1155.37 48.1719C1157 48.1719 1158.33 46.8051 1158.33 45.1191C1158.33 43.4332 1157 42.0664 1155.37 42.0664C1153.74 42.0664 1152.42 43.4332 1152.42 45.1191C1152.42 46.8051 1153.74 48.1719 1155.37 48.1719Z" fill="#ECE4C3"/>
<path d="M790.779 155.535C791.041 153.871 789.947 152.303 788.336 152.033C786.725 151.763 785.208 152.893 784.946 154.557C784.685 156.221 785.778 157.789 787.389 158.059C789 158.33 790.518 157.199 790.779 155.535Z" fill="#ECE4C3"/>
<path d="M1334.27 365.114C1335.42 363.922 1335.42 361.989 1334.27 360.796C1333.11 359.604 1331.24 359.604 1330.09 360.796C1328.94 361.989 1328.94 363.922 1330.09 365.114C1331.24 366.306 1333.11 366.306 1334.27 365.114Z" fill="#ECE4C3"/>
<path d="M890.991 309.808C892.499 309.163 893.215 307.377 892.59 305.82C891.966 304.262 890.237 303.523 888.73 304.168C887.222 304.813 886.506 306.599 887.131 308.156C887.755 309.714 889.484 310.454 890.991 309.808Z" fill="#ECE4C3"/>
<path d="M1086.81 296.168C1087.96 294.976 1087.96 293.043 1086.81 291.851C1085.65 290.659 1083.78 290.659 1082.63 291.851C1081.47 293.043 1081.47 294.976 1082.63 296.168C1083.78 297.361 1085.65 297.361 1086.81 296.168Z" fill="#ECE4C3"/>
<path d="M329.43 39.974C330.584 38.7819 330.584 36.849 329.43 35.6568C328.276 34.4647 326.405 34.4646 325.251 35.6568C324.098 36.849 324.098 38.7819 325.251 39.974C326.405 41.1662 328.276 41.1662 329.43 39.974Z" fill="#ECE4C3"/>
<path d="M36.9547 451.53C38.5865 451.53 39.9094 450.164 39.9094 448.478C39.9094 446.792 38.5865 445.425 36.9547 445.425C35.3229 445.425 34 446.792 34 448.478C34 450.164 35.3229 451.53 36.9547 451.53Z" fill="#ECE4C3"/>
<path d="M536.257 86.9026C538.521 86.9026 540.357 85.0059 540.357 82.6661C540.357 80.3264 538.521 78.4297 536.257 78.4297C533.992 78.4297 532.156 80.3264 532.156 82.6661C532.156 85.0059 533.992 86.9026 536.257 86.9026Z" fill="#ECE4C3"/>
<path d="M258.414 176.108C258.717 173.79 257.143 171.656 254.899 171.343C252.655 171.03 250.59 172.656 250.287 174.974C249.984 177.293 251.558 179.427 253.802 179.74C256.046 180.053 258.111 178.427 258.414 176.108Z" fill="#ECE4C3"/>
<path d="M149.487 44.053C149.487 44.6432 149.023 45.1186 148.455 45.1186C147.887 45.1186 147.424 44.6399 147.424 44.053C147.424 43.466 147.887 42.9873 148.455 42.9873C149.023 42.9873 149.487 43.466 149.487 44.053Z" fill="#ECE4C3"/>
<path d="M342.317 86.9026C342.317 87.4928 341.853 87.9683 341.285 87.9683C340.717 87.9683 340.254 87.4895 340.254 86.9026C340.254 86.3156 340.717 85.8369 341.285 85.8369C341.853 85.8369 342.317 86.3156 342.317 86.9026Z" fill="#ECE4C3"/>
<path d="M200.684 69.4915C200.684 70.0817 200.221 70.5571 199.653 70.5571C199.084 70.5571 198.621 70.0784 198.621 69.4915C198.621 68.9045 199.084 68.4258 199.653 68.4258C200.221 68.4258 200.684 68.9045 200.684 69.4915Z" fill="#ECE4C3"/>
<path d="M8.59218 595.827C8.59218 596.418 8.12882 596.893 7.56074 596.893C6.99265 596.893 6.5293 596.414 6.5293 595.827C6.5293 595.24 6.99265 594.762 7.56074 594.762C8.12882 594.762 8.59218 595.24 8.59218 595.827Z" fill="#ECE4C3"/>
<path d="M911.86 4.57739C911.86 5.1676 911.396 5.64306 910.828 5.64306C910.26 5.64306 909.797 5.16433 909.797 4.57739C909.797 3.99045 910.26 3.51172 910.828 3.51172C911.396 3.51172 911.86 3.99045 911.86 4.57739Z" fill="#ECE4C3"/>
<path d="M469.551 313.018C469.551 313.608 469.088 314.083 468.52 314.083C467.952 314.083 467.488 313.605 467.488 313.018C467.488 312.431 467.952 311.952 468.52 311.952C469.088 311.952 469.551 312.431 469.551 313.018Z" fill="#ECE4C3"/>
<path d="M20.2424 732.441C20.812 732.441 21.2738 731.964 21.2738 731.375C21.2738 730.787 20.812 730.31 20.2424 730.31C19.6727 730.31 19.2109 730.787 19.2109 731.375C19.2109 731.964 19.6727 732.441 20.2424 732.441Z" fill="#ECE4C3"/>
<path d="M331.329 230.05C331.329 230.64 330.865 231.116 330.297 231.116C329.729 231.116 329.266 230.637 329.266 230.05C329.266 229.463 329.729 228.984 330.297 228.984C330.865 228.984 331.329 229.463 331.329 230.05Z" fill="#ECE4C3"/>
<path d="M325.416 503.475C325.416 504.065 324.953 504.541 324.385 504.541C323.817 504.541 323.354 504.062 323.354 503.475C323.354 502.888 323.817 502.409 324.385 502.409C324.953 502.409 325.416 502.888 325.416 503.475Z" fill="#ECE4C3"/>
<path d="M1240.18 48.1711C1240.18 48.7614 1239.72 49.2368 1239.15 49.2368C1238.58 49.2368 1238.12 48.7581 1238.12 48.1711C1238.12 47.5842 1238.58 47.1055 1239.15 47.1055C1239.72 47.1055 1240.18 47.5842 1240.18 48.1711Z" fill="#ECE4C3"/>
<path d="M188.977 195.854C188.977 196.444 188.514 196.919 187.946 196.919C187.377 196.919 186.914 196.441 186.914 195.854C186.914 195.267 187.377 194.788 187.946 194.788C188.514 194.788 188.977 195.267 188.977 195.854Z" fill="#ECE4C3"/>
<path d="M89.0316 410.858C89.0316 411.448 88.5683 411.923 88.0002 411.923C87.4321 411.923 86.9688 411.445 86.9688 410.858C86.9688 410.271 87.4321 409.792 88.0002 409.792C88.5683 409.792 89.0316 410.271 89.0316 410.858Z" fill="#ECE4C3"/>
<path d="M98.0629 188.194C98.0629 188.784 97.5995 189.259 97.0314 189.259C96.4634 189.259 96 188.781 96 188.194C96 187.607 96.4634 187.128 97.0314 187.128C97.5995 187.128 98.0629 187.607 98.0629 188.194Z" fill="#ECE4C3"/>
<path d="M1460.13 235.897C1460.13 236.487 1459.67 236.962 1459.1 236.962C1458.53 236.962 1458.07 236.484 1458.07 235.897C1458.07 235.31 1458.53 234.831 1459.1 234.831C1459.67 234.831 1460.13 235.31 1460.13 235.897Z" fill="#ECE4C3"/>
<path d="M1009.94 85.8372C1009.94 86.4274 1009.47 86.9028 1008.91 86.9028C1008.34 86.9028 1007.88 86.4241 1007.88 85.8372C1007.88 85.2502 1008.34 84.7715 1008.91 84.7715C1009.47 84.7715 1009.94 85.2502 1009.94 85.8372Z" fill="#ECE4C3"/>
<path d="M143.063 895.066C143.063 895.656 142.6 896.131 142.031 896.131C141.463 896.131 141 895.653 141 895.066C141 894.479 141.463 894 142.031 894C142.6 894 143.063 894.479 143.063 895.066Z" fill="#ECE4C3"/>
<path d="M514.489 177.682C514.489 178.272 514.025 178.748 513.457 178.748C512.889 178.748 512.426 178.269 512.426 177.682C512.426 177.095 512.889 176.616 513.457 176.616C514.025 176.616 514.489 177.095 514.489 177.682Z" fill="#ECE4C3"/>
<path d="M162.805 236.962C162.805 237.552 162.342 238.028 161.774 238.028C161.206 238.028 160.742 237.549 160.742 236.962C160.742 236.375 161.206 235.896 161.774 235.896C162.342 235.896 162.805 236.375 162.805 236.962Z" fill="#ECE4C3"/>
<path d="M134.008 336.989C134.008 337.579 133.545 338.054 132.977 338.054C132.409 338.054 131.945 337.575 131.945 336.989C131.945 336.402 132.409 335.923 132.977 335.923C133.545 335.923 134.008 336.402 134.008 336.989Z" fill="#ECE4C3"/>
<path d="M450.7 102.54C450.7 103.13 450.236 103.606 449.668 103.606C449.1 103.606 448.637 103.127 448.637 102.54C448.637 101.953 449.1 101.475 449.668 101.475C450.236 101.475 450.7 101.953 450.7 102.54Z" fill="#ECE4C3"/>
<path d="M33.598 259.86C33.598 260.45 33.1347 260.925 32.5666 260.925C31.9985 260.925 31.5352 260.447 31.5352 259.86C31.5352 259.273 31.9985 258.794 32.5666 258.794C33.1347 258.794 33.598 259.273 33.598 259.86Z" fill="#ECE4C3"/>
<path d="M381.952 78.4299C381.952 79.0201 381.488 79.4956 380.92 79.4956C380.352 79.4956 379.889 79.0169 379.889 78.4299C379.889 77.843 380.352 77.3643 380.92 77.3643C381.488 77.3643 381.952 77.843 381.952 78.4299Z" fill="#ECE4C3"/>
<path d="M707.047 113.843C707.047 114.433 706.584 114.909 706.016 114.909C705.448 114.909 704.984 114.43 704.984 113.843C704.984 113.256 705.448 112.777 706.016 112.777C706.584 112.777 707.047 113.256 707.047 113.843Z" fill="#ECE4C3"/>
<path d="M600.071 165.146C600.071 165.736 599.607 166.211 599.039 166.211C598.471 166.211 598.008 165.733 598.008 165.146C598.008 164.559 598.471 164.08 599.039 164.08C599.607 164.08 600.071 164.559 600.071 165.146Z" fill="#ECE4C3"/>
<path d="M785.903 77.3606C785.903 77.9508 785.439 78.4263 784.871 78.4263C784.303 78.4263 783.84 77.9475 783.84 77.3606C783.84 76.7737 784.303 76.2949 784.871 76.2949C785.439 76.2949 785.903 76.7737 785.903 77.3606Z" fill="#ECE4C3"/>
<path d="M632.094 87.968C632.094 88.5582 631.631 89.0337 631.063 89.0337C630.495 89.0337 630.031 88.555 630.031 87.968C630.031 87.3811 630.495 86.9023 631.063 86.9023C631.631 86.9023 632.094 87.3811 632.094 87.968Z" fill="#ECE4C3"/>
<path fill-rule="evenodd" clip-rule="evenodd" d="M467.078 834.151H420.306C413.724 834.151 408.384 828.638 408.384 821.833C408.384 815.028 413.72 809.515 420.306 809.515H433.846C440.429 809.515 445.768 804.002 445.768 797.198C445.768 790.393 440.432 784.88 433.846 784.88H228.992C222.409 784.88 217.07 790.393 217.07 797.198C217.07 804.002 222.406 809.515 228.992 809.515H371.449C378.032 809.515 383.371 815.028 383.371 821.833C383.371 828.638 378.035 834.151 371.449 834.151H170.922C164.339 834.151 159 839.664 159 846.468C159 853.273 164.336 858.786 170.922 858.786H308.971C315.554 858.786 320.893 864.299 320.893 871.104C320.893 877.908 315.557 883.421 308.971 883.421H296.676C290.093 883.421 284.754 888.934 284.754 895.739C284.754 902.544 290.09 908.057 296.676 908.057H422.748C429.331 908.057 434.67 902.544 434.67 895.739C434.67 888.934 429.334 883.421 422.748 883.421H357.823C351.24 883.421 345.901 877.908 345.901 871.104C345.901 864.299 351.237 858.786 357.823 858.786H467.078C473.661 858.786 479 853.273 479 846.468C479 839.664 473.664 834.151 467.078 834.151Z" fill="url(#paint4_linear_128_12680)"/>
<path d="M190.183 806.563C195.978 806.563 200.676 801.709 200.676 795.721C200.676 789.734 195.978 784.88 190.183 784.88C184.387 784.88 179.689 789.734 179.689 795.721C179.689 801.709 184.387 806.563 190.183 806.563Z" fill="url(#paint5_linear_128_12680)"/>
<path d="M1098.19 158.97C1093.12 158.97 1089 163.015 1089 167.985C1089 172.956 1093.12 177 1098.19 177H1306.17C1311.24 177 1315.36 172.956 1315.36 167.985C1315.36 163.015 1311.24 158.97 1306.17 158.97H1296.79C1290.83 158.97 1285.98 154.21 1285.98 148.362C1285.98 142.514 1290.83 137.754 1296.79 137.754H1350.4C1355.46 137.754 1359.59 133.709 1359.59 128.739C1359.59 123.768 1355.46 119.724 1350.4 119.724H1208.36C1203.3 119.724 1199.17 123.768 1199.17 128.739C1199.17 133.709 1203.3 137.754 1208.36 137.754H1255.82C1261.78 137.754 1266.63 142.514 1266.63 148.362C1266.63 154.21 1261.78 158.97 1255.82 158.97H1098.19Z" fill="url(#paint6_linear_128_12680)"/>
<path d="M1383.29 137.564C1388.33 137.564 1392.42 133.55 1392.42 128.599C1392.42 123.648 1388.33 119.634 1383.29 119.634C1378.24 119.634 1374.15 123.648 1374.15 128.599C1374.15 133.55 1378.24 137.564 1383.29 137.564Z" fill="url(#paint7_linear_128_12680)"/>
<path fill-rule="evenodd" clip-rule="evenodd" d="M1229.13 98.9716C1234.86 98.9716 1239.51 94.4125 1239.51 88.7856C1239.51 83.1586 1234.86 78.5996 1229.13 78.5996H1157.7C1151.97 78.5996 1147.32 83.1586 1147.32 88.7856C1147.32 94.4125 1151.96 98.9716 1157.7 98.9716H1229.13Z" fill="url(#paint8_linear_128_12680)"/>
<defs>
<linearGradient id="paint0_linear_128_12680" x1="194" y1="404.505" x2="397" y2="404.505" gradientUnits="userSpaceOnUse">
<stop stop-color="#FBD099"/>
<stop offset="0.598958" stop-color="#FCEFDF"/>
<stop offset="1" stop-color="#FFE299"/>
</linearGradient>
<linearGradient id="paint1_linear_128_12680" x1="194" y1="404.505" x2="397" y2="404.505" gradientUnits="userSpaceOnUse">
<stop stop-color="#FBD099"/>
<stop offset="0.598958" stop-color="#FCEFDF"/>
<stop offset="1" stop-color="#FFE299"/>
</linearGradient>
<linearGradient id="paint2_linear_128_12680" x1="282.301" y1="391.168" x2="309.403" y2="391.168" gradientUnits="userSpaceOnUse">
<stop stop-color="#FBD099"/>
<stop offset="0.598958" stop-color="#FCEFDF"/>
<stop offset="1" stop-color="#FFE299"/>
</linearGradient>
<linearGradient id="paint3_linear_128_12680" x1="282.301" y1="391.168" x2="309.403" y2="391.168" gradientUnits="userSpaceOnUse">
<stop stop-color="#FBD099"/>
<stop offset="0.598958" stop-color="#FCEFDF"/>
<stop offset="1" stop-color="#FFE299"/>
</linearGradient>
<linearGradient id="paint4_linear_128_12680" x1="159" y1="846.465" x2="479" y2="846.465" gradientUnits="userSpaceOnUse">
<stop stop-color="#F9F7ED"/>
<stop offset="1" stop-color="#EBE3C0"/>
</linearGradient>
<linearGradient id="paint5_linear_128_12680" x1="179.689" y1="795.721" x2="200.676" y2="795.721" gradientUnits="userSpaceOnUse">
<stop stop-color="#EBE3C1"/>
<stop offset="1" stop-color="#EBE3C0"/>
</linearGradient>
<linearGradient id="paint6_linear_128_12680" x1="1089" y1="148.362" x2="1359.59" y2="148.362" gradientUnits="userSpaceOnUse">
<stop stop-color="#FBD099"/>
<stop offset="0.598958" stop-color="#FCEFDF"/>
<stop offset="1" stop-color="#FFE299"/>
</linearGradient>
<linearGradient id="paint7_linear_128_12680" x1="1374.15" y1="128.599" x2="1392.42" y2="128.599" gradientUnits="userSpaceOnUse">
<stop stop-color="#EBE3C1"/>
<stop offset="1" stop-color="#EBE3C0"/>
</linearGradient>
<linearGradient id="paint8_linear_128_12680" x1="1147.32" y1="88.7882" x2="1239.51" y2="88.7882" gradientUnits="userSpaceOnUse">
<stop stop-color="#F9F7ED"/>
<stop offset="1" stop-color="#EBE3C0"/>
</linearGradient>
</defs>
</svg>
