<svg width="34" height="34" viewBox="0 0 34 34" fill="none" xmlns="http://www.w3.org/2000/svg">
<path d="M28 17C28 27.4934 27.4934 28 17 28C6.50659 28 6 27.4934 6 17C6 6.50659 6.50659 6 17 6C27.4934 6 28 6.50659 28 17Z" fill="#1A1A1A"/>
<path d="M12.5 24.2625C11.5375 24.2625 10.85 23.65 10.85 22.775C10.85 22.3375 10.9875 21.9875 11.3375 21.525L14.475 17.325L11.35 13.0625C11.0875 12.7125 10.9625 12.35 10.9625 11.925C10.9625 11.0125 11.7125 10.325 12.7125 10.325C13.45 10.325 13.8375 10.5875 14.325 11.3625L16.825 15.125H16.9L19.35 11.3875C19.8375 10.625 20.225 10.325 20.9 10.325C21.925 10.325 22.6125 10.95 22.6125 11.875C22.6125 12.325 22.475 12.6875 22.125 13.1375L19.0625 17.225L22.175 21.525C22.45 21.9 22.575 22.25 22.575 22.65C22.575 23.6375 21.825 24.2625 20.8375 24.2625C20.125 24.2625 19.775 23.9625 19.3625 23.3375L16.7 19.35H16.625L14.0125 23.275C13.5125 24.05 13.15 24.2625 12.5 24.2625Z" fill="url(#paint0_linear_724_15843)"/>
<path fill-rule="evenodd" clip-rule="evenodd" d="M16.5342 27.9996C14.9688 27.997 13.6356 27.979 12.5 27.9114C8.05296 27.6469 6.63854 26.6216 6.19621 22.775C6.11445 22.064 6.06591 21.2566 6.03756 20.3398C6.00718 19.3575 6 18.2495 6 17C6 15.9039 6.00553 14.9168 6.02739 14.0278C6.04639 13.2551 6.07773 12.5565 6.12851 11.925C6.48961 7.43435 7.83362 6.33554 12.7125 6.07661C13.7255 6.02285 14.8908 6.00529 16.2314 6.0011C16.4815 6.00032 16.7376 6 17 6C17.1554 6 17.3087 6.00011 17.4598 6.00036C18.76 6.00254 19.9002 6.01523 20.9 6.05808C23.3666 6.16378 24.9789 6.45299 26.0318 7.22058C26.8555 7.82107 27.3368 8.71433 27.6169 10.0415C27.7268 10.5624 27.8057 11.1501 27.8622 11.8131C27.9796 13.191 28 14.8945 28 17C28 19.3126 27.9754 21.1402 27.8247 22.5842C27.8224 22.6062 27.8201 22.6281 27.8177 22.65C27.3712 26.7872 25.8598 27.7368 20.8375 27.9446C19.7359 27.9901 18.4653 28 17 28C16.9331 28 16.8666 28 16.8005 27.9999C16.711 27.9999 16.6222 27.9998 16.5342 27.9996ZM23.8676 32.957C21.9228 33.227 19.5545 33.25 17 33.25C14.4455 33.25 12.0772 33.227 10.1324 32.957C8.18075 32.6861 5.76886 32.0635 3.85266 30.1473C1.93646 28.2311 1.31393 25.8193 1.04299 23.8676C0.772998 21.9228 0.75 19.5545 0.75 17C0.75 14.4455 0.772998 12.0772 1.04299 10.1324C1.31393 8.18075 1.93646 5.76886 3.85266 3.85266C5.76886 1.93646 8.18075 1.31393 10.1324 1.04299C12.0772 0.772998 14.4455 0.75 17 0.75C19.5545 0.75 21.9228 0.772998 23.8676 1.04299C25.8193 1.31393 28.2311 1.93646 30.1473 3.85266C32.0635 5.76886 32.6861 8.18075 32.957 10.1324C33.227 12.0772 33.25 14.4455 33.25 17C33.25 19.5545 33.227 21.9228 32.957 23.8676C32.6861 25.8193 32.0635 28.2311 30.1473 30.1473C28.2311 32.0635 25.8193 32.6861 23.8676 32.957Z" fill="url(#paint1_linear_724_15843)"/>
<defs>
<linearGradient id="paint0_linear_724_15843" x1="0.75" y1="17" x2="33.25" y2="17" gradientUnits="userSpaceOnUse">
<stop stop-color="#FBD099"/>
<stop offset="0.598958" stop-color="#FCEFDF"/>
<stop offset="1" stop-color="#FFE299"/>
</linearGradient>
<linearGradient id="paint1_linear_724_15843" x1="0.75" y1="17" x2="33.25" y2="17" gradientUnits="userSpaceOnUse">
<stop stop-color="#FBD099"/>
<stop offset="0.598958" stop-color="#FCEFDF"/>
<stop offset="1" stop-color="#FFE299"/>
</linearGradient>
</defs>
</svg>
