<svg width="38" height="38" viewBox="0 0 38 38" fill="none" xmlns="http://www.w3.org/2000/svg">
<path d="M38 19C38 29.4934 29.4934 38 19 38C8.50659 38 0 29.4934 0 19C0 8.50659 8.50659 0 19 0C29.4934 0 38 8.50659 38 19Z" fill="#1A1A1A"/>
<path fill-rule="evenodd" clip-rule="evenodd" d="M19 32.75C26.5939 32.75 32.75 26.5939 32.75 19C32.75 11.4061 26.5939 5.25 19 5.25C11.4061 5.25 5.25 11.4061 5.25 19C5.25 26.5939 11.4061 32.75 19 32.75ZM19 38C29.4934 38 38 29.4934 38 19C38 8.50659 29.4934 0 19 0C8.50659 0 0 8.50659 0 19C0 29.4934 8.50659 38 19 38Z" fill="url(#paint0_linear_724_15842)"/>
<path d="M14.5016 26.2627C13.5391 26.2627 12.8516 25.6502 12.8516 24.7752C12.8516 24.3377 12.9891 23.9877 13.3391 23.5252L16.4766 19.3252L13.3516 15.0627C13.0891 14.7127 12.9641 14.3502 12.9641 13.9252C12.9641 13.0127 13.7141 12.3252 14.7141 12.3252C15.4516 12.3252 15.8391 12.5877 16.3266 13.3627L18.8266 17.1252H18.9016L21.3516 13.3877C21.8391 12.6252 22.2266 12.3252 22.9016 12.3252C23.9266 12.3252 24.6141 12.9502 24.6141 13.8752C24.6141 14.3252 24.4766 14.6877 24.1266 15.1377L21.0641 19.2252L24.1766 23.5252C24.4516 23.9002 24.5766 24.2502 24.5766 24.6502C24.5766 25.6377 23.8266 26.2627 22.8391 26.2627C22.1266 26.2627 21.7766 25.9627 21.3641 25.3377L18.7016 21.3502H18.6266L16.0141 25.2752C15.5141 26.0502 15.1516 26.2627 14.5016 26.2627Z" fill="url(#paint1_linear_724_15842)"/>
<defs>
<linearGradient id="paint0_linear_724_15842" x1="0" y1="19" x2="38" y2="19" gradientUnits="userSpaceOnUse">
<stop stop-color="#FBD099"/>
<stop offset="0.598958" stop-color="#FCEFDF"/>
<stop offset="1" stop-color="#FFE299"/>
</linearGradient>
<linearGradient id="paint1_linear_724_15842" x1="0" y1="19" x2="38" y2="19" gradientUnits="userSpaceOnUse">
<stop stop-color="#FBD099"/>
<stop offset="0.598958" stop-color="#FCEFDF"/>
<stop offset="1" stop-color="#FFE299"/>
</linearGradient>
</defs>
</svg>
