<svg width="34" height="34" viewBox="0 0 34 34" fill="none" xmlns="http://www.w3.org/2000/svg">
<path d="M28 17C28 27.4934 27.4934 28 17 28C6.50659 28 6 27.4934 6 17C6 6.50659 6.50659 6 17 6C27.4934 6 28 6.50659 28 17Z" fill="#1A1A1A"/>
<path d="M12.5 24.2625C11.5375 24.2625 10.85 23.65 10.85 22.775C10.85 22.3375 10.9875 21.9875 11.3375 21.525L14.475 17.325L11.35 13.0625C11.0875 12.7125 10.9625 12.35 10.9625 11.925C10.9625 11.0125 11.7125 10.325 12.7125 10.325C13.45 10.325 13.8375 10.5875 14.325 11.3625L16.825 15.125H16.9L19.35 11.3875C19.8375 10.625 20.225 10.325 20.9 10.325C21.925 10.325 22.6125 10.95 22.6125 11.875C22.6125 12.325 22.475 12.6875 22.125 13.1375L19.0625 17.225L22.175 21.525C22.45 21.9 22.575 22.25 22.575 22.65C22.575 23.6375 21.825 24.2625 20.8375 24.2625C20.125 24.2625 19.775 23.9625 19.3625 23.3375L16.7 19.35H16.625L14.0125 23.275C13.5125 24.05 13.15 24.2625 12.5 24.2625Z" fill="url(#paint0_linear_724_15831)"/>
<path d="M17 30.625C19.5889 30.625 21.7727 30.5977 23.5066 30.3569C25.244 30.1157 26.9735 29.6089 28.2912 28.2912C29.6089 26.9735 30.1157 25.244 30.3569 23.5066C30.5977 21.7727 30.625 19.5889 30.625 17C30.625 14.4111 30.5977 12.2273 30.3569 10.4934C30.1157 8.75598 29.6089 7.0265 28.2912 5.70882C26.9735 4.39113 25.244 3.88425 23.5066 3.64305C21.7727 3.40233 19.5889 3.375 17 3.375C14.4111 3.375 12.2273 3.40233 10.4934 3.64305C8.75598 3.88425 7.0265 4.39113 5.70882 5.70882C4.39113 7.0265 3.88425 8.75598 3.64305 10.4934C3.40233 12.2273 3.375 14.4111 3.375 17C3.375 19.5889 3.40233 21.7727 3.64305 23.5066C3.88425 25.244 4.39113 26.9735 5.70882 28.2912C7.0265 29.6089 8.75598 30.1157 10.4934 30.3569C12.2273 30.5977 14.4111 30.625 17 30.625Z" stroke="url(#paint1_linear_724_15831)" stroke-width="5.25"/>
<defs>
<linearGradient id="paint0_linear_724_15831" x1="6" y1="17" x2="28" y2="17" gradientUnits="userSpaceOnUse">
<stop stop-color="#FBD099"/>
<stop offset="0.598958" stop-color="#FCEFDF"/>
<stop offset="1" stop-color="#FFE299"/>
</linearGradient>
<linearGradient id="paint1_linear_724_15831" x1="6" y1="17" x2="28" y2="17" gradientUnits="userSpaceOnUse">
<stop stop-color="#FBD099"/>
<stop offset="0.598958" stop-color="#FCEFDF"/>
<stop offset="1" stop-color="#FFE299"/>
</linearGradient>
</defs>
</svg>
