<svg width="136" height="126" viewBox="0 0 136 126" fill="none" xmlns="http://www.w3.org/2000/svg">
<path d="M121.454 67.3001C121.454 97.6721 92.1583 109.959 68.0023 122.294C37.6789 107.389 14.5508 97.6721 14.5508 67.3001C14.5508 36.928 38.4819 12.3066 68.0023 12.3066C97.5228 12.3066 121.454 36.928 121.454 67.3001Z" fill="#F47762"/>
<circle cx="111.173" cy="24.642" r="23.642" fill="#F47762"/>
<circle cx="24.8295" cy="24.642" r="23.642" fill="#F47762"/>
<path d="M91.6429 49.3115L87.5312 59.0767L98.8383 57.0209L102.436 49.3115H91.6429Z" fill="url(#paint0_linear_156_1739)" stroke="url(#paint1_linear_156_1739)" stroke-width="3.08374" stroke-linecap="round" stroke-linejoin="round"/>
<path d="M43.8454 48.2842L47.957 58.0494L36.65 55.9935L33.0523 48.2842H43.8454Z" fill="url(#paint2_linear_156_1739)" stroke="url(#paint3_linear_156_1739)" stroke-width="3.08374" stroke-linecap="round" stroke-linejoin="round"/>
<path d="M73.6744 79.8266C73.3237 79.8266 72.9938 79.6888 72.7474 79.4425C72.5011 79.1961 72.3633 78.8663 72.3633 78.5155C72.3633 78.1648 72.5011 77.8391 72.7474 77.5886C74.6056 75.7304 75.6286 73.2585 75.6286 70.632C75.6286 68.0056 74.6056 65.5337 72.7474 63.6756C72.5011 63.4293 72.3633 63.0994 72.3633 62.7487C72.3633 62.3979 72.5011 62.0681 72.7474 61.8217C72.9938 61.5754 73.3237 61.4375 73.6744 61.4375C74.0252 61.4375 74.3509 61.5754 74.6014 61.8217C76.9564 64.1767 78.2508 67.3041 78.2508 70.632C78.2508 73.9599 76.9564 77.0875 74.6014 79.4425C74.3551 79.6888 74.0252 79.8266 73.6744 79.8266Z" fill="#1A1A1A" stroke="#1A1A1A" stroke-width="3.08374"/>
<path d="M62.2288 79.8266C61.878 79.8266 61.5481 79.6888 61.3018 79.4425C58.9509 77.0875 57.6523 73.9599 57.6523 70.632C57.6523 67.3041 58.9468 64.1767 61.3018 61.8217C61.5481 61.5754 61.878 61.4375 62.2288 61.4375C62.5795 61.4375 62.9094 61.5754 63.1557 61.8217C63.6651 62.3311 63.6651 63.162 63.1557 63.6715C61.2976 65.5296 60.2746 68.0015 60.2746 70.6279C60.2746 73.2543 61.2976 75.7263 63.1557 77.5844C63.6651 78.0938 63.6651 78.9247 63.1557 79.4341C62.9094 79.6805 62.5795 79.8182 62.2288 79.8182V79.8266Z" fill="#1A1A1A" stroke="#1A1A1A" stroke-width="3.08374"/>
<path d="M75.4036 49.0531C75.1865 49.0531 74.9819 49.0031 74.7898 48.8987L74.3514 48.6649C72.3889 47.6168 70.1759 47.0614 67.9503 47.0614C65.7248 47.0614 63.5117 47.6168 61.5534 48.6649L61.115 48.8987C60.9229 49.0031 60.7141 49.0531 60.5012 49.0531C60.0168 49.0531 59.57 48.786 59.3445 48.36C59.0063 47.7212 59.2443 46.9278 59.8832 46.5896L60.3216 46.3558C61.9459 45.4873 63.6954 44.9068 65.5327 44.6312L66.6434 44.4642V37.9754L65.8292 37.6414C64.6266 37.1528 63.3697 36.9065 62.0878 36.9065C59.2861 36.9065 56.6221 37.9713 54.5969 39.9088L53.9497 40.5267C53.7034 40.7606 53.3861 40.8899 53.0478 40.8899C52.6846 40.8899 52.3505 40.748 52.1 40.4849C51.8578 40.2302 51.7284 39.9004 51.7367 39.5496C51.7451 39.1989 51.887 38.8732 52.1417 38.631L52.7889 38.013C55.3068 35.6079 58.6096 34.2885 62.0878 34.2885C63.0774 34.2885 64.0671 34.4053 65.0316 34.6392L66.6475 35.0275V27.9041L65.9168 27.5449C63.6203 26.4134 61.0565 25.8163 58.5011 25.8163C53.7744 25.8163 49.2898 27.6117 45.8742 30.877L44.8345 31.8708C44.5882 32.1047 44.2666 32.2341 43.9326 32.2341C43.5693 32.2341 43.2353 32.0921 42.9847 31.829C42.7426 31.5743 42.6131 31.2445 42.6215 30.8937C42.6298 30.543 42.7718 30.2173 43.0265 29.9751L44.0662 28.9813C47.9746 25.2525 53.0979 23.1982 58.5011 23.1982C61.5659 23.1982 64.6307 23.9373 67.3615 25.3361L67.9587 25.6409L68.5557 25.3361C71.2865 23.9373 74.3514 23.1982 77.4163 23.1982C82.8194 23.1982 87.947 25.2525 91.8511 28.9813L92.8908 29.9751C93.1455 30.2173 93.2875 30.543 93.2958 30.8937C93.3042 31.2445 93.1747 31.5743 92.9325 31.829C92.682 32.0921 92.348 32.2341 91.9847 32.2341C91.6465 32.2341 91.325 32.1047 91.0828 31.8708L90.0431 30.877C86.6233 27.6159 82.1388 25.8163 77.4163 25.8163C74.8608 25.8163 72.2971 26.4134 70.0005 27.5449L69.2698 27.9041V35.0275L70.8857 34.6392C71.8503 34.4053 72.8399 34.2885 73.8295 34.2885C77.3077 34.2885 80.6105 35.6121 83.1284 38.013L83.7756 38.631C84.2976 39.1279 84.3184 39.9588 83.8174 40.4808C83.5668 40.7438 83.2328 40.8858 82.8695 40.8858C82.5313 40.8858 82.2098 40.7564 81.9676 40.5226L81.3204 39.9046C79.2911 37.9671 76.6312 36.9024 73.8295 36.9024C72.5476 36.9024 71.2866 37.1486 70.0882 37.6372L69.274 37.9713V44.4601L70.3846 44.6271C72.2177 44.9069 73.9715 45.4873 75.5958 46.3516L76.0342 46.5854C76.3431 46.7483 76.5686 47.0238 76.6688 47.3579C76.7691 47.6919 76.7357 48.0469 76.5728 48.3559C76.3432 48.7818 75.9005 49.049 75.4162 49.049L75.4036 49.0531Z" fill="#1A1A1A" stroke="#1A1A1A" stroke-width="3.08374"/>
<path d="M84.4518 61.8892C83.7294 61.8892 83.1406 61.3004 83.1406 60.5781V59.5175C83.1406 55.8096 84.5854 52.323 87.2076 49.705C89.8257 47.0869 93.3081 45.6463 97.0118 45.6463H97.3416C100.427 45.6463 103.275 43.972 104.774 41.2788C105.004 40.8654 105.442 40.6064 105.918 40.6064C106.027 40.6064 106.139 40.619 106.248 40.6482C106.824 40.7986 107.229 41.3204 107.229 41.9175V48.8322C107.229 56.035 101.371 61.8933 94.1682 61.8933H84.4476L84.4518 61.8892ZM90.0052 50.7154C89.667 50.9868 89.3497 51.2708 89.0616 51.5547C87.3621 53.2541 86.2681 55.3962 85.8965 57.7554L85.6585 59.2669H94.1682C94.3478 59.2669 94.5232 59.2627 94.6985 59.2544L96.9032 59.1416L91.1618 49.7885L90.0052 50.7154ZM97.0159 48.2644C96.5274 48.2644 96.0264 48.2978 95.5253 48.3646L93.5252 48.6276L99.2999 58.0351L100.452 57.1666C103.1 55.1707 104.62 52.1309 104.62 48.8281V45.8468L102.682 46.9032C101.054 47.7926 99.2123 48.2644 97.3584 48.2644H97.0243H97.0159Z" fill="#1A1A1A" stroke="#1A1A1A" stroke-width="3.08374"/>
<path d="M41.729 61.8885C34.5262 61.8885 28.668 56.0302 28.668 48.8274V41.9127C28.668 41.3156 29.073 40.7937 29.6492 40.6434C29.7578 40.6141 29.8664 40.6016 29.9791 40.6016C30.4551 40.6016 30.8935 40.8605 31.1232 41.2739C32.6222 43.9671 35.4657 45.6415 38.5514 45.6415H38.873C42.5892 45.6415 46.0716 47.082 48.6897 49.7001C51.3119 52.3223 52.7566 55.8047 52.7566 59.5126V60.5732C52.7566 61.2956 52.1679 61.8843 51.4455 61.8843H41.7248L41.729 61.8885ZM38.9941 59.1451L41.1988 59.2578C41.3741 59.2662 41.5495 59.2704 41.729 59.2704H50.2388L50.0008 57.7589C49.6333 55.3997 48.5394 53.2576 46.8357 51.5582C46.5476 51.2701 46.2303 50.9861 45.8921 50.7189L44.7354 49.7919L38.9941 59.1451ZM31.286 48.8274C31.286 52.1302 32.8059 55.17 35.4532 57.1659L36.6057 58.0344L42.3804 48.6269L40.3803 48.3639C39.8751 48.2971 39.374 48.2637 38.8897 48.2637H38.5598C36.6975 48.2637 34.8561 47.7919 33.2276 46.9025L31.2902 45.8461V48.8274H31.286Z" fill="#1A1A1A" stroke="#1A1A1A" stroke-width="3.08374"/>
<path d="M67.9504 124.292C60.8645 124.292 54.4007 120.117 51.4862 113.657L50.814 112.167L50.1501 112.037C37.9992 109.64 29.7985 101.339 25.9862 96.6001L25.0718 95.4644L22.153 98.3831C21.9067 98.6294 21.5768 98.7672 21.2261 98.7672C20.8753 98.7672 20.5497 98.6294 20.2991 98.3831C20.1906 98.2745 20.0987 98.1408 20.0319 97.9947L19.8106 97.502C16.5662 90.1155 15.2968 82.9251 14.8041 78.1483L14.5787 75.9645L12.6119 77.3049C12.3906 77.4552 12.1401 77.5345 11.877 77.5345C11.4428 77.5345 11.0378 77.3216 10.7956 76.9625C10.6829 76.7955 10.6077 76.6076 10.5826 76.403L10.5116 75.881C10.2026 73.4509 10.0482 70.9748 10.0482 68.5154C10.0482 60.5777 11.6182 52.8988 14.7164 45.696L15.1966 44.5812L14.1235 44.0175C11.0002 42.3765 8.27355 39.9714 6.23171 37.0611C3.6053 33.3114 2.21484 28.8979 2.21484 24.3048C2.21484 12.0245 12.207 2.0325 24.4914 2.0325C32.8174 2.0325 40.6257 6.83848 44.3837 14.2835L44.9306 15.3608L46.0497 14.9014C49.2565 13.5903 52.5969 12.5631 55.9749 11.8533C56.0668 11.8324 56.1587 11.8241 56.2463 11.8241C56.8601 11.8241 57.3988 12.2625 57.5241 12.8638C57.6744 13.5695 57.2192 14.2668 56.5136 14.4129C52.4675 15.2647 48.5091 16.5801 44.7469 18.3213C44.5716 18.4006 44.3878 18.4423 44.1957 18.4423C44.0204 18.4423 43.8534 18.4089 43.6905 18.3421C43.3523 18.2001 43.0892 17.9246 42.964 17.5822C40.1497 9.84493 32.7255 4.64639 24.4872 4.64639C21.7314 4.64639 19.059 5.21418 16.5411 6.32904L12.8834 7.95339L16.7958 8.80521C19.9609 9.49418 22.8879 10.8512 25.4935 12.8304C29.2682 15.7073 32.0783 19.7827 33.3978 24.3173C33.5439 24.8225 33.3769 25.3654 32.9677 25.6994C26.767 30.7727 21.652 37.2489 18.1696 44.4308L18.1445 44.4894C14.5076 52.0137 12.6662 60.0975 12.6662 68.5112C12.6662 69.5259 12.6955 70.5781 12.754 71.6345L12.8834 73.952L15.0964 72.4404C15.3136 72.2901 15.5682 72.2149 15.8355 72.2149C16.0484 72.2149 16.2614 72.2692 16.4493 72.3694C16.8794 72.5991 17.1466 73.0417 17.1424 73.5303C17.1424 73.6263 17.1633 82.9628 20.9338 93.268L21.6395 95.1929L24.3369 92.4997C24.5833 92.2533 24.9131 92.1156 25.2597 92.1156C25.3056 92.1156 25.3515 92.1156 25.3974 92.1239C25.7941 92.1657 26.1449 92.3828 26.362 92.7168C26.3996 92.7711 29.907 98.1366 36.3249 102.905L39.9158 105.573L38.3333 101.389C37.5942 99.4436 37.2226 97.3976 37.2226 95.314C37.2226 92.4412 37.945 89.5935 39.3146 87.084C39.5442 86.6623 39.9868 86.3992 40.467 86.3992C40.6841 86.3992 40.8971 86.4535 41.0892 86.5579C41.3981 86.7249 41.6195 87.0005 41.7197 87.3387C41.8199 87.6727 41.7823 88.0277 41.6153 88.3367C40.4545 90.462 39.8448 92.8755 39.8448 95.314C39.8448 102.425 45.1394 108.626 52.1585 109.732L52.3255 109.757C53.0186 109.862 53.7369 109.912 54.4425 109.912C58.9396 109.912 63.1151 107.887 65.896 104.358L67.1737 102.734L65.1611 102.27C61.804 101.498 58.8811 99.3684 57.1315 96.4205C56.1837 94.8213 56.167 92.9006 57.0856 91.2847C58.0042 89.6687 59.6619 88.7083 61.52 88.7083H74.3765C76.2347 88.7083 77.8924 89.6729 78.811 91.2847C79.7296 92.9006 79.7129 94.8213 78.765 96.4205C77.0197 99.3642 74.0926 101.498 70.7355 102.27L68.7229 102.734L70.0006 104.358C72.7815 107.887 76.9528 109.912 81.4541 109.912C82.1597 109.912 82.8737 109.857 83.5836 109.757L83.7298 109.736C90.7614 108.626 96.056 102.429 96.056 95.314C96.056 92.8755 95.4421 90.462 94.2855 88.3367C93.9389 87.702 94.1728 86.9045 94.8074 86.5621C95.0037 86.4577 95.2125 86.4034 95.4338 86.4034C95.914 86.4034 96.3566 86.6665 96.5862 87.0882C97.9558 89.5977 98.6782 92.4412 98.6782 95.3182C98.6782 97.4143 98.3024 99.4644 97.555 101.419L95.9599 105.602L99.555 102.934C105.973 98.1701 109.497 92.7711 109.53 92.7168C109.748 92.3828 110.098 92.1657 110.491 92.1239C110.541 92.1198 110.587 92.1156 110.633 92.1156C110.979 92.1156 111.309 92.2533 111.556 92.4997L114.253 95.1971L114.959 93.2722C118.729 82.967 118.75 73.6263 118.75 73.5303C118.75 73.0417 119.017 72.5949 119.447 72.3694C119.635 72.2692 119.848 72.2149 120.061 72.2149C120.324 72.2149 120.579 72.2942 120.796 72.4404L123.009 73.952L123.139 71.6345C123.197 70.5781 123.226 69.5259 123.226 68.5112C123.226 60.0934 121.381 52.0095 117.748 44.4894L117.714 44.4184C114.24 37.249 109.121 30.7685 102.921 25.6994C102.511 25.3654 102.344 24.8225 102.49 24.3173C103.814 19.7868 106.62 15.7073 110.395 12.8304C113 10.847 115.923 9.49418 119.092 8.80521L123.005 7.95339L119.343 6.32904C116.825 5.21 114.153 4.64639 111.397 4.64639C103.163 4.64639 95.7344 9.84493 92.9201 17.5822C92.7949 17.9246 92.5318 18.2043 92.1936 18.3421C92.0349 18.4089 91.8637 18.4423 91.6925 18.4423C91.5004 18.4423 91.3167 18.4006 91.1413 18.3213C87.4168 16.5968 83.4959 15.2898 79.4874 14.438C79.145 14.367 78.8527 14.1624 78.6607 13.8701C78.4686 13.5778 78.4059 13.2271 78.4769 12.8847C78.6063 12.2834 79.1408 11.845 79.7546 11.845C79.8465 11.845 79.9384 11.8533 80.0302 11.8742C83.3707 12.584 86.6693 13.6028 89.8386 14.8973L90.9576 15.3566L91.5046 14.2793C95.2626 6.83848 103.071 2.02832 111.401 2.02832C123.681 2.02832 133.673 12.0203 133.673 24.3006C133.673 28.8937 132.283 33.3072 129.657 37.0569C127.619 39.9672 124.888 42.3765 121.765 44.0133L120.692 44.577L121.172 45.6919C124.27 52.8947 125.84 60.5735 125.84 68.5112C125.84 71.1502 125.661 73.8058 125.306 76.3988C125.218 77.046 124.663 77.5303 124.011 77.5303C123.953 77.5303 123.89 77.5303 123.832 77.5178C123.598 77.4844 123.385 77.3968 123.197 77.2464L122.124 76.3988L121.113 77.7893L121.072 78.1441C120.566 83.0253 119.251 90.4328 115.844 97.9905C115.631 98.4582 115.163 98.763 114.65 98.763C114.466 98.763 114.286 98.7254 114.115 98.6461C113.973 98.5834 113.844 98.4916 113.731 98.3747L112.75 97.3892L110.816 95.456L109.902 96.5917C106.094 101.327 97.889 109.632 85.7382 112.029L85.0743 112.158L84.402 113.649C81.4875 120.108 75.0279 124.284 67.9378 124.284L67.9504 124.292ZM66.9942 107.097C64.0922 110.204 60.1463 112.108 55.8872 112.459L53.7368 112.638L54.8893 114.463C57.6952 118.91 62.7017 121.674 67.9504 121.674C73.199 121.674 78.2055 118.91 81.0115 114.463L82.1639 112.638L80.0135 112.459C75.7545 112.108 71.8086 110.204 68.9066 107.097L67.9504 106.074L66.9942 107.097ZM61.52 91.3222C60.614 91.3222 59.8081 91.794 59.3613 92.579C58.9145 93.364 58.9229 94.2993 59.3864 95.0802C61.1735 98.0907 64.4555 99.9655 67.9546 99.9655C71.4537 99.9655 74.7357 98.0949 76.5228 95.0802C76.9904 94.291 76.9988 93.3765 76.5436 92.579C76.0885 91.7815 75.3035 91.3222 74.3849 91.3222H61.5284H61.52ZM123.886 10.9055C115.886 10.9055 108.537 15.9077 105.597 23.3527L105.259 24.2129L105.956 24.8225C111.167 29.3655 115.66 34.9859 118.95 41.0738L119.573 42.2262L120.725 41.604C127.105 38.1508 131.068 31.5243 131.068 24.3006C131.068 19.5697 129.352 14.9892 126.233 11.4107L125.878 11.0057L125.339 10.9681C124.838 10.9305 124.354 10.9138 123.89 10.9138L123.886 10.9055ZM12.0149 10.9055C11.5514 10.9055 11.0628 10.9222 10.5659 10.9598L10.0273 10.9974L9.6724 11.4024C6.55327 14.9808 4.83709 19.5613 4.83709 24.2922C4.83709 31.5117 8.79969 38.1426 15.1799 41.5957L16.3324 42.2179L16.9545 41.0654C20.2407 34.9775 24.7377 29.3572 29.9488 24.8142L30.6461 24.2046L30.3079 23.3444C27.3683 15.8994 20.0152 10.8972 12.0191 10.8972L12.0149 10.9055Z" fill="#1A1A1A" stroke="#1A1A1A" stroke-width="3.08374"/>
<path d="M95.9681 76.8377C92.6569 76.8377 89.4208 75.489 87.0909 73.134C86.8445 72.8834 86.7109 72.5578 86.7109 72.207C86.7109 71.8563 86.8529 71.5306 87.0992 71.2842C87.3456 71.0421 87.6713 70.9043 88.022 70.9043C88.3728 70.9043 88.7068 71.0421 88.9532 71.2926C90.7946 73.1549 93.3542 74.2197 95.9723 74.2197H105.067C105.789 74.2197 106.378 74.8084 106.378 75.5307C106.378 76.2531 105.789 76.8419 105.067 76.8419H95.9723L95.9681 76.8377Z" fill="#1A1A1A" stroke="#1A1A1A" stroke-width="3.08374"/>
<path d="M30.8424 76.837C30.12 76.837 29.5312 76.2483 29.5312 75.5259C29.5312 74.8036 30.12 74.2148 30.8424 74.2148H39.9367C42.5548 74.2148 45.1144 73.1458 46.9558 71.2877C47.2021 71.0372 47.5362 70.8994 47.8869 70.8994C48.2377 70.8994 48.5592 71.033 48.8056 71.2794C49.0561 71.5257 49.1939 71.8556 49.1939 72.2021C49.1939 72.5529 49.0603 72.8827 48.8139 73.1291C46.484 75.4841 43.2479 76.8328 39.9367 76.8328H30.8424V76.837Z" fill="#1A1A1A" stroke="#1A1A1A" stroke-width="3.08374"/>
<path d="M67.9518 13.2267C67.6135 13.2267 67.267 13.0848 67.0248 12.8426C66.7826 12.5963 66.6406 12.2581 66.6406 11.9157C66.6406 11.5733 66.7826 11.2309 67.0206 10.9929C67.267 10.7465 67.6052 10.6045 67.9476 10.6045C68.29 10.6045 68.6282 10.7424 68.8703 10.9845C69.1125 11.2267 69.2545 11.5733 69.2545 11.9115C69.2545 12.2497 69.1125 12.5921 68.8703 12.8384C68.6323 13.0765 68.2858 13.2184 67.9476 13.2184L67.9518 13.2267Z" fill="#1A1A1A" stroke="#1A1A1A" stroke-width="3.08374"/>
<path d="M81.5 109.994C80.8017 110.125 80.2205 110.607 79.9629 111.269C79.7054 111.931 79.8079 112.68 80.2342 113.248L84.8599 119.416C85.2933 119.993 85.9983 120.301 86.7168 120.227C87.4353 120.152 88.062 119.706 88.3675 119.051L91.9652 111.342C92.2911 110.644 92.199 109.822 91.7266 109.213C91.2542 108.604 90.4809 108.31 89.7234 108.452L81.5 109.994Z" fill="url(#paint4_linear_156_1739)" stroke="#1A1A1A" stroke-width="4.11166" stroke-linejoin="round"/>
<path d="M56.0468 110.509C56.7452 110.639 57.3264 111.122 57.584 111.784C57.8415 112.446 57.7389 113.194 57.3126 113.763L52.687 119.93C52.2536 120.508 51.5486 120.816 50.8301 120.742C50.1115 120.667 49.4849 120.221 49.1794 119.566L45.5817 111.857C45.2558 111.158 45.3479 110.336 45.8203 109.727C46.2927 109.118 47.066 108.825 47.8235 108.967L56.0468 110.509Z" fill="url(#paint5_linear_156_1739)" stroke="#1A1A1A" stroke-width="4.11166" stroke-linejoin="round"/>
<defs>
<linearGradient id="paint0_linear_156_1739" x1="87.5312" y1="54.1941" x2="102.436" y2="54.1941" gradientUnits="userSpaceOnUse">
<stop stop-color="#FBD099"/>
<stop offset="0.598958" stop-color="#FCEFDF"/>
<stop offset="1" stop-color="#FFE299"/>
</linearGradient>
<linearGradient id="paint1_linear_156_1739" x1="87.5312" y1="54.1941" x2="102.436" y2="54.1941" gradientUnits="userSpaceOnUse">
<stop stop-color="#FBD099"/>
<stop offset="0.598958" stop-color="#FCEFDF"/>
<stop offset="1" stop-color="#FFE299"/>
</linearGradient>
<linearGradient id="paint2_linear_156_1739" x1="47.957" y1="53.1668" x2="33.0523" y2="53.1668" gradientUnits="userSpaceOnUse">
<stop stop-color="#FBD099"/>
<stop offset="0.598958" stop-color="#FCEFDF"/>
<stop offset="1" stop-color="#FFE299"/>
</linearGradient>
<linearGradient id="paint3_linear_156_1739" x1="47.957" y1="53.1668" x2="33.0523" y2="53.1668" gradientUnits="userSpaceOnUse">
<stop stop-color="#FBD099"/>
<stop offset="0.598958" stop-color="#FCEFDF"/>
<stop offset="1" stop-color="#FFE299"/>
</linearGradient>
<linearGradient id="paint4_linear_156_1739" x1="81.8789" y1="114.327" x2="90.1022" y2="114.327" gradientUnits="userSpaceOnUse">
<stop stop-color="#FBD099"/>
<stop offset="0.598958" stop-color="#FCEFDF"/>
<stop offset="1" stop-color="#FFE299"/>
</linearGradient>
<linearGradient id="paint5_linear_156_1739" x1="55.668" y1="114.842" x2="47.4447" y2="114.842" gradientUnits="userSpaceOnUse">
<stop stop-color="#FBD099"/>
<stop offset="0.598958" stop-color="#FCEFDF"/>
<stop offset="1" stop-color="#FFE299"/>
</linearGradient>
</defs>
</svg>
