<svg width="118" height="131" viewBox="0 0 118 131" fill="none" xmlns="http://www.w3.org/2000/svg">
<path d="M79.7977 5.23258C86.6609 1.19535 101.599 0.790919 100.388 16.9404C99.2788 31.7234 99.1618 36.6955 99.3541 37.61L99.5801 37.5304C99.49 37.8006 99.4093 37.8725 99.3541 37.61L27.3137 62.965L14.3945 43.9902L53.5557 18.1517L79.7977 5.23258Z" fill="url(#paint0_linear_154_1409)"/>
<path d="M25.7008 37.9346C22.148 41.4873 24.2205 48.2968 25.7008 51.2574C24.6243 51.2574 19.7259 51.7419 8.74462 53.6798C-2.23664 55.6176 15.4732 43.9904 25.7008 37.9346Z" fill="#D15454"/>
<path d="M85.046 53.6796L83.0273 57.3131L93.9279 50.4498L96.3502 44.7977L95.139 43.9902L85.046 53.6796Z" fill="#9E80DD"/>
<path d="M46.6927 81.1324C19.5625 80.1634 22.7385 62.6957 27.7177 54.0829C35.1464 60.2195 54.7671 52.3335 63.6489 47.6234L98.3691 23.8037C100.953 31.5552 97.6962 39.9526 95.543 43.1824C89.0835 51.6606 63.2452 72.6542 46.6927 81.1324Z" fill="#D15454"/>
<path d="M17.6255 53.6797L3.89874 55.6983C0.991937 69.5864 6.18651 75.2116 9.55086 76.6919L17.6255 53.6797Z" fill="#26AC94"/>
<path d="M36.7297 65.8746L36.4159 64.292L38.2084 62.4401L39.0723 61.274L39.738 61.1988L41.0377 60.4917L42.7083 59.7634L43.3528 59.3172L44.1605 59.1221L44.9227 60.0835L45.457 60.3136L46.1333 60.4238L46.9071 60.9379L46.9707 62.051L47.4605 62.8047L49.0643 62.8619L49.4884 63.7682L50.8834 64.7307L51.2958 66.0844L50.5728 67.7635L51.2152 68.5829L50.788 69.5751L49.1619 69.7797L48.8005 70.6193L49.4407 72.7044L48.8164 74.1545L48.0627 74.6443L47.7998 75.2549L47.3398 76.3234L46.0529 75.9503L45.2451 76.1453C44.5109 75.8895 43.0247 75.4608 42.9544 75.7924C42.884 76.1239 41.3979 75.6952 40.6636 75.4394L39.9014 74.4779L39.2135 74.815L37.917 73.6236L37.9626 72.467L37.582 71.6699L36.9958 69.8795L37.2915 69.1926L36.7477 68.1442L36.2368 67.0195L36.7297 65.8746Z" fill="#FD7BB2" stroke="#FD7BB2" stroke-width="0.498581" stroke-linecap="round" stroke-linejoin="round"/>
<path d="M44.5804 65.6984C44.5729 65.7157 44.5633 65.7329 44.5524 65.7496C43.6734 67.0521 43.4403 67.8257 43.4172 67.9083C43.4144 67.9233 43.4099 67.939 43.405 67.9538C43.3643 68.0671 43.2615 68.147 43.1418 68.1587C43.0221 68.1704 42.9069 68.112 42.845 68.0081C42.7828 67.9034 42.7377 67.8289 43.0543 67.1243C43.2176 66.7603 43.5209 66.1669 44.0369 65.4019C44.1328 65.2595 44.326 65.2221 44.4676 65.3183C44.5934 65.4034 44.6368 65.5639 44.5791 65.6978L44.5804 65.6984Z" fill="#1A1A1A"/>
<path d="M45.0248 65.0523C45.0155 65.074 45.0034 65.0953 44.9891 65.1148C44.9363 65.1862 44.872 65.2195 44.8214 65.2345C44.7278 65.2677 44.6197 65.2557 44.5329 65.1926C44.3944 65.0911 44.3648 64.8968 44.4661 64.7589C44.5183 64.6872 44.5826 64.6539 44.6331 64.6389C44.728 64.6048 44.8375 64.6167 44.9244 64.6813C45.0425 64.7689 45.0801 64.924 45.0245 65.0529L45.0248 65.0523Z" fill="#1A1A1A"/>
<path d="M51.7318 69.4706C51.5345 69.9288 51.1081 70.1509 50.6735 70.3358C48.3537 71.3245 44.4301 70.6348 42.8482 68.2639C42.753 68.1215 42.7912 67.9285 42.9343 67.8335C43.0767 67.7383 43.2697 67.7766 43.3647 67.9196C44.7624 70.0134 48.373 70.6411 50.43 69.7642C51.0223 69.512 51.2308 69.335 51.2242 68.8433C51.2206 68.6059 51.1448 68.4079 51.0325 68.1839C51.0093 68.1371 50.9883 68.0972 50.9703 68.0622C50.8043 67.7409 50.7991 67.6438 50.934 67.3219C50.9506 67.2834 50.9694 67.2379 50.9908 67.1832C51.5302 65.8329 51.3169 64.8943 50.3178 64.229C50.166 64.1276 49.7114 63.8893 49.5497 63.8057C49.4999 63.7798 49.4577 63.7411 49.4277 63.6929C49.3511 63.5688 49.3382 63.4382 49.3288 63.3423C49.3247 63.3023 49.3188 63.2425 49.3092 63.2273C49.2005 63.0496 48.806 62.7931 48.5554 62.7366C48.1875 62.6539 47.4983 62.8188 47.1099 63.0176C46.6704 63.2429 46.1377 63.7016 45.6855 64.2449C45.6046 64.3423 45.5263 64.4372 45.4512 64.5313C45.3436 64.6651 45.1486 64.6862 45.0148 64.5786C44.8811 64.4711 44.8602 64.2754 44.9675 64.1423C45.0451 64.0456 45.1257 63.9472 45.2089 63.8478C45.4506 63.5579 46.0917 62.8424 46.8273 62.4653C47.251 62.2478 48.1102 62.0003 48.6919 62.131C49.0693 62.2155 49.6208 62.5463 49.8396 62.9037C49.9233 63.0404 49.9376 63.1796 49.9474 63.2815C49.9482 63.2915 49.9498 63.3032 49.9508 63.3146C50.1415 63.4144 50.504 63.6072 50.6633 63.7133C51.9133 64.5454 52.2179 65.7909 51.5686 67.415C51.5457 67.4735 51.5248 67.5219 51.5076 67.5637C51.4921 67.5997 51.4756 67.6396 51.4659 67.6656C51.4784 67.693 51.5018 67.7376 51.5219 67.7779C51.5407 67.8146 51.563 67.8566 51.5873 67.906C51.718 68.1659 51.8399 68.458 51.8451 68.8351C51.8487 69.088 51.8068 69.2963 51.7318 69.4706Z" fill="#1A1A1A"/>
<path d="M49.0785 66.5762C49.0683 66.5998 49.0548 66.6226 49.0382 66.6441L49.0168 66.6717C48.9114 66.8071 48.7166 66.8312 48.5808 66.7265C48.4454 66.6212 48.4212 66.4263 48.526 66.2905L48.5474 66.263C48.6528 66.1276 48.8479 66.1028 48.9827 66.2079C49.0967 66.2966 49.1326 66.4488 49.0779 66.5759L49.0785 66.5762Z" fill="#1A1A1A"/>
<path d="M47.9835 66.7931C47.9475 66.8768 47.8749 66.9447 47.7795 66.9699C46.295 67.3722 43.0173 68.2998 42.9846 68.3093C42.8197 68.3559 42.6479 68.2599 42.6013 68.095C42.5547 67.9301 42.6507 67.7583 42.8156 67.7117C42.8483 67.7023 46.1293 66.7738 47.6171 66.3707C47.7826 66.3258 47.953 66.4234 47.9979 66.589C48.0167 66.6596 48.0102 66.7311 47.9835 66.7931Z" fill="#1A1A1A"/>
<path d="M47.5878 62.7175C47.5283 62.8558 47.3749 62.9338 47.2248 62.8949C47.0588 62.852 46.9592 62.682 47.0027 62.5163C47.1608 61.9066 47.0999 61.3277 46.8312 60.8864C46.5973 60.5027 46.2253 60.2433 45.7544 60.1369C45.6914 60.1244 45.484 60.0976 45.3812 60.0938C45.3606 60.1025 45.3388 60.1086 45.3164 60.1129C45.1482 60.1434 44.9867 60.032 44.9556 59.8635C44.8753 59.4269 44.3405 59.018 43.8551 59.0222C43.4126 59.0257 42.8994 59.3281 42.7751 59.8986C42.7526 60.0021 42.6788 60.0864 42.5805 60.1235C42.4816 60.1603 42.3709 60.1443 42.2863 60.0814C42.1811 60.003 42.071 59.9821 41.9402 60.0162C41.6068 60.1027 41.2192 60.5282 41.0664 60.8711C40.8055 61.46 40.6879 62.2164 40.7292 63.0611C40.8029 64.5628 41.4382 66.1432 42.4297 67.2889C42.542 67.4189 42.5275 67.6148 42.3978 67.7265C42.2679 67.8389 42.072 67.8244 41.9602 67.6947C40.8814 66.4481 40.1893 64.7264 40.1092 63.0911C40.0632 62.1496 40.1955 61.2944 40.4994 60.6174C40.6755 60.2221 41.1633 59.5758 41.784 59.4145C41.9577 59.3695 42.1284 59.3673 42.2894 59.4065C42.5922 58.7511 43.262 58.4059 43.8507 58.4007C44.5448 58.3952 45.2321 58.8661 45.4851 59.477C45.5148 59.4795 45.5468 59.4822 45.5803 59.4864C45.7117 59.5003 45.8551 59.5224 45.8925 59.5311C46.5221 59.6736 47.0441 60.0402 47.3628 60.5633C47.7196 61.1498 47.8059 61.8985 47.6052 62.672C47.6013 62.688 47.5958 62.7025 47.5896 62.7168L47.5878 62.7175Z" fill="#1A1A1A"/>
<path d="M44.1198 61.6197C44.111 61.6402 44.0991 61.6608 44.0857 61.68C43.6279 62.3098 43.3898 62.849 43.2358 63.6029C43.2015 63.7712 43.0374 63.8792 42.8698 63.8452C42.7015 63.811 42.5933 63.6475 42.6275 63.4792C42.7979 62.6412 43.0751 62.0145 43.5834 61.3153C43.6844 61.1765 43.8783 61.146 44.0171 61.247C44.137 61.3339 44.1762 61.4904 44.1201 61.6206L44.1198 61.6197Z" fill="#1A1A1A"/>
<path d="M43.1461 64.6792C43.0983 64.7902 43.0026 64.8468 42.9162 64.8632C42.8961 64.8671 42.8748 64.8689 42.8523 64.8681C42.8388 64.8689 42.8251 64.8681 42.8115 64.8674C42.6407 64.8527 42.5139 64.7032 42.528 64.5322C42.5436 64.3441 42.6756 64.2525 42.7833 64.2312C42.8018 64.2274 42.8217 64.2257 42.8422 64.2257C42.8603 64.2247 42.8788 64.2245 42.897 64.2265C43.0674 64.244 43.1916 64.396 43.1747 64.5666C43.1705 64.6089 43.1602 64.6464 43.1461 64.6792Z" fill="#1A1A1A"/>
<path d="M43.0973 67.8363C43.0621 67.9181 42.9915 67.9848 42.899 68.0118C42.7345 68.0593 42.5625 67.9654 42.5147 67.8015C42.5031 67.762 42.2293 66.8084 42.4079 65.4616C42.4305 65.2912 42.5864 65.1716 42.7567 65.1943C42.9264 65.2166 43.046 65.3725 43.0234 65.5428C42.8638 66.7516 43.1081 67.6182 43.111 67.6268C43.1315 67.6988 43.1257 67.7721 43.0982 67.8359L43.0973 67.8363Z" fill="#1A1A1A"/>
<path d="M49.7621 73.872C49.6372 74.1622 49.4748 74.4642 49.2924 74.7341C49.0786 75.0514 48.8285 75.1937 48.5632 75.2823C48.5519 75.9419 48.0893 76.6306 47.4444 76.8822C46.8957 77.0965 46.1461 77.0244 45.6215 76.5273C45.4867 76.6236 45.3274 76.6844 45.1488 76.7067C44.5123 76.787 43.8203 76.3678 43.5097 76.0665C42.9785 75.5504 42.5359 74.8064 42.2297 73.9145C41.7753 72.5936 41.7781 70.8697 42.2369 69.3039C42.2843 69.1391 42.4571 69.0451 42.6222 69.0935C42.7868 69.1415 42.8807 69.3143 42.8329 69.4782C42.4091 70.9252 42.4037 72.5083 42.8173 73.7125C43.0925 74.5123 43.4816 75.1723 43.9433 75.621C44.2123 75.8824 44.7302 76.134 45.0715 76.0906C45.206 76.0736 45.3009 76.0137 45.3689 75.9019C45.4239 75.8116 45.5208 75.7556 45.6262 75.7532C45.7316 75.7508 45.8316 75.8019 45.8908 75.8899C46.2181 76.3741 46.8063 76.4641 47.2187 76.3036C47.671 76.1271 48.0163 75.5488 47.9285 75.1142C47.8956 74.9515 47.9969 74.7915 48.1582 74.7514C48.4626 74.676 48.6225 74.6154 48.7769 74.3865C49.1486 73.8357 49.3905 73.1901 49.401 72.908C49.4484 71.6899 49.1754 71.1615 48.7508 70.7442C48.6284 70.6239 48.6269 70.4277 48.7472 70.3053C48.8675 70.183 49.0637 70.1814 49.1861 70.3017C49.8267 70.9325 50.0689 71.6947 50.0205 72.9322C50.0111 73.1759 49.9138 73.5147 49.7603 73.8712L49.7621 73.872Z" fill="#1A1A1A"/>
<path d="M46.324 73.9639C46.3144 73.9862 46.302 74.0081 46.2868 74.028C46.1837 74.1652 45.989 74.1923 45.8525 74.0894C45.2802 73.6586 44.75 73.0701 44.2771 72.3402C44.1839 72.1965 44.2249 72.0039 44.3686 71.9107C44.5124 71.8175 44.7049 71.8585 44.7981 72.0023C45.2313 72.671 45.7116 73.2063 46.2257 73.593C46.3423 73.6807 46.3795 73.8349 46.3243 73.9633L46.324 73.9639Z" fill="#1A1A1A"/>
<path d="M44.4361 71.5313C44.4089 71.5945 44.3603 71.6493 44.2942 71.6833C44.2772 71.6921 44.2604 71.6989 44.2432 71.7047C44.2245 71.7121 44.2052 71.7177 44.1869 71.7209C44.0789 71.7413 43.9223 71.7055 43.838 71.5361C43.7615 71.3826 43.8234 71.1961 43.9769 71.1196C43.9898 71.1134 44.0025 71.1079 44.0162 71.1035C44.0359 71.0951 44.0564 71.0885 44.0762 71.0852C44.1886 71.0631 44.3395 71.0986 44.4258 71.2651C44.4703 71.3512 44.471 71.4485 44.4353 71.5316L44.4361 71.5313Z" fill="#1A1A1A"/>
<path d="M44.0424 70.8325C44.0143 70.8976 43.9637 70.9538 43.8952 70.9882C43.7411 71.0645 43.5552 71.0013 43.4793 70.8481C42.7972 69.4703 42.6484 68.2794 42.6422 68.229C42.6216 68.0584 42.7431 67.9042 42.9137 67.8836C43.084 67.8635 43.2385 67.9844 43.2591 68.155C43.2619 68.1775 43.4072 69.3015 44.036 70.5725C44.0781 70.6575 44.0777 70.7522 44.043 70.8328L44.0424 70.8325Z" fill="#1A1A1A"/>
<path d="M40.8985 60.9042C40.8349 61.0517 40.6669 61.1279 40.5121 61.0744C40.4454 61.0516 38.8743 60.5303 38.1984 62.2128C38.1788 62.2617 38.1539 62.3296 38.1289 62.3997C38.0281 62.6782 37.9953 62.7612 37.9257 62.8289C37.8678 62.8849 37.8102 62.9027 37.7362 62.926C37.0582 63.1368 36.5871 63.5396 36.3353 64.1243L36.3326 64.1305C36.2068 64.4262 36.1999 64.7445 36.3126 65.1024C36.3854 65.3344 36.642 65.8175 36.734 65.9843C36.7933 66.0907 36.7848 66.2216 36.7124 66.3197C36.4603 66.6611 36.3654 67.0641 36.4587 67.399C36.5344 67.6705 36.7298 67.8789 37.0241 68.0011C37.1824 68.0671 37.2572 68.2485 37.1919 68.4071C37.1913 68.4083 37.1908 68.4096 37.1903 68.4108C37.1232 68.5664 36.9433 68.6396 36.7859 68.5748C36.3157 68.3797 35.9865 68.0211 35.86 67.5654C35.7322 67.1061 35.8223 66.5775 36.1004 66.1194C35.9845 65.902 35.7947 65.5285 35.7197 65.2896C35.5624 64.7912 35.5765 64.3195 35.7611 63.8874L35.7646 63.8793C36.0823 63.1414 36.66 62.6294 37.4832 62.3562C37.5034 62.3024 37.5275 62.2363 37.545 62.1887C37.573 62.1118 37.6004 62.0362 37.6221 61.9823C38.3363 60.2024 39.9577 60.2264 40.7153 60.488C40.8773 60.5437 40.9636 60.7205 40.9069 60.8828C40.9037 60.8903 40.9014 60.8973 40.8985 60.9042Z" fill="#1A1A1A"/>
<path d="M38.0698 64.7986C38.0498 64.8451 38.0191 64.884 37.9859 64.9131C37.9673 64.9308 37.9461 64.946 37.9229 64.9588C37.7725 65.0403 37.5849 64.986 37.5034 64.8355C37.4213 64.6847 37.4615 64.5418 37.5437 64.4552C37.5698 64.4253 37.6019 64.4001 37.6393 64.3817C37.7927 64.3052 37.979 64.3677 38.0555 64.5212C38.1081 64.6276 38.103 64.7232 38.0704 64.7988L38.0698 64.7986Z" fill="#1A1A1A"/>
<path d="M42.404 67.6554C42.3517 67.7769 42.2252 67.8555 42.0871 67.8416C41.9907 67.8317 39.7151 67.5789 38.2259 65.7918C38.1164 65.6602 38.1339 65.4641 38.2656 65.3547C38.3972 65.2453 38.5933 65.2628 38.7027 65.3944C40.0313 66.9896 42.1291 67.2217 42.1501 67.2241C42.3205 67.2416 42.4444 67.3942 42.4269 67.5646C42.4233 67.5968 42.4154 67.6272 42.4031 67.6557L42.404 67.6554Z" fill="#1A1A1A"/>
<path d="M43.4611 75.8866C43.4408 75.9337 43.4082 75.977 43.3644 76.0103C43.0955 76.215 42.6146 76.4527 42.0699 76.504C41.899 76.5202 41.7479 76.3948 41.7318 76.224C41.7157 76.0531 41.841 75.902 42.0119 75.8859C42.4264 75.8468 42.7975 75.6626 42.9881 75.5168C43.1246 75.4132 43.3193 75.4389 43.423 75.5754C43.4933 75.6682 43.504 75.7867 43.4611 75.8866Z" fill="#1A1A1A"/>
<path d="M41.4874 76.2673C41.4333 76.3932 41.3038 76.4668 41.1715 76.4532C41.135 76.4507 41.0949 76.4416 41.0534 76.4237C40.8953 76.3571 40.8208 76.1751 40.8874 76.017L40.8884 76.0146C40.9488 75.8744 41.1 75.8014 41.2444 75.8348C41.2636 75.838 41.2833 75.8435 41.3045 75.8505C41.4665 75.9062 41.5528 76.083 41.4971 76.245C41.4939 76.2524 41.4915 76.2595 41.4883 76.267L41.4874 76.2673Z" fill="#1A1A1A"/>
<path d="M40.82 75.7888C40.8067 75.8198 40.7881 75.8493 40.7633 75.8761C40.6472 76.0025 40.4511 76.0107 40.3244 75.8952C40.2992 75.8718 40.2662 75.8444 40.2312 75.8146C40.1394 75.7376 40.0355 75.6495 39.9599 75.5604C39.9226 75.5156 39.8724 75.4529 39.8218 75.3877C39.7909 75.3487 39.7478 75.2934 39.7117 75.2492C38.8416 75.2472 38.13 74.9401 37.597 74.3343C37.2862 73.9822 37.126 73.5383 37.1188 73.0156C37.1149 72.7566 37.1832 72.323 37.2243 72.0842C36.9892 71.8484 36.7008 71.5383 36.5538 71.2192C36.2087 70.4723 36.2937 69.7166 36.8059 68.9742C36.9034 68.8332 37.0967 68.7973 37.2377 68.8948C37.3788 68.9923 37.4137 69.186 37.3171 69.3267C36.7463 70.154 37.0259 70.7595 37.118 70.9587C37.2433 71.2309 37.574 71.5571 37.7717 71.7517C37.8455 71.8246 37.8835 71.9343 37.8639 72.0361C37.8283 72.2229 37.7364 72.7626 37.7397 73.0058C37.7448 73.3814 37.8509 73.6814 38.0631 73.9227C38.4851 74.4021 39.0608 74.6389 39.7732 74.6266C39.8502 74.6252 39.9116 74.6245 39.9838 74.6599C40.0708 74.7018 40.1271 74.7709 40.3097 75.0024C40.3557 75.0612 40.401 75.1181 40.4354 75.1594C40.4762 75.2079 40.5626 75.2804 40.6316 75.3387C40.6742 75.3747 40.7142 75.4081 40.7452 75.4369C40.8454 75.5285 40.871 75.6704 40.8203 75.7882L40.82 75.7888Z" fill="#1A1A1A"/>
<path d="M39.5972 73.127C39.543 73.2529 39.4099 73.3315 39.2679 73.3115C39.227 73.3057 39.1888 73.2922 39.1555 73.272C39.0504 73.2157 38.966 73.0926 38.9971 72.923C39.0277 72.7546 39.1898 72.6428 39.3581 72.6734C39.3942 72.6801 39.4279 72.6924 39.4579 72.7098C39.5549 72.7611 39.6447 72.8733 39.6196 73.0477C39.6158 73.0754 39.6082 73.1016 39.5975 73.1264L39.5972 73.127Z" fill="#1A1A1A"/>
<path d="M42.7809 69.0025C42.7489 69.077 42.6886 69.1385 42.6069 69.1694C42.5832 69.1784 40.7453 69.9151 39.995 72.0588C39.9387 72.222 39.7615 72.3059 39.5992 72.2493C39.4375 72.1929 39.3521 72.0157 39.4087 71.8534C40.2589 69.4264 42.2977 68.6225 42.3848 68.5894C42.5449 68.5283 42.7242 68.6084 42.7854 68.7685C42.8156 68.8469 42.8113 68.9303 42.7803 69.0023L42.7809 69.0025Z" fill="#1A1A1A"/>
<path d="M42.8186 67.7028C42.7863 67.7778 42.7251 67.8397 42.6428 67.8704C39.726 68.9703 33.7177 68.8413 33.463 68.8353C33.2913 68.8312 33.1562 68.6893 33.1603 68.5176C33.1644 68.3459 33.3063 68.2107 33.478 68.2148C33.5392 68.2162 39.6205 68.3464 42.4239 67.2896C42.5844 67.2293 42.7635 67.3101 42.8238 67.4705C42.8533 67.5487 42.8493 67.6314 42.8186 67.7028Z" fill="#1A1A1A"/>
<path d="M43.0579 68.6814C43.0184 68.7732 42.9356 68.8441 42.83 68.8641C38.5077 69.6793 33.5002 69.3683 33.4501 69.3651C33.2792 69.354 33.1495 69.2063 33.1606 69.0354C33.1717 68.8645 33.3195 68.7348 33.4903 68.7459C33.5398 68.7488 38.4715 69.0551 42.7147 68.2544C42.8835 68.2226 43.0452 68.3334 43.0772 68.5016C43.089 68.5647 43.0814 68.6268 43.0576 68.682L43.0579 68.6814Z" fill="#1A1A1A"/>
<path d="M33.7488 69.1652C33.5339 69.6643 32.9526 69.8962 32.4528 69.6811C31.953 69.4659 31.7217 68.8849 31.9369 68.3851C32.1521 67.8853 32.7331 67.654 33.2329 67.8692C33.7327 68.0844 33.964 68.6654 33.7488 69.1652ZM32.5074 68.6307C32.4278 68.8155 32.5136 69.031 32.6984 69.1106C32.8832 69.1902 33.0988 69.1043 33.1783 68.9196C33.2579 68.7348 33.1721 68.5192 32.9873 68.4397C32.8025 68.3601 32.5869 68.4459 32.5074 68.6307Z" fill="#1A1A1A"/>
<path d="M34.5988 67.6211C34.4501 67.9665 34.0485 68.1258 33.7038 67.9774C33.359 67.8289 33.1991 67.4271 33.3475 67.0823C33.4959 66.7376 33.8978 66.5776 34.2425 66.7261C34.5873 66.8745 34.7472 67.2763 34.5988 67.6211ZM33.9173 67.3277C33.904 67.3587 33.9181 67.3942 33.9491 67.4075C33.9801 67.4209 34.0156 67.4068 34.029 67.3757C34.0423 67.3447 34.0282 67.3093 33.9972 67.2959C33.9662 67.2826 33.9307 67.2967 33.9173 67.3277Z" fill="#1A1A1A"/>
<path d="M35.3531 67.3936C35.5162 67.4638 35.5914 67.6527 35.5215 67.8152C35.4515 67.9776 35.2623 68.0535 35.0992 67.9833C34.9361 67.913 34.8616 67.7244 34.9318 67.5613C35.002 67.3982 35.1907 67.3236 35.3531 67.3936Z" fill="#1A1A1A"/>
<path d="M34.634 70.4912C34.4853 70.8366 34.0837 70.9959 33.7389 70.8475C33.3942 70.6991 33.2342 70.2972 33.3827 69.9525C33.5311 69.6077 33.9329 69.4477 34.2777 69.5962C34.6224 69.7446 34.7824 70.1464 34.634 70.4912ZM33.9525 70.1978C33.9392 70.2288 33.9533 70.2643 33.9843 70.2776C34.0153 70.291 34.0508 70.2769 34.0641 70.2459C34.0775 70.2149 34.0633 70.1794 34.0323 70.166C34.0013 70.1527 33.9658 70.1668 33.9525 70.1978Z" fill="#1A1A1A"/>
<path d="M35.6149 69.9029C35.8034 69.984 35.8897 70.202 35.8088 70.3899C35.7279 70.5777 35.5094 70.6652 35.3215 70.5843C35.1336 70.5034 35.0461 70.285 35.1273 70.0965C35.2085 69.908 35.4264 69.8217 35.6149 69.9029Z" fill="#1A1A1A"/>
<circle cx="32.8699" cy="68.7382" r="0.498581" transform="rotate(-66.706 32.8699 68.7382)" fill="url(#paint1_linear_154_1409)"/>
<path d="M35.6289 68.8409C37.9384 68.8702 42.6167 68.6649 42.5913 68.2196C42.5658 67.7744 42.3553 67.9974 42.286 68.0882C39.2193 68.4868 33.5945 69.1954 35.6289 68.8409Z" stroke="#D03AB8" stroke-width="0.498581" stroke-linecap="round" stroke-linejoin="round"/>
<path d="M9.67667 73.1891C6.96276 57.2752 18.3026 54.5804 25.6747 53.5971C21.0243 68.2581 25.9067 75.1992 34.4341 79.442C38.2685 81.3498 48.9401 79.4205 44.996 81.0896C44.1768 81.4362 42.7923 81.9679 40.6349 82.7469C32.1233 85.8206 22.9482 84.0335 16.6889 81.6937C13.0013 80.3152 10.3385 77.0699 9.67667 73.1891Z" fill="#26AC94"/>
<circle cx="54.3635" cy="63.3694" r="1.21117" fill="#D9D9D9"/>
<circle cx="15.362" cy="47.0486" r="1.01376" transform="rotate(-62.1618 15.362 47.0486)" fill="#D9D9D9"/>
<circle cx="58.1993" cy="60.5431" r="0.605584" fill="#D9D9D9"/>
<circle cx="49.1135" cy="58.1203" r="1.21117" fill="#D9D9D9"/>
<circle cx="55.5743" cy="57.9191" r="0.605584" fill="#D9D9D9"/>
<circle cx="55.5745" cy="70.2327" r="1.21117" fill="#D9D9D9"/>
<circle cx="20.9128" cy="48.8348" r="1.01376" transform="rotate(-62.1618 20.9128 48.8348)" fill="#D9D9D9"/>
<circle cx="58.8048" cy="63.9747" r="0.605584" fill="#D9D9D9"/>
<path d="M43.0568 38.7427C96.3482 6.0405 94.7333 20.1711 97.1557 22.5938L77.777 37.9353L61.628 48.432L50.7275 52.873L43.0568 54.8916H32.9637L25.293 50.4507L26.9079 48.0283L43.0568 38.7427Z" fill="url(#paint2_linear_154_1409)"/>
<path d="M27.4567 52.1968C24.496 49.9091 20.8356 43.2342 29.879 34.8367C38.9224 26.4393 57.9964 15.7297 66.0709 11.2888C70.8169 8.67849 81.3131 3.10411 86.8038 2.13517C92.2944 1.16624 97.965 5.63666 99.3192 8.19102C100.791 10.4813 101.522 14.6738 99.7228 19.146M27.4567 52.1968C33.9164 59.4642 54.9097 52.1968 64.1953 46.9481C72.645 42.1719 81.5554 34.8367 93.2633 26.7619C96.6977 24.3933 98.681 21.7353 99.7228 19.146M27.4567 52.1968C17.9018 53.1387 1.29524 59.8672 11.3076 79.2459M27.4567 52.1968C16.1526 76.0975 35.6656 81.4922 46.8351 81.202M27.4567 52.1968C23.0155 52.1968 13.0029 52.6812 8.48137 54.6188C3.95981 56.5564 4.98238 53.1771 6.05886 51.2452M11.3076 79.2459C13.1916 81.6683 21.0775 85.9477 37.5494 83.6869C40.5905 83.2695 43.715 82.3962 46.8351 81.202M11.3076 79.2459C8.88555 79.2459 3.23297 73.1901 2.0218 64.3082C1.22906 58.4947 3.89549 54.0649 6.05886 51.2452M81.5552 57.0412L80.3441 58.2523C74.3089 64.3972 60.6151 75.9282 46.8351 81.202M81.5552 57.0412V57.0412C81.5552 58.0354 82.693 58.6004 83.4851 57.9995L92.6996 51.0091C93.0744 50.7248 93.4212 50.4064 93.7187 50.0421C95.4448 47.9286 97.8549 44.2125 97.2181 41.9717M81.5552 57.0412L97.2181 41.9717M99.7228 19.146C99.5882 22.223 99.3998 29.1035 99.7228 32.0104C100.006 34.5605 99.0672 38.333 98.1056 40.4924C97.8827 40.993 97.573 41.5542 97.2181 41.9717V41.9717M34.3195 31.1229C26.5142 35.9676 9.90634 47.138 8.88492 48.1593C7.67358 49.3704 7.20071 49.7569 6.05886 51.2452M25.6986 48.835C25.6986 48.835 71.723 22.1363 76.1639 20.5744C80.6049 19.0125 94.9572 15.0592 97.2181 22.593" stroke="#1A1A1A" stroke-width="2.42234" stroke-linejoin="round"/>
<path d="M94.7338 49.6432C101.597 45.606 120.168 48.835 115.324 62.5618C109.996 77.6569 113.039 82.485 114.396 82.9333L114.92 82.749C114.855 82.944 114.657 83.0193 114.396 82.9333L42.6535 108.184L29.7344 89.2088L63.2434 67.4075L94.7338 49.6432Z" fill="url(#paint3_linear_154_1409)"/>
<path d="M41.0407 83.1523C37.4879 86.7051 39.5603 93.5146 41.0407 96.4752C39.9641 96.4752 35.0657 96.9597 24.0845 98.8975C13.1032 100.835 30.8131 89.2082 41.0407 83.1523Z" fill="#D15454"/>
<path d="M100.386 98.8974L98.3672 102.531L109.268 95.6676L111.69 90.0155L110.479 89.208L100.386 98.8974Z" fill="#9E80DD"/>
<path d="M62.0326 126.351C34.9024 125.382 38.0783 107.914 43.0576 99.3017C50.4862 105.438 70.107 97.5522 78.9888 92.8421L113.709 69.0225C116.293 76.7739 113.036 85.1714 110.883 88.4012C104.423 96.8793 78.585 117.873 62.0326 126.351Z" fill="#D15454"/>
<path d="M32.9653 98.8975L19.2386 100.916C16.3318 114.804 21.5263 120.429 24.8907 121.91L32.9653 98.8975Z" fill="#26AC94"/>
<path d="M52.0617 111.092L51.7479 109.51L53.5404 107.658L54.4044 106.492L55.0701 106.417L56.3697 105.709L58.0403 104.981L58.6848 104.535L59.4926 104.34L60.2547 105.301L60.789 105.531L61.4653 105.642L62.2392 106.156L62.3028 107.269L62.7925 108.022L64.3964 108.08L64.8204 108.986L66.2154 109.949L66.6278 111.302L65.9048 112.981L66.5472 113.801L66.1201 114.793L64.4939 114.998L64.1325 115.837L64.7728 117.922L64.1484 119.372L63.3947 119.862L63.1318 120.473L62.6718 121.541L61.3849 121.168L60.5771 121.363C59.8429 121.107 58.3568 120.679 58.2864 121.01C58.216 121.342 56.7299 120.913 55.9956 120.657L55.2334 119.696L54.5455 120.033L53.249 118.841L53.2946 117.685L52.914 116.888L52.3278 115.097L52.6236 114.41L52.0798 113.362L51.5688 112.237L52.0617 111.092Z" fill="#FD7BB2" stroke="#FD7BB2" stroke-width="0.498581" stroke-linecap="round" stroke-linejoin="round"/>
<path d="M59.9163 110.916C59.9088 110.934 59.8992 110.951 59.8884 110.967C59.0093 112.27 58.7762 113.043 58.7531 113.126C58.7504 113.141 58.7458 113.157 58.7409 113.172C58.7002 113.285 58.5974 113.365 58.4777 113.377C58.3581 113.388 58.2428 113.33 58.1809 113.226C58.1187 113.121 58.0736 113.047 58.3902 112.342C58.5536 111.978 58.8568 111.385 59.3729 110.62C59.4688 110.477 59.662 110.44 59.8036 110.536C59.9294 110.621 59.9727 110.782 59.9151 110.916L59.9163 110.916Z" fill="#1A1A1A"/>
<path d="M60.3607 110.27C60.3514 110.292 60.3393 110.313 60.325 110.333C60.2722 110.404 60.2079 110.437 60.1574 110.452C60.0637 110.485 59.9556 110.473 59.8689 110.41C59.7303 110.309 59.7008 110.115 59.8021 109.977C59.8542 109.905 59.9185 109.872 59.9691 109.857C60.0639 109.823 60.1735 109.834 60.2603 109.899C60.3784 109.987 60.416 110.142 60.3605 110.271L60.3607 110.27Z" fill="#1A1A1A"/>
<path d="M67.0677 114.688C66.8704 115.147 66.444 115.369 66.0094 115.554C63.6896 116.542 59.7661 115.853 58.1842 113.482C58.0889 113.339 58.1272 113.146 58.2702 113.051C58.4127 112.956 58.6057 112.994 58.7006 113.137C60.0983 115.231 63.7089 115.859 65.766 114.982C66.3582 114.73 66.5667 114.553 66.5601 114.061C66.5565 113.824 66.4808 113.626 66.3685 113.402C66.3452 113.355 66.3242 113.315 66.3062 113.28C66.1403 112.959 66.135 112.862 66.2699 112.54C66.2865 112.501 66.3054 112.456 66.3267 112.401C66.8662 111.051 66.6529 110.112 65.6538 109.447C65.5019 109.345 65.0474 109.107 64.8857 109.023C64.8358 108.998 64.7937 108.959 64.7637 108.911C64.687 108.787 64.6741 108.656 64.6647 108.56C64.6606 108.52 64.6548 108.46 64.6451 108.445C64.5364 108.267 64.1419 108.011 63.8913 107.954C63.5234 107.872 62.8343 108.037 62.4458 108.235C62.0063 108.461 61.4737 108.919 61.0215 109.463C60.9406 109.56 60.8622 109.655 60.7872 109.749C60.6796 109.883 60.4845 109.904 60.3508 109.796C60.217 109.689 60.1961 109.493 60.3034 109.36C60.3811 109.263 60.4617 109.165 60.5449 109.066C60.7866 108.776 61.4276 108.06 62.1633 107.683C62.5869 107.466 63.4461 107.218 64.0279 107.349C64.4053 107.433 64.9567 107.764 65.1755 108.121C65.2592 108.258 65.2735 108.397 65.2833 108.499C65.2842 108.509 65.2857 108.521 65.2867 108.532C65.4775 108.632 65.8399 108.825 65.9993 108.931C67.2492 109.763 67.5539 111.009 66.9046 112.633C66.8816 112.691 66.8608 112.74 66.8435 112.781C66.828 112.817 66.8116 112.857 66.8019 112.883C66.8143 112.911 66.8377 112.955 66.8579 112.996C66.8766 113.032 66.899 113.074 66.9233 113.124C67.0539 113.384 67.1759 113.676 67.1811 114.053C67.1847 114.306 67.1427 114.514 67.0677 114.688Z" fill="#1A1A1A"/>
<path d="M64.4144 111.793C64.4043 111.817 64.3908 111.839 64.3741 111.861L64.3527 111.888C64.2474 112.024 64.0525 112.048 63.9168 111.943C63.7813 111.838 63.7572 111.643 63.8619 111.507L63.8833 111.48C63.9887 111.344 64.1838 111.32 64.3187 111.425C64.4326 111.513 64.4685 111.666 64.4138 111.793L64.4144 111.793Z" fill="#1A1A1A"/>
<path d="M63.3195 112.011C63.2834 112.095 63.2108 112.163 63.1155 112.188C61.631 112.59 58.3533 113.518 58.3205 113.527C58.1557 113.574 57.9839 113.478 57.9372 113.313C57.8906 113.148 57.9866 112.976 58.1515 112.929C58.1842 112.92 61.4652 111.992 62.953 111.588C63.1186 111.544 63.289 111.641 63.3338 111.807C63.3527 111.877 63.3462 111.949 63.3195 112.011Z" fill="#1A1A1A"/>
<path d="M62.9238 107.935C62.8642 108.074 62.7109 108.152 62.5608 108.113C62.3947 108.07 62.2952 107.9 62.3386 107.734C62.4967 107.124 62.4358 106.545 62.1671 106.104C61.9332 105.72 61.5613 105.461 61.0904 105.355C61.0274 105.342 60.8199 105.315 60.7172 105.312C60.6965 105.32 60.6748 105.326 60.6523 105.331C60.4841 105.361 60.3226 105.25 60.2915 105.081C60.2112 104.645 59.6765 104.236 59.1911 104.24C58.7485 104.243 58.2354 104.546 58.111 105.116C58.0885 105.22 58.0147 105.304 57.9164 105.341C57.8175 105.378 57.7068 105.362 57.6222 105.299C57.517 105.221 57.407 105.2 57.2762 105.234C56.9427 105.32 56.5551 105.746 56.4024 106.089C56.1415 106.678 56.0238 107.434 56.0651 108.279C56.1389 109.781 56.7741 111.361 57.7656 112.507C57.878 112.637 57.8635 112.833 57.7338 112.944C57.6038 113.057 57.4079 113.042 57.2962 112.912C56.2173 111.666 55.5253 109.944 55.4451 108.309C55.3992 107.367 55.5314 106.512 55.8354 105.835C56.0115 105.44 56.4992 104.794 57.1199 104.632C57.2936 104.587 57.4644 104.585 57.6254 104.624C57.9281 103.969 58.5979 103.624 59.1867 103.618C59.8807 103.613 60.5681 104.084 60.821 104.695C60.8508 104.697 60.8827 104.7 60.9162 104.704C61.0476 104.718 61.191 104.74 61.2284 104.749C61.858 104.891 62.3801 105.258 62.6988 105.781C63.0556 106.368 63.1419 107.116 62.9411 107.89C62.9372 107.906 62.9317 107.92 62.9256 107.935L62.9238 107.935Z" fill="#1A1A1A"/>
<path d="M59.4557 106.837C59.4469 106.858 59.4351 106.879 59.4216 106.898C58.9638 107.528 58.7258 108.067 58.5717 108.821C58.5375 108.989 58.3734 109.097 58.2057 109.063C58.0374 109.029 57.9292 108.865 57.9634 108.697C58.1339 107.859 58.4111 107.232 58.9194 106.533C59.0203 106.394 59.2142 106.364 59.353 106.465C59.4729 106.552 59.5121 106.708 59.4561 106.838L59.4557 106.837Z" fill="#1A1A1A"/>
<path d="M58.482 109.897C58.4342 110.008 58.3386 110.065 58.2521 110.081C58.2321 110.085 58.2107 110.087 58.1883 110.086C58.1747 110.087 58.1611 110.086 58.1474 110.085C57.9766 110.07 57.8498 109.921 57.864 109.75C57.8795 109.562 58.0116 109.47 58.1192 109.449C58.1378 109.445 58.1576 109.443 58.1782 109.444C58.1963 109.442 58.2147 109.442 58.233 109.444C58.4033 109.462 58.5275 109.614 58.5107 109.784C58.5064 109.827 58.4962 109.864 58.482 109.897Z" fill="#1A1A1A"/>
<path d="M58.4332 113.053C58.398 113.135 58.3274 113.202 58.2349 113.229C58.0704 113.276 57.8984 113.182 57.8506 113.018C57.839 112.979 57.5653 112.025 57.7438 110.678C57.7664 110.508 57.9223 110.388 58.0926 110.411C58.2623 110.433 58.3819 110.589 58.3593 110.76C58.1998 111.968 58.4441 112.835 58.447 112.844C58.4674 112.916 58.4616 112.989 58.4341 113.053L58.4332 113.053Z" fill="#1A1A1A"/>
<path d="M65.0981 119.09C64.9731 119.38 64.8107 119.682 64.6284 119.952C64.4146 120.269 64.1644 120.411 63.8992 120.5C63.8879 121.16 63.4252 121.848 62.7804 122.1C62.2316 122.314 61.4821 122.242 60.9574 121.745C60.8226 121.841 60.6634 121.902 60.4847 121.925C59.8482 122.005 59.1562 121.586 58.8457 121.284C58.3145 120.768 57.8719 120.024 57.5657 119.132C57.1113 117.811 57.114 116.087 57.5728 114.522C57.6203 114.357 57.793 114.263 57.9582 114.311C58.1227 114.359 58.2166 114.532 58.1689 114.696C57.745 116.143 57.7396 117.726 58.1532 118.93C58.4284 119.73 58.8176 120.39 59.2793 120.839C59.5482 121.1 60.0661 121.352 60.4075 121.308C60.542 121.291 60.6368 121.231 60.7048 121.12C60.7599 121.029 60.8568 120.973 60.9622 120.971C61.0676 120.969 61.1676 121.02 61.2267 121.108C61.5541 121.592 62.1423 121.682 62.5547 121.521C63.007 121.345 63.3522 120.767 63.2645 120.332C63.2316 120.169 63.3328 120.009 63.4941 119.969C63.7986 119.894 63.9584 119.833 64.1129 119.604C64.4845 119.053 64.7264 118.408 64.7369 118.126C64.7843 116.908 64.5113 116.379 64.0868 115.962C63.9644 115.842 63.9628 115.646 64.0831 115.523C64.2035 115.401 64.3996 115.399 64.522 115.52C65.1626 116.15 65.4048 116.912 65.3564 118.15C65.3471 118.394 65.2497 118.732 65.0962 119.089L65.0981 119.09Z" fill="#1A1A1A"/>
<path d="M61.6599 119.182C61.6503 119.204 61.638 119.226 61.6228 119.246C61.5196 119.383 61.3249 119.41 61.1884 119.307C60.6161 118.876 60.0859 118.288 59.613 117.558C59.5198 117.414 59.5608 117.222 59.7046 117.129C59.8483 117.035 60.0409 117.076 60.1341 117.22C60.5672 117.889 61.0475 118.424 61.5616 118.811C61.6782 118.898 61.7155 119.053 61.6602 119.181L61.6599 119.182Z" fill="#1A1A1A"/>
<path d="M59.7721 116.749C59.7449 116.812 59.6963 116.867 59.6302 116.901C59.6131 116.91 59.5963 116.917 59.5791 116.922C59.5605 116.93 59.5411 116.936 59.5229 116.939C59.4148 116.959 59.2583 116.923 59.1739 116.754C59.0974 116.6 59.1593 116.414 59.3128 116.337C59.3257 116.331 59.3384 116.326 59.3521 116.321C59.3719 116.313 59.3924 116.306 59.4121 116.303C59.5246 116.281 59.6754 116.316 59.7617 116.483C59.8063 116.569 59.807 116.666 59.7712 116.749L59.7721 116.749Z" fill="#1A1A1A"/>
<path d="M59.3783 116.05C59.3503 116.115 59.2997 116.172 59.2312 116.206C59.0771 116.282 58.8911 116.219 58.8152 116.066C58.1332 114.688 57.9844 113.497 57.9782 113.447C57.9575 113.276 58.0791 113.122 58.2496 113.101C58.42 113.081 58.5744 113.202 58.5951 113.373C58.5979 113.395 58.7432 114.519 59.3719 115.79C59.414 115.875 59.4136 115.97 59.3789 116.051L59.3783 116.05Z" fill="#1A1A1A"/>
<path d="M56.2344 106.121C56.1709 106.269 56.0029 106.345 55.848 106.291C55.7814 106.268 54.2102 105.747 53.5343 107.43C53.5147 107.478 53.4899 107.546 53.4648 107.617C53.364 107.895 53.3313 107.978 53.2617 108.046C53.2038 108.102 53.1461 108.119 53.0722 108.143C52.3941 108.354 51.923 108.756 51.6713 109.341L51.6686 109.347C51.5427 109.643 51.5358 109.961 51.6485 110.319C51.7214 110.551 51.9779 111.034 52.07 111.201C52.1293 111.308 52.1207 111.438 52.0483 111.537C51.7963 111.878 51.7014 112.281 51.7946 112.616C51.8703 112.887 52.0658 113.096 52.36 113.218C52.5183 113.284 52.5931 113.465 52.5278 113.624C52.5273 113.625 52.5267 113.626 52.5262 113.628C52.4592 113.783 52.2792 113.856 52.1219 113.792C51.6517 113.597 51.3224 113.238 51.196 112.782C51.0681 112.323 51.1583 111.794 51.4363 111.336C51.3205 111.119 51.1307 110.745 51.0556 110.506C50.8983 110.008 50.9125 109.536 51.097 109.104L51.1005 109.096C51.4182 108.358 51.9959 107.846 52.8192 107.573C52.8394 107.519 52.8634 107.453 52.8809 107.406C52.9089 107.329 52.9363 107.253 52.9581 107.199C53.6722 105.419 55.2936 105.443 56.0513 105.705C56.2132 105.761 56.2995 105.937 56.2429 106.1C56.2397 106.107 56.2374 106.114 56.2344 106.121Z" fill="#1A1A1A"/>
<path d="M53.4058 110.015C53.3857 110.062 53.355 110.101 53.3219 110.13C53.3032 110.148 53.282 110.163 53.2589 110.176C53.1084 110.257 52.9208 110.203 52.8393 110.052C52.7572 109.902 52.7975 109.759 52.8796 109.672C52.9057 109.642 52.9378 109.617 52.9752 109.598C53.1287 109.522 53.3149 109.584 53.3914 109.738C53.4441 109.844 53.4389 109.94 53.4064 110.016L53.4058 110.015Z" fill="#1A1A1A"/>
<path d="M57.7399 112.873C57.6876 112.995 57.5611 113.073 57.4231 113.059C57.3266 113.049 55.0511 112.797 53.5618 111.01C53.4524 110.878 53.4699 110.682 53.6015 110.572C53.7332 110.463 53.9292 110.481 54.0387 110.612C55.3673 112.207 57.465 112.439 57.486 112.442C57.6564 112.459 57.7803 112.612 57.7628 112.782C57.7592 112.815 57.7513 112.845 57.739 112.873L57.7399 112.873Z" fill="#1A1A1A"/>
<path d="M58.8009 121.103C58.7806 121.15 58.748 121.194 58.7042 121.227C58.4353 121.432 57.9545 121.669 57.4097 121.721C57.2389 121.737 57.0878 121.612 57.0717 121.441C57.0555 121.27 57.1809 121.119 57.3517 121.103C57.7662 121.064 58.1373 120.879 58.328 120.734C58.4645 120.63 58.6592 120.656 58.7629 120.792C58.8332 120.885 58.8439 121.004 58.8009 121.103Z" fill="#1A1A1A"/>
<path d="M56.8273 121.484C56.7731 121.61 56.6436 121.684 56.5113 121.67C56.4749 121.668 56.4347 121.658 56.3932 121.64C56.2352 121.574 56.1606 121.392 56.2272 121.234L56.2283 121.231C56.2886 121.091 56.4399 121.018 56.5842 121.052C56.6035 121.055 56.6231 121.06 56.6444 121.067C56.8063 121.123 56.8927 121.3 56.8369 121.462C56.8337 121.469 56.8314 121.476 56.8282 121.484L56.8273 121.484Z" fill="#1A1A1A"/>
<path d="M56.1599 121.006C56.1465 121.037 56.1279 121.066 56.1032 121.093C55.987 121.219 55.7909 121.227 55.6642 121.112C55.639 121.089 55.606 121.061 55.571 121.031C55.4792 120.954 55.3753 120.866 55.2998 120.777C55.2624 120.732 55.2123 120.67 55.1617 120.605C55.1307 120.565 55.0876 120.51 55.0515 120.466C54.1814 120.464 53.4698 120.157 52.9368 119.551C52.6261 119.199 52.4658 118.755 52.4586 118.232C52.4547 117.973 52.5231 117.54 52.5642 117.301C52.329 117.065 52.0407 116.755 51.8936 116.436C51.5485 115.689 51.6335 114.933 52.1457 114.191C52.2432 114.05 52.4365 114.014 52.5776 114.112C52.7186 114.209 52.7536 114.403 52.657 114.543C52.0861 115.371 52.3657 115.976 52.4578 116.175C52.5832 116.448 52.9139 116.774 53.1116 116.968C53.1853 117.041 53.2233 117.151 53.2038 117.253C53.1682 117.44 53.0762 117.979 53.0795 118.223C53.0847 118.598 53.1907 118.898 53.4029 119.139C53.8249 119.619 54.4007 119.856 55.113 119.843C55.1901 119.842 55.2514 119.841 55.3236 119.877C55.4107 119.919 55.4669 119.988 55.6495 120.219C55.6955 120.278 55.7408 120.335 55.7752 120.376C55.8161 120.425 55.9025 120.497 55.9714 120.556C56.014 120.591 56.054 120.625 56.085 120.654C56.1852 120.745 56.2108 120.887 56.1601 121.005L56.1599 121.006Z" fill="#1A1A1A"/>
<path d="M54.9371 118.344C54.8829 118.47 54.7498 118.548 54.6077 118.528C54.5669 118.522 54.5286 118.509 54.4954 118.489C54.3903 118.432 54.3058 118.309 54.3369 118.14C54.3675 117.971 54.5296 117.86 54.698 117.89C54.734 117.897 54.7677 117.909 54.7977 117.927C54.8947 117.978 54.9846 118.09 54.9595 118.264C54.9556 118.292 54.948 118.318 54.9374 118.343L54.9371 118.344Z" fill="#1A1A1A"/>
<path d="M58.1208 114.219C58.0887 114.294 58.0284 114.355 57.9468 114.386C57.9231 114.395 56.0851 115.132 55.3349 117.276C55.2786 117.439 55.1013 117.523 54.939 117.466C54.7773 117.41 54.6919 117.233 54.7486 117.07C55.5987 114.643 57.6376 113.839 57.7246 113.806C57.8847 113.745 58.0641 113.825 58.1253 113.985C58.1554 114.064 58.1511 114.147 58.1202 114.219L58.1208 114.219Z" fill="#1A1A1A"/>
<path d="M58.1506 112.92C58.1183 112.995 58.0571 113.056 57.9748 113.087C55.0581 114.187 49.0497 114.058 48.795 114.052C48.6233 114.048 48.4882 113.906 48.4923 113.734C48.4964 113.563 48.6384 113.428 48.8101 113.432C48.8712 113.433 54.9525 113.563 57.756 112.506C57.9164 112.446 58.0955 112.527 58.1558 112.687C58.1854 112.765 58.1813 112.848 58.1506 112.92Z" fill="#1A1A1A"/>
<path d="M58.3899 113.899C58.3504 113.991 58.2677 114.062 58.1621 114.082C53.8398 114.897 48.8323 114.586 48.7822 114.583C48.6113 114.572 48.4816 114.424 48.4927 114.253C48.5038 114.082 48.6515 113.953 48.8224 113.964C48.8718 113.967 53.8035 114.273 58.0468 113.472C58.2155 113.44 58.3773 113.551 58.4093 113.719C58.421 113.782 58.4134 113.845 58.3896 113.9L58.3899 113.899Z" fill="#1A1A1A"/>
<path d="M49.0808 114.383C48.8659 114.882 48.2846 115.114 47.7848 114.899C47.2851 114.684 47.0538 114.103 47.269 113.603C47.4841 113.103 48.0651 112.872 48.5649 113.087C49.0647 113.302 49.296 113.883 49.0808 114.383ZM47.8394 113.848C47.7599 114.033 47.8457 114.249 48.0305 114.328C48.2152 114.408 48.4308 114.322 48.5103 114.137C48.5899 113.953 48.5041 113.737 48.3193 113.657C48.1345 113.578 47.919 113.664 47.8394 113.848Z" fill="#1A1A1A"/>
<path d="M49.9308 112.839C49.7821 113.184 49.3806 113.344 49.0358 113.195C48.6911 113.047 48.5311 112.645 48.6795 112.3C48.828 111.955 49.2298 111.795 49.5746 111.944C49.9193 112.092 50.0793 112.494 49.9308 112.839ZM49.2494 112.545C49.236 112.576 49.2502 112.612 49.2812 112.625C49.3122 112.639 49.3476 112.625 49.361 112.594C49.3743 112.563 49.3602 112.527 49.3292 112.514C49.2982 112.5 49.2627 112.514 49.2494 112.545Z" fill="#1A1A1A"/>
<path d="M50.689 112.611C50.8521 112.682 50.9273 112.87 50.8574 113.033C50.7874 113.195 50.5982 113.271 50.4352 113.201C50.2721 113.131 50.1975 112.942 50.2677 112.779C50.3379 112.616 50.5266 112.541 50.689 112.611Z" fill="#1A1A1A"/>
<path d="M49.9699 115.709C49.8212 116.054 49.4196 116.214 49.0749 116.065C48.7301 115.917 48.5702 115.515 48.7186 115.17C48.867 114.825 49.2689 114.666 49.6136 114.814C49.9584 114.962 50.1183 115.364 49.9699 115.709ZM49.2884 115.416C49.2751 115.447 49.2892 115.482 49.3202 115.495C49.3512 115.509 49.3867 115.495 49.4001 115.464C49.4134 115.433 49.3993 115.397 49.3683 115.384C49.3373 115.37 49.3018 115.385 49.2884 115.416Z" fill="#1A1A1A"/>
<path d="M50.9469 115.121C51.1354 115.202 51.2217 115.42 51.1408 115.608C51.0599 115.796 50.8414 115.883 50.6535 115.802C50.4657 115.721 50.3782 115.503 50.4593 115.314C50.5405 115.126 50.7584 115.039 50.9469 115.121Z" fill="#1A1A1A"/>
<circle cx="48.2059" cy="113.955" r="0.498581" transform="rotate(-66.706 48.2059 113.955)" fill="url(#paint4_linear_154_1409)"/>
<path d="M50.9649 114.058C53.2743 114.087 57.9527 113.882 57.9272 113.436C57.9018 112.991 57.6912 113.214 57.6219 113.305C54.5552 113.704 48.9304 114.412 50.9649 114.058Z" stroke="#D03AB8" stroke-width="0.498581" stroke-linecap="round" stroke-linejoin="round"/>
<path d="M25.0165 118.408C22.3026 102.494 33.6425 99.7992 41.0146 98.8159C36.3641 113.477 41.2465 120.418 49.774 124.661C53.6084 126.569 64.28 124.639 60.3358 126.308C59.5167 126.655 58.1321 127.187 55.9748 127.966C47.4631 131.039 38.288 129.252 32.0288 126.912C28.3412 125.534 25.6783 122.289 25.0165 118.408Z" fill="#26AC94"/>
<path d="M42.7965 97.4145C39.8359 95.1267 36.1754 88.4518 45.2188 80.0544C54.2622 71.657 72.9325 61.1485 81.4107 56.9094C85.8517 54.6889 96.6529 48.3216 102.144 47.3529C108.864 46.1672 113.305 50.8536 114.659 53.4087C116.013 55.9638 116.535 59.7355 115.063 64.3637M42.7965 97.4145C49.2562 104.682 70.2495 97.4145 79.5351 92.1658C87.9848 87.3896 96.8952 80.0544 108.603 71.9796C112.038 69.611 114.021 66.9529 115.063 64.3637M42.7965 97.4145C33.2417 98.3564 16.6351 105.085 26.6474 124.464M42.7965 97.4145C31.4925 121.315 51.0054 126.71 62.1749 126.42M42.7965 97.4145C38.3554 97.4145 28.3428 97.8989 23.8212 99.8365C19.2997 101.774 20.3222 98.3947 21.3987 96.4629M26.6474 124.464C28.5314 126.886 36.4174 131.165 52.8893 128.905C55.9303 128.487 59.0548 127.614 62.1749 126.42M26.6474 124.464C24.2254 124.464 18.5728 118.408 17.3616 109.526C16.5689 103.712 19.2353 99.2826 21.3987 96.4629M96.8951 102.259L95.6839 103.47C89.6488 109.615 75.9549 121.146 62.1749 126.42M96.8951 102.259V102.259C96.8951 103.253 98.0328 103.818 98.8249 103.217L108.039 96.2268C108.414 95.9425 108.761 95.6241 109.059 95.2598C110.785 93.1462 113.195 89.4302 112.558 87.1894M96.8951 102.259L112.558 87.1894M115.063 64.3637C114.928 67.4406 114.74 74.3212 115.063 77.228C115.346 79.7782 114.407 83.5506 113.445 85.7101C113.223 86.2107 112.913 86.7719 112.558 87.1894V87.1894M49.6593 76.3406C41.854 81.1853 25.2462 92.3557 24.2248 93.3769C23.0134 94.5881 22.5406 94.9746 21.3987 96.4629M41.0384 94.0527L92.4205 64.2432C93.4213 63.6626 94.4764 63.1752 95.5992 62.8957C101.143 61.5158 110.198 61.0169 112.237 67.8107" stroke="#1A1A1A" stroke-width="2.42234" stroke-linejoin="round"/>
<circle cx="69.7034" cy="108.587" r="1.21117" fill="#D9D9D9"/>
<circle cx="30.7019" cy="92.2664" r="1.01376" transform="rotate(-62.1618 30.7019 92.2664)" fill="#D9D9D9"/>
<circle cx="73.5392" cy="105.761" r="0.605584" fill="#D9D9D9"/>
<circle cx="64.4534" cy="103.338" r="1.21117" fill="#D9D9D9"/>
<circle cx="70.9142" cy="103.136" r="0.605584" fill="#D9D9D9"/>
<circle cx="70.9143" cy="115.45" r="1.21117" fill="#D9D9D9"/>
<circle cx="36.2526" cy="94.0526" r="1.01376" transform="rotate(-62.1618 36.2526 94.0526)" fill="#D9D9D9"/>
<circle cx="74.1446" cy="109.192" r="0.605584" fill="#D9D9D9"/>
<defs>
<linearGradient id="paint0_linear_154_1409" x1="14.3945" y1="32.9234" x2="100.457" y2="32.9234" gradientUnits="userSpaceOnUse">
<stop stop-color="#FBD099"/>
<stop offset="0.598958" stop-color="#FCEFDF"/>
<stop offset="1" stop-color="#FFE299"/>
</linearGradient>
<linearGradient id="paint1_linear_154_1409" x1="32.87" y1="68.2397" x2="32.87" y2="69.2368" gradientUnits="userSpaceOnUse">
<stop stop-color="#EFD891"/>
<stop offset="1" stop-color="#EDE2B2"/>
</linearGradient>
<linearGradient id="paint2_linear_154_1409" x1="61.2243" y1="17.4854" x2="61.2243" y2="54.8916" gradientUnits="userSpaceOnUse">
<stop stop-color="#EFD891"/>
<stop offset="1" stop-color="#EDE2B2"/>
</linearGradient>
<linearGradient id="paint3_linear_154_1409" x1="29.7344" y1="78.104" x2="116.12" y2="78.104" gradientUnits="userSpaceOnUse">
<stop stop-color="#FBD099"/>
<stop offset="0.598958" stop-color="#FCEFDF"/>
<stop offset="1" stop-color="#FFE299"/>
</linearGradient>
<linearGradient id="paint4_linear_154_1409" x1="48.2059" y1="113.456" x2="48.2059" y2="114.454" gradientUnits="userSpaceOnUse">
<stop stop-color="#EFD891"/>
<stop offset="1" stop-color="#EDE2B2"/>
</linearGradient>
</defs>
</svg>
