<svg width="180" height="124" viewBox="0 0 180 124" fill="none" xmlns="http://www.w3.org/2000/svg">
<path d="M80.6992 106.143L30.5938 103.16L45.5061 117.476L87.8572 116.88H140.945L148.103 103.16L80.6992 106.143Z" fill="#D15454"/>
<path d="M37.1552 64.6081L40.7341 21.8949H53.2605L65.1904 29.0528L63.4009 64.6081H37.1552Z" fill="#D15454"/>
<path d="M93.8221 7.22754H83.0852L77.1203 63.0636H112.313V44.6859L109.927 28.5806L102.769 11.2823L93.8221 7.22754Z" fill="#D15454"/>
<path d="M124.84 58.2881L130.208 12.2338H136.77L150.013 21.1812L153.592 60.6741L124.84 58.2881Z" fill="#D15454"/>
<path d="M80.6992 106.143L30.5938 103.16L45.5061 117.476L87.8572 116.88H140.945L148.103 103.16L80.6992 106.143Z" stroke="#D15454" stroke-width="3.57896" stroke-linecap="round" stroke-linejoin="round"/>
<path d="M37.1552 64.6081L40.7341 21.8949H53.2605L65.1904 29.0528L63.4009 64.6081H37.1552Z" stroke="#D15454" stroke-width="3.57896" stroke-linecap="round" stroke-linejoin="round"/>
<path d="M93.8221 7.22754H83.0852L77.1203 63.0636H112.313V44.6859L109.927 28.5806L102.769 11.2823L93.8221 7.22754Z" stroke="#D15454" stroke-width="3.57896" stroke-linecap="round" stroke-linejoin="round"/>
<path d="M124.84 58.2881L130.208 12.2338H136.77L150.013 21.1812L153.592 60.6741L124.84 58.2881Z" stroke="#D15454" stroke-width="3.57896" stroke-linecap="round" stroke-linejoin="round"/>
<path d="M83.1225 104.648L30.3187 102.763C29.946 102.749 29.6367 103.048 29.6367 103.421C29.6367 103.595 29.7061 103.763 29.8296 103.886L43.7674 117.824C43.8928 117.949 44.0629 118.02 44.2402 118.02H141.06C141.264 118.02 141.458 117.926 141.585 117.766L148.438 109.085C148.509 108.994 148.556 108.886 148.574 108.772L149.38 103.531C149.444 103.119 149.118 102.749 148.7 102.761L83.1225 104.648Z" fill="url(#paint0_linear_156_1688)" stroke="#1A1A1A" stroke-width="1.33714" stroke-linejoin="round"/>
<path d="M147.551 14.7468C147.556 14.7421 147.556 14.7347 147.553 14.7292C147.541 14.7128 147.518 14.6797 147.505 14.6664C147.378 14.5217 147.233 14.3951 147.089 14.2867C144.955 12.2616 142.46 10.6885 139.513 9.7664C139.26 9.69408 138.97 9.63984 138.699 9.63984H127.905C126.549 9.63984 125.41 10.6343 125.211 11.9723L118.587 63.9576C118.579 64.0176 118.575 64.0781 118.575 64.1387C118.575 64.1646 118.575 64.191 118.575 64.2105C118.575 64.2828 118.557 64.3551 118.557 64.4275V71.6067C118.557 72.3979 117.916 73.0393 117.124 73.0393H79.1989C78.4076 73.0393 77.7662 72.3979 77.7662 71.6067V66.7461C77.7662 65.9549 78.4076 65.3134 79.1989 65.3134H115.375C116.803 65.3134 117.996 64.1924 118.087 62.764C118.195 60.9927 120.165 24.5106 104.415 9.65666C104.405 9.64683 104.395 9.63691 104.384 9.62677C104.372 9.61471 104.356 9.59819 104.345 9.58772C101.922 7.30951 99.0657 5.51949 95.7207 4.48887C95.4675 4.39847 95.1782 4.3623 94.907 4.3623H82.2503C80.8942 4.3623 79.7371 5.37484 79.5562 6.73092L72.738 59.3878C72.7152 59.5638 72.6456 59.617 72.6203 59.4413C72.4504 58.2609 72.3419 52.9286 72.3419 53.3512V98.276C72.3419 99.0962 71.6527 99.7492 70.8338 99.703C62.2369 99.2183 56.6237 98.5436 47.1838 98.0305V72.0566C47.1838 71.2654 47.8252 70.6239 48.6164 70.6239H67.4781C68.7619 70.6239 69.8829 69.7199 70.136 68.4542C70.2807 67.749 71.8899 55.8464 71.7272 46.7155C71.7272 46.5166 71.7272 46.3177 71.7272 46.1188C71.4379 35.4149 68.6534 23.4452 58.1845 20.1726C57.9313 20.1002 57.6782 20.046 57.4251 20.046L40.9171 19.7929H40.8809C39.4887 19.7929 38.3134 20.8596 38.1869 22.2519L34.9304 68.2873C34.9056 68.638 35.0107 68.9856 35.2255 69.2639L39.2079 74.422C39.6068 74.9387 39.6263 75.683 39.4869 76.3207C38.5972 80.3916 40.2074 93.1148 41.7956 97.7231C36.8595 97.4519 25.946 97.2711 25.8195 97.2711C24.825 97.2349 23.8848 97.7051 23.3604 98.5549C22.8361 99.4047 22.818 100.453 23.3062 101.321L25.494 105.209C25.6386 105.444 25.8014 105.679 26.0003 105.86L41.3691 120.162C41.8754 120.632 42.5263 120.885 43.2134 120.885H143.563C144.503 120.885 145.389 120.397 145.877 119.583L156.943 101.394C157.467 100.526 157.467 99.4589 156.943 98.591C156.419 97.7231 155.515 97.2349 154.466 97.2711C154.336 97.2711 151.655 97.4169 147.418 97.6299C146.6 97.671 145.914 97.0186 145.914 96.1995V75.7696C145.914 74.2689 144.702 73.0574 143.201 73.0574H125.396C124.605 73.0574 123.963 72.416 123.963 71.6248V63.9952C123.963 63.1369 124.713 62.4712 125.565 62.5725L156.111 66.2026C157.54 66.2026 158.733 65.0816 158.823 63.6532C158.914 62.1528 160.558 27.8827 147.551 14.7666C147.545 14.7611 147.545 14.7523 147.551 14.7468V14.7468ZM127.253 36.6351C127.3 36.2965 127.467 35.9861 127.723 35.7598L144.145 21.2568C144.761 20.712 145.712 20.7957 146.175 21.4759C149.473 26.3187 151.32 32.9544 152.333 39.3342C152.442 40.0207 152.032 40.6805 151.371 40.8977L127.649 48.6994C126.642 49.0308 125.636 48.1904 125.783 47.1399L127.253 36.6351ZM130.27 15.043C130.272 15.0449 130.275 15.0461 130.278 15.0461H138.022C138.183 15.0461 138.343 15.0726 138.494 15.1286C138.881 15.2719 139.256 15.4313 139.62 15.6051C140.476 16.0138 140.562 17.1512 139.85 17.7791L131.369 25.2664C130.372 26.1467 128.818 25.3112 129.002 23.994L130.252 15.049C130.254 15.0403 130.264 15.0368 130.27 15.043V15.043ZM44.8258 115.443C44.4635 115.443 44.1147 115.305 43.8495 115.058L33.7584 105.662C32.778 104.749 33.4707 103.11 34.8084 103.183C45.659 103.778 63.4779 104.757 74.4032 105.299C75.0179 105.335 75.6327 105.353 76.2113 105.389C79.0861 105.534 81.3463 105.625 82.6662 105.679C83.064 105.679 83.5702 105.697 84.1669 105.697C86.6982 105.697 91.0015 105.57 96.2812 105.389C111.09 104.847 133.528 103.744 145.896 103.129C146.238 103.111 146.575 103.094 146.904 103.078C148.063 103.021 148.827 104.294 148.224 105.285L142.463 114.755C142.203 115.182 141.739 115.443 141.239 115.443H44.8258ZM140.507 97.9582C127.742 98.591 108.974 99.4951 96.1185 99.9652H79.1989C78.4076 99.9652 77.7662 99.3238 77.7662 98.5325V79.8963C77.7662 79.1051 78.4076 78.4637 79.1989 78.4637H139.057C139.848 78.4637 140.489 79.1051 140.489 79.8963V97.9401C140.489 97.9501 140.497 97.9582 140.507 97.9582V97.9582ZM112.753 59.8891H79.7769C78.9123 59.8891 78.2447 59.1291 78.3562 58.2718L78.7336 55.3687C78.8053 54.8172 79.1897 54.357 79.7196 54.1882L110.393 44.4201C111.257 44.145 112.157 44.7318 112.24 45.6346C112.794 51.6592 112.82 56.8971 112.771 59.8715C112.771 59.8815 112.763 59.8891 112.753 59.8891V59.8891ZM79.6105 48.5342L81.6009 33.2165C81.6568 32.7868 81.9481 32.4597 82.2865 32.189V32.189L101.1 16.0261C101.696 15.5144 102.596 15.5754 103.078 16.1955C107.335 21.6755 109.749 29.526 111.101 37.209C111.224 37.9082 110.806 38.5864 110.129 38.8017L79.6277 48.5107C79.6175 48.5139 79.6105 48.5235 79.6105 48.5342V48.5342ZM84.637 9.78661H94.2556C94.4116 9.78661 94.5668 9.81152 94.7138 9.86386C95.289 10.0687 95.8424 10.3062 96.3775 10.5713C97.2379 10.9977 97.3191 12.1525 96.5905 12.7781L85.5555 22.2515C84.559 23.107 83.0325 22.2824 83.2016 20.98L84.6528 9.80454C84.654 9.79504 84.6466 9.78661 84.637 9.78661V9.78661ZM65.318 63.8537C65.2606 64.6018 64.6375 65.1815 63.8872 65.1815H41.3087C40.4937 65.1815 39.8429 64.5026 39.8773 63.6883L40.0609 59.347C40.0864 58.7437 40.4875 58.2212 41.0637 58.0405L64.3724 50.7324C65.31 50.4385 66.2572 51.1541 66.2082 52.1354C66.0452 55.4025 65.7036 58.8257 65.318 63.8537ZM66.1373 43.3589C66.188 44.0136 65.7733 44.6112 65.1468 44.8078L42.7434 51.8366C41.7651 52.1436 40.7905 51.3534 40.8884 50.3328L41.552 43.4188C41.5738 43.1914 41.7151 43.025 41.8935 42.8823V42.8823L59.1609 27.4411V27.4411C59.4426 27.1876 59.8653 27.1052 60.1519 27.3532C63.9843 30.6699 65.6332 36.846 66.1373 43.3589ZM43.1952 26.552C43.2667 25.8084 43.8976 25.2446 44.6446 25.2567L49.6735 25.3384C50.9777 25.3596 51.5773 26.9708 50.6044 27.8395L45.0944 32.7595C44.1219 33.6279 42.5893 32.8515 42.7141 31.5537L43.1952 26.552ZM153.5 59.1532C153.499 60.0098 152.744 60.6624 151.895 60.5509L125.334 57.0651C124.808 56.9961 124.44 56.5112 124.515 55.9866V55.9866C124.565 55.6384 124.803 55.3461 125.133 55.2262L151.35 45.72C152.237 45.3984 153.184 46.0073 153.236 46.9494C153.45 50.8235 153.505 56.1692 153.5 59.1532Z" fill="#1A1A1A"/>
<path d="M177.01 88.3235C178.675 98.9426 158.522 103.981 147.791 110.421C147.366 110.676 146.841 110.242 147.019 109.78L152.062 96.7488C152.132 96.5689 152.093 96.365 151.962 96.223L148.747 92.7264C148.679 92.6528 148.635 92.5608 148.619 92.462L147.997 88.4991C147.98 88.3854 148.001 88.2691 148.058 88.1692L150.102 84.5931C150.203 84.4154 150.188 84.195 150.065 84.0316C147.508 80.6341 144.741 75.3485 152.814 79.5051C161.102 83.7728 168.597 75.0876 173.029 77.1022C177.01 78.9116 174.39 81.6155 174.089 82.0289C172.724 83.9001 162.494 87.5104 156.473 88.8211C150.44 89.279 142.027 90.1345 156.641 89.8936C171.255 89.6527 176.148 82.8334 177.01 88.3235Z" fill="url(#paint1_linear_156_1688)" stroke="#1A1A1A" stroke-width="3.32922" stroke-linejoin="round"/>
<path d="M81.3826 71.6218C72.3384 72.5747 66.6733 86.1497 64.3854 92.959C63.6463 95.1585 64.7614 97.4996 67.0014 98.1049C84.6594 102.876 125.304 99.409 149.587 96.2861C152.893 95.861 154.668 92.2616 152.943 89.4095C149.188 83.1994 143.209 74.1031 139.361 72.1992C133.399 69.2496 93.4908 70.346 81.3826 71.6218Z" fill="url(#paint2_linear_156_1688)" stroke="#1A1A1A" stroke-width="6.68572"/>
<path d="M131.429 78.6717L130.598 76.6716C130.544 76.5421 130.451 76.4328 130.332 76.3592L128.716 75.3616C128.555 75.2627 128.361 75.236 128.18 75.288L126.11 75.8831C125.923 75.937 125.768 76.0702 125.687 76.2477L125.014 77.7206C124.931 77.9023 124.933 78.1117 125.021 78.2913L126.134 80.5769C126.25 80.8145 126.494 80.9616 126.758 80.9524L129.423 80.8591C129.579 80.8536 129.729 80.7935 129.845 80.6892L131.257 79.4265C131.469 79.237 131.538 78.9342 131.429 78.6717Z" stroke="#1A1A1A" stroke-width="1.33714" stroke-linecap="round" stroke-linejoin="round"/>
<path d="M120.933 79.2547L120.102 77.2546C120.048 77.1251 119.955 77.0158 119.836 76.9422L118.22 75.9447C118.059 75.8457 117.865 75.819 117.684 75.871L115.614 76.4661C115.427 76.52 115.272 76.6532 115.191 76.8307L114.518 78.3037C114.435 78.4854 114.437 78.6947 114.525 78.8743L115.638 81.1599C115.754 81.3975 115.998 81.5446 116.262 81.5354L118.927 81.4421C119.083 81.4366 119.233 81.3765 119.349 81.2722L120.761 80.0095C120.973 79.82 121.042 79.5172 120.933 79.2547Z" stroke="#1A1A1A" stroke-width="1.33714" stroke-linecap="round" stroke-linejoin="round"/>
<path d="M110.437 79.6218L109.606 77.6218C109.552 77.4923 109.459 77.383 109.34 77.3094L107.723 76.3118C107.563 76.2129 107.369 76.1862 107.188 76.2382L105.118 76.8333C104.93 76.8872 104.776 77.0204 104.695 77.1979L104.022 78.6708C103.939 78.8525 103.941 79.0619 104.029 79.2415L105.142 81.5271C105.257 81.7647 105.502 81.9118 105.766 81.9026L108.431 81.8093C108.587 81.8038 108.737 81.7437 108.853 81.6394L110.265 80.3767C110.477 80.1872 110.546 79.8844 110.437 79.6218Z" stroke="#1A1A1A" stroke-width="1.33714" stroke-linecap="round" stroke-linejoin="round"/>
<path d="M99.9328 79.989L99.1019 77.989C99.0481 77.8595 98.9549 77.7502 98.8356 77.6766L97.2195 76.679C97.0592 76.5801 96.8647 76.5534 96.6836 76.6054L94.6141 77.2004C94.4266 77.2544 94.2719 77.3876 94.1908 77.5651L93.5177 79.038C93.4346 79.2197 93.4372 79.429 93.5247 79.6087L94.6379 81.8943C94.7536 82.1319 94.9983 82.279 95.2623 82.2697L97.927 82.1765C98.0833 82.171 98.2328 82.1109 98.3494 82.0066L99.7611 80.7439C99.973 80.5543 100.042 80.2516 99.9328 79.989Z" stroke="#1A1A1A" stroke-width="1.33714" stroke-linecap="round" stroke-linejoin="round"/>
<path d="M90.3899 80.323L89.5589 78.323C89.5051 78.1935 89.412 78.0842 89.2927 78.0106L87.6766 77.013C87.5163 76.9141 87.3217 76.8873 87.1407 76.9394L85.0712 77.5344C84.8836 77.5884 84.7289 77.7216 84.6478 77.8991L83.9747 79.372C83.8917 79.5537 83.8942 79.763 83.9817 79.9426L85.0949 82.2283C85.2106 82.4658 85.4553 82.613 85.7194 82.6037L88.3841 82.5104C88.5404 82.505 88.6898 82.4449 88.8064 82.3406L90.2182 81.0779C90.4301 80.8883 90.4989 80.5855 90.3899 80.323Z" stroke="#1A1A1A" stroke-width="1.33714" stroke-linecap="round" stroke-linejoin="round"/>
<circle cx="86.7145" cy="79.7502" r="0.955103" transform="rotate(-2.00509 86.7145 79.7502)" fill="#1A1A1A"/>
<circle cx="96.2614" cy="79.4152" r="0.955103" transform="rotate(-2.00509 96.2614 79.4152)" fill="#1A1A1A"/>
<circle cx="106.757" cy="79.0481" r="0.955103" transform="rotate(-2.00509 106.757 79.0481)" fill="#1A1A1A"/>
<circle cx="117.257" cy="78.6799" r="0.955103" transform="rotate(-2.00509 117.257 78.6799)" fill="#1A1A1A"/>
<circle cx="127.757" cy="78.3127" r="0.955103" transform="rotate(-2.00509 127.757 78.3127)" fill="#1A1A1A"/>
<path d="M126.894 85.7351L126.063 83.7351C126.009 83.6056 125.916 83.4963 125.797 83.4227L124.18 82.4251C124.02 82.3262 123.826 82.2995 123.645 82.3515L121.575 82.9465C121.387 83.0005 121.233 83.1337 121.152 83.3112L120.479 84.7841C120.396 84.9658 120.398 85.1751 120.486 85.3548L121.599 87.6404C121.715 87.878 121.959 88.0251 122.223 88.0158L124.888 87.9225C125.044 87.9171 125.194 87.857 125.31 87.7527L126.722 86.49C126.934 86.3004 127.003 85.9977 126.894 85.7351Z" stroke="#1A1A1A" stroke-width="1.33714" stroke-linecap="round" stroke-linejoin="round"/>
<path d="M116.398 86.3181L115.567 84.3181C115.513 84.1886 115.42 84.0793 115.3 84.0057L113.684 83.0081C113.524 82.9092 113.33 82.8825 113.148 82.9345L111.079 83.5295C110.891 83.5835 110.737 83.7167 110.656 83.8942L109.983 85.3671C109.899 85.5488 109.902 85.7581 109.99 85.9378L111.103 88.2234C111.218 88.461 111.463 88.6081 111.727 88.5988L114.392 88.5056C114.548 88.5001 114.698 88.44 114.814 88.3357L116.226 87.073C116.438 86.8834 116.507 86.5807 116.398 86.3181Z" stroke="#1A1A1A" stroke-width="1.33714" stroke-linecap="round" stroke-linejoin="round"/>
<path d="M105.905 86.6853L105.075 84.6853C105.021 84.5558 104.928 84.4465 104.808 84.3729L103.192 83.3753C103.032 83.2764 102.837 83.2497 102.656 83.3017L100.587 83.8967C100.399 83.9507 100.245 84.0839 100.163 84.2614L99.4903 85.7343C99.4073 85.916 99.4099 86.1253 99.4973 86.3049L100.611 88.5906C100.726 88.8282 100.971 88.9753 101.235 88.966L103.9 88.8727C104.056 88.8673 104.205 88.8072 104.322 88.7029L105.734 87.4402C105.946 87.2506 106.015 86.9478 105.905 86.6853Z" stroke="#1A1A1A" stroke-width="1.33714" stroke-linecap="round" stroke-linejoin="round"/>
<path d="M95.4055 87.0515L94.5745 85.0515C94.5207 84.922 94.4276 84.8127 94.3083 84.7391L92.6922 83.7415C92.5319 83.6426 92.3373 83.6159 92.1563 83.6679L90.0868 84.2629C89.8992 84.3169 89.7446 84.4501 89.6635 84.6276L88.9903 86.1005C88.9073 86.2822 88.9099 86.4915 88.9973 86.6712L90.1105 88.9568C90.2262 89.1944 90.471 89.3415 90.735 89.3322L93.3997 89.239C93.556 89.2335 93.7054 89.1734 93.822 89.0691L95.2338 87.8064C95.4457 87.6168 95.5146 87.3141 95.4055 87.0515Z" stroke="#1A1A1A" stroke-width="1.33714" stroke-linecap="round" stroke-linejoin="round"/>
<path d="M84.9016 86.4314L84.0706 84.4314C84.0168 84.3019 83.9237 84.1926 83.8044 84.119L82.1883 83.1214C82.028 83.0225 81.8334 82.9957 81.6524 83.0478L79.5829 83.6428C79.3953 83.6968 79.2407 83.83 79.1595 84.0075L78.4864 85.4804C78.4034 85.6621 78.406 85.8714 78.4934 86.051L79.6066 88.3367C79.7223 88.5742 79.967 88.7214 80.2311 88.7121L82.8958 88.6188C83.0521 88.6134 83.2015 88.5533 83.3181 88.449L84.7299 87.1862C84.9418 86.9967 85.0106 86.6939 84.9016 86.4314Z" stroke="#1A1A1A" stroke-width="1.33714" stroke-linecap="round" stroke-linejoin="round"/>
<circle cx="81.2262" cy="85.8576" r="0.955103" transform="rotate(-2.00509 81.2262 85.8576)" fill="#1A1A1A"/>
<circle cx="91.7262" cy="86.4787" r="0.955103" transform="rotate(-2.00509 91.7262 86.4787)" fill="#1A1A1A"/>
<circle cx="102.23" cy="86.1115" r="0.955103" transform="rotate(-2.00509 102.23 86.1115)" fill="#1A1A1A"/>
<circle cx="112.73" cy="85.7434" r="0.955103" transform="rotate(-2.00509 112.73 85.7434)" fill="#1A1A1A"/>
<circle cx="123.226" cy="85.3762" r="0.955103" transform="rotate(-2.00509 123.226 85.3762)" fill="#1A1A1A"/>
<path d="M132.738 91.2605L131.907 89.2605C131.853 89.131 131.76 89.0217 131.64 88.9481L130.024 87.9505C129.864 87.8516 129.669 87.8248 129.488 87.8769L127.419 88.4719C127.231 88.5259 127.077 88.6591 126.995 88.8366L126.322 90.3095C126.239 90.4912 126.242 90.7005 126.329 90.8801L127.443 93.1658C127.558 93.4033 127.803 93.5505 128.067 93.5412L130.732 93.4479C130.888 93.4425 131.037 93.3824 131.154 93.2781L132.566 92.0154C132.778 91.8258 132.847 91.523 132.738 91.2605Z" stroke="#1A1A1A" stroke-width="1.33714" stroke-linecap="round" stroke-linejoin="round"/>
<path d="M137.511 84.575L136.68 82.5749C136.626 82.4454 136.533 82.3362 136.414 82.2625L134.798 81.265C134.637 81.166 134.443 81.1393 134.262 81.1914L132.192 81.7864C132.005 81.8403 131.85 81.9735 131.769 82.151L131.096 83.624C131.013 83.8057 131.015 84.015 131.103 84.1946L132.216 86.4803C132.332 86.7178 132.576 86.8649 132.84 86.8557L135.505 86.7624C135.661 86.7569 135.811 86.6968 135.927 86.5925L137.339 85.3298C137.551 85.1403 137.62 84.8375 137.511 84.575Z" stroke="#1A1A1A" stroke-width="1.33714" stroke-linecap="round" stroke-linejoin="round"/>
<path d="M144.195 90.3054L143.364 88.3054C143.31 88.1759 143.217 88.0666 143.097 87.993L141.481 86.9954C141.321 86.8965 141.126 86.8698 140.945 86.9218L138.876 87.5169C138.688 87.5708 138.534 87.704 138.453 87.8815L137.779 89.3544C137.696 89.5361 137.699 89.7455 137.786 89.9251L138.9 92.2107C139.015 92.4483 139.26 92.5954 139.524 92.5861L142.189 92.4929C142.345 92.4874 142.495 92.4273 142.611 92.323L144.023 91.0603C144.235 90.8708 144.304 90.568 144.195 90.3054Z" stroke="#1A1A1A" stroke-width="1.33714" stroke-linecap="round" stroke-linejoin="round"/>
<path d="M79.2492 92.2146L78.4183 90.2146C78.3645 90.0851 78.2714 89.9758 78.152 89.9022L76.5359 88.9046C76.3757 88.8057 76.1811 88.7789 76 88.831L73.9305 89.426C73.743 89.48 73.5883 89.6132 73.5072 89.7907L72.8341 91.2636C72.751 91.4453 72.7536 91.6546 72.8411 91.8342L73.9543 94.1199C74.07 94.3574 74.3147 94.5046 74.5788 94.4953L77.2434 94.402C77.3997 94.3966 77.5492 94.3365 77.6658 94.2322L79.0775 92.9695C79.2894 92.7799 79.3583 92.4771 79.2492 92.2146Z" stroke="#1A1A1A" stroke-width="1.33714" stroke-linecap="round" stroke-linejoin="round"/>
<path d="M121.405 92.8318L120.575 90.8318C120.521 90.7023 120.428 90.593 120.308 90.5193L118.692 89.5218C118.532 89.4229 118.337 89.3961 118.156 89.4482L116.087 90.0432C115.899 90.0972 115.745 90.2304 115.663 90.4079L114.99 91.8808C114.907 92.0625 114.91 92.2718 114.997 92.4514L116.111 94.7371C116.226 94.9746 116.471 95.1218 116.735 95.1125L119.4 95.0192C119.556 95.0138 119.705 94.9537 119.822 94.8494L121.234 93.5866C121.446 93.3971 121.515 93.0943 121.405 92.8318Z" stroke="#1A1A1A" stroke-width="1.33714" stroke-linecap="round" stroke-linejoin="round"/>
<path d="M110.909 93.199L110.078 91.1989C110.025 91.0695 109.932 90.9602 109.812 90.8865L108.196 89.889C108.036 89.7901 107.841 89.7633 107.66 89.8154L105.591 90.4104C105.403 90.4643 105.248 90.5975 105.167 90.7751L104.494 92.248C104.411 92.4297 104.414 92.639 104.501 92.8186L105.614 95.1043C105.73 95.3418 105.975 95.4889 106.239 95.4797L108.904 95.3864C109.06 95.3809 109.209 95.3208 109.326 95.2166L110.738 93.9538C110.95 93.7643 111.018 93.4615 110.909 93.199Z" stroke="#1A1A1A" stroke-width="1.33714" stroke-linecap="round" stroke-linejoin="round"/>
<path d="M100.409 93.5662L99.5784 91.5661C99.5246 91.4367 99.4315 91.3274 99.3122 91.2537L97.6961 90.2562C97.5358 90.1572 97.3412 90.1305 97.1602 90.1826L95.0907 90.7776C94.9031 90.8315 94.7485 90.9647 94.6674 91.1422L93.9942 92.6152C93.9112 92.7969 93.9138 93.0062 94.0013 93.1858L95.1144 95.4715C95.2301 95.709 95.4749 95.8561 95.7389 95.8469L98.4036 95.7536C98.5599 95.7481 98.7093 95.688 98.8259 95.5838L100.238 94.321C100.45 94.1315 100.518 93.8287 100.409 93.5662Z" stroke="#1A1A1A" stroke-width="1.33714" stroke-linecap="round" stroke-linejoin="round"/>
<path d="M90.8625 93.9011L90.0316 91.9011C89.9778 91.7716 89.8846 91.6623 89.7653 91.5887L88.1492 90.5911C87.9889 90.4922 87.7943 90.4655 87.6133 90.5175L85.5438 91.1126C85.3562 91.1665 85.2016 91.2997 85.1205 91.4772L84.4474 92.9501C84.3643 93.1318 84.3669 93.3412 84.4544 93.5208L85.5676 95.8064C85.6833 96.044 85.928 96.1911 86.192 96.1819L88.8567 96.0886C89.013 96.0831 89.1625 96.023 89.279 95.9187L90.6908 94.656C90.9027 94.4665 90.9716 94.1637 90.8625 93.9011Z" stroke="#1A1A1A" stroke-width="1.33714" stroke-linecap="round" stroke-linejoin="round"/>
<circle cx="87.1872" cy="93.3274" r="0.955103" transform="rotate(-2.00509 87.1872 93.3274)" fill="#1A1A1A"/>
<circle cx="96.734" cy="92.9934" r="0.955103" transform="rotate(-2.00509 96.734 92.9934)" fill="#1A1A1A"/>
<circle cx="107.234" cy="92.6252" r="0.955103" transform="rotate(-2.00509 107.234 92.6252)" fill="#1A1A1A"/>
<circle cx="117.734" cy="92.258" r="0.955103" transform="rotate(-2.00509 117.734 92.258)" fill="#1A1A1A"/>
<circle cx="129.062" cy="90.9016" r="0.955103" transform="rotate(-2.00509 129.062 90.9016)" fill="#1A1A1A"/>
<circle cx="140.527" cy="89.9465" r="0.955103" transform="rotate(-2.00509 140.527 89.9465)" fill="#1A1A1A"/>
<circle cx="133.843" cy="84.216" r="0.955103" transform="rotate(-2.00509 133.843 84.216)" fill="#1A1A1A"/>
<circle cx="75.5817" cy="91.8567" r="0.955103" transform="rotate(-2.00509 75.5817 91.8567)" fill="#1A1A1A"/>
<path d="M10.9628 73.2299L13.9794 70.4729L15.0453 74.5862L10.8637 73.6945" stroke="url(#paint3_linear_156_1688)" stroke-width="2.85042" stroke-linecap="round" stroke-linejoin="round"/>
<path d="M30.0336 68.0665L26.7812 67.373L28.1137 72.5146L30.0336 68.0665Z" stroke="url(#paint4_linear_156_1688)" stroke-width="2.85042" stroke-linecap="round" stroke-linejoin="round"/>
<path d="M20.1341 55.2707L25.2826 60.7402L35.9313 58.639L50.2971 57.3305L56.467 55.7316L59.4153 51.017L60.3069 46.8353L49.361 50.3304L28.5895 49.7873L20.1341 55.2707Z" fill="url(#paint5_linear_156_1688)" stroke="url(#paint6_linear_156_1688)" stroke-width="2.85042" stroke-linecap="round" stroke-linejoin="round"/>
<path d="M18.0742 55.8028L10.1756 54.1186L9.01745 57.2719L11.9419 61.7815L37.0316 67.1313L38.4938 69.386L39.0644 75.8224L36.0171 81.0017L12.5877 76.9774L10.0664 77.4113L13.1583 83.4138L14.682 80.8242L16.5405 81.2205L23.7149 88.5792L24.8046 83.4684L28.1561 83.6972L40.6395 91.2165L38.0123 85.3131L40.168 84.3155L44.1069 74.9547L42.0741 66.2635L36.3312 63.5817L28.4326 61.8975C28.4326 61.8975 22.6282 64.0601 20.9986 60.3124C19.369 56.5646 18.0742 55.8028 18.0742 55.8028Z" fill="#F47762" stroke="#F47762" stroke-width="2.85042" stroke-linecap="round" stroke-linejoin="round"/>
<path d="M50.9301 58.9211L34.3402 59.2697L44.3331 64.8007L45.5972 67.9848L46.3659 73.4919L45.5734 77.2089L41.1014 84.5131L45.6793 83.5462L52.6111 80.6525L63.6937 81.0726L67.9368 77.1199L64.3872 77.8203L62.293 73.9735L65.7742 71.3155L60.7931 67.3389L61.2885 65.0158L50.9301 58.9211Z" fill="#D15454" stroke="#D15454" stroke-width="2.85042" stroke-linecap="round" stroke-linejoin="round"/>
<path d="M10.0158 51.7983C11.8944 51.0525 13.8636 51.9775 15.4437 52.7225C16.2199 53.092 17.0239 53.4675 17.5561 53.5227C18.1946 53.5811 18.5841 53.5767 18.8024 53.5552C19.6132 52.0766 23.5495 46.6012 36.4515 48.1476C43.3771 48.9734 58.3712 46.905 60.092 42.4339C60.466 41.4547 61.3715 41.1717 62.0732 41.3893C63.9478 41.9833 63.9827 46.2848 63.2993 49.0342C62.6555 51.5977 60.7069 55.9522 54.8783 58.4108C55.622 58.8414 56.3306 59.3908 56.91 60.1361C57.9187 61.4198 61.1118 63.2568 63.9106 61.658C65.4049 60.8011 66.3044 61.1386 66.8039 61.5754C67.1227 61.8571 67.8037 62.6727 67.1762 64.2487C66.7433 65.3222 65.7784 66.6126 64.4177 67.6631C65.9998 67.6701 67.7508 67.4314 69.4137 66.6494C70.1035 66.3301 71.5395 65.6551 72.4888 66.625C72.6894 66.8232 73.2761 67.5798 72.6894 68.7371C72.0549 69.9813 69.3261 72.5277 66.019 74.2318C66.9847 74.3503 67.9079 74.4403 68.683 74.4501C69.6592 74.4737 70.4473 74.9235 70.827 75.6942C71.3231 76.6938 71.0643 77.9987 70.0855 79.3541C68.0557 82.1758 63.4734 84.667 57.824 83.8704C53.3241 83.2412 50.8334 84.352 48.4196 85.4208C46.358 86.3413 44.2308 87.2964 41.4257 86.6012L40.7938 86.4664C42.262 88.6933 43.344 90.9545 42.9519 92.3378C42.7647 92.9877 42.298 93.4905 41.6672 93.7154C38.1082 95.0064 33.87 91.2368 30.1384 87.9153C28.994 86.9038 27.4923 85.5635 26.7227 85.1176C26.3972 86.0974 26.4517 88.8487 26.8744 91.3773C26.9698 91.932 26.7242 92.4916 26.2487 92.808C25.9218 93.02 25.5389 93.0841 25.1672 93.0048C25 92.9692 24.8386 92.9056 24.6852 92.8049C24.4542 92.6585 19.0521 89.107 16.71 84.9645C16.3437 84.3132 16.0613 83.9519 15.8793 83.7576C15.6733 84.1314 15.3311 84.9619 14.9878 86.754C14.8756 87.3713 14.5278 89.2304 12.9305 89.2493C11.8608 89.2543 10.2429 89.2785 7.34477 75.3511C7.34873 75.3325 7.34341 75.3119 7.3361 75.3006C7.32544 75.2595 7.32605 75.2111 7.32667 75.1626C7.32667 75.1626 7.32865 75.1533 7.33063 75.144C7.33657 75.1161 7.32196 75.0936 7.3279 75.0657C7.32988 75.0564 7.33385 75.0378 7.33583 75.0286C7.34573 74.9821 7.34634 74.9336 7.34695 74.8852C7.35488 74.848 7.36083 74.8202 7.35946 74.781C7.35946 74.781 7.35946 74.781 7.36145 74.7717C7.36145 74.7717 7.36541 74.7531 7.36739 74.7438C7.3773 74.6974 7.38522 74.6602 7.40442 74.6157C7.41234 74.5785 7.42027 74.5414 7.43749 74.5062C7.44146 74.4876 7.44344 74.4783 7.44542 74.469C7.45334 74.4319 7.47986 74.3986 7.50637 74.3654C7.52359 74.3302 7.5408 74.2951 7.56731 74.2619C7.57127 74.2433 7.59382 74.2286 7.5958 74.2194L7.59976 74.2008L13.4523 66.4817C13.7876 66.0481 14.3382 65.8352 14.8678 65.9481C15.4121 66.0836 15.8359 66.4654 15.9652 66.9981L18.0773 75.3176C18.1039 75.4205 18.1139 75.51 18.122 75.6089L32.5254 78.6801C34.0029 78.9951 35.4572 78.052 35.7723 76.5745L36.6044 72.6716C36.9195 71.1941 35.9764 69.7398 34.5453 69.4347C34.4431 69.4129 33.9652 69.3304 33.2272 69.1925L28.332 76.659C28.0146 77.1451 27.4282 77.3892 26.8594 77.2776L26.8501 77.2757C26.2833 77.1548 25.8455 76.702 25.7427 76.136L24.1758 67.447C19.594 66.5187 14.6729 65.4499 12.1225 64.6535C9.72814 63.9001 8.01202 62.5627 7.16612 60.7891C6.3621 59.0924 6.37998 57.0949 7.21731 54.9904C7.86798 53.3513 8.80589 52.2786 10.0026 51.8149L10.0158 51.7983ZM58.764 52.0794C60.326 49.9934 60.8061 47.6962 60.8628 46.0179C55.2854 50.8519 40.8474 51.5428 36.112 50.9702C24.7636 49.6094 21.7646 54.0606 21.3202 54.8693C21.3023 54.9529 21.2546 55.0399 21.2275 55.1216L21.2235 55.1401C21.1799 57.2584 21.5915 58.7451 22.457 59.5612C23.1605 60.226 24.186 60.4739 25.2903 60.5345C24.5916 59.346 24.3134 57.9169 24.6225 56.4672C25.2764 53.4007 28.3091 51.434 31.3756 52.0879C33.6616 52.5753 35.3364 54.38 35.7712 56.5323C41.2044 57.477 45.4523 57.557 48.7732 57.109C48.7732 57.109 48.7825 57.111 48.7917 57.113L48.8103 57.117C54.2239 56.3769 57.1622 54.2152 58.7527 52.0867L58.764 52.0794ZM32.9765 58.2485C33.3034 56.7153 32.3237 55.2045 30.7905 54.8776C29.2572 54.5507 27.7465 55.5304 27.4196 57.0636C27.0927 58.5969 28.0398 60.0326 29.5147 60.4054C29.9732 60.3963 30.4298 60.3965 30.8638 60.4114C31.8974 60.1654 32.75 59.3563 32.9858 58.2505L32.9765 58.2485ZM47.2656 82.814C49.7882 81.6906 52.9236 80.2899 58.2233 81.041C62.751 81.6762 65.6457 79.7189 66.678 78.8413C67.4014 78.228 67.8222 77.6668 68.0435 77.2671C64.4492 77.0836 58.9819 75.8887 58.7402 75.8372C57.9876 75.6767 57.5123 74.9439 57.643 74.1945C57.7756 73.4359 58.4865 72.9269 59.2417 73.0296C61.6563 73.3696 64.7147 71.8747 66.9932 70.301C62.5232 70.9897 58.5222 69.5245 58.3144 69.4511C57.6578 69.2042 57.2789 68.5211 57.4162 67.8315C57.5628 67.1438 58.1802 66.6634 58.873 66.6945C60.6442 66.7711 62.161 65.8995 63.1794 64.9509C59.6418 65.7315 56.1758 63.8073 54.6648 61.8724C52.9392 59.6683 49.1231 59.933 49.0335 59.943C48.9645 59.9477 48.9068 59.9451 48.8397 59.9406C45.3344 60.3881 40.9823 60.2956 35.6082 59.3926C35.4415 59.9011 35.2157 60.3678 34.9307 60.7928C45.0963 62.5523 45.9907 69.6115 46.0295 69.9307C46.077 70.3003 47.1243 78.9659 43.2493 83.2886C43.0451 83.5171 42.8356 83.725 42.6095 83.9197C44.213 84.145 45.5284 83.5803 47.247 82.8101L47.2656 82.814ZM13.9614 70.5637L11.2475 74.1334L15.076 74.9497L13.9614 70.5637ZM27.9352 72.0958L30.2118 68.6175C29.2972 68.4419 28.271 68.2425 27.1984 68.0333L27.9352 72.0958ZM9.76288 59.5455C10.2583 60.5935 11.3753 61.4146 12.9977 61.9159C18.2784 63.5762 34.9094 66.5881 35.1231 66.6337C38.1339 67.2756 40.064 70.2519 39.4221 73.2627L38.5899 77.1656C37.9479 80.1763 34.9716 82.1065 31.9608 81.4645L10.6345 76.9172C11.2684 79.6851 12.0045 82.4748 12.6309 84.3668C13.1367 82.5413 13.9335 80.9917 15.433 80.7479C17.4274 80.4154 18.767 82.7898 19.2137 83.5651C20.2635 85.4308 22.1453 87.2213 23.7074 88.5064C23.6005 86.5018 23.7263 84.2261 24.6409 83.0805C25.0803 82.5233 25.6958 82.1882 26.3653 82.1464C27.7847 82.0507 29.2173 83.2597 32.0588 85.7891C34.4672 87.9348 38.0034 91.0787 40.1011 91.1276C39.6785 89.9203 38.1151 87.4108 36.3656 85.1822C36.3583 85.1709 36.351 85.1596 36.3457 85.1391C36.2613 85.0336 36.1994 84.9136 36.1489 84.7862C36.1362 84.7544 36.1349 84.7152 36.1242 84.6741C36.0903 84.56 36.0656 84.4479 36.0635 84.3211C36.0674 84.3025 36.0601 84.2913 36.0548 84.2707C36.058 84.1645 36.0705 84.0603 36.0923 83.9581C36.0963 83.9395 36.0982 83.9302 36.1022 83.9116C36.128 83.7908 36.1796 83.6853 36.2406 83.5817C36.2425 83.5724 36.2465 83.5538 36.2485 83.5445C36.2485 83.5445 36.2505 83.5352 36.2617 83.5279C36.334 83.417 36.4228 83.3194 36.5076 83.2403C36.5302 83.2257 36.5435 83.2091 36.566 83.1945C36.6602 83.1174 36.7616 83.0516 36.8684 83.0064C36.8684 83.0064 36.889 83.001 36.891 82.9918C37.009 82.9392 37.1304 82.9165 37.2612 82.8958C37.291 82.8925 37.3209 82.8891 37.3507 82.8858C37.3899 82.8844 37.4217 82.8718 37.4609 82.8704C38.9998 82.8974 40.1819 82.4111 41.0986 81.3922C43.5956 78.6118 43.4466 72.4305 43.1704 70.2634C43.1657 70.1944 42.3223 63.6707 31.0604 63.2706C30.4573 63.3655 29.8349 63.3688 29.197 63.2619C28.854 63.2762 28.481 63.2938 28.0763 63.3241C25.7784 63.485 22.643 63.7006 20.4703 61.6343C19.2348 60.4576 18.5415 58.6971 18.3879 56.4105C18.0375 56.4135 17.6725 56.394 17.2538 56.3533C16.2357 56.2528 15.2019 55.77 14.1961 55.2933C13.0568 54.7589 11.7695 54.1444 11.0259 54.4424C10.4846 54.6573 10.0892 55.4182 9.84292 56.0263C9.29816 57.3965 9.25889 58.5831 9.72372 59.5469L9.76288 59.5455Z" fill="#1A1A1A"/>
<defs>
<linearGradient id="paint0_linear_156_1688" x1="29.6367" y1="110.379" x2="149.502" y2="110.379" gradientUnits="userSpaceOnUse">
<stop stop-color="#FBD099"/>
<stop offset="0.598958" stop-color="#FCEFDF"/>
<stop offset="1" stop-color="#FFE299"/>
</linearGradient>
<linearGradient id="paint1_linear_156_1688" x1="158.064" y1="76.4561" x2="163.115" y2="108.658" gradientUnits="userSpaceOnUse">
<stop stop-color="#EFD891"/>
<stop offset="1" stop-color="#EDE2B2"/>
</linearGradient>
<linearGradient id="paint2_linear_156_1688" x1="112.316" y1="69.0395" x2="109.19" y2="102.775" gradientUnits="userSpaceOnUse">
<stop stop-color="#8F7830"/>
<stop offset="1" stop-color="#F4DD79"/>
</linearGradient>
<linearGradient id="paint3_linear_156_1688" x1="11.26" y1="71.836" x2="15.4416" y2="72.7277" gradientUnits="userSpaceOnUse">
<stop stop-color="#FBD099"/>
<stop offset="0.598958" stop-color="#FCEFDF"/>
<stop offset="1" stop-color="#FFE299"/>
</linearGradient>
<linearGradient id="paint4_linear_156_1688" x1="26.2859" y1="69.6962" x2="29.5383" y2="70.3897" gradientUnits="userSpaceOnUse">
<stop stop-color="#FBD099"/>
<stop offset="0.598958" stop-color="#FCEFDF"/>
<stop offset="1" stop-color="#FFE299"/>
</linearGradient>
<linearGradient id="paint5_linear_156_1688" x1="41.9542" y1="42.9221" x2="37.5951" y2="63.3656" gradientUnits="userSpaceOnUse">
<stop stop-color="#EFD891"/>
<stop offset="1" stop-color="#EDE2B2"/>
</linearGradient>
<linearGradient id="paint6_linear_156_1688" x1="41.9542" y1="42.9221" x2="37.5951" y2="63.3656" gradientUnits="userSpaceOnUse">
<stop stop-color="#EFD891"/>
<stop offset="1" stop-color="#EDE2B2"/>
</linearGradient>
</defs>
</svg>
