<svg width="128" height="129" viewBox="0 0 128 129" fill="none" xmlns="http://www.w3.org/2000/svg">
<path d="M97.9277 63.3518C95.4826 68.7149 87.9606 74.5328 84.5053 76.7714L62.2912 64.9319L31.5587 47.3204L40.1281 21.4241C41.9572 20.4061 46.9568 17.3935 52.3234 13.4872C59.0317 8.60441 76.866 11.4804 82.3418 15.4301C87.8176 19.3798 86.705 18.6058 88.7298 20.2918C90.5548 21.8114 100.352 34.1955 101.492 38.5408C102.573 42.6619 100.984 56.6479 97.9277 63.3518Z" fill="url(#paint0_linear_154_1141)"/>
<path d="M26.3873 39.4028C26.6431 32.3384 35.2422 25.4824 39.5098 22.9374L39.4763 42.4246L41.295 47.2932L48.8969 53.6743L52.2445 54.8865C57.8975 56.2577 64.3076 52.369 66.2569 52.122C68.2062 51.8751 63.7254 48.3711 64.442 44.8175L65.6709 38.7257L79.3667 42.9649C79.975 43.3699 80.21 48.3833 76.2834 65.1977C72.3567 82.012 49.2697 73.0592 38.217 66.4811C34.1672 60.3985 26.1315 46.4672 26.3873 39.4028Z" fill="#D15454"/>
<path d="M81.54 30.1957C72.0457 24.6118 63.8843 23.3273 60.2224 27.1887L55.9505 31.4571L57.2875 38.434C58.4902 39.2741 65.9139 36.1834 71.168 39.0399C74.7749 41.0008 77.2652 44.3377 77.8579 45.7243C79.6783 49.9822 75.0976 56.6859 72.3462 62.4734C70.145 67.1034 59.6427 69.0897 54.6666 69.504C51.6212 69.1034 44.374 67.6347 39.7485 64.9643C35.123 62.2939 29.3105 53.1123 26.9825 48.8553C28.4179 64.4359 38.1101 72.9819 42.7768 75.3072L72.3231 75.8652L82.681 75.2387L91.5493 55.1358C92.1684 49.352 91.0342 35.7796 81.54 30.1957Z" fill="#6476D1"/>
<path d="M56.3059 78.7302C56.0257 78.9242 55.6893 79.0354 55.324 79.0315C55.2575 79.0325 48.6362 78.9531 42.4708 79.0312C42.2049 79.0351 41.9402 78.975 41.7005 78.8526C37.7306 76.8743 33.1275 71.8375 29.6868 65.7029C25.5751 58.3746 23.6374 50.3836 24.2253 43.199C25.0721 32.8519 30.9659 18.0857 56.6501 10.0352L58.5637 9.55984C59.9445 9.15841 60.9504 9.0166 64.224 8.96855C67.1447 9.25931 68.5059 9.71502 68.5059 9.71502C68.5059 9.71502 74.2276 11.0918 73.95 11.9959C72.5833 14.7467 66.6875 11.0924 61.2364 12.9341L58.0568 13.8558C58.1323 13.8351 57.9866 13.8909 58.0568 13.8558C39.0913 19.7732 28.6925 30.1243 27.6015 43.4705C26.4275 57.8294 36.6383 72.1689 42.8638 75.6047C48.9454 75.535 55.3078 75.6089 55.3764 75.611C56.3136 75.6199 57.0598 76.3965 57.0477 77.3422C57.0377 77.9215 56.7466 78.4295 56.308 78.7332L56.3059 78.7302Z" fill="#1A1A1A"/>
<path d="M86.7186 18.0269C86.2183 18.3978 85.5335 18.4767 84.944 18.176C80.4323 15.8592 74.9286 13.2295 70.2231 12.9937C63.3237 10.1881 56.8011 12.792 56.5667 12.0874C56.2691 11.1921 58.4823 10.0499 59.3705 9.7465C60.2588 9.44307 60.9753 9.28519 61.1874 9.28482C62.5504 8.82467 68.628 8.92863 72.5951 9.81736L72.7037 9.86596C77.8516 11.3017 82.4894 13.0695 86.4893 15.1258C87.323 15.5545 87.653 16.5826 87.2253 17.4253C87.1006 17.6699 86.924 17.8746 86.7186 18.0269Z" fill="#1A1A1A"/>
<path d="M89.6067 21.7414C89.0431 22.1316 88.2749 22.1543 87.681 21.7408C87.6666 21.7327 87.6531 21.7194 87.6387 21.7114C87.6099 21.6953 87.5789 21.6761 87.548 21.657C86.7597 21.1482 86.5331 20.0882 87.0421 19.2941C87.5149 18.5521 88.4556 18.302 89.218 18.68C89.3085 18.721 89.397 18.7722 89.4887 18.8349C89.5433 18.8692 89.5919 18.9078 89.6404 18.9463C90.3882 19.4877 90.5686 20.539 90.043 21.3086C89.9221 21.4869 89.7733 21.6306 89.6057 21.7466L89.6067 21.7414Z" fill="#1A1A1A"/>
<path d="M103.021 39.4736C102.872 39.5771 102.7 39.6602 102.515 39.7115C101.612 39.9666 100.676 39.4326 100.426 38.5228C98.9414 33.1038 95.6949 28.2863 90.7784 24.2053C90.0567 23.6041 89.9526 22.5258 90.5511 21.7957C91.1475 21.0626 92.2189 20.9569 92.9407 21.5581C98.4041 26.095 102.021 31.491 103.698 37.6026C103.897 38.3261 103.601 39.0725 103.018 39.4758L103.021 39.4736Z" fill="#1A1A1A"/>
<path d="M98.5372 66.4146C98.0163 66.7753 97.3171 66.8269 96.7323 66.4927C95.9209 66.0226 95.6412 64.9768 96.11 64.1565C98.5391 59.8968 102.426 51.3379 101.153 41.9308C101.028 40.9943 101.678 40.1301 102.604 39.9978C103.533 39.8685 104.387 40.5208 104.515 41.4552C105.56 49.1726 103.618 57.8403 99.0508 65.8517C98.9203 66.0818 98.7444 66.2712 98.5403 66.4125L98.5372 66.4146Z" fill="#1A1A1A"/>
<path d="M89.4105 77.4989C88.6281 78.0406 87.8296 78.5123 87.0201 78.9152C86.7801 79.0363 86.5149 79.0938 86.25 79.0925C80.0875 79.0179 72.6699 79.0917 72.5953 79.0938C71.6577 79.1034 70.8948 78.3482 70.8885 77.4024C70.8822 76.4566 71.6334 75.6843 72.571 75.6747C72.6425 75.6746 79.7708 75.603 85.8842 75.6712C88.691 74.1827 91.35 71.6258 93.7904 68.0673C94.3228 67.2889 95.3799 67.0928 96.1496 67.6272C96.9194 68.1616 97.11 69.2274 96.5777 70.0058C94.3768 73.2183 91.9729 75.7293 89.4126 77.5019L89.4105 77.4989Z" fill="#1A1A1A"/>
<path d="M70.1027 82.0536C69.4052 82.5366 68.4483 82.4328 67.8752 81.7794C67.2565 81.0719 67.3202 79.9912 68.0234 79.3646C69.5705 77.9824 70.466 75.8839 70.4704 73.6137C70.4772 71.6438 69.8161 69.7982 68.6108 68.4241C67.4563 67.105 65.939 66.3796 64.3315 66.3793C62.7241 66.3789 61.1984 67.1063 60.0374 68.4241C58.8228 69.8014 58.1526 71.6446 58.1458 73.6145C58.1365 76.1812 59.3092 78.583 61.2084 79.8778C61.9827 80.4055 62.1817 81.4711 61.6563 82.254C61.1279 83.0391 60.0742 83.2413 59.2999 82.7137C56.4408 80.7628 54.7413 77.3601 54.7508 73.6124C54.7605 70.8021 55.7399 68.1542 57.5062 66.1514C59.3231 64.0912 61.7528 62.9543 64.3416 62.9558C66.9334 62.9552 69.3526 64.0928 71.1569 66.1519C72.9105 68.156 73.87 70.8046 73.8603 73.6149C73.8484 76.864 72.5385 79.8893 70.265 81.9232C70.2113 81.9694 70.1546 82.0177 70.0967 82.0578L70.1027 82.0536Z" fill="#1A1A1A"/>
<path d="M59.6586 86.9711C59.2998 87.0431 58.9148 86.999 58.5636 86.8193C57.7282 86.3956 57.3962 85.3668 57.8195 84.5238L58.1946 83.7814C58.5892 82.8684 59.2483 81.3412 59.4198 81.0036C59.8431 80.1606 60.8654 79.8229 61.7008 80.2466C62.5369 80.6739 62.8682 81.6992 62.4449 82.5422C62.3559 82.723 61.8678 83.8329 61.2869 85.1813C61.2737 85.2105 61.2613 85.2433 61.2445 85.2732L60.8453 86.0659C60.5979 86.5553 60.1513 86.8723 59.6586 86.9711Z" fill="#1A1A1A"/>
<path d="M68.6859 122.168C67.3576 123.087 65.771 123.6 64.2002 123.601C62.2743 123.6 60.3327 122.83 58.8749 121.487C57.3262 120.062 56.4753 118.181 56.485 116.195C56.4847 116.168 56.4844 116.141 56.4862 116.118C56.4937 115.964 57.2372 100.83 57.8177 91.6468C57.8768 90.7043 58.6823 89.9843 59.6213 90.0419C60.5552 90.0985 61.2662 90.9089 61.2062 91.8566C60.6442 100.77 59.9229 115.329 59.8787 116.234C59.8867 117.23 60.3427 118.199 61.1688 118.961C62.0134 119.737 63.1215 120.183 64.2144 120.183C65.3073 120.184 66.4198 119.738 67.2677 118.962C68.1064 118.192 68.5734 117.21 68.5786 116.202C68.5764 116.099 68.268 101.613 68.0282 92.0061C68.0054 91.0617 68.7416 90.2724 69.6828 90.2474C70.6188 90.2213 71.3956 90.9638 71.4235 91.9091C71.6624 101.521 71.9719 116.016 71.9745 116.158C71.9673 118.187 71.1051 120.064 69.5492 121.493C69.2807 121.738 68.9937 121.968 68.6951 122.175L68.6859 122.168Z" fill="#1A1A1A"/>
<path d="M71.4749 86.1289C71.2852 86.3815 71.0205 86.5861 70.7018 86.7027C69.8213 87.0257 68.8516 86.5692 68.5295 85.6815L67.9166 83.963C67.9166 83.963 67.9042 83.9302 67.8992 83.9123C67.8139 83.6505 67.2346 81.8687 67.1485 81.6203C66.8411 80.7253 67.3102 79.7505 68.1973 79.4372C69.0822 79.1268 70.0481 79.5944 70.3554 80.4895C70.4385 80.7356 71.0057 82.4659 71.1147 82.8067L71.7219 84.5022C71.9246 85.0691 71.8114 85.675 71.4742 86.1237L71.4749 86.1289Z" fill="#1A1A1A"/>
<path d="M70.8812 87.3145C70.6914 87.5671 70.4267 87.7717 70.1081 87.8882C69.2276 88.2112 68.2579 87.7547 67.9357 86.8671L67.3228 85.1486C67.3228 85.1486 67.3105 85.1157 67.3054 85.0978C67.2202 84.836 66.6408 83.0543 66.5547 82.8059C66.2474 81.9109 66.7165 80.936 67.6036 80.6227C68.4885 80.3124 69.4543 80.78 69.7617 81.675C69.8448 81.9211 70.4119 83.6514 70.521 83.9923L71.1282 85.6877C71.3308 86.2546 71.2176 86.8606 70.8805 87.3093L70.8812 87.3145Z" fill="#1A1A1A"/>
<path d="M58.6283 87.3189C58.8173 87.5707 59.0814 87.7743 59.3997 87.8897C60.2793 88.2096 61.2506 87.7503 61.5756 86.8623L62.1941 85.1431C62.1941 85.1431 62.2066 85.1102 62.2117 85.0923C62.2978 84.8304 62.8829 83.0481 62.9698 82.7996C63.28 81.9043 62.8139 80.9317 61.9277 80.6215C61.0437 80.3143 60.0762 80.7847 59.766 81.68C59.682 81.9262 59.1093 83.6571 58.9992 83.998L58.3864 85.6942C58.182 86.2613 58.2933 86.8665 58.629 87.3137L58.6283 87.3189Z" fill="#1A1A1A"/>
<path d="M70.7771 93.6738C70.3842 93.9458 69.8788 94.0523 69.3811 93.9191C68.4761 93.6804 67.9398 92.7447 68.1793 91.8307C68.2656 91.496 68.8303 89.4644 70.0272 87.5134C69.8931 87.5071 69.759 87.5009 69.6249 87.4945C68.6903 87.4565 67.9627 85.7426 68.0064 84.7974C68.045 83.8512 68.8369 83.1181 69.7766 83.157C71.4584 83.2275 72.8098 84.2573 73.7937 84.4143C74.4815 84.524 75.0285 85.0466 75.1794 85.7309C75.3282 86.4121 75.0527 87.1213 74.48 87.5178L74.4678 87.5262C72.826 88.663 71.7419 91.6446 71.46 92.7006C71.3489 93.111 71.1 93.4502 70.7771 93.6738Z" fill="#1A1A1A"/>
<path d="M60.4389 93.5224C60.186 93.6975 59.8843 93.8072 59.5528 93.8202C58.6241 93.8637 57.8352 93.1432 57.787 92.2073C57.7773 92.0743 57.5736 89.7674 55.0891 87.313C54.6028 86.8337 54.4452 86.0997 54.6949 85.4579C55.1605 84.2565 55.8218 83.3159 60.1225 83.1604C61.0575 83.1261 61.8435 83.8623 61.8735 84.8108C61.9044 85.7541 61.1708 87.466 60.2307 87.4993C60.0036 87.5077 59.7898 87.516 59.5893 87.5241C61.0685 89.9487 61.1702 91.9205 61.1765 92.0288C61.2028 92.6418 60.9061 93.1945 60.4368 93.5193L60.4389 93.5224Z" fill="#1A1A1A"/>
<path d="M84.6102 77.6225C84.0922 77.9812 83.3947 78.0357 82.8096 77.7014C81.9968 77.2361 81.7119 76.189 82.1756 75.3674C85.7753 68.9885 88.7655 62.0215 89.6085 58.0291C92.8372 44.9277 88.5777 37.6874 86.442 35.6989C78.5178 28.3206 67.4353 26.6469 64.7847 26.8028C58.0689 27.1977 53.9842 38.0797 59.5785 37.5903C73.9265 36.3351 78.6926 41.0438 79.2639 45.9327C79.6927 49.6081 78.5281 59.3027 69.9772 66.4044C69.2541 67.0087 68.1833 66.9025 67.5897 66.1727C66.9961 65.443 67.1018 64.3643 67.827 63.763C73.2378 59.2683 76.4965 51.4919 75.8968 46.3432C75.4581 42.6069 72.625 41.8014 69.4841 40.2743C66.9062 39.0198 58.1916 43.3997 54.0833 38.2154C52.8647 36.6778 54.3997 31.1315 55.6232 29.5897C56.8466 28.0479 60.5148 24.6543 64.1781 24.3399C66.7835 24.1162 82.794 26.4657 88.5821 33.5397C94.4856 39.7461 94.58 50.9259 92.9277 58.7295C92.0038 63.098 88.9393 70.2922 85.1228 77.0512C84.9892 77.2835 84.8133 77.4729 84.6061 77.6164L84.6102 77.6225Z" fill="#1A1A1A"/>
<path d="M40.6077 43.5411C40.4798 43.6296 40.3333 43.7041 40.1804 43.7559C39.2894 44.0527 38.3324 43.566 38.038 42.67C34.9372 33.1429 37.8317 22.178 42.2918 17.4807C42.9421 16.7961 44.0153 16.7743 44.6896 17.4252C45.3661 18.0791 45.3842 19.1618 44.737 19.8444C40.9403 23.8434 38.6384 33.537 41.2604 41.5927C41.5019 42.3315 41.2139 43.1213 40.6077 43.5411Z" fill="#1A1A1A"/>
<path d="M42.4966 48.09C41.738 48.6152 40.6995 48.4373 40.159 47.6801C40.1361 47.6464 40.1174 47.6188 40.1028 47.5973C40.0551 47.5402 40.0114 47.4758 39.9656 47.4083C39.8792 47.2744 39.8152 47.1339 39.7727 46.992C39.4447 46.2049 39.7393 45.2796 40.4927 44.8391C41.305 44.3668 42.3407 44.646 42.8082 45.4673C42.8479 45.5389 42.8875 45.6106 42.92 45.6783C43.4637 46.4468 43.2883 47.5148 42.525 48.0659C42.5128 48.0743 42.5036 48.0806 42.4945 48.087L42.4966 48.09ZM42.4301 45.1475C42.5592 45.252 42.6865 45.3802 42.811 45.5374C42.7111 45.3902 42.5828 45.2537 42.4301 45.1475Z" fill="#1A1A1A"/>
<path d="M50.3451 54.8474C49.8545 55.1871 49.2022 55.2555 48.6309 54.9747C46.8903 54.1057 45.2607 52.9975 43.7904 51.6753C43.6043 51.5066 43.4212 51.3357 43.2412 51.1628C42.5645 50.5086 42.5462 49.4254 43.1968 48.7405C43.8474 48.0556 44.9209 48.0338 45.5977 48.688C45.7487 48.8314 45.8997 48.9748 46.0559 49.1192C47.2966 50.2351 48.6716 51.1725 50.1404 51.905C50.9783 52.3214 51.3224 53.3502 50.904 54.199C50.7709 54.4716 50.5757 54.6923 50.3441 54.8526L50.3451 54.8474Z" fill="#1A1A1A"/>
<path d="M65.4315 54.5818C61.988 56.9658 57.3878 57.6911 52.6968 56.5017C51.7902 56.2734 51.2399 55.3436 51.4721 54.426C51.7012 53.5106 52.6246 52.9524 53.5333 53.1837C57.9289 54.2938 59.7462 54.6642 62.4944 52.5058C63.1599 51.8378 65.376 48.3364 65.985 48.9508C65.985 48.9508 67.4885 49.4252 67.2 52.0258C67.1317 52.6413 66.0709 54.1391 65.4345 54.5797L65.4315 54.5818Z" fill="#1A1A1A"/>
<path d="M64.9455 53.4649C65.872 53.3478 67.797 52.9537 67.1909 50.492C66.5252 47.9347 62.6318 40.3404 69.3419 40.5835C73.5398 40.3502 72.4363 37.9953 66.0149 37.6186C63.8744 37.4923 63.2438 38.924 62.9493 40.0078C62.8694 40.2119 60.6079 39.4559 60.4937 40.598C65.0695 41.8754 64.6207 50.3533 62.4821 52.5117C60.3436 54.6702 64.2081 53.5582 64.9455 53.4649Z" fill="#1A1A1A"/>
<path d="M64.9455 53.4649C65.872 53.3478 67.797 52.9537 67.1909 50.492C66.5252 47.9347 62.6318 40.3404 69.3419 40.5835C73.5398 40.3502 72.4363 37.9953 66.0149 37.6186C63.8744 37.4923 63.2438 38.924 62.9493 40.0078C62.8694 40.2119 60.6079 39.4559 60.4937 40.598C65.0695 41.8754 64.6207 50.3533 62.4821 52.5117C60.3436 54.6702 64.2081 53.5582 64.9455 53.4649Z" fill="#1A1A1A"/>
<path d="M73.6522 39.0228C74.0178 39.4224 74.1691 39.9993 73.9981 40.5359C73.749 41.3181 72.9138 41.7244 72.1288 41.4433C70.1153 40.7176 68.1499 39.8183 65.0667 40.9915C63.9792 42.0946 63.4782 40.5601 63.3179 39.7371C63.1577 38.9141 63.6482 38.95 64.4884 38.0138C67.6581 37.5066 70.5321 37.7069 73.0302 38.6077C73.2759 38.6966 73.4862 38.8413 73.6522 39.0228Z" fill="#1A1A1A"/>
<path d="M73.6522 39.0228C74.0178 39.4224 74.1691 39.9993 73.9981 40.5359C73.749 41.3181 72.9138 41.7244 72.1288 41.4433C70.1153 40.7176 68.1499 39.8183 65.0667 40.9915C63.9792 42.0946 63.4782 40.5601 63.3179 39.7371C63.1577 38.9141 63.6482 38.95 64.4884 38.0138C67.6581 37.5066 70.5321 37.7069 73.0302 38.6077C73.2759 38.6966 73.4862 38.8413 73.6522 39.0228Z" fill="#1A1A1A"/>
<path d="M57.5289 70.7859C57.3033 70.9421 57.0371 71.0451 56.7446 71.0763C56.4766 71.1039 50.0544 71.7295 42.8971 68.1414C36.3444 64.8565 27.9231 57.2721 25.0131 39.8146C24.8553 38.8819 25.4825 37.9967 26.4044 37.8366C27.3284 37.6795 28.2048 38.3042 28.3606 39.2338C30.4937 52.033 35.8456 60.7003 44.2672 64.9963C50.558 68.2055 56.3472 67.6707 56.4035 67.6678C57.3344 67.5736 58.1674 68.2599 58.2578 69.1987C58.3202 69.8455 58.0207 70.4409 57.5237 70.7849L57.5289 70.7859Z" fill="#1A1A1A"/>
<path d="M64.8005 64.3631C56.7967 64.8639 56.4001 72.7106 57.2023 76.5713L61.7393 82.9669L57.1858 86.9379L60.8186 89.981C58.8878 96.7935 55.7516 111.759 58.6532 117.12C61.5548 122.482 66.9356 119.343 69.2632 117.103L70.221 86.9168L69.3179 82.9546L70.2327 79.5991C71.7568 74.3118 72.8042 63.8623 64.8005 64.3631Z" fill="#1A1A1A"/>
<path d="M65.541 74.5817C65.2059 74.8137 64.7971 74.9435 64.36 74.9261C63.3036 74.8868 62.4178 73.9902 62.3834 72.9232C62.3513 71.8727 63.1141 70.9976 64.1595 70.8822C64.7901 70.8152 65.3853 71.0656 65.778 71.5059C66.2132 71.9032 66.4542 72.5026 66.3886 73.1385C66.3197 73.7496 66.001 74.2632 65.541 74.5817Z" fill="url(#paint1_linear_154_1141)"/>
<path d="M65.4395 87.9173C65.141 88.124 64.778 88.2357 64.388 88.2217C63.4391 88.1891 62.6453 87.382 62.6142 86.4254C62.5823 85.4874 63.2694 84.7052 64.2035 84.6038C64.7696 84.5409 65.2971 84.7707 65.6474 85.1682C66.035 85.5218 66.2568 86.0533 66.1956 86.6231C66.1362 87.169 65.8507 87.6326 65.4395 87.9173Z" fill="url(#paint2_linear_154_1141)"/>
<defs>
<linearGradient id="paint0_linear_154_1141" x1="66.7496" y1="10.9092" x2="66.8557" y2="76.7998" gradientUnits="userSpaceOnUse">
<stop stop-color="#EFD891"/>
<stop offset="1" stop-color="#EDE2B2"/>
</linearGradient>
<linearGradient id="paint1_linear_154_1141" x1="62.7567" y1="74.0322" x2="66.042" y2="71.8035" gradientUnits="userSpaceOnUse">
<stop stop-color="#FBD099"/>
<stop offset="0.598958" stop-color="#FCEFDF"/>
<stop offset="1" stop-color="#FFE299"/>
</linearGradient>
<linearGradient id="paint2_linear_154_1141" x1="62.95" y1="87.422" x2="65.8832" y2="85.4321" gradientUnits="userSpaceOnUse">
<stop stop-color="#FBD099"/>
<stop offset="0.598958" stop-color="#FCEFDF"/>
<stop offset="1" stop-color="#FFE299"/>
</linearGradient>
</defs>
</svg>
