<svg width="136" height="133" viewBox="0 0 136 133" fill="none" xmlns="http://www.w3.org/2000/svg">
<path d="M45.388 14.9405C44.9262 15.1035 44.569 15.4756 44.425 15.9436L40.4154 28.9746L37.5918 31.7983L26.9762 30.8332C26.5592 30.7953 26.1447 30.9281 25.8274 31.2013L7.27641 47.1758C6.86715 47.5282 6.67148 48.0687 6.76027 48.6014L9.85211 67.1525C9.86447 67.2266 9.88223 67.2998 9.90524 67.3714L14.543 81.8C14.7294 82.3797 15.2388 82.7961 15.844 82.8633L23.497 83.7137L22.7564 88.1574L18.6771 99.8854C18.5599 100.222 18.5628 100.589 18.6854 100.924L26.415 122.052C26.558 122.443 26.8527 122.76 27.2324 122.931L37.5385 127.568C37.6986 127.64 37.8697 127.685 38.0446 127.699L50.4119 128.73C50.6273 128.748 50.844 128.72 51.0482 128.649L62.9002 124.527C62.9449 124.511 62.9889 124.494 63.032 124.474L68.2261 122.113L79.0548 124.574L79.0621 124.576L92.9754 127.668C93.2205 127.722 93.4752 127.716 93.7175 127.65L105.054 124.558C105.414 124.46 105.727 124.235 105.934 123.924L114.179 111.557C114.324 111.339 114.411 111.088 114.433 110.828L115.979 92.2767C115.996 92.0763 115.973 91.8746 115.912 91.6828L113.203 83.1026L128.064 74.9528C128.743 74.5807 129.042 73.7645 128.764 73.0423L126.375 66.8321L128.801 58.5833L128.804 58.5743L130.86 51.8937C131.052 51.2704 130.832 50.5937 130.31 50.2024L118.069 41.0219L110.444 32.3806C110.151 32.048 109.729 31.8575 109.285 31.8575H98.7124L92.5523 23.8019L89.0035 17.2113C88.8168 16.8645 88.5048 16.6021 88.1312 16.4776L80.7888 14.0301L71.7863 4.02736C71.4931 3.70161 71.0755 3.5156 70.6372 3.5156H69.6066C69.3454 3.5156 69.0885 3.58178 68.8598 3.70795L54.0278 11.8912L45.388 14.9405Z" fill="#FD7BB2" stroke="#FD7BB2" stroke-width="3.09184" stroke-linecap="round" stroke-linejoin="round"/>
<circle cx="67.0308" cy="72.0513" r="13.398" fill="url(#paint0_linear_154_1216)"/>
<path d="M66.7043 31.6445C67.0443 31.9845 67.5231 32.1806 67.9981 32.1806C68.4782 32.1806 68.9525 31.9839 69.2919 31.6445C69.6312 31.3052 69.8279 30.8308 69.8279 30.3508C69.8279 29.8707 69.6313 29.3963 69.2919 29.0569C68.9525 28.7175 68.4782 28.5208 67.9981 28.5208C67.518 28.5208 67.0437 28.7175 66.7043 29.0569C66.3643 29.3969 66.1683 29.8757 66.1683 30.3508C66.1683 30.8258 66.3644 31.3046 66.7043 31.6445Z" fill="#1A1A1A" stroke="#1A1A1A" stroke-width="1.03061"/>
<path d="M27.4325 60.1733C27.7724 60.5123 28.2504 60.7078 28.7247 60.7078C29.2048 60.7078 29.6791 60.5111 30.0184 60.1718C30.3577 59.8325 30.5546 59.3582 30.5546 58.878C30.5546 58.3978 30.3577 57.9235 30.0184 57.5842C29.6791 57.2449 29.2048 57.0482 28.7247 57.0482C28.2446 57.0482 27.7703 57.2449 27.4309 57.5842C27.0915 57.9236 26.8948 58.3979 26.8948 58.878C26.8948 59.3548 27.0893 59.8352 27.4325 60.1733Z" fill="#1A1A1A" stroke="#1A1A1A" stroke-width="1.03061"/>
<path d="M42.427 106.34L42.427 106.34L42.4301 106.343C42.7699 106.677 43.2331 106.876 43.7208 106.876C44.2009 106.876 44.6752 106.679 45.0145 106.34L45.0145 106.34L45.0176 106.337C45.3522 105.996 45.5506 105.529 45.5506 105.046C45.5506 104.566 45.3539 104.092 45.0145 103.752C44.6752 103.413 44.201 103.216 43.7208 103.216C43.2406 103.216 42.7663 103.413 42.427 103.752C42.0883 104.091 41.8909 104.561 41.8909 105.046C41.8909 105.531 42.0883 106.001 42.427 106.34Z" fill="#1A1A1A" stroke="#1A1A1A" stroke-width="1.03061"/>
<path d="M90.9661 106.348C91.1834 106.565 91.4532 106.721 91.7445 106.806V106.884H92.2598C92.7475 106.884 93.2107 106.685 93.5505 106.351L93.5505 106.351L93.5536 106.348C93.8958 106.005 94.0856 105.53 94.0856 105.054C94.0856 104.575 93.8896 104.1 93.5536 103.764C93.2122 103.423 92.743 103.224 92.2598 103.224C91.7771 103.224 91.3095 103.422 90.9692 103.757L90.9692 103.757L90.9661 103.76C90.6261 104.1 90.43 104.579 90.43 105.054C90.43 105.529 90.6261 106.008 90.9661 106.348Z" fill="#1A1A1A" stroke="#1A1A1A" stroke-width="1.03061"/>
<mask id="path-7-outside-1_154_1216" maskUnits="userSpaceOnUse" x="-0.898438" y="0" width="137" height="133" fill="black">
<rect fill="white" x="-0.898438" width="137" height="133"/>
<path d="M82.4644 130.705C79.9943 130.705 77.5117 130.106 75.2887 128.972C72.7475 127.678 70.6081 125.731 69.101 123.341L67.9916 121.583L66.8822 123.341C65.3751 125.727 63.2358 127.674 60.6988 128.968C58.4757 130.102 55.9931 130.701 53.5189 130.701C50.6762 130.701 47.8797 129.922 45.4306 128.453L44.8612 128.109L43.7183 128.591C41.5706 129.495 39.2974 129.951 36.9571 129.951C34.4117 129.951 31.8537 129.382 29.5595 128.31C28.2073 127.678 27.0057 126.803 25.9842 125.715C22.6183 122.118 20.927 117.241 21.3415 112.335L21.4461 111.1L20.9438 110.664C16.8243 107.081 14.8775 101.713 15.7357 96.3045C16.1836 93.4912 17.3726 90.8537 19.1812 88.6809L20.5084 87.0817L18.4946 86.5667C15.7567 85.8717 13.2489 84.4358 11.231 82.4221C7.3585 78.5496 5.77606 73.0611 7.00271 67.74L7.15336 67.0912L6.34121 66.1534C3.12179 62.4274 1.62718 57.4873 2.23422 52.5975C2.41843 51.1154 2.87895 49.7004 3.59903 48.3942C5.98115 44.0821 10.0965 40.9674 14.89 39.8412L16.0958 39.5566L16.3553 38.9452C18.4904 33.9214 22.9951 30.409 28.404 29.5549C29.2288 29.4252 30.0703 29.3582 30.8992 29.3582C32.9045 29.3582 34.8597 29.7349 36.7185 30.476L38.6484 31.2463L38.5145 29.174C38.3303 26.3565 38.9163 23.5264 40.21 20.9852C42.6967 16.1037 47.4276 12.9053 52.8658 12.428L53.5314 12.3693L54.172 11.3102C56.7216 7.09863 60.9583 4.14711 65.7937 3.21352C66.5222 3.07117 67.2674 3 68.0042 3C68.741 3 69.482 3.07117 70.2147 3.21352C75.0501 4.14711 79.2868 7.09863 81.8364 11.3102L82.477 12.3693L83.1384 12.428C88.5766 12.9053 93.3074 16.1037 95.7941 20.9852C97.0878 23.5264 97.6739 26.3565 97.4897 29.1782L97.3557 31.2505L99.2857 30.4801C101.14 29.7391 103.1 29.3666 105.101 29.3666C105.93 29.3666 106.771 29.4335 107.596 29.5633C113.005 30.4216 117.51 33.9298 119.645 38.9578L119.904 39.5691L121.11 39.8538C125.904 40.9758 130.019 44.0947 132.401 48.4068C133.121 49.713 133.582 51.128 133.766 52.61C134.373 57.4957 132.878 62.4357 129.659 66.1659L128.851 67.1037L129.001 67.7526C130.228 73.0736 128.646 78.5622 124.773 82.4347C122.755 84.4526 120.243 85.8843 117.505 86.5793L115.492 87.09L116.819 88.6893C118.623 90.8621 119.812 93.4954 120.26 96.3087C121.118 101.718 119.172 107.089 115.052 110.673L114.55 111.108L114.654 112.343C115.069 117.25 113.373 122.127 110.012 125.723C108.99 126.812 107.789 127.687 106.436 128.323C104.142 129.399 101.584 129.964 99.0387 129.964C96.6984 129.964 94.4252 129.508 92.2775 128.603L91.1346 128.122L90.5652 128.465C88.1161 129.939 85.3154 130.713 82.4728 130.713L82.4644 130.705ZM75.946 86.7384C74.2169 87.6511 72.3624 88.2581 70.4324 88.5344L69.3061 88.6977C69.3061 88.6977 69.3061 114.847 69.3061 115.098C69.3815 120.08 72.0609 124.383 76.4819 126.636C78.3951 127.611 80.4172 128.105 82.4895 128.105C85.2317 128.105 87.8942 127.226 90.1843 125.56C90.4103 125.397 90.6783 125.309 90.9546 125.309C91.1304 125.309 91.3021 125.342 91.4654 125.413L93.2864 126.179C95.1117 126.946 97.0459 127.335 99.0303 127.335C101.191 127.335 103.363 126.853 105.314 125.941C106.361 125.451 107.294 124.773 108.086 123.927C110.945 120.871 112.381 116.73 112.029 112.561L111.862 110.593C111.824 110.137 112.029 109.689 112.398 109.421C116.48 106.453 118.447 101.705 117.66 96.719C116.882 91.8166 113.616 87.9358 108.923 86.3365L83.7999 78.1728L83.2975 79.1901C82.4351 80.9317 81.2879 82.51 79.8854 83.8706L79.0691 84.6619L86.3787 94.7221C86.8057 95.3082 86.676 96.1287 86.0899 96.5557C85.8638 96.719 85.6 96.807 85.3195 96.807C84.8925 96.807 84.5032 96.6102 84.2562 96.2669L76.9507 86.2109L75.946 86.7426V86.7384ZM45.0244 125.3C45.3049 125.3 45.5729 125.388 45.7948 125.551C48.089 127.218 50.7475 128.097 53.4896 128.097C55.5661 128.097 57.5881 127.603 59.4972 126.627C63.914 124.375 66.5976 120.076 66.6729 115.119V88.6935L65.5467 88.5302C63.6167 88.2539 61.7663 87.6469 60.0415 86.7342L59.0367 86.2025L51.7312 96.2585C51.48 96.6018 51.095 96.7986 50.6679 96.7986C50.3916 96.7986 50.1236 96.7106 49.8976 96.5473C49.3115 96.1203 49.1817 95.2998 49.6087 94.7137L56.9183 84.6535L56.102 83.8622C54.6995 82.4974 53.5482 80.9191 52.6857 79.1734L52.1834 78.1561L51.1032 78.5077C50.8646 78.583 27.3323 86.2318 27.0853 86.3114C22.363 87.919 19.0975 91.7999 18.3188 96.7023C17.5276 101.688 19.4952 106.436 23.5812 109.404C23.9496 109.672 24.1548 110.12 24.1171 110.576L23.9497 112.544C23.598 116.714 25.0381 120.854 27.8933 123.91C28.6846 124.756 29.6182 125.434 30.6648 125.924C32.6157 126.837 34.7885 127.318 36.9488 127.318C38.9332 127.318 40.8673 126.929 42.6926 126.163L44.5137 125.396C44.677 125.33 44.8486 125.296 45.0244 125.296V125.3ZM67.9958 57.2026C60.0331 57.2026 53.5566 63.6791 53.5566 71.6419C53.5566 79.6046 60.0331 86.0811 67.9958 86.0811C75.9585 86.0811 82.435 79.6046 82.435 71.6419C82.435 63.6791 75.9585 57.2026 67.9958 57.2026ZM96.0286 61.2217C96.598 61.2217 97.1003 61.5859 97.2762 62.1301C97.4981 62.8167 97.1213 63.5619 96.4347 63.7838L84.6162 67.6228L84.8088 68.7448C84.9762 69.7161 85.06 70.6915 85.06 71.646C85.06 72.6006 84.9762 73.576 84.8088 74.5473L84.6162 75.6693L85.6964 76.0209C85.935 76.1005 109.488 83.7493 109.723 83.8288C111.05 84.2391 112.381 84.4442 113.708 84.4442C117.145 84.4442 120.415 83.071 122.914 80.5717C126.485 77.0006 127.683 72.006 126.125 67.2041C125.983 66.7687 126.083 66.2874 126.381 65.9399L127.67 64.4453C130.404 61.2803 131.677 57.0812 131.158 52.9324C131.015 51.7853 130.659 50.6884 130.098 49.6753C128.076 46.0121 124.581 43.3662 120.507 42.4117L118.581 41.9596C118.138 41.8549 117.773 41.52 117.631 41.0888C116.069 36.2869 112.163 32.9502 107.177 32.1631C106.466 32.0501 105.741 31.9915 105.03 31.9915C100.914 31.9915 97.1129 33.909 94.6052 37.2582L79.0691 58.6427L79.8812 59.4341C81.2837 60.7989 82.4309 62.3771 83.2933 64.1187L83.7957 65.136L95.6141 61.297C95.7481 61.2552 95.8821 61.2343 96.0202 61.2343L96.0286 61.2217ZM30.9537 31.9748C30.242 31.9748 29.5218 32.0333 28.8101 32.1464C23.824 32.9376 19.9138 36.2743 18.3564 41.0762C18.2141 41.5116 17.8499 41.8466 17.4061 41.947L15.4804 42.3991C11.4069 43.3536 7.91111 45.9995 5.88903 49.6627C5.32804 50.6759 4.97228 51.7727 4.82994 52.9198C4.315 57.0728 5.58763 61.2677 8.32141 64.4327L9.61089 65.9273C9.90813 66.2748 10.0085 66.7563 9.86621 67.1917C8.30464 71.9936 9.50624 76.9922 13.0773 80.5591C15.5767 83.0543 18.8421 84.4316 22.2834 84.4316C23.6106 84.4316 24.9418 84.2265 26.2438 83.8246L51.3712 75.6609L51.1787 74.5431C51.0112 73.5718 50.9274 72.5964 50.9274 71.646C50.9274 70.6957 51.0112 69.7203 51.1787 68.7448L51.3712 67.627L39.5527 63.788C38.8662 63.5661 38.4852 62.8209 38.7113 62.1343C38.8871 61.5901 39.3895 61.2259 39.9588 61.2259C40.097 61.2259 40.2309 61.2468 40.3649 61.2928L52.1834 65.1318L52.6857 64.1145C53.5482 62.3688 54.6995 60.7905 56.102 59.4257L56.9183 58.6344C56.9183 58.6344 41.5413 37.4717 41.3948 37.2666C38.8703 33.9006 35.0732 31.9789 30.9537 31.9789V31.9748ZM67.9958 40.8543C68.7201 40.8543 69.3103 41.4447 69.3103 42.1689V54.5944L70.4366 54.7577C72.3666 55.034 74.2211 55.641 75.9502 56.5537L76.9549 57.0854L77.6248 56.1644C77.7713 55.9634 92.3194 35.9352 92.4743 35.7258C95.342 31.6524 95.7021 26.5951 93.4539 22.1742C91.1639 17.6779 86.7807 14.9901 81.7317 14.9901C81.2754 14.9901 80.8441 14.7473 80.6097 14.3579L79.5882 12.6667C77.4238 9.08721 73.8235 6.57942 69.7165 5.78817C69.1513 5.67932 68.5736 5.62494 68.0042 5.62494C67.4348 5.62494 66.8571 5.67932 66.2919 5.78817C62.1849 6.57942 58.5846 9.08721 56.4202 12.6667L55.3986 14.3579C55.1641 14.7473 54.733 14.9901 54.2766 14.9901C49.2277 14.9901 44.8445 17.6779 42.5544 22.1742C40.3021 26.591 40.6622 31.6482 43.5174 35.7007L59.0534 57.0812L60.0582 56.5495C61.7831 55.6368 63.6376 55.034 65.5634 54.7577L66.6896 54.5944V42.1689C66.6896 41.4447 67.2799 40.8543 68.0042 40.8543H67.9958Z"/>
</mask>
<path d="M82.4644 130.705C79.9943 130.705 77.5117 130.106 75.2887 128.972C72.7475 127.678 70.6081 125.731 69.101 123.341L67.9916 121.583L66.8822 123.341C65.3751 125.727 63.2358 127.674 60.6988 128.968C58.4757 130.102 55.9931 130.701 53.5189 130.701C50.6762 130.701 47.8797 129.922 45.4306 128.453L44.8612 128.109L43.7183 128.591C41.5706 129.495 39.2974 129.951 36.9571 129.951C34.4117 129.951 31.8537 129.382 29.5595 128.31C28.2073 127.678 27.0057 126.803 25.9842 125.715C22.6183 122.118 20.927 117.241 21.3415 112.335L21.4461 111.1L20.9438 110.664C16.8243 107.081 14.8775 101.713 15.7357 96.3045C16.1836 93.4912 17.3726 90.8537 19.1812 88.6809L20.5084 87.0817L18.4946 86.5667C15.7567 85.8717 13.2489 84.4358 11.231 82.4221C7.3585 78.5496 5.77606 73.0611 7.00271 67.74L7.15336 67.0912L6.34121 66.1534C3.12179 62.4274 1.62718 57.4873 2.23422 52.5975C2.41843 51.1154 2.87895 49.7004 3.59903 48.3942C5.98115 44.0821 10.0965 40.9674 14.89 39.8412L16.0958 39.5566L16.3553 38.9452C18.4904 33.9214 22.9951 30.409 28.404 29.5549C29.2288 29.4252 30.0703 29.3582 30.8992 29.3582C32.9045 29.3582 34.8597 29.7349 36.7185 30.476L38.6484 31.2463L38.5145 29.174C38.3303 26.3565 38.9163 23.5264 40.21 20.9852C42.6967 16.1037 47.4276 12.9053 52.8658 12.428L53.5314 12.3693L54.172 11.3102C56.7216 7.09863 60.9583 4.14711 65.7937 3.21352C66.5222 3.07117 67.2674 3 68.0042 3C68.741 3 69.482 3.07117 70.2147 3.21352C75.0501 4.14711 79.2868 7.09863 81.8364 11.3102L82.477 12.3693L83.1384 12.428C88.5766 12.9053 93.3074 16.1037 95.7941 20.9852C97.0878 23.5264 97.6739 26.3565 97.4897 29.1782L97.3557 31.2505L99.2857 30.4801C101.14 29.7391 103.1 29.3666 105.101 29.3666C105.93 29.3666 106.771 29.4335 107.596 29.5633C113.005 30.4216 117.51 33.9298 119.645 38.9578L119.904 39.5691L121.11 39.8538C125.904 40.9758 130.019 44.0947 132.401 48.4068C133.121 49.713 133.582 51.128 133.766 52.61C134.373 57.4957 132.878 62.4357 129.659 66.1659L128.851 67.1037L129.001 67.7526C130.228 73.0736 128.646 78.5622 124.773 82.4347C122.755 84.4526 120.243 85.8843 117.505 86.5793L115.492 87.09L116.819 88.6893C118.623 90.8621 119.812 93.4954 120.26 96.3087C121.118 101.718 119.172 107.089 115.052 110.673L114.55 111.108L114.654 112.343C115.069 117.25 113.373 122.127 110.012 125.723C108.99 126.812 107.789 127.687 106.436 128.323C104.142 129.399 101.584 129.964 99.0387 129.964C96.6984 129.964 94.4252 129.508 92.2775 128.603L91.1346 128.122L90.5652 128.465C88.1161 129.939 85.3154 130.713 82.4728 130.713L82.4644 130.705ZM75.946 86.7384C74.2169 87.6511 72.3624 88.2581 70.4324 88.5344L69.3061 88.6977C69.3061 88.6977 69.3061 114.847 69.3061 115.098C69.3815 120.08 72.0609 124.383 76.4819 126.636C78.3951 127.611 80.4172 128.105 82.4895 128.105C85.2317 128.105 87.8942 127.226 90.1843 125.56C90.4103 125.397 90.6783 125.309 90.9546 125.309C91.1304 125.309 91.3021 125.342 91.4654 125.413L93.2864 126.179C95.1117 126.946 97.0459 127.335 99.0303 127.335C101.191 127.335 103.363 126.853 105.314 125.941C106.361 125.451 107.294 124.773 108.086 123.927C110.945 120.871 112.381 116.73 112.029 112.561L111.862 110.593C111.824 110.137 112.029 109.689 112.398 109.421C116.48 106.453 118.447 101.705 117.66 96.719C116.882 91.8166 113.616 87.9358 108.923 86.3365L83.7999 78.1728L83.2975 79.1901C82.4351 80.9317 81.2879 82.51 79.8854 83.8706L79.0691 84.6619L86.3787 94.7221C86.8057 95.3082 86.676 96.1287 86.0899 96.5557C85.8638 96.719 85.6 96.807 85.3195 96.807C84.8925 96.807 84.5032 96.6102 84.2562 96.2669L76.9507 86.2109L75.946 86.7426V86.7384ZM45.0244 125.3C45.3049 125.3 45.5729 125.388 45.7948 125.551C48.089 127.218 50.7475 128.097 53.4896 128.097C55.5661 128.097 57.5881 127.603 59.4972 126.627C63.914 124.375 66.5976 120.076 66.6729 115.119V88.6935L65.5467 88.5302C63.6167 88.2539 61.7663 87.6469 60.0415 86.7342L59.0367 86.2025L51.7312 96.2585C51.48 96.6018 51.095 96.7986 50.6679 96.7986C50.3916 96.7986 50.1236 96.7106 49.8976 96.5473C49.3115 96.1203 49.1817 95.2998 49.6087 94.7137L56.9183 84.6535L56.102 83.8622C54.6995 82.4974 53.5482 80.9191 52.6857 79.1734L52.1834 78.1561L51.1032 78.5077C50.8646 78.583 27.3323 86.2318 27.0853 86.3114C22.363 87.919 19.0975 91.7999 18.3188 96.7023C17.5276 101.688 19.4952 106.436 23.5812 109.404C23.9496 109.672 24.1548 110.12 24.1171 110.576L23.9497 112.544C23.598 116.714 25.0381 120.854 27.8933 123.91C28.6846 124.756 29.6182 125.434 30.6648 125.924C32.6157 126.837 34.7885 127.318 36.9488 127.318C38.9332 127.318 40.8673 126.929 42.6926 126.163L44.5137 125.396C44.677 125.33 44.8486 125.296 45.0244 125.296V125.3ZM67.9958 57.2026C60.0331 57.2026 53.5566 63.6791 53.5566 71.6419C53.5566 79.6046 60.0331 86.0811 67.9958 86.0811C75.9585 86.0811 82.435 79.6046 82.435 71.6419C82.435 63.6791 75.9585 57.2026 67.9958 57.2026ZM96.0286 61.2217C96.598 61.2217 97.1003 61.5859 97.2762 62.1301C97.4981 62.8167 97.1213 63.5619 96.4347 63.7838L84.6162 67.6228L84.8088 68.7448C84.9762 69.7161 85.06 70.6915 85.06 71.646C85.06 72.6006 84.9762 73.576 84.8088 74.5473L84.6162 75.6693L85.6964 76.0209C85.935 76.1005 109.488 83.7493 109.723 83.8288C111.05 84.2391 112.381 84.4442 113.708 84.4442C117.145 84.4442 120.415 83.071 122.914 80.5717C126.485 77.0006 127.683 72.006 126.125 67.2041C125.983 66.7687 126.083 66.2874 126.381 65.9399L127.67 64.4453C130.404 61.2803 131.677 57.0812 131.158 52.9324C131.015 51.7853 130.659 50.6884 130.098 49.6753C128.076 46.0121 124.581 43.3662 120.507 42.4117L118.581 41.9596C118.138 41.8549 117.773 41.52 117.631 41.0888C116.069 36.2869 112.163 32.9502 107.177 32.1631C106.466 32.0501 105.741 31.9915 105.03 31.9915C100.914 31.9915 97.1129 33.909 94.6052 37.2582L79.0691 58.6427L79.8812 59.4341C81.2837 60.7989 82.4309 62.3771 83.2933 64.1187L83.7957 65.136L95.6141 61.297C95.7481 61.2552 95.8821 61.2343 96.0202 61.2343L96.0286 61.2217ZM30.9537 31.9748C30.242 31.9748 29.5218 32.0333 28.8101 32.1464C23.824 32.9376 19.9138 36.2743 18.3564 41.0762C18.2141 41.5116 17.8499 41.8466 17.4061 41.947L15.4804 42.3991C11.4069 43.3536 7.91111 45.9995 5.88903 49.6627C5.32804 50.6759 4.97228 51.7727 4.82994 52.9198C4.315 57.0728 5.58763 61.2677 8.32141 64.4327L9.61089 65.9273C9.90813 66.2748 10.0085 66.7563 9.86621 67.1917C8.30464 71.9936 9.50624 76.9922 13.0773 80.5591C15.5767 83.0543 18.8421 84.4316 22.2834 84.4316C23.6106 84.4316 24.9418 84.2265 26.2438 83.8246L51.3712 75.6609L51.1787 74.5431C51.0112 73.5718 50.9274 72.5964 50.9274 71.646C50.9274 70.6957 51.0112 69.7203 51.1787 68.7448L51.3712 67.627L39.5527 63.788C38.8662 63.5661 38.4852 62.8209 38.7113 62.1343C38.8871 61.5901 39.3895 61.2259 39.9588 61.2259C40.097 61.2259 40.2309 61.2468 40.3649 61.2928L52.1834 65.1318L52.6857 64.1145C53.5482 62.3688 54.6995 60.7905 56.102 59.4257L56.9183 58.6344C56.9183 58.6344 41.5413 37.4717 41.3948 37.2666C38.8703 33.9006 35.0732 31.9789 30.9537 31.9789V31.9748ZM67.9958 40.8543C68.7201 40.8543 69.3103 41.4447 69.3103 42.1689V54.5944L70.4366 54.7577C72.3666 55.034 74.2211 55.641 75.9502 56.5537L76.9549 57.0854L77.6248 56.1644C77.7713 55.9634 92.3194 35.9352 92.4743 35.7258C95.342 31.6524 95.7021 26.5951 93.4539 22.1742C91.1639 17.6779 86.7807 14.9901 81.7317 14.9901C81.2754 14.9901 80.8441 14.7473 80.6097 14.3579L79.5882 12.6667C77.4238 9.08721 73.8235 6.57942 69.7165 5.78817C69.1513 5.67932 68.5736 5.62494 68.0042 5.62494C67.4348 5.62494 66.8571 5.67932 66.2919 5.78817C62.1849 6.57942 58.5846 9.08721 56.4202 12.6667L55.3986 14.3579C55.1641 14.7473 54.733 14.9901 54.2766 14.9901C49.2277 14.9901 44.8445 17.6779 42.5544 22.1742C40.3021 26.591 40.6622 31.6482 43.5174 35.7007L59.0534 57.0812L60.0582 56.5495C61.7831 55.6368 63.6376 55.034 65.5634 54.7577L66.6896 54.5944V42.1689C66.6896 41.4447 67.2799 40.8543 68.0042 40.8543H67.9958Z" fill="#1A1A1A"/>
<path d="M82.4644 130.705C79.9943 130.705 77.5117 130.106 75.2887 128.972C72.7475 127.678 70.6081 125.731 69.101 123.341L67.9916 121.583L66.8822 123.341C65.3751 125.727 63.2358 127.674 60.6988 128.968C58.4757 130.102 55.9931 130.701 53.5189 130.701C50.6762 130.701 47.8797 129.922 45.4306 128.453L44.8612 128.109L43.7183 128.591C41.5706 129.495 39.2974 129.951 36.9571 129.951C34.4117 129.951 31.8537 129.382 29.5595 128.31C28.2073 127.678 27.0057 126.803 25.9842 125.715C22.6183 122.118 20.927 117.241 21.3415 112.335L21.4461 111.1L20.9438 110.664C16.8243 107.081 14.8775 101.713 15.7357 96.3045C16.1836 93.4912 17.3726 90.8537 19.1812 88.6809L20.5084 87.0817L18.4946 86.5667C15.7567 85.8717 13.2489 84.4358 11.231 82.4221C7.3585 78.5496 5.77606 73.0611 7.00271 67.74L7.15336 67.0912L6.34121 66.1534C3.12179 62.4274 1.62718 57.4873 2.23422 52.5975C2.41843 51.1154 2.87895 49.7004 3.59903 48.3942C5.98115 44.0821 10.0965 40.9674 14.89 39.8412L16.0958 39.5566L16.3553 38.9452C18.4904 33.9214 22.9951 30.409 28.404 29.5549C29.2288 29.4252 30.0703 29.3582 30.8992 29.3582C32.9045 29.3582 34.8597 29.7349 36.7185 30.476L38.6484 31.2463L38.5145 29.174C38.3303 26.3565 38.9163 23.5264 40.21 20.9852C42.6967 16.1037 47.4276 12.9053 52.8658 12.428L53.5314 12.3693L54.172 11.3102C56.7216 7.09863 60.9583 4.14711 65.7937 3.21352C66.5222 3.07117 67.2674 3 68.0042 3C68.741 3 69.482 3.07117 70.2147 3.21352C75.0501 4.14711 79.2868 7.09863 81.8364 11.3102L82.477 12.3693L83.1384 12.428C88.5766 12.9053 93.3074 16.1037 95.7941 20.9852C97.0878 23.5264 97.6739 26.3565 97.4897 29.1782L97.3557 31.2505L99.2857 30.4801C101.14 29.7391 103.1 29.3666 105.101 29.3666C105.93 29.3666 106.771 29.4335 107.596 29.5633C113.005 30.4216 117.51 33.9298 119.645 38.9578L119.904 39.5691L121.11 39.8538C125.904 40.9758 130.019 44.0947 132.401 48.4068C133.121 49.713 133.582 51.128 133.766 52.61C134.373 57.4957 132.878 62.4357 129.659 66.1659L128.851 67.1037L129.001 67.7526C130.228 73.0736 128.646 78.5622 124.773 82.4347C122.755 84.4526 120.243 85.8843 117.505 86.5793L115.492 87.09L116.819 88.6893C118.623 90.8621 119.812 93.4954 120.26 96.3087C121.118 101.718 119.172 107.089 115.052 110.673L114.55 111.108L114.654 112.343C115.069 117.25 113.373 122.127 110.012 125.723C108.99 126.812 107.789 127.687 106.436 128.323C104.142 129.399 101.584 129.964 99.0387 129.964C96.6984 129.964 94.4252 129.508 92.2775 128.603L91.1346 128.122L90.5652 128.465C88.1161 129.939 85.3154 130.713 82.4728 130.713L82.4644 130.705ZM75.946 86.7384C74.2169 87.6511 72.3624 88.2581 70.4324 88.5344L69.3061 88.6977C69.3061 88.6977 69.3061 114.847 69.3061 115.098C69.3815 120.08 72.0609 124.383 76.4819 126.636C78.3951 127.611 80.4172 128.105 82.4895 128.105C85.2317 128.105 87.8942 127.226 90.1843 125.56C90.4103 125.397 90.6783 125.309 90.9546 125.309C91.1304 125.309 91.3021 125.342 91.4654 125.413L93.2864 126.179C95.1117 126.946 97.0459 127.335 99.0303 127.335C101.191 127.335 103.363 126.853 105.314 125.941C106.361 125.451 107.294 124.773 108.086 123.927C110.945 120.871 112.381 116.73 112.029 112.561L111.862 110.593C111.824 110.137 112.029 109.689 112.398 109.421C116.48 106.453 118.447 101.705 117.66 96.719C116.882 91.8166 113.616 87.9358 108.923 86.3365L83.7999 78.1728L83.2975 79.1901C82.4351 80.9317 81.2879 82.51 79.8854 83.8706L79.0691 84.6619L86.3787 94.7221C86.8057 95.3082 86.676 96.1287 86.0899 96.5557C85.8638 96.719 85.6 96.807 85.3195 96.807C84.8925 96.807 84.5032 96.6102 84.2562 96.2669L76.9507 86.2109L75.946 86.7426V86.7384ZM45.0244 125.3C45.3049 125.3 45.5729 125.388 45.7948 125.551C48.089 127.218 50.7475 128.097 53.4896 128.097C55.5661 128.097 57.5881 127.603 59.4972 126.627C63.914 124.375 66.5976 120.076 66.6729 115.119V88.6935L65.5467 88.5302C63.6167 88.2539 61.7663 87.6469 60.0415 86.7342L59.0367 86.2025L51.7312 96.2585C51.48 96.6018 51.095 96.7986 50.6679 96.7986C50.3916 96.7986 50.1236 96.7106 49.8976 96.5473C49.3115 96.1203 49.1817 95.2998 49.6087 94.7137L56.9183 84.6535L56.102 83.8622C54.6995 82.4974 53.5482 80.9191 52.6857 79.1734L52.1834 78.1561L51.1032 78.5077C50.8646 78.583 27.3323 86.2318 27.0853 86.3114C22.363 87.919 19.0975 91.7999 18.3188 96.7023C17.5276 101.688 19.4952 106.436 23.5812 109.404C23.9496 109.672 24.1548 110.12 24.1171 110.576L23.9497 112.544C23.598 116.714 25.0381 120.854 27.8933 123.91C28.6846 124.756 29.6182 125.434 30.6648 125.924C32.6157 126.837 34.7885 127.318 36.9488 127.318C38.9332 127.318 40.8673 126.929 42.6926 126.163L44.5137 125.396C44.677 125.33 44.8486 125.296 45.0244 125.296V125.3ZM67.9958 57.2026C60.0331 57.2026 53.5566 63.6791 53.5566 71.6419C53.5566 79.6046 60.0331 86.0811 67.9958 86.0811C75.9585 86.0811 82.435 79.6046 82.435 71.6419C82.435 63.6791 75.9585 57.2026 67.9958 57.2026ZM96.0286 61.2217C96.598 61.2217 97.1003 61.5859 97.2762 62.1301C97.4981 62.8167 97.1213 63.5619 96.4347 63.7838L84.6162 67.6228L84.8088 68.7448C84.9762 69.7161 85.06 70.6915 85.06 71.646C85.06 72.6006 84.9762 73.576 84.8088 74.5473L84.6162 75.6693L85.6964 76.0209C85.935 76.1005 109.488 83.7493 109.723 83.8288C111.05 84.2391 112.381 84.4442 113.708 84.4442C117.145 84.4442 120.415 83.071 122.914 80.5717C126.485 77.0006 127.683 72.006 126.125 67.2041C125.983 66.7687 126.083 66.2874 126.381 65.9399L127.67 64.4453C130.404 61.2803 131.677 57.0812 131.158 52.9324C131.015 51.7853 130.659 50.6884 130.098 49.6753C128.076 46.0121 124.581 43.3662 120.507 42.4117L118.581 41.9596C118.138 41.8549 117.773 41.52 117.631 41.0888C116.069 36.2869 112.163 32.9502 107.177 32.1631C106.466 32.0501 105.741 31.9915 105.03 31.9915C100.914 31.9915 97.1129 33.909 94.6052 37.2582L79.0691 58.6427L79.8812 59.4341C81.2837 60.7989 82.4309 62.3771 83.2933 64.1187L83.7957 65.136L95.6141 61.297C95.7481 61.2552 95.8821 61.2343 96.0202 61.2343L96.0286 61.2217ZM30.9537 31.9748C30.242 31.9748 29.5218 32.0333 28.8101 32.1464C23.824 32.9376 19.9138 36.2743 18.3564 41.0762C18.2141 41.5116 17.8499 41.8466 17.4061 41.947L15.4804 42.3991C11.4069 43.3536 7.91111 45.9995 5.88903 49.6627C5.32804 50.6759 4.97228 51.7727 4.82994 52.9198C4.315 57.0728 5.58763 61.2677 8.32141 64.4327L9.61089 65.9273C9.90813 66.2748 10.0085 66.7563 9.86621 67.1917C8.30464 71.9936 9.50624 76.9922 13.0773 80.5591C15.5767 83.0543 18.8421 84.4316 22.2834 84.4316C23.6106 84.4316 24.9418 84.2265 26.2438 83.8246L51.3712 75.6609L51.1787 74.5431C51.0112 73.5718 50.9274 72.5964 50.9274 71.646C50.9274 70.6957 51.0112 69.7203 51.1787 68.7448L51.3712 67.627L39.5527 63.788C38.8662 63.5661 38.4852 62.8209 38.7113 62.1343C38.8871 61.5901 39.3895 61.2259 39.9588 61.2259C40.097 61.2259 40.2309 61.2468 40.3649 61.2928L52.1834 65.1318L52.6857 64.1145C53.5482 62.3688 54.6995 60.7905 56.102 59.4257L56.9183 58.6344C56.9183 58.6344 41.5413 37.4717 41.3948 37.2666C38.8703 33.9006 35.0732 31.9789 30.9537 31.9789V31.9748ZM67.9958 40.8543C68.7201 40.8543 69.3103 41.4447 69.3103 42.1689V54.5944L70.4366 54.7577C72.3666 55.034 74.2211 55.641 75.9502 56.5537L76.9549 57.0854L77.6248 56.1644C77.7713 55.9634 92.3194 35.9352 92.4743 35.7258C95.342 31.6524 95.7021 26.5951 93.4539 22.1742C91.1639 17.6779 86.7807 14.9901 81.7317 14.9901C81.2754 14.9901 80.8441 14.7473 80.6097 14.3579L79.5882 12.6667C77.4238 9.08721 73.8235 6.57942 69.7165 5.78817C69.1513 5.67932 68.5736 5.62494 68.0042 5.62494C67.4348 5.62494 66.8571 5.67932 66.2919 5.78817C62.1849 6.57942 58.5846 9.08721 56.4202 12.6667L55.3986 14.3579C55.1641 14.7473 54.733 14.9901 54.2766 14.9901C49.2277 14.9901 44.8445 17.6779 42.5544 22.1742C40.3021 26.591 40.6622 31.6482 43.5174 35.7007L59.0534 57.0812L60.0582 56.5495C61.7831 55.6368 63.6376 55.034 65.5634 54.7577L66.6896 54.5944V42.1689C66.6896 41.4447 67.2799 40.8543 68.0042 40.8543H67.9958Z" stroke="#1A1A1A" stroke-width="4.12245" mask="url(#path-7-outside-1_154_1216)"/>
<path d="M105.974 60.1836C106.072 60.2821 106.182 60.368 106.299 60.4403L106.019 60.7196H107.264C107.744 60.7196 108.216 60.5296 108.559 60.182C108.903 59.8371 109.093 59.3629 109.093 58.8898C109.093 58.4148 108.897 57.936 108.557 57.596C108.217 57.2561 107.739 57.0599 107.264 57.0599C106.788 57.0599 106.31 57.2561 105.97 57.596C105.633 57.9326 105.438 58.4075 105.438 58.8898C105.438 59.3738 105.63 59.8399 105.974 60.1836Z" fill="#1A1A1A" stroke="#1A1A1A" stroke-width="1.03061"/>
<path d="M60.9183 71.6416C60.9183 75.5475 64.0921 78.7213 67.998 78.7213C71.9039 78.7213 75.0777 75.5475 75.0777 71.6416C75.0777 67.7356 71.9039 64.5618 67.998 64.5618C64.0921 64.5618 60.9183 67.7356 60.9183 71.6416ZM64.5738 71.6416C64.5738 69.7534 66.1098 68.2174 67.998 68.2174C69.8862 68.2174 71.4222 69.7534 71.4222 71.6416C71.4222 73.5298 69.8862 75.0657 67.998 75.0657C66.1098 75.0657 64.5738 73.5298 64.5738 71.6416Z" fill="#1A1A1A" stroke="#1A1A1A" stroke-width="1.03061"/>
<defs>
<linearGradient id="paint0_linear_154_1216" x1="67.0308" y1="58.6533" x2="67.0308" y2="85.4493" gradientUnits="userSpaceOnUse">
<stop stop-color="#EFD891"/>
<stop offset="1" stop-color="#EDE2B2"/>
</linearGradient>
</defs>
</svg>
