<svg width="128" height="128" viewBox="0 0 128 128" fill="none" xmlns="http://www.w3.org/2000/svg">
<path d="M104.115 61.6111C113.551 71.9911 84.77 116.814 64.4819 115.87C46.5527 120.117 14.9409 71.0475 24.8492 61.6111C21.5465 28.5839 42.5934 8.76758 64.4819 8.76758C86.3704 8.76758 108.833 32.8303 104.115 61.6111Z" fill="#D15454"/>
<path d="M95.5438 92.4953C89.3346 107.159 77.7468 117.03 64.4792 117.03C44.6818 117.03 28.6211 95.0619 28.6211 67.9607C28.6211 59.7888 30.0743 52.0888 32.6599 45.3135" stroke="#1A1A1A" stroke-width="3.77454" stroke-linejoin="round"/>
<path d="M96.9792 88.7207C99.1307 82.4172 100.338 75.3777 100.338 67.9607C100.338 56.2528 97.3411 45.5029 92.3398 37.0684" stroke="#1A1A1A" stroke-width="3.77454" stroke-linejoin="round"/>
<path d="M34.2656 41.5382C34.8696 40.236 35.5301 38.9715 36.2283 37.7637" stroke="#1A1A1A" stroke-width="3.77454" stroke-linejoin="round"/>
<path d="M89.0117 16.9287C99.3162 25.5724 105.997 39.1231 105.997 52.8813V75.5285C105.997 80.7374 101.77 84.9649 96.5608 84.9649" stroke="#1A1A1A" stroke-width="3.77454" stroke-linejoin="round"/>
<path d="M32.3973 84.9465C27.1884 84.9465 22.9609 80.719 22.9609 75.5101V52.8629C22.9609 29.9325 41.5506 7.56836 64.4809 7.56836C72.0489 7.56836 79.1261 10.003 85.2409 14.0795" stroke="#1A1A1A" stroke-width="3.77454" stroke-linejoin="round"/>
<path d="M22.9553 54.751H20.1244C17.52 54.751 15.4062 56.8647 15.4062 59.4692C15.4062 62.0736 17.52 64.1873 20.1244 64.1873H22.9553" stroke="#1A1A1A" stroke-width="3.77454" stroke-linejoin="round"/>
<path d="M9.74609 113.256V117.03" stroke="#1A1A1A" stroke-width="3.77454" stroke-linejoin="round"/>
<path d="M15.4079 58.5244H13.5206C11.4446 58.5244 9.74609 60.223 9.74609 62.299V109.481" stroke="#1A1A1A" stroke-width="3.77454" stroke-linejoin="round"/>
<path d="M105.996 54.751H108.827C111.431 54.751 113.545 56.8647 113.545 59.4692C113.545 62.0736 111.431 64.1873 108.827 64.1873H105.996" stroke="#1A1A1A" stroke-width="3.77454" stroke-linejoin="round"/>
<path d="M119.207 113.256V117.03" stroke="#1A1A1A" stroke-width="3.77454" stroke-linejoin="round"/>
<path d="M113.547 58.5244H115.434C117.51 58.5244 119.209 60.223 119.209 62.299V109.481" stroke="#1A1A1A" stroke-width="3.77454" stroke-linejoin="round"/>
<path d="M60.4342 50.1593C60.4342 50.1593 49.544 41.8721 42.0536 41.8721C34.5632 41.8721 40.4598 53.3831 30.4727 53.3831" stroke="#5B2828" stroke-width="12.8" stroke-linecap="round" stroke-linejoin="round"/>
<path d="M65.5518 59.304C65.5518 59.304 58.8084 49.8548 52.6149 45.6421C46.4214 41.4295 44.8232 54.2637 36.5652 48.6469" stroke="#5B2828" stroke-width="12.8" stroke-linecap="round" stroke-linejoin="round"/>
<path d="M70.0892 49.5498C70.0892 49.5498 80.9794 41.8721 88.4698 41.8721C95.9602 41.8721 90.0636 53.3831 100.051 53.3831" stroke="#5B2828" stroke-width="12.8" stroke-linecap="round" stroke-linejoin="round"/>
<path d="M66.2568 59.304C66.2568 59.304 73.0002 49.8548 79.1937 45.6421C85.3872 41.4295 86.9854 54.2637 95.2434 48.6469" stroke="#5B2828" stroke-width="12.8" stroke-linecap="round" stroke-linejoin="round"/>
<path d="M72.0273 81.1699C72.0273 81.1699 77.557 90.6063 90.9001 90.6063" stroke="#1A1A1A" stroke-width="3.77454" stroke-linejoin="round"/>
<path d="M56.9274 81.1699C56.9274 81.1699 51.3977 90.6063 38.0547 90.6063" stroke="#1A1A1A" stroke-width="3.77454" stroke-linejoin="round"/>
<ellipse cx="64.0978" cy="99.0246" rx="19.4103" ry="5.66134" fill="#FFE299"/>
<path d="M64.9281 109.134H64.0999C58.238 109.134 52.3988 107.392 47.2192 104.095C44.9529 102.653 43.8723 99.6124 44.4269 96.5689L64.9281 109.134ZM64.9281 109.134L64.9151 109.118M64.9281 109.134L64.9151 109.118M64.9151 109.118C70.5004 108.963 76.0381 107.233 80.9761 104.095L80.9763 104.095C83.2427 102.653 84.3234 99.6124 83.7687 96.5688L83.7687 96.5683C83.2101 93.5218 81.1637 91.3417 78.5616 91.3417H78.5281L78.495 91.3472C67.3939 93.2017 61.1006 93.3303 49.7033 91.3477L49.6689 91.3417H49.634C47.0323 91.3417 44.9813 93.5213 44.4269 96.5688L64.9151 109.118ZM48.8283 100.371C48.0019 99.8457 47.5731 98.7668 47.8047 97.4943L47.8048 97.4937C48.0326 96.2322 48.7495 95.5776 49.5897 95.5555L49.6393 95.5681C49.7059 95.5849 49.8039 95.6094 49.9304 95.6407C50.1836 95.7032 50.5511 95.7923 51.0096 95.8992C51.9264 96.113 53.2079 96.398 54.6672 96.6831C57.5783 97.2517 61.2248 97.8262 64.0957 97.8262C66.9665 97.8262 70.6162 97.2517 73.5304 96.6831C74.9913 96.398 76.2744 96.113 77.1924 95.8992C77.6515 95.7923 78.0195 95.7032 78.273 95.6407C78.3997 95.6095 78.4979 95.5849 78.5645 95.5681L78.6138 95.5556C79.448 95.5797 80.1637 96.2338 80.3953 97.4949C80.6264 98.766 80.1944 99.8453 79.3673 100.371C74.6702 103.357 69.3947 104.932 64.0999 104.932C58.8051 104.932 53.5254 103.357 48.8283 100.371ZM48.8283 100.371L48.6119 100.712L48.8283 100.371Z" fill="#1A1A1A" stroke="#1A1A1A" stroke-width="0.808763"/>
<path d="M59.2201 60.6386C59.2201 60.6386 53.9443 64.6592 46.63 60.6386C43.8674 61.2489 43.3774 64.6592 40.8395 64.6592C33.3491 64.6592 36.1981 54.3672 26.2109 54.3672" stroke="#5B2828" stroke-width="12.8" stroke-linecap="round" stroke-linejoin="round"/>
<path d="M68.8748 60.6386C68.8748 60.6386 73.4459 66.5577 81.9792 60.6386C84.5882 61.1928 84.8745 64.6592 87.2554 64.6592C94.7458 64.6592 93.0206 54.0625 103.008 54.0625" stroke="#5B2828" stroke-width="12.8" stroke-linecap="round" stroke-linejoin="round"/>
<path d="M106.059 59.9118C107.101 59.9118 107.946 59.0669 107.946 58.0245C107.946 56.9822 107.101 56.1373 106.059 56.1373V59.9118ZM73.7539 53.4531C75.6412 53.4531 75.6412 53.455 75.6412 53.4569C75.6412 53.4575 75.6412 53.4594 75.6412 53.4606C75.6412 53.4631 75.6411 53.4655 75.6411 53.4678C75.6411 53.4725 75.641 53.477 75.641 53.4813C75.6408 53.49 75.6406 53.4978 75.6404 53.5049C75.6399 53.5191 75.6393 53.5304 75.6387 53.539C75.6375 53.556 75.6364 53.5625 75.6368 53.5598C75.6376 53.5543 75.644 53.5148 75.6659 53.4514C75.7071 53.3324 75.8127 53.1001 76.0916 52.8316C76.6394 52.3041 78.1417 51.3785 81.9825 51.3785V47.6039C77.5947 47.6039 74.9827 48.6593 73.4734 50.1127C72.7237 50.8347 72.315 51.5929 72.099 52.2167C71.9924 52.5248 71.9345 52.7948 71.9031 53.0059C71.8875 53.1116 71.8783 53.2032 71.8732 53.2783C71.8706 53.3158 71.8689 53.3494 71.8679 53.3786C71.8675 53.3932 71.8671 53.4067 71.8669 53.4191C71.8668 53.4254 71.8667 53.4313 71.8667 53.437C71.8667 53.4398 71.8667 53.4426 71.8667 53.4452C71.8666 53.4466 71.8666 53.4486 71.8666 53.4492C71.8666 53.4512 71.8666 53.4531 73.7539 53.4531ZM81.9825 51.3785C85.4718 51.3785 88.2598 53.1591 92.0336 55.3837C95.6982 57.5439 100.035 59.9118 106.059 59.9118V56.1373C101.111 56.1373 97.5239 54.2385 93.9504 52.1321C90.4861 50.09 86.7217 47.6039 81.9825 47.6039V51.3785Z" fill="#F47762"/>
<path d="M22.5508 56.442C21.5085 56.442 20.6635 57.287 20.6635 58.3293C20.6635 59.3716 21.5085 60.2166 22.5508 60.2166V56.442ZM54.246 53.4531C56.1333 53.4531 56.1333 53.451 56.1333 53.449C56.1333 53.4482 56.1333 53.4461 56.1333 53.4447C56.1333 53.4418 56.1332 53.4388 56.1332 53.4358C56.1332 53.4298 56.1331 53.4234 56.133 53.4168C56.1327 53.4036 56.1324 53.3893 56.1318 53.3739C56.1307 53.3431 56.1289 53.3079 56.1259 53.2687C56.1201 53.1902 56.1099 53.0952 56.0925 52.9859C56.0577 52.7674 55.9937 52.4906 55.8769 52.1764C55.6397 51.5383 55.1967 50.7803 54.4011 50.067C52.8145 48.6445 50.0701 47.6039 45.4079 47.6039V51.3785C49.5838 51.3785 51.2585 52.3189 51.8814 52.8774C52.1905 53.1545 52.3 53.387 52.339 53.4918C52.3602 53.549 52.3653 53.5816 52.365 53.5799C52.3649 53.5789 52.3633 53.569 52.3618 53.5486C52.361 53.5383 52.3603 53.5254 52.3597 53.5096C52.3594 53.5017 52.3592 53.4931 52.359 53.4837C52.3589 53.479 52.3589 53.4741 52.3588 53.469C52.3588 53.4664 52.3588 53.4638 52.3588 53.4612C52.3588 53.4599 52.3588 53.4578 52.3588 53.4572C52.3588 53.4552 52.3587 53.4531 54.246 53.4531ZM45.4079 47.6039C40.2833 47.6039 37.0152 50.2414 33.9972 52.3674C30.9709 54.4993 27.8596 56.442 22.5508 56.442V60.2166C29.0261 60.2166 32.9243 57.7403 36.171 55.4531C39.426 53.1601 41.6945 51.3785 45.4079 51.3785V47.6039Z" fill="#F47762"/>
<path d="M88.9922 57.3217C87.2652 54.1724 81.9217 49.7636 74.3636 57.3217" stroke="#F47762" stroke-width="12.8" stroke-linecap="round"/>
<path d="M39.6172 57.3217C41.3442 54.1724 46.6877 49.7636 54.2458 57.3217" stroke="#F47762" stroke-width="12.8" stroke-linecap="round"/>
<path d="M88.9922 57.3217C87.2652 54.1724 81.9217 49.7636 74.3636 57.3217" stroke="#1A1A1A" stroke-width="6.09524" stroke-linecap="round"/>
<path d="M39.6172 57.3217C41.3442 54.1724 46.6877 49.7636 54.2458 57.3217" stroke="#1A1A1A" stroke-width="6.09524" stroke-linecap="round"/>
<path d="M66.0781 86.347L71.9256 82.4642V80.1373C71.9256 79.7588 71.8685 79.3804 71.7733 79.0019L66.5923 60.0225C66.3637 59.2095 65.4113 58.6348 64.3065 58.6348C63.2018 58.6348 62.2495 59.2235 62.0209 60.0225L56.8399 79.0019C56.7447 79.3804 56.6875 79.7588 56.6875 80.1373V82.4642L62.5351 86.347C63.6399 86.7815 64.9733 86.7815 66.0781 86.347Z" fill="#D46060" stroke="#1A1A1A" stroke-width="3.77454" stroke-linejoin="round"/>
<path d="M26.5156 36.3871C31.3918 26.0252 37.7918 8.65918 64.9156 8.65918C88.9997 8.65918 100.268 28.7681 103.62 36.3871" stroke="#1A1A1A" stroke-width="6.70476" stroke-linecap="round"/>
<path d="M28.6484 48.361C30.0639 44.4292 34.8406 37.5092 42.803 37.5092C48.9366 37.5092 64.8407 49.1874 64.8407 53.6501C64.8407 49.1874 79.6047 38.3593 83.8511 37.5092C90.9282 36.0923 100.848 43.6428 101.791 48.361" stroke="#1A1A1A" stroke-width="3.04762" stroke-linecap="round" stroke-linejoin="round"/>
<path d="M32 42.4815C34.4381 38.6737 36.11 35.1672 43.2762 35.1672C48.7965 35.1672 64.8778 43.7705 64.8778 48.2719C64.8778 43.7705 78.1592 36.3295 81.981 35.4719C88.3504 34.0428 96 37.7595 98.7429 42.4815" stroke="#1A1A1A" stroke-width="4.26667" stroke-linecap="round" stroke-linejoin="round"/>
</svg>
