<svg width="1022" height="390" viewBox="0 0 1022 390" fill="none" xmlns="http://www.w3.org/2000/svg">
<path d="M8.07149 15.8589C3.8196 15.8589 0.359375 12.464 0.359375 8.29218C0.359375 4.12036 3.8196 0.725403 8.07149 0.725403H182.639C186.891 0.725403 190.351 4.12036 190.351 8.29218C190.351 12.464 186.891 15.8589 182.639 15.8589H174.769C169.766 15.8589 165.695 19.8537 165.695 24.7625C165.695 29.6713 169.766 33.666 174.769 33.666H219.76C224.012 33.666 227.472 37.0611 227.472 41.2329C227.472 45.4047 224.012 48.7997 219.76 48.7997H100.544C96.2922 48.7997 92.8321 45.4047 92.8321 41.2329C92.8321 37.0611 96.2922 33.666 100.544 33.666H140.377C145.38 33.666 149.452 29.6713 149.452 24.7625C149.452 19.8537 145.38 15.8589 140.377 15.8589H8.07149Z" fill="url(#paint0_linear_711_11191)"/>
<path d="M247.364 33.8254C251.6 33.8254 255.033 37.1944 255.033 41.3502C255.033 45.506 251.6 48.8749 247.364 48.8749C243.128 48.8749 239.695 45.506 239.695 41.3502C239.695 37.1944 243.128 33.8254 247.364 33.8254Z" fill="url(#paint1_linear_711_11191)"/>
<path fill-rule="evenodd" clip-rule="evenodd" d="M117.973 66.2173C122.785 66.2173 126.687 70.0439 126.687 74.7668C126.687 79.4897 122.787 83.3162 117.973 83.3162H58.0203C53.209 83.3162 49.3067 79.4897 49.3067 74.7668C49.3067 70.0439 53.2068 66.2173 58.0203 66.2173H117.973Z" fill="url(#paint2_linear_711_11191)"/>
<path d="M1014.86 346.63C1018.42 346.63 1021.3 349.511 1021.3 353.064C1021.3 356.617 1018.42 359.498 1014.86 359.498C1011.31 359.498 1008.43 356.617 1008.43 353.064C1008.43 349.511 1011.31 346.63 1014.86 346.63Z" fill="url(#paint3_linear_711_11191)"/>
<path fill-rule="evenodd" clip-rule="evenodd" d="M989.273 346C993.309 346 996.583 349.272 996.583 353.31C996.583 357.348 993.311 360.62 989.273 360.62H960.595C956.558 360.62 953.285 363.892 953.285 367.93C953.285 371.968 956.556 375.24 960.595 375.24H968.896C972.933 375.24 976.206 378.512 976.206 382.55C976.206 386.588 972.934 389.86 968.896 389.86H838.079C834.043 389.86 830.769 386.588 830.769 382.55C830.769 378.512 834.041 375.24 838.079 375.24H930.639C934.676 375.24 937.949 371.968 937.949 367.93C937.949 363.892 934.678 360.62 930.639 360.62H910.074C906.037 360.62 902.764 357.348 902.764 353.31C902.764 349.272 906.036 346 910.074 346H989.273Z" fill="url(#paint4_linear_711_11191)"/>
<defs>
<linearGradient id="paint0_linear_711_11191" x1="0.359375" y1="195.293" x2="1021.3" y2="195.293" gradientUnits="userSpaceOnUse">
<stop stop-color="#FBD099"/>
<stop offset="0.598958" stop-color="#FCEFDF"/>
<stop offset="1" stop-color="#FFE299"/>
</linearGradient>
<linearGradient id="paint1_linear_711_11191" x1="0.359375" y1="195.293" x2="1021.3" y2="195.293" gradientUnits="userSpaceOnUse">
<stop stop-color="#EBE3C1"/>
<stop offset="1" stop-color="#EBE3C0"/>
</linearGradient>
<linearGradient id="paint2_linear_711_11191" x1="0.359375" y1="195.242" x2="1021.3" y2="195.242" gradientUnits="userSpaceOnUse">
<stop stop-color="#F9F7ED"/>
<stop offset="1" stop-color="#EBE3C0"/>
</linearGradient>
<linearGradient id="paint3_linear_711_11191" x1="0.359375" y1="195.293" x2="1021.3" y2="195.293" gradientUnits="userSpaceOnUse">
<stop stop-color="#FBD099"/>
<stop offset="0.598958" stop-color="#FCEFDF"/>
<stop offset="1" stop-color="#FFE299"/>
</linearGradient>
<linearGradient id="paint4_linear_711_11191" x1="0.359375" y1="195.293" x2="1021.3" y2="195.293" gradientUnits="userSpaceOnUse">
<stop stop-color="#FBD099"/>
<stop offset="0.598958" stop-color="#FCEFDF"/>
<stop offset="1" stop-color="#FFE299"/>
</linearGradient>
</defs>
</svg>
