<svg width="58" height="57" viewBox="0 0 58 57" fill="none" xmlns="http://www.w3.org/2000/svg">
<path d="M57.1623 27.6544C57.2586 32.7876 54.2563 35.5155 49.2058 36.5866C51.9166 40.4154 52.2795 44.2416 49.0601 47.6881C45.497 51.5034 41.3427 51.2864 37.1665 48.4772C35.5279 53.7785 33.0068 56.2216 28.957 56.2677C23.7443 56.3247 21.0142 53.369 19.9804 48.4392C16.1149 51.056 12.2219 51.5115 8.71096 48.3443C4.88115 44.8897 4.98286 40.8168 7.8724 36.5866C3.31127 35.586 0.196326 33.2648 0.00937171 28.5384C-0.194078 23.3781 2.93187 20.7316 7.74044 19.693C5.2798 13.9579 5.29908 11.2787 8.05665 8.51286C11.6968 4.86027 15.7465 4.985 19.9915 7.778C20.9647 3.13565 23.4886 0.117588 28.3054 0.00370026C33.4219 -0.115612 36.1273 2.93771 37.139 7.84579C40.8176 5.24803 44.5649 4.78163 48.0456 7.62615C52.2933 11.0944 52.1449 15.3191 49.3021 19.6577C54.6193 21.3119 57.0881 23.7334 57.1596 27.6598L57.1623 27.6544ZM43.9958 48.6887C46.7617 48.2331 49.0656 45.9282 49.4807 43.203C49.9289 40.2554 48.37 37.3269 45.42 36.0226C41.9971 34.5095 38.5026 33.1482 35.022 31.7653C34.6261 31.608 34.1092 31.7436 33.6501 31.7436L33.5429 32.3049C34.0103 32.5381 34.4666 32.7984 34.9505 32.9991C38.1287 34.3061 41.3318 35.5616 44.4935 36.9066C47.7404 38.2841 49.1756 41.5353 47.8504 44.3609C46.8964 46.3919 45.2605 47.52 43.0061 47.5579C40.5619 47.6013 38.7171 46.4272 37.7219 44.2578C36.218 40.9795 34.8791 37.6279 33.4632 34.3088C33.2899 33.902 33.081 33.5061 32.8913 33.1075C32.7236 33.1021 32.5532 33.094 32.3854 33.0886C32.3305 33.5441 32.094 34.0675 32.2452 34.4417C33.6639 37.9234 35.0633 41.416 36.6441 44.8273C37.9831 47.7125 40.9991 49.1876 43.9958 48.6941V48.6887ZM28.3137 38.8562C27.2277 41.5164 26.0427 44.144 25.0887 46.8502C24.5114 48.488 25.2289 50.1855 26.5431 51.0017C27.8848 51.8369 29.2705 51.8179 30.6039 50.9855C31.8631 50.1991 32.5999 48.5124 32.0583 46.9722C31.0905 44.2172 29.9055 41.5381 28.8113 38.8291C28.6464 38.84 28.4814 38.8481 28.3164 38.8589L28.3137 38.8562ZM28.8003 17.4315C29.8945 14.7253 31.0988 12.0543 32.0473 9.29924C32.6164 7.64784 31.8383 5.9612 30.4966 5.19922C29.1357 4.4264 27.739 4.4481 26.4304 5.32396C25.1409 6.18627 24.5196 7.88376 25.1162 9.52702C26.0813 12.1763 27.2387 14.7578 28.3137 17.3691C28.4759 17.3908 28.6381 17.4125 28.8003 17.4342V17.4315ZM35.9128 35.7243C37.073 38.4115 38.1397 41.1394 39.4237 43.767C40.2237 45.4049 41.9751 46.1424 43.512 45.8523C45.0571 45.5594 46.297 44.3094 46.5445 42.7936C46.8167 41.1394 46.0001 39.4853 44.2763 38.7071C41.6397 37.5194 38.9398 36.4727 36.2647 35.3663L35.9128 35.7216V35.7243ZM24.6048 53.3527C26.9445 54.996 30.0925 55.0177 32.4267 53.4042C34.8103 51.7583 35.9595 48.6833 34.9121 45.836C33.5786 42.216 31.9978 38.6827 30.4747 35.1304C30.3207 34.7725 29.8313 34.5528 29.4959 34.2681C29.3419 34.3901 29.1852 34.5149 29.0313 34.6369C29.3832 35.5046 29.7241 36.3778 30.0842 37.2401C31.2417 40.006 32.4899 42.742 33.5539 45.5432C35.1073 49.635 32.5779 53.4422 28.4539 53.369C24.5306 53.2985 22.0672 49.6242 23.5079 45.7709C24.7176 42.5359 26.1472 39.3823 27.4779 36.1907C27.6868 35.689 27.8711 35.1738 28.0663 34.6667C27.948 34.542 27.8326 34.4173 27.7143 34.2952C27.3624 34.5366 26.8318 34.7047 26.6888 35.0328C25.1465 38.6312 23.5491 42.2133 22.2102 45.8848C21.1902 48.6805 22.3256 51.7474 24.6103 53.3527H24.6048ZM7.65251 43.222C8.12265 46.0557 10.454 48.3253 13.2996 48.7185C16.3018 49.1361 19.2189 47.5959 20.5578 44.6646C22.0782 41.3347 23.4474 37.9397 24.8358 34.5556C25.0008 34.1515 24.8577 33.6282 24.8577 33.1591C24.6516 33.1374 24.4426 33.113 24.2364 33.0913C23.7883 34.0892 23.3237 35.0816 22.892 36.0876C21.7345 38.7993 20.676 41.5543 19.4168 44.2199C18.3776 46.419 16.5355 47.6311 14.0007 47.5633C11.7902 47.5037 9.88772 46.0719 9.09866 43.9731C8.11165 41.3428 9.43683 38.36 12.3291 37.0801C15.5183 35.67 18.7735 34.4064 21.9985 33.0723C22.5071 32.8608 23.002 32.6167 23.5051 32.3889C23.5051 32.21 23.5051 32.0337 23.5051 31.8548C23.0295 31.8168 22.4851 31.6107 22.0892 31.768C18.6058 33.1455 15.1142 34.5122 11.694 36.0361C8.73848 37.3567 7.17138 40.3232 7.65251 43.2247V43.222ZM21.2617 35.6646C21.1297 35.5507 20.9949 35.4396 20.863 35.3257C18.0944 36.4944 15.2819 37.5736 12.571 38.8671C10.9022 39.6643 10.2561 41.3049 10.5833 42.9373C10.8719 44.3717 12.0871 45.5513 13.5855 45.8523C15.0811 46.1533 16.8462 45.4645 17.5996 43.9324C18.9275 41.2289 20.0492 38.4278 21.2589 35.6646H21.2617ZM2.92087 24.2459C1.21903 26.5725 1.24108 29.7478 2.97591 32.0771C4.66949 34.3468 7.82295 35.3826 10.7235 34.3305C14.3416 33.018 17.8855 31.5022 21.4349 30.019C21.7978 29.8671 21.9985 29.3356 22.2762 28.9804C22.1414 28.853 22.0067 28.7255 21.8693 28.6008C18.933 29.7885 15.9967 30.9789 13.0577 32.1666C12.2494 32.4947 11.4465 32.8445 10.6217 33.1265C8.02087 34.0078 5.40082 33.3028 3.94918 31.3612C2.52503 29.4577 2.514 26.9006 3.91891 24.959C5.34306 22.9958 7.95764 22.1823 10.5585 23.1259C13.5498 24.2133 16.4695 25.4878 19.4196 26.6782C20.2196 27.0009 21.0252 27.3182 21.828 27.6381C21.9655 27.5378 22.1002 27.4375 22.2376 27.3371C21.9957 26.9684 21.8362 26.407 21.4953 26.2633C17.8965 24.7584 14.3086 23.2154 10.6382 21.8976C7.74595 20.8617 4.59802 21.9491 2.91818 24.2459H2.92087ZM17.7343 28.3377C17.7178 28.194 17.7013 28.0476 17.6848 27.9039C15.0262 26.8409 12.3923 25.702 9.69524 24.7421C8.02915 24.1482 6.32179 24.7773 5.40627 26.0193C4.49074 27.2639 4.47151 28.8665 5.35405 30.1545C6.23383 31.4399 7.9054 32.1124 9.59624 31.5266C12.3456 30.5721 15.0234 29.4116 17.7315 28.3377H17.7343ZM13.2446 7.54209C10.3826 7.96782 8.1089 10.2239 7.65251 13.0901C7.19612 15.9536 8.68898 18.847 11.6115 20.1702C15.0674 21.7349 18.6168 23.1015 22.1442 24.5035C22.5209 24.6526 23.0322 24.4682 23.4803 24.4384C23.4803 24.2242 23.4803 24.0127 23.4803 23.7984C20.1646 22.4426 16.827 21.141 13.5471 19.7066C12.3483 19.1832 11.1084 18.5216 10.2093 17.6132C8.16383 15.5469 8.37007 12.1682 10.4541 10.2076C12.6123 8.17933 16.016 8.16306 18.1082 10.2565C18.7406 10.891 19.2711 11.6909 19.634 12.5098C21.0169 15.6228 22.3091 18.771 23.6426 21.9057C23.8185 22.3179 24.0302 22.7111 24.2281 23.1151C24.3959 23.1259 24.5663 23.1368 24.734 23.1449C24.789 22.6894 25.02 22.166 24.8688 21.7918C23.4694 18.3562 22.0809 14.9124 20.5303 11.5418C19.1831 8.61319 16.2386 7.09738 13.2474 7.54209H13.2446ZM21.2809 20.5662C19.9777 17.6837 18.8093 14.7307 17.3164 11.9458C16.5878 10.5846 15.0317 10.0829 13.4096 10.4707C11.9387 10.8232 10.9516 11.7668 10.6217 13.223C10.2643 14.8012 10.7042 16.3414 12.1366 17.0681C14.9767 18.5107 17.9652 19.6767 20.8905 20.9566C21.0225 20.8265 21.1517 20.6936 21.2836 20.5634L21.2809 20.5662ZM32.4101 2.83195C30.0842 1.24293 26.8703 1.28089 24.5856 2.92415C22.3036 4.56741 21.1929 7.60988 22.2129 10.4056C23.5381 14.0311 25.1135 17.5671 26.6311 21.122C26.7878 21.4881 27.2827 21.7132 27.6181 22.0033C27.7748 21.884 27.9342 21.7647 28.091 21.6481C27.8435 21.0163 27.6098 20.3763 27.3487 19.7499C26.0922 16.7481 24.7533 13.7762 23.5848 10.7418C22.0837 6.8452 24.3244 3.09499 28.179 2.87534C32.3717 2.63671 35.132 6.48997 33.5896 10.6035C32.4102 13.7436 31.0163 16.8024 29.7214 19.8991C29.4904 20.4496 29.2704 21.0081 29.0477 21.5613C29.1604 21.6888 29.2759 21.8135 29.3886 21.941C29.7433 21.7105 30.2877 21.5613 30.4251 21.2414C31.9868 17.5969 33.6281 13.9741 34.9533 10.2456C35.9595 7.42007 34.7526 4.43725 32.4101 2.83466V2.83195ZM49.467 12.9491C48.9968 10.1914 46.7011 7.96782 43.8968 7.55294C40.9358 7.11636 37.9775 8.58607 36.6744 11.4008C35.0935 14.8147 33.6749 18.3019 32.2452 21.781C32.0913 22.1579 32.3222 22.6921 32.3744 23.1531C32.5641 23.1558 32.7539 23.1585 32.9436 23.1612C34.09 20.4631 35.2338 17.7623 36.383 15.0642C36.8421 13.9877 37.2517 12.8868 37.7851 11.8482C38.9618 9.56498 41.395 8.34474 43.7896 8.75691C46.0991 9.15552 47.9026 10.9561 48.2628 13.2203C48.6422 15.6093 47.4215 18.0064 45.0241 19.072C41.7441 20.5336 38.3872 21.8271 35.066 23.2019C34.5684 23.408 34.09 23.6601 33.6006 23.8906C33.6171 24.0696 33.6308 24.2459 33.6473 24.4248C34.09 24.4628 34.5959 24.658 34.9615 24.5116C38.5356 23.0826 42.1318 21.6888 45.6317 20.0943C48.5047 18.7873 49.9563 15.8425 49.4615 12.9437L49.467 12.9491ZM35.9238 20.4496C36.0668 20.6095 36.2125 20.7695 36.3554 20.9295C39.278 19.6388 42.272 18.4809 45.0928 17.0003C46.4785 16.2709 46.9294 14.7063 46.484 13.12C46.0633 11.6258 45.0571 10.6849 43.4652 10.4436C41.7497 10.1832 40.3007 10.7961 39.5611 12.2712C38.2277 14.9395 37.1252 17.7162 35.9265 20.4496H35.9238ZM46.1376 21.9979C42.6762 23.2914 39.267 24.7204 35.8606 26.1521C35.4372 26.3311 35.1732 26.8816 34.8378 27.2612C34.9643 27.3968 35.0908 27.5297 35.2173 27.6653C38.7254 26.2471 42.195 24.7204 45.7636 23.4649C47.1465 22.9795 48.8236 22.7517 50.2423 23.031C53.305 23.6357 54.9134 26.8138 53.9814 29.7939C53.0796 32.6764 49.8327 34.2952 46.7452 33.1916C43.5559 32.0527 40.4519 30.686 37.3095 29.4224C36.6084 29.1404 35.9046 28.8665 35.2035 28.5872C35.0743 28.7228 34.9478 28.8584 34.8186 28.994C35.1237 29.3573 35.3547 29.8915 35.7479 30.0542C39.2505 31.5212 42.7449 33.0153 46.3135 34.3142C49.3433 35.4179 52.5875 34.3305 54.2838 31.9117C55.9031 29.6041 55.8564 26.4287 54.1683 24.2133C52.3428 21.8162 49.1756 20.8671 46.1403 22.0033L46.1376 21.9979ZM39.4264 28.3594C42.1813 29.4414 44.9031 30.6182 47.7019 31.5673C49.302 32.1096 50.9874 31.3883 51.7847 30.1464C52.6287 28.8313 52.6754 27.4619 51.8039 26.1386C50.9351 24.8207 49.2526 24.1374 47.5865 24.7123C44.8372 25.6613 42.162 26.8192 39.4539 27.8876C39.4457 28.0449 39.4347 28.2022 39.4264 28.3594Z" fill="url(#paint0_linear_715_13319)"/>
<defs>
<linearGradient id="paint0_linear_715_13319" x1="28.5823" y1="56.2686" x2="28.5823" y2="0.000324249" gradientUnits="userSpaceOnUse">
<stop stop-color="#EFD891"/>
<stop offset="1" stop-color="#EDE2B2"/>
</linearGradient>
</defs>
</svg>
