<svg width="1457" height="469" viewBox="0 0 1457 469" fill="none" xmlns="http://www.w3.org/2000/svg">
<path d="M2.95785 234.329C2.95785 235.171 2.29456 235.857 1.47893 235.857C0.663296 235.857 0 235.171 0 234.329C0 233.486 0.663296 232.801 1.47893 232.801C2.29456 232.801 2.95785 233.486 2.95785 234.329Z" fill="#ECE4C3"/>
<path d="M1318.87 434.053C1318.87 434.896 1318.2 435.581 1317.39 435.581C1316.57 435.581 1315.91 434.896 1315.91 434.053C1315.91 433.211 1316.57 432.525 1317.39 432.525C1318.2 432.525 1318.87 433.211 1318.87 434.053Z" fill="#ECE4C3"/>
<path d="M1456.87 80.983C1456.87 81.8257 1456.2 82.5111 1455.39 82.5111C1454.57 82.5111 1453.91 81.829 1453.91 80.983C1453.91 80.1371 1454.57 79.4551 1455.39 79.4551C1456.21 79.4551 1456.87 80.1371 1456.87 80.983Z" fill="#ECE4C3"/>
<path d="M1118.93 39.8317C1118.93 40.6744 1118.27 41.3597 1117.45 41.3597C1116.64 41.3597 1115.97 40.6744 1115.97 39.8317C1115.97 38.989 1116.63 38.3037 1117.45 38.3037C1118.27 38.3037 1118.93 38.989 1118.93 39.8317Z" fill="#ECE4C3"/>
<path d="M685.485 13.8356C685.485 14.6783 684.822 15.3636 684.006 15.3636C683.191 15.3636 682.527 14.6783 682.527 13.8356C682.527 12.9929 683.191 12.3076 684.006 12.3076C684.822 12.3076 685.485 12.9929 685.485 13.8356Z" fill="#ECE4C3"/>
<path d="M1307.86 449.631C1309.49 449.631 1310.82 448.264 1310.82 446.578C1310.82 444.892 1309.49 443.525 1307.86 443.525C1306.23 443.525 1304.91 444.892 1304.91 446.578C1304.91 448.264 1306.23 449.631 1307.86 449.631Z" fill="#ECE4C3"/>
<path d="M1367.26 102.958C1367.52 101.294 1366.43 99.7258 1364.82 99.4557C1363.21 99.1855 1361.69 100.316 1361.43 101.98C1361.17 103.644 1362.26 105.212 1363.87 105.482C1365.48 105.752 1367 104.622 1367.26 102.958Z" fill="#ECE4C3"/>
<path d="M1007.25 81.1307C1008.75 80.4855 1009.47 78.6997 1008.85 77.1421C1008.22 75.5844 1006.49 74.8448 1004.99 75.49C1003.48 76.1352 1002.76 77.9209 1003.39 79.4786C1004.01 81.0362 1005.74 81.7759 1007.25 81.1307Z" fill="#ECE4C3"/>
<path d="M498.397 76.2073C498.397 76.7975 497.934 77.2729 497.365 77.2729C496.797 77.2729 496.334 76.7942 496.334 76.2073C496.334 75.6203 496.797 75.1416 497.365 75.1416C497.934 75.1416 498.397 75.6203 498.397 76.2073Z" fill="#ECE4C3"/>
<path d="M146.713 135.488C146.713 136.078 146.25 136.553 145.682 136.553C145.114 136.553 144.65 136.074 144.65 135.488C144.65 134.901 145.114 134.422 145.682 134.422C146.25 134.422 146.713 134.901 146.713 135.488Z" fill="#ECE4C3"/>
<path d="M117.916 235.514C117.916 236.104 117.453 236.58 116.885 236.58C116.317 236.58 115.854 236.101 115.854 235.514C115.854 234.927 116.317 234.448 116.885 234.448C117.453 234.448 117.916 234.927 117.916 235.514Z" fill="#ECE4C3"/>
<path d="M434.608 1.06567C434.608 1.65588 434.144 2.13134 433.576 2.13134C433.008 2.13134 432.545 1.6526 432.545 1.06567C432.545 0.478728 433.008 0 433.576 0C434.144 0 434.608 0.478728 434.608 1.06567Z" fill="#ECE4C3"/>
<path d="M1405.75 468.631C1404.91 468.722 1404.16 468.14 1404.07 467.326C1403.98 466.512 1404.59 465.782 1405.43 465.691C1406.26 465.6 1407.02 466.185 1407.11 466.996C1407.19 467.807 1406.58 468.54 1405.75 468.631Z" fill="#ECE4C3"/>
<path d="M1316.66 373.341C1315.07 373.515 1313.63 372.4 1313.47 370.856C1313.3 369.311 1314.46 367.914 1316.05 367.74C1317.65 367.567 1319.08 368.682 1319.25 370.226C1319.42 371.771 1318.26 373.168 1316.66 373.341Z" fill="#ECE4C3"/>
<path d="M2.95785 234.329C2.95785 235.171 2.29456 235.857 1.47893 235.857C0.663296 235.857 0 235.171 0 234.329C0 233.486 0.663296 232.801 1.47893 232.801C2.29456 232.801 2.95785 233.486 2.95785 234.329Z" fill="#ECE4C3"/>
<path d="M1456.87 80.983C1456.87 81.8257 1456.2 82.5111 1455.39 82.5111C1454.57 82.5111 1453.91 81.829 1453.91 80.983C1453.91 80.1371 1454.57 79.4551 1455.39 79.4551C1456.21 79.4551 1456.87 80.1371 1456.87 80.983Z" fill="#ECE4C3"/>
<path d="M685.485 13.8356C685.485 14.6783 684.822 15.3636 684.006 15.3636C683.191 15.3636 682.527 14.6783 682.527 13.8356C682.527 12.9929 683.191 12.3076 684.006 12.3076C684.822 12.3076 685.485 12.9929 685.485 13.8356Z" fill="#ECE4C3"/>
<path d="M1367.26 102.958C1367.52 101.294 1366.43 99.7258 1364.82 99.4557C1363.21 99.1855 1361.69 100.316 1361.43 101.98C1361.17 103.644 1362.26 105.212 1363.87 105.482C1365.48 105.752 1367 104.622 1367.26 102.958Z" fill="#ECE4C3"/>
<path d="M1007.25 81.1307C1008.75 80.4855 1009.47 78.6997 1008.85 77.1421C1008.22 75.5844 1006.49 74.8448 1004.99 75.49C1003.48 76.1352 1002.76 77.9209 1003.39 79.4786C1004.01 81.0362 1005.74 81.7759 1007.25 81.1307Z" fill="#ECE4C3"/>
<path d="M498.397 76.2073C498.397 76.7975 497.934 77.2729 497.365 77.2729C496.797 77.2729 496.334 76.7942 496.334 76.2073C496.334 75.6203 496.797 75.1416 497.365 75.1416C497.934 75.1416 498.397 75.6203 498.397 76.2073Z" fill="#ECE4C3"/>
<path d="M146.713 135.488C146.713 136.078 146.25 136.553 145.682 136.553C145.114 136.553 144.65 136.074 144.65 135.488C144.65 134.901 145.114 134.422 145.682 134.422C145.682 134.422 146.713 134.901 146.713 135.488Z" fill="#ECE4C3"/>
<path d="M117.916 235.514C117.916 236.104 117.453 236.58 116.885 236.58C116.317 236.58 115.854 236.101 115.854 235.514C115.854 234.927 116.317 234.448 116.885 234.448C117.453 234.448 117.916 234.927 117.916 235.514Z" fill="#ECE4C3"/>
<path d="M1316.66 373.341C1315.07 373.515 1313.63 372.4 1313.47 370.856C1313.3 369.311 1314.46 367.914 1316.05 367.74C1317.65 367.567 1319.08 368.682 1319.25 370.226C1319.42 371.771 1318.26 373.168 1316.66 373.341Z" fill="#ECE4C3"/>
<path d="M645.485 29.8356C645.485 30.6783 644.822 31.3636 644.006 31.3636C643.191 31.3636 642.527 30.6783 642.527 29.8356C642.527 28.9929 643.191 28.3076 644.006 28.3076C644.822 28.3076 645.485 28.9929 645.485 29.8356Z" fill="#ECE4C3"/>
<path d="M645.485 29.8356C645.485 30.6783 644.822 31.3636 644.006 31.3636C643.191 31.3636 642.527 30.6783 642.527 29.8356C642.527 28.9929 643.191 28.3076 644.006 28.3076C644.822 28.3076 645.485 28.9929 645.485 29.8356Z" fill="#ECE4C3"/>
</svg>
