<svg width="1354" height="467" viewBox="0 0 1354 467" fill="none" xmlns="http://www.w3.org/2000/svg">
<path d="M69.4813 233.064C69.4813 233.907 68.8212 234.592 68.0024 234.592C67.1836 234.592 66.5234 233.91 66.5234 233.064C66.5234 232.218 67.1836 231.536 68.0024 231.536C68.8212 231.536 69.4813 232.221 69.4813 233.064Z" fill="#ECE4C3"/>
<path d="M1124.79 253.24C1124.79 254.082 1124.13 254.768 1123.31 254.768C1122.5 254.768 1121.83 254.086 1121.83 253.24C1121.83 252.394 1122.49 251.712 1123.31 251.712C1124.13 251.712 1124.79 252.397 1124.79 253.24Z" fill="#ECE4C3"/>
<path d="M1097.42 28.5141C1097.42 29.3568 1096.76 30.0421 1095.94 30.0421C1095.12 30.0421 1094.46 29.3601 1094.46 28.5141C1094.46 27.6681 1095.13 26.9861 1095.94 26.9861C1096.76 26.9861 1097.42 27.6714 1097.42 28.5141Z" fill="#ECE4C3"/>
<path d="M1299.5 201.737C1299.5 202.579 1298.84 203.265 1298.02 203.265C1297.2 203.265 1296.54 202.579 1296.54 201.737C1296.54 200.894 1297.2 200.209 1298.02 200.209C1298.84 200.209 1299.5 200.894 1299.5 201.737Z" fill="#ECE4C3"/>
<path d="M1353.25 171.635C1353.25 172.478 1352.59 173.163 1351.78 173.163C1350.96 173.163 1350.3 172.478 1350.3 171.635C1350.3 170.792 1350.96 170.107 1351.78 170.107C1352.59 170.107 1353.25 170.792 1353.25 171.635Z" fill="#ECE4C3"/>
<path d="M930.704 98.186C930.704 99.0287 930.044 99.714 929.225 99.714C928.406 99.714 927.746 99.0287 927.746 98.186C927.746 97.3433 928.409 96.658 929.225 96.658C930.041 96.658 930.704 97.3433 930.704 98.186Z" fill="#ECE4C3"/>
<path d="M174.856 21.5512C174.856 22.3939 174.196 23.0792 173.377 23.0792C172.559 23.0792 171.898 22.3939 171.898 21.5512C171.898 20.7085 172.559 20.0232 173.377 20.0232C174.196 20.0232 174.856 20.7052 174.856 21.5512Z" fill="#ECE4C3"/>
<path d="M7.38827 82.2507C9.0201 82.2507 10.3429 80.884 10.3429 79.198C10.3429 77.512 9.0201 76.1453 7.38827 76.1453C5.75645 76.1453 4.43359 77.512 4.43359 79.198C4.43359 80.884 5.75645 82.2507 7.38827 82.2507Z" fill="#ECE4C3"/>
<path d="M2.95468 466.282C4.5865 466.282 5.90936 464.915 5.90936 463.229C5.90936 461.543 4.5865 460.177 2.95468 460.177C1.32285 460.177 0 461.543 0 463.229C0 464.915 1.32285 466.282 2.95468 466.282Z" fill="#ECE4C3"/>
<path d="M891.412 25.1795C893.044 25.1795 894.366 23.8127 894.366 22.1267C894.366 20.4407 893.044 19.074 891.412 19.074C889.78 19.074 888.457 20.4407 888.457 22.1267C888.457 23.8127 889.78 25.1795 891.412 25.1795Z" fill="#ECE4C3"/>
<path d="M1333.65 287.753C1334.81 286.561 1334.81 284.628 1333.65 283.436C1332.5 282.244 1330.63 282.244 1329.48 283.436C1328.32 284.628 1328.32 286.561 1329.48 287.753C1330.63 288.945 1332.5 288.945 1333.65 287.753Z" fill="#ECE4C3"/>
<path d="M1086.19 218.808C1087.35 217.616 1087.35 215.683 1086.19 214.491C1085.04 213.298 1083.17 213.298 1082.01 214.491C1080.86 215.683 1080.86 217.616 1082.01 218.808C1083.17 220 1085.04 220 1086.19 218.808Z" fill="#ECE4C3"/>
<path d="M330.715 152.689C330.715 153.28 330.252 153.755 329.684 153.755C329.116 153.755 328.652 153.276 328.652 152.689C328.652 152.103 329.116 151.624 329.684 151.624C330.252 151.624 330.715 152.103 330.715 152.689Z" fill="#ECE4C3"/>
<path d="M88.4184 333.497C88.4184 334.087 87.955 334.563 87.3869 334.563C86.8188 334.563 86.3555 334.084 86.3555 333.497C86.3555 332.91 86.8188 332.431 87.3869 332.431C87.955 332.431 88.4184 332.91 88.4184 333.497Z" fill="#ECE4C3"/>
<path d="M381.338 1.06934C381.338 1.65955 380.875 2.13501 380.307 2.13501C379.739 2.13501 379.275 1.65627 379.275 1.06934C379.275 0.482398 379.739 0.00366974 380.307 0.00366974C380.875 0.00366974 381.338 0.482398 381.338 1.06934Z" fill="#ECE4C3"/>
</svg>
