<svg width="402" height="144" viewBox="0 0 402 144" fill="none" xmlns="http://www.w3.org/2000/svg">
<path d="M401.36 88.5528V80.2119H356.065V107.61H385.054V118.335H321.639V105.825H348.818V80.2119H309.563H307.749H264.267V107.61H293.257V118.335H229.845V105.825H257.021V80.2119H217.766H215.952H172.47V107.61H201.459V118.335H138.048V105.825H165.224V80.2119H125.968H124.155H80.6727V107.61H109.662V118.335H46.2507V105.825H73.4264V80.2119H34.1709H32.3612H-11.1248V107.61H17.8646V118.335H-45.5466V105.825H-18.371V80.2119H-57.6265H-59.436H-102.922V107.61H-73.9327V118.335H-137.344V105.825H-110.168V80.2119H-149.424H-151.233H-194.719V107.61H-165.73V118.335H-229.141V105.825H-201.966V80.2119H-241.221H-243.031H-286.513V107.61H-257.527V118.335H-320.939V105.825H-293.763V80.2119H-333.014H-334.828H-378.31V107.61H-349.321V118.335H-412.736V105.825H-385.556V80.2119H-424.812H-426.625H-470.107V107.61H-441.118V118.335H-504.533V105.825H-477.354V80.2119H-516.609H-518.423H-561.905V107.61H-532.915V118.335H-596.327V105.825H-569.151V80.2119H-608.406H-610.22H-653.702V107.61H-624.713V118.335H-688.124V105.825H-660.948V80.2119H-700.204H-702.017H-745.499V107.61H-716.51V118.335H-779.921V105.825H-752.746V80.2119H-792.001H-793.811H-837.297V107.61H-808.307V118.335H-871.719V105.825H-844.543V80.2119H-883.798H-885.608H-929.094V107.61H-900.105V118.335H-963.516V105.825H-936.34V80.2119H-975.596H-977.405H-1020.89V107.61H-991.902V118.335H-1055.31V105.825H-1028.14V80.2119H-1067.39H-1069.2H-1112.68V107.61H-1083.7V118.335H-1147.11V105.825H-1119.93V80.2119H-1161V88.5528H-1128.39V97.4845H-1155.56V126.671H-1075.24V99.2733H-1104.23V88.5528H-1069.2H-1067.39H-1036.59V97.4845H-1063.77V126.671H-983.445V99.2733H-1012.43V88.5528H-977.405H-975.596H-944.793V97.4845H-971.973V126.671H-891.648V99.2733H-920.637V88.5528H-885.608H-883.798H-852.996V97.4845H-880.175V126.671H-799.851V99.2733H-828.84V88.5528H-793.811H-792.001H-761.202V97.4845H-788.378V126.671H-708.053V99.2733H-737.043V88.5528H-702.017H-700.204H-669.405V97.4845H-696.581V126.671H-616.26V99.2733H-645.245V88.5528H-610.22H-608.406H-577.608V97.4845H-604.783V126.671H-524.463V99.2733H-553.448V88.5528H-518.423H-516.609H-485.81V97.4845H-512.986V126.671H-432.665V99.2733H-461.655V88.5528H-426.625H-424.812H-394.013V97.4845H-421.189V126.671H-340.868V99.2733H-369.857V88.5528H-334.828H-333.014H-302.216V97.4845H-329.391V126.671H-249.071V99.2733H-278.06V88.5528H-243.031H-241.221H-210.418V97.4845H-237.598V126.671H-157.273V99.2733H-186.263V88.5528H-151.233H-149.424H-118.621V97.4845H-145.801V126.671H-65.476V99.2733H-94.4652V88.5528H-59.436H-57.6265H-26.8278V97.4845H-54.0034V126.671H26.3213V99.2733H-2.66797V88.5528H32.3612H34.1709H64.9697V97.4845H37.7941V126.671H118.119V99.2733H89.1294V88.5528H124.155H125.968H156.767V97.4845H129.591V126.671H209.912V99.2733H180.927V88.5528H215.952H217.766H248.564V97.4845H221.389V126.671H301.709V99.2733H272.724V88.5528H307.749H309.563H340.362V97.4845H313.186V126.671H393.507V99.2733H364.517V88.5528H401.36Z" fill="url(#paint0_linear_129_15711)"/>
<path d="M401.36 61.1504H-1161V74.2546H401.36V61.1504Z" fill="url(#paint1_linear_129_15711)"/>
<path d="M401.36 130.844H-1161V143.948H401.36V130.844Z" fill="url(#paint2_linear_129_15711)"/>
<g clip-path="url(#clip0_129_15711)">
<path d="M401.287 27.6564C401.384 32.7895 398.381 35.5174 393.331 36.5885C396.042 40.4174 396.405 44.2435 393.185 47.69C389.622 51.5053 385.468 51.2884 381.292 48.4791C379.653 53.7804 377.132 56.2236 373.082 56.2697C367.869 56.3266 365.139 53.3709 364.106 48.4412C360.24 51.0579 356.347 51.5135 352.836 48.3463C349.006 44.8916 349.108 40.8187 351.997 36.5885C347.436 35.5879 344.321 33.2668 344.134 28.5404C343.931 23.3801 347.057 20.7335 351.866 19.695C349.405 13.9598 349.424 11.2807 352.182 8.51482C355.822 4.86222 359.872 4.98695 364.117 7.77996C365.09 3.13761 367.614 0.119541 372.43 0.00565338C377.547 -0.113659 380.252 2.93966 381.264 7.84775C384.943 5.24998 388.69 4.78358 392.171 7.62811C396.418 11.0963 396.27 15.3211 393.427 19.6597C398.744 21.3138 401.213 23.7353 401.285 27.6618L401.287 27.6564ZM388.121 48.6906C390.887 48.2351 393.191 45.9302 393.606 43.205C394.054 40.2574 392.495 37.3288 389.545 36.0245C386.122 34.5114 382.628 33.1502 379.147 31.7672C378.751 31.6099 378.234 31.7455 377.775 31.7455L377.668 32.3068C378.135 32.54 378.592 32.8004 379.076 33.001C382.254 34.308 385.457 35.5635 388.618 36.9085C391.865 38.286 393.301 41.5373 391.975 44.3628C391.021 46.3939 389.386 47.5219 387.131 47.5599C384.687 47.6033 382.842 46.4291 381.847 44.2598C380.343 40.9814 379.004 37.6298 377.588 34.3107C377.415 33.904 377.206 33.5081 377.016 33.1095C376.849 33.1041 376.678 33.0959 376.51 33.0905C376.455 33.5461 376.219 34.0694 376.37 34.4436C377.789 37.9254 379.188 41.418 380.769 44.8292C382.108 47.7144 385.124 49.1896 388.121 48.6961V48.6906ZM372.439 38.8582C371.353 41.5183 370.168 44.1459 369.214 46.8521C368.636 48.49 369.354 50.1875 370.668 51.0037C372.01 51.8389 373.395 51.8199 374.729 50.9874C375.988 50.201 376.725 48.5144 376.183 46.9742C375.216 44.2191 374.031 41.54 372.936 38.8311C372.771 38.8419 372.606 38.8501 372.441 38.8609L372.439 38.8582ZM372.925 17.4334C374.02 14.7272 375.224 12.0562 376.172 9.30119C376.741 7.6498 375.963 5.96315 374.622 5.20118C373.261 4.42836 371.864 4.45005 370.555 5.32592C369.266 6.18822 368.645 7.88571 369.241 9.52897C370.206 12.1783 371.364 14.7597 372.439 17.3711C372.601 17.3928 372.763 17.4145 372.925 17.4361V17.4334ZM380.038 35.7262C381.198 38.4135 382.265 41.1414 383.549 43.769C384.349 45.4068 386.1 46.1444 387.637 45.8542C389.182 45.5614 390.422 44.3113 390.669 42.7955C390.942 41.1414 390.125 39.4873 388.401 38.709C385.765 37.5213 383.065 36.4746 380.39 35.3683L380.038 35.7235V35.7262ZM368.73 53.3547C371.07 54.9979 374.218 55.0196 376.552 53.4062C378.935 51.7602 380.085 48.6852 379.037 45.838C377.704 42.2179 376.123 38.6846 374.6 35.1324C374.446 34.7744 373.956 34.5548 373.621 34.2701C373.467 34.3921 373.31 34.5168 373.156 34.6389C373.508 35.5066 373.849 36.3797 374.209 37.242C375.367 40.0079 376.615 42.744 377.679 45.5451C379.232 49.637 376.703 53.4442 372.579 53.3709C368.656 53.3004 366.192 49.6262 367.633 45.7729C368.843 42.5379 370.272 39.3842 371.603 36.1926C371.812 35.691 371.996 35.1758 372.191 34.6687C372.073 34.5439 371.958 34.4192 371.839 34.2972C371.487 34.5385 370.957 34.7066 370.814 35.0348C369.271 38.6331 367.674 42.2152 366.335 45.8868C365.315 48.6825 366.451 51.7494 368.735 53.3547H368.73ZM351.778 43.2239C352.248 46.0576 354.579 48.3273 357.425 48.7205C360.427 49.1381 363.344 47.5978 364.683 44.6665C366.203 41.3366 367.572 37.9417 368.961 34.5575C369.126 34.1535 368.983 33.6301 368.983 33.161C368.777 33.1393 368.568 33.1149 368.361 33.0932C367.913 34.0911 367.449 35.0836 367.017 36.0896C365.86 38.8012 364.801 41.5563 363.542 44.2218C362.503 46.421 360.661 47.6331 358.126 47.5653C355.915 47.5056 354.013 46.0739 353.224 43.9751C352.237 41.3448 353.562 38.362 356.454 37.0821C359.643 35.672 362.899 34.4084 366.123 33.0742C366.632 32.8627 367.127 32.6187 367.63 32.3909C367.63 32.2119 367.63 32.0357 367.63 31.8567C367.155 31.8187 366.61 31.6127 366.214 31.7699C362.731 33.1475 359.239 34.5141 355.819 36.0381C352.863 37.3586 351.296 40.3252 351.778 43.2267V43.2239ZM365.387 35.6666C365.255 35.5527 365.12 35.4415 364.988 35.3276C362.219 36.4963 359.407 37.5756 356.696 38.869C355.027 39.6663 354.381 41.3068 354.708 42.9392C354.997 44.3737 356.212 45.5533 357.711 45.8542C359.206 46.1552 360.971 45.4665 361.725 43.9344C363.052 41.2309 364.174 38.4297 365.384 35.6666H365.387ZM347.046 24.2478C345.344 26.5744 345.366 29.7498 347.101 32.0791C348.794 34.3487 351.948 35.3846 354.849 34.3324C358.467 33.02 362.011 31.5042 365.56 30.0209C365.923 29.8691 366.123 29.3376 366.401 28.9824C366.266 28.8549 366.132 28.7275 365.994 28.6027C363.058 29.7904 360.122 30.9808 357.183 32.1685C356.374 32.4967 355.572 32.8465 354.747 33.1285C352.146 34.0098 349.526 33.3047 348.074 31.3632C346.65 29.4596 346.639 26.9025 348.044 24.961C349.468 22.9977 352.083 22.1842 354.684 23.1279C357.675 24.2153 360.595 25.4897 363.545 26.6802C364.345 27.0028 365.15 27.3201 365.953 27.6401C366.091 27.5398 366.225 27.4394 366.363 27.3391C366.121 26.9703 365.961 26.409 365.62 26.2653C362.022 24.7603 358.434 23.2174 354.763 21.8995C351.871 20.8637 348.723 21.951 347.043 24.2478H347.046ZM361.859 28.3397C361.843 28.196 361.826 28.0495 361.81 27.9058C359.151 26.8429 356.517 25.704 353.82 24.744C352.154 24.1502 350.447 24.7793 349.531 26.0212C348.616 27.2659 348.597 28.8685 349.479 30.1565C350.359 31.4418 352.03 32.1143 353.721 31.5286C356.471 30.5741 359.148 29.4135 361.857 28.3397H361.859ZM357.37 7.54404C354.508 7.96977 352.234 10.2259 351.778 13.0921C351.321 15.9556 352.814 18.8489 355.737 20.1722C359.192 21.7368 362.742 23.1035 366.269 24.5054C366.646 24.6546 367.157 24.4702 367.605 24.4403C367.605 24.2261 367.605 24.0146 367.605 23.8004C364.29 22.4446 360.952 21.143 357.672 19.7085C356.473 19.1852 355.233 18.5235 354.334 17.6151C352.289 15.5488 352.495 12.1701 354.579 10.2096C356.737 8.18128 360.141 8.16501 362.233 10.2584C362.866 10.8929 363.396 11.6929 363.759 12.5118C365.142 15.6248 366.434 18.773 367.768 21.9077C367.944 22.3198 368.155 22.713 368.353 23.1171C368.521 23.1279 368.691 23.1387 368.859 23.1469C368.914 22.6913 369.145 22.168 368.994 21.7938C367.594 18.3581 366.206 14.9143 364.655 11.5437C363.308 8.61515 360.364 7.09933 357.372 7.54404H357.37ZM365.406 20.5681C364.103 17.6856 362.934 14.7326 361.441 11.9478C360.713 10.5865 359.157 10.0849 357.535 10.4726C356.064 10.8251 355.077 11.7688 354.747 13.225C354.389 14.8031 354.829 16.3434 356.262 17.0701C359.102 18.5127 362.09 19.6787 365.016 20.9586C365.148 20.8284 365.277 20.6956 365.409 20.5654L365.406 20.5681ZM376.535 2.83391C374.209 1.24488 370.995 1.28284 368.711 2.9261C366.429 4.56936 365.318 7.61183 366.338 10.4075C367.663 14.033 369.238 17.569 370.756 21.124C370.913 21.4901 371.408 21.7151 371.743 22.0053C371.9 21.886 372.059 21.7667 372.216 21.6501C371.969 21.0182 371.735 20.3783 371.474 19.7519C370.217 16.7501 368.878 13.7781 367.71 10.7438C366.209 6.84715 368.449 3.09694 372.304 2.87729C376.497 2.63867 379.257 6.49192 377.715 10.6055C376.535 13.7456 375.141 16.8043 373.846 19.901C373.615 20.4515 373.395 21.0101 373.173 21.5633C373.286 21.6907 373.401 21.8155 373.514 21.9429C373.868 21.7124 374.413 21.5633 374.55 21.2433C376.112 17.5988 377.753 13.9761 379.078 10.2476C380.085 7.42202 378.878 4.4392 376.535 2.83662V2.83391ZM393.592 12.9511C393.122 10.1933 390.826 7.96978 388.022 7.55489C385.061 7.11832 382.103 8.58803 380.799 11.4027C379.219 14.8167 377.8 18.3039 376.37 21.7829C376.216 22.1598 376.447 22.694 376.5 23.155C376.689 23.1577 376.879 23.1604 377.069 23.1632C378.215 20.4651 379.359 17.7643 380.508 15.0662C380.967 13.9896 381.377 12.8887 381.91 11.8501C383.087 9.56694 385.52 8.34669 387.915 8.75886C390.224 9.15747 392.028 10.958 392.388 13.2222C392.767 15.6112 391.546 18.0083 389.149 19.074C385.869 20.5356 382.512 21.829 379.191 23.2038C378.693 23.4099 378.215 23.6621 377.726 23.8926C377.742 24.0716 377.756 24.2478 377.772 24.4268C378.215 24.4647 378.721 24.66 379.087 24.5136C382.661 23.0845 386.257 21.6907 389.757 20.0963C392.63 18.7893 394.081 15.8444 393.587 12.9457L393.592 12.9511ZM380.049 20.4515C380.192 20.6115 380.338 20.7715 380.481 20.9315C383.403 19.6407 386.397 18.4828 389.218 17.0023C390.603 16.2729 391.054 14.7082 390.609 13.1219C390.188 11.6278 389.182 10.6868 387.59 10.4455C385.875 10.1852 384.426 10.798 383.686 12.2732C382.353 14.9414 381.25 17.7182 380.052 20.4515H380.049ZM390.263 21.9999C386.801 23.2933 383.392 24.7224 379.986 26.1541C379.562 26.3331 379.298 26.8835 378.963 27.2632C379.089 27.3988 379.216 27.5316 379.342 27.6672C382.85 26.249 386.32 24.7224 389.889 23.4669C391.272 22.9815 392.949 22.7537 394.367 23.033C397.43 23.6377 399.038 26.8157 398.106 29.7959C397.205 32.6783 393.958 34.2972 390.87 33.1935C387.681 32.0547 384.577 30.688 381.435 29.4244C380.733 29.1423 380.03 28.8685 379.328 28.5892C379.199 28.7247 379.073 28.8603 378.944 28.9959C379.249 29.3593 379.48 29.8935 379.873 30.0562C383.376 31.5232 386.87 33.0173 390.439 34.3162C393.468 35.4198 396.713 34.3324 398.409 31.9136C400.028 29.606 399.981 26.4307 398.293 24.2153C396.468 21.8182 393.301 20.8691 390.265 22.0053L390.263 21.9999ZM383.551 28.3614C386.306 29.4433 389.028 30.6202 391.827 31.5693C393.427 32.1116 395.112 31.3903 395.91 30.1484C396.754 28.8332 396.801 27.4638 395.929 26.1405C395.06 24.8227 393.378 24.1393 391.711 24.7142C388.962 25.6633 386.287 26.8212 383.579 27.8896C383.571 28.0468 383.56 28.2041 383.551 28.3614Z" fill="url(#paint3_linear_129_15711)"/>
<path d="M309.174 27.6564C309.27 32.7895 306.268 35.5174 301.218 36.5885C303.928 40.4174 304.291 44.2435 301.072 47.69C297.509 51.5053 293.354 51.2884 289.178 48.4791C287.54 53.7804 285.018 56.2236 280.969 56.2697C275.756 56.3266 273.026 53.3709 271.992 48.4412C268.127 51.0579 264.234 51.5135 260.723 48.3463C256.893 44.8916 256.995 40.8187 259.884 36.5885C255.323 35.5879 252.208 33.2668 252.021 28.5404C251.818 23.3801 254.944 20.7335 259.752 19.695C257.292 13.9598 257.311 11.2807 260.068 8.51482C263.708 4.86222 267.758 4.98695 272.003 7.77996C272.976 3.13761 275.5 0.119541 280.317 0.00565338C285.434 -0.113659 288.139 2.93966 289.151 7.84775C292.829 5.24998 296.577 4.78358 300.057 7.62811C304.305 11.0963 304.157 15.3211 301.314 19.6597C306.631 21.3138 309.1 23.7353 309.171 27.6618L309.174 27.6564ZM296.008 48.6906C298.773 48.2351 301.077 45.9302 301.492 43.205C301.941 40.2574 300.382 37.3288 297.432 36.0245C294.009 34.5114 290.514 33.1502 287.034 31.7672C286.638 31.6099 286.121 31.7455 285.662 31.7455C285.626 31.9326 285.59 32.1197 285.555 32.3068C286.022 32.54 286.478 32.8004 286.962 33.001C290.14 34.308 293.343 35.5635 296.505 36.9085C299.752 38.286 301.187 41.5373 299.862 44.3628C298.908 46.3939 297.272 47.5219 295.018 47.5599C292.574 47.6033 290.729 46.4291 289.734 44.2598C288.23 40.9814 286.891 37.6298 285.475 34.3107C285.302 33.904 285.093 33.5081 284.903 33.1095C284.735 33.1041 284.565 33.0959 284.397 33.0905C284.342 33.5461 284.106 34.0694 284.257 34.4436C285.676 37.9254 287.075 41.418 288.656 44.8292C289.995 47.7144 293.011 49.1896 296.008 48.6961V48.6906ZM280.325 38.8582C279.239 41.5183 278.054 44.1459 277.1 46.8521C276.523 48.49 277.241 50.1875 278.555 51.0037C279.897 51.8389 281.282 51.8199 282.616 50.9874C283.875 50.201 284.612 48.5144 284.07 46.9742C283.102 44.2191 281.917 41.54 280.823 38.8311C280.658 38.8419 280.493 38.8501 280.328 38.8609L280.325 38.8582ZM280.812 17.4334C281.906 14.7272 283.11 12.0562 284.059 9.30119C284.628 7.6498 283.85 5.96315 282.508 5.20118C281.147 4.42836 279.751 4.45005 278.442 5.32592C277.153 6.18822 276.531 7.88571 277.128 9.52897C278.093 12.1783 279.25 14.7597 280.325 17.3711C280.488 17.3928 280.65 17.4145 280.812 17.4361V17.4334ZM287.924 35.7262C289.085 38.4135 290.151 41.1414 291.435 43.769C292.235 45.4068 293.987 46.1444 295.524 45.8542C297.069 45.5614 298.309 44.3113 298.556 42.7955C298.828 41.1414 298.012 39.4873 296.288 38.709C293.651 37.5213 290.952 36.4746 288.276 35.3683L287.924 35.7235V35.7262ZM276.617 53.3547C278.956 54.9979 282.104 55.0196 284.438 53.4062C286.822 51.7602 287.971 48.6852 286.924 45.838C285.59 42.2179 284.009 38.6846 282.486 35.1324C282.332 34.7744 281.843 34.5548 281.508 34.2701C281.354 34.3921 281.197 34.5168 281.043 34.6389C281.395 35.5066 281.736 36.3797 282.096 37.242C283.253 40.0079 284.502 42.744 285.566 45.5451C287.119 49.637 284.59 53.4442 280.466 53.3709C276.542 53.3004 274.079 49.6262 275.52 45.7729C276.729 42.5379 278.159 39.3842 279.49 36.1926C279.699 35.691 279.883 35.1758 280.078 34.6687C279.96 34.5439 279.844 34.4192 279.726 34.2972C279.374 34.5385 278.843 34.7066 278.7 35.0348C277.158 38.6331 275.561 42.2152 274.222 45.8868C273.202 48.6825 274.337 51.7494 276.622 53.3547H276.617ZM259.664 43.2239C260.134 46.0576 262.466 48.3273 265.311 48.7205C268.314 49.1381 271.231 47.5978 272.57 44.6665C274.09 41.3366 275.459 37.9417 276.847 34.5575C277.012 34.1535 276.869 33.6301 276.869 33.161C276.663 33.1393 276.454 33.1149 276.248 33.0932C275.8 34.0911 275.335 35.0836 274.904 36.0896C273.746 38.8012 272.688 41.5563 271.429 44.2218C270.389 46.421 268.547 47.6331 266.012 47.5653C263.802 47.5056 261.899 46.0739 261.11 43.9751C260.123 41.3448 261.448 38.362 264.341 37.0821C267.53 35.672 270.785 34.4084 274.01 33.0742C274.519 32.8627 275.014 32.6187 275.517 32.3909C275.517 32.2119 275.517 32.0357 275.517 31.8567C275.041 31.8187 274.497 31.6127 274.101 31.7699C270.617 33.1475 267.126 34.5141 263.706 36.0381C260.75 37.3586 259.183 40.3252 259.664 43.2267V43.2239ZM273.273 35.6666C273.141 35.5527 273.007 35.4415 272.875 35.3276C270.106 36.4963 267.294 37.5756 264.583 38.869C262.914 39.6663 262.268 41.3068 262.595 42.9392C262.884 44.3737 264.099 45.5533 265.597 45.8542C267.093 46.1552 268.858 45.4665 269.611 43.9344C270.939 41.2309 272.061 38.4297 273.271 35.6666H273.273ZM254.933 24.2478C253.231 26.5744 253.253 29.7498 254.988 32.0791C256.681 34.3487 259.835 35.3846 262.735 34.3324C266.353 33.02 269.897 31.5042 273.447 30.0209C273.809 29.8691 274.01 29.3376 274.288 28.9824C274.153 28.8549 274.018 28.7275 273.881 28.6027C270.945 29.7904 268.008 30.9808 265.069 32.1685C264.261 32.4967 263.458 32.8465 262.633 33.1285C260.033 34.0098 257.412 33.3047 255.961 31.3632C254.537 29.4596 254.526 26.9025 255.931 24.961C257.355 22.9977 259.969 22.1842 262.57 23.1279C265.561 24.2153 268.481 25.4897 271.431 26.6802C272.231 27.0028 273.037 27.3201 273.84 27.6401C273.977 27.5398 274.112 27.4394 274.249 27.3391C274.007 26.9703 273.848 26.409 273.507 26.2653C269.908 24.7603 266.32 23.2174 262.65 21.8995C259.758 20.8637 256.61 21.951 254.93 24.2478H254.933ZM269.746 28.3397C269.729 28.196 269.713 28.0495 269.696 27.9058C267.038 26.8429 264.404 25.704 261.707 24.744C260.041 24.1502 258.334 24.7793 257.418 26.0212C256.502 27.2659 256.483 28.8685 257.366 30.1565C258.246 31.4418 259.917 32.1143 261.608 31.5286C264.357 30.5741 267.035 29.4135 269.743 28.3397H269.746ZM265.256 7.54404C262.394 7.96977 260.121 10.2259 259.664 13.0921C259.208 15.9556 260.701 18.8489 263.623 20.1722C267.079 21.7368 270.629 23.1035 274.156 24.5054C274.533 24.6546 275.044 24.4702 275.492 24.4403C275.492 24.2261 275.492 24.0146 275.492 23.8004C272.176 22.4446 268.839 21.143 265.559 19.7085C264.36 19.1852 263.12 18.5235 262.221 17.6151C260.176 15.5488 260.382 12.1701 262.466 10.2096C264.624 8.18128 268.028 8.16501 270.12 10.2584C270.752 10.8929 271.283 11.6929 271.646 12.5118C273.029 15.6248 274.321 18.773 275.654 21.9077C275.83 22.3198 276.042 22.713 276.24 23.1171C276.408 23.1279 276.578 23.1387 276.746 23.1469C276.801 22.6913 277.032 22.168 276.88 21.7938C275.481 18.3581 274.093 14.9143 272.542 11.5437C271.195 8.61515 268.25 7.09933 265.259 7.54404H265.256ZM273.293 20.5681C271.989 17.6856 270.821 14.7326 269.328 11.9478C268.6 10.5865 267.043 10.0849 265.421 10.4726C263.95 10.8251 262.963 11.7688 262.633 13.225C262.276 14.8031 262.716 16.3434 264.148 17.0701C266.988 18.5127 269.977 19.6787 272.902 20.9586C273.034 20.8284 273.163 20.6956 273.295 20.5654L273.293 20.5681ZM284.422 2.83391C282.096 1.24488 278.882 1.28284 276.597 2.9261C274.315 4.56936 273.205 7.61183 274.225 10.4075C275.55 14.033 277.125 17.569 278.643 21.124C278.799 21.4901 279.294 21.7151 279.63 22.0053C279.787 21.886 279.946 21.7667 280.103 21.6501C279.855 21.0182 279.622 20.3783 279.36 19.7519C278.104 16.7501 276.765 13.7781 275.597 10.7438C274.095 6.84715 276.336 3.09694 280.191 2.87729C284.383 2.63867 287.144 6.49192 285.601 10.6055C284.422 13.7456 283.028 16.8043 281.733 19.901C281.502 20.4515 281.282 21.0101 281.059 21.5633C281.172 21.6907 281.288 21.8155 281.4 21.9429C281.755 21.7124 282.299 21.5633 282.437 21.2433C283.998 17.5988 285.64 13.9761 286.965 10.2476C287.971 7.42202 286.764 4.4392 284.422 2.83662V2.83391ZM301.479 12.9511C301.009 10.1933 298.713 7.96978 295.909 7.55489C292.948 7.11832 289.989 8.58803 288.686 11.4027C287.105 14.8167 285.687 18.3039 284.257 21.7829C284.103 22.1598 284.334 22.694 284.386 23.155C284.576 23.1577 284.766 23.1604 284.955 23.1632C286.102 20.4651 287.245 17.7643 288.395 15.0662C288.854 13.9896 289.263 12.8887 289.797 11.8501C290.974 9.56694 293.407 8.34669 295.801 8.75886C298.111 9.15747 299.914 10.958 300.275 13.2222C300.654 15.6112 299.433 18.0083 297.036 19.074C293.756 20.5356 290.399 21.829 287.078 23.2038C286.58 23.4099 286.102 23.6621 285.612 23.8926C285.629 24.0716 285.643 24.2478 285.659 24.4268C286.102 24.4647 286.608 24.66 286.973 24.5136C290.547 23.0845 294.144 21.6907 297.643 20.0963C300.516 18.7893 301.968 15.8444 301.473 12.9457L301.479 12.9511ZM287.936 20.4515C288.078 20.6115 288.224 20.7715 288.367 20.9315C291.29 19.6407 294.284 18.4828 297.105 17.0023C298.49 16.2729 298.941 14.7082 298.496 13.1219C298.075 11.6278 297.069 10.6868 295.477 10.4455C293.761 10.1852 292.312 10.798 291.573 12.2732C290.239 14.9414 289.137 17.7182 287.938 20.4515H287.936ZM298.149 21.9999C294.688 23.2933 291.279 24.7224 287.872 26.1541C287.449 26.3331 287.185 26.8835 286.85 27.2632C286.976 27.3988 287.102 27.5316 287.229 27.6672C290.737 26.249 294.207 24.7224 297.775 23.4669C299.158 22.9815 300.835 22.7537 302.254 23.033C305.317 23.6377 306.925 26.8157 305.993 29.7959C305.091 32.6783 301.844 34.2972 298.757 33.1935C295.568 32.0547 292.464 30.688 289.321 29.4244C288.62 29.1423 287.916 28.8685 287.215 28.5892C287.086 28.7247 286.959 28.8603 286.83 28.9959C287.135 29.3593 287.366 29.8935 287.76 30.0562C291.262 31.5232 294.757 33.0173 298.325 34.3162C301.355 35.4198 304.599 34.3324 306.296 31.9136C307.915 29.606 307.868 26.4307 306.18 24.2153C304.355 21.8182 301.187 20.8691 298.152 22.0053L298.149 21.9999ZM291.438 28.3614C294.193 29.4433 296.915 30.6202 299.714 31.5693C301.314 32.1116 302.999 31.3903 303.796 30.1484C304.64 28.8332 304.687 27.4638 303.816 26.1405C302.947 24.8227 301.264 24.1393 299.598 24.7142C296.849 25.6633 294.174 26.8212 291.466 27.8896C291.457 28.0468 291.446 28.2041 291.438 28.3614Z" fill="url(#paint4_linear_129_15711)"/>
<path d="M217.065 27.6564C217.161 32.7895 214.159 35.5174 209.108 36.5885C211.819 40.4174 212.182 44.2435 208.962 47.69C205.399 51.5053 201.245 51.2884 197.069 48.4791C195.43 53.7804 192.909 56.2236 188.859 56.2697C183.647 56.3266 180.917 53.3709 179.883 48.4412C176.017 51.0579 172.124 51.5135 168.613 48.3463C164.783 44.8916 164.885 40.8187 167.775 36.5885C163.214 35.5879 160.099 33.2668 159.912 28.5404C159.708 23.3801 162.834 20.7335 167.643 19.695C165.182 13.9598 165.201 11.2807 167.959 8.51482C171.599 4.86222 175.649 4.98695 179.894 7.77996C180.867 3.13761 183.391 0.119541 188.208 0.00565338C193.324 -0.113659 196.03 2.93966 197.041 7.84775C200.72 5.24998 204.467 4.78358 207.948 7.62811C212.196 11.0963 212.047 15.3211 209.204 19.6597C214.522 21.3138 216.99 23.7353 217.062 27.6618L217.065 27.6564ZM203.898 48.6906C206.664 48.2351 208.968 45.9302 209.383 43.205C209.831 40.2574 208.272 37.3288 205.322 36.0245C201.899 34.5114 198.405 33.1502 194.924 31.7672C194.528 31.6099 194.012 31.7455 193.552 31.7455L193.445 32.3068C193.913 32.54 194.369 32.8004 194.853 33.001C198.031 34.308 201.234 35.5635 204.396 36.9085C207.643 38.286 209.078 41.5373 207.753 44.3628C206.799 46.3939 205.163 47.5219 202.908 47.5599C200.464 47.6033 198.619 46.4291 197.624 44.2598C196.12 40.9814 194.781 37.6298 193.365 34.3107C193.192 33.904 192.983 33.5081 192.794 33.1095C192.626 33.1041 192.455 33.0959 192.288 33.0905C192.233 33.5461 191.996 34.0694 192.148 34.4436C193.566 37.9254 194.966 41.418 196.546 44.8292C197.885 47.7144 200.901 49.1896 203.898 48.6961V48.6906ZM188.216 38.8582C187.13 41.5183 185.945 44.1459 184.991 46.8521C184.414 48.49 185.131 50.1875 186.445 51.0037C187.787 51.8389 189.173 51.8199 190.506 50.9874C191.765 50.201 192.502 48.5144 191.961 46.9742C190.993 44.2191 189.808 41.54 188.714 38.8311C188.549 38.8419 188.384 38.8501 188.219 38.8609L188.216 38.8582ZM188.703 17.4334C189.797 14.7272 191.001 12.0562 191.95 9.30119C192.519 7.6498 191.741 5.96315 190.399 5.20118C189.038 4.42836 187.641 4.45005 186.333 5.32592C185.043 6.18822 184.422 7.88571 185.019 9.52897C185.984 12.1783 187.141 14.7597 188.216 17.3711C188.378 17.3928 188.54 17.4145 188.703 17.4361V17.4334ZM195.815 35.7262C196.975 38.4135 198.042 41.1414 199.326 43.769C200.126 45.4068 201.877 46.1444 203.414 45.8542C204.959 45.5614 206.199 44.3113 206.447 42.7955C206.719 41.1414 205.902 39.4873 204.179 38.709C201.542 37.5213 198.842 36.4746 196.167 35.3683L195.815 35.7235V35.7262ZM184.507 53.3547C186.847 54.9979 189.995 55.0196 192.329 53.4062C194.713 51.7602 195.862 48.6852 194.814 45.838C193.481 42.2179 191.9 38.6846 190.377 35.1324C190.223 34.7744 189.734 34.5548 189.398 34.2701C189.244 34.3921 189.088 34.5168 188.934 34.6389C189.285 35.5066 189.626 36.3797 189.987 37.242C191.144 40.0079 192.392 42.744 193.456 45.5451C195.01 49.637 192.48 53.4442 188.356 53.3709C184.433 53.3004 181.97 49.6262 183.41 45.7729C184.62 42.5379 186.05 39.3842 187.38 36.1926C187.589 35.691 187.773 35.1758 187.969 34.6687C187.85 34.5439 187.735 34.4192 187.617 34.2972C187.265 34.5385 186.734 34.7066 186.591 35.0348C185.049 38.6331 183.451 42.2152 182.113 45.8868C181.093 48.6825 182.228 51.7494 184.513 53.3547H184.507ZM167.555 43.2239C168.025 46.0576 170.356 48.3273 173.202 48.7205C176.204 49.1381 179.121 47.5978 180.46 44.6665C181.981 41.3366 183.35 37.9417 184.738 34.5575C184.903 34.1535 184.76 33.6301 184.76 33.161C184.554 33.1393 184.345 33.1149 184.139 33.0932C183.691 34.0911 183.226 35.0836 182.794 36.0896C181.637 38.8012 180.578 41.5563 179.319 44.2218C178.28 46.421 176.438 47.6331 173.903 47.5653C171.693 47.5056 169.79 46.0739 169.001 43.9751C168.014 41.3448 169.339 38.362 172.231 37.0821C175.421 35.672 178.676 34.4084 181.901 33.0742C182.409 32.8627 182.904 32.6187 183.407 32.3909C183.407 32.2119 183.407 32.0357 183.407 31.8567C182.932 31.8187 182.387 31.6127 181.992 31.7699C178.508 33.1475 175.017 34.5141 171.596 36.0381C168.641 37.3586 167.074 40.3252 167.555 43.2267V43.2239ZM181.164 35.6666C181.032 35.5527 180.897 35.4415 180.765 35.3276C177.997 36.4963 175.184 37.5756 172.473 38.869C170.805 39.6663 170.158 41.3068 170.486 42.9392C170.774 44.3737 171.989 45.5533 173.488 45.8542C174.983 46.1552 176.749 45.4665 177.502 43.9344C178.83 41.2309 179.952 38.4297 181.161 35.6666H181.164ZM162.823 24.2478C161.121 26.5744 161.143 29.7498 162.878 32.0791C164.572 34.3487 167.725 35.3846 170.626 34.3324C174.244 33.02 177.788 31.5042 181.337 30.0209C181.7 29.8691 181.901 29.3376 182.179 28.9824C182.044 28.8549 181.909 28.7275 181.772 28.6027C178.835 29.7904 175.899 30.9808 172.96 32.1685C172.152 32.4967 171.349 32.8465 170.524 33.1285C167.923 34.0098 165.303 33.3047 163.851 31.3632C162.427 29.4596 162.416 26.9025 163.821 24.961C165.245 22.9977 167.86 22.1842 170.461 23.1279C173.452 24.2153 176.372 25.4897 179.322 26.6802C180.122 27.0028 180.928 27.3201 181.73 27.6401C181.868 27.5398 182.003 27.4394 182.14 27.3391C181.898 26.9703 181.739 26.409 181.398 26.2653C177.799 24.7603 174.211 23.2174 170.541 21.8995C167.648 20.8637 164.5 21.951 162.82 24.2478H162.823ZM177.637 28.3397C177.62 28.196 177.604 28.0495 177.587 27.9058C174.929 26.8429 172.295 25.704 169.598 24.744C167.931 24.1502 166.224 24.7793 165.309 26.0212C164.393 27.2659 164.374 28.8685 165.256 30.1565C166.136 31.4418 167.808 32.1143 169.499 31.5286C172.248 30.5741 174.926 29.4135 177.634 28.3397H177.637ZM173.147 7.54404C170.285 7.96977 168.011 10.2259 167.555 13.0921C167.098 15.9556 168.591 18.8489 171.514 20.1722C174.97 21.7368 178.519 23.1035 182.047 24.5054C182.423 24.6546 182.935 24.4702 183.383 24.4403C183.383 24.2261 183.383 24.0146 183.383 23.8004C180.067 22.4446 176.729 21.143 173.449 19.7085C172.251 19.1852 171.011 18.5235 170.112 17.6151C168.066 15.5488 168.272 12.1701 170.356 10.2096C172.515 8.18128 175.918 8.16501 178.01 10.2584C178.643 10.8929 179.173 11.6929 179.536 12.5118C180.919 15.6248 182.211 18.773 183.545 21.9077C183.721 22.3198 183.933 22.713 184.13 23.1171C184.298 23.1279 184.469 23.1387 184.636 23.1469C184.691 22.6913 184.922 22.168 184.771 21.7938C183.372 18.3581 181.983 14.9143 180.433 11.5437C179.085 8.61515 176.141 7.09933 173.15 7.54404H173.147ZM181.183 20.5681C179.88 17.6856 178.712 14.7326 177.219 11.9478C176.49 10.5865 174.934 10.0849 173.312 10.4726C171.841 10.8251 170.854 11.7688 170.524 13.225C170.167 14.8031 170.607 16.3434 172.039 17.0701C174.879 18.5127 177.868 19.6787 180.793 20.9586C180.925 20.8284 181.054 20.6956 181.186 20.5654L181.183 20.5681ZM192.312 2.83391C189.987 1.24488 186.773 1.28284 184.488 2.9261C182.206 4.56936 181.095 7.61183 182.115 10.4075C183.44 14.033 185.016 17.569 186.533 21.124C186.69 21.4901 187.185 21.7151 187.52 22.0053C187.677 21.886 187.837 21.7667 187.993 21.6501C187.746 21.0182 187.512 20.3783 187.251 19.7519C185.995 16.7501 184.656 13.7781 183.487 10.7438C181.986 6.84715 184.227 3.09694 188.081 2.87729C192.274 2.63867 195.034 6.49192 193.492 10.6055C192.312 13.7456 190.919 16.8043 189.624 19.901C189.393 20.4515 189.173 21.0101 188.95 21.5633C189.063 21.6907 189.178 21.8155 189.291 21.9429C189.646 21.7124 190.19 21.5633 190.327 21.2433C191.889 17.5988 193.53 13.9761 194.856 10.2476C195.862 7.42202 194.655 4.4392 192.312 2.83662V2.83391ZM209.369 12.9511C208.899 10.1933 206.603 7.96978 203.799 7.55489C200.838 7.11832 197.88 8.58803 196.577 11.4027C194.996 14.8167 193.577 18.3039 192.148 21.7829C191.994 22.1598 192.225 22.694 192.277 23.155C192.466 23.1577 192.656 23.1604 192.846 23.1632C193.992 20.4651 195.136 17.7643 196.285 15.0662C196.744 13.9896 197.154 12.8887 197.687 11.8501C198.864 9.56694 201.297 8.34669 203.692 8.75886C206.001 9.15747 207.805 10.958 208.165 13.2222C208.545 15.6112 207.324 18.0083 204.926 19.074C201.646 20.5356 198.29 21.829 194.968 23.2038C194.471 23.4099 193.992 23.6621 193.503 23.8926C193.519 24.0716 193.533 24.2478 193.55 24.4268C193.992 24.4647 194.498 24.66 194.864 24.5136C198.438 23.0845 202.034 21.6907 205.534 20.0963C208.407 18.7893 209.859 15.8444 209.364 12.9457L209.369 12.9511ZM195.826 20.4515C195.969 20.6115 196.115 20.7715 196.258 20.9315C199.18 19.6407 202.174 18.4828 204.995 17.0023C206.381 16.2729 206.832 14.7082 206.386 13.1219C205.966 11.6278 204.959 10.6868 203.368 10.4455C201.652 10.1852 200.203 10.798 199.463 12.2732C198.13 14.9414 197.028 17.7182 195.829 20.4515H195.826ZM206.04 21.9999C202.579 23.2933 199.169 24.7224 195.763 26.1541C195.34 26.3331 195.076 26.8835 194.74 27.2632C194.867 27.3988 194.993 27.5316 195.12 27.6672C198.628 26.249 202.097 24.7224 205.666 23.4669C207.049 22.9815 208.726 22.7537 210.145 23.033C213.207 23.6377 214.816 26.8157 213.884 29.7959C212.982 32.6783 209.735 34.2972 206.648 33.1935C203.458 32.0547 200.354 30.688 197.212 29.4244C196.511 29.1423 195.807 28.8685 195.106 28.5892C194.977 28.7247 194.85 28.8603 194.721 28.9959C195.026 29.3593 195.257 29.8935 195.65 30.0562C199.153 31.5232 202.647 33.0173 206.216 34.3162C209.246 35.4198 212.49 34.3324 214.186 31.9136C215.805 29.606 215.759 26.4307 214.071 24.2153C212.245 21.8182 209.078 20.8691 206.043 22.0053L206.04 21.9999ZM199.329 28.3614C202.084 29.4433 204.805 30.6202 207.604 31.5693C209.204 32.1116 210.89 31.3903 211.687 30.1484C212.531 28.8332 212.578 27.4638 211.706 26.1405C210.837 24.8227 209.155 24.1393 207.489 24.7142C204.739 25.6633 202.064 26.8212 199.356 27.8896C199.348 28.0468 199.337 28.2041 199.329 28.3614Z" fill="url(#paint5_linear_129_15711)"/>
<path d="M124.951 27.6564C125.048 32.7895 122.045 35.5174 116.995 36.5885C119.706 40.4174 120.069 44.2435 116.849 47.69C113.286 51.5053 109.132 51.2884 104.956 48.4791C103.317 53.7804 100.796 56.2236 96.7461 56.2697C91.5334 56.3266 88.8033 53.3709 87.7695 48.4412C83.904 51.0579 80.0109 51.5135 76.5 48.3463C72.6702 44.8916 72.7719 40.8187 75.6615 36.5885C71.1003 35.5879 67.9854 33.2668 67.7984 28.5404C67.595 23.3801 70.7209 20.7335 75.5295 19.695C73.0689 13.9598 73.0881 11.2807 75.8457 8.51482C79.4858 4.86222 83.5356 4.98695 87.7805 7.77996C88.7538 3.13761 91.2777 0.119541 96.0945 0.00565338C101.211 -0.113659 103.916 2.93966 104.928 7.84775C108.607 5.24998 112.354 4.78358 115.835 7.62811C120.082 11.0963 119.934 15.3211 117.091 19.6597C122.408 21.3138 124.877 23.7353 124.949 27.6618L124.951 27.6564ZM111.785 48.6906C114.551 48.2351 116.855 45.9302 117.27 43.205C117.718 40.2574 116.159 37.3288 113.209 36.0245C109.786 34.5114 106.292 33.1502 102.811 31.7672C102.415 31.6099 101.898 31.7455 101.439 31.7455L101.332 32.3068C101.799 32.54 102.256 32.8004 102.74 33.001C105.918 34.308 109.121 35.5635 112.283 36.9085C115.529 38.286 116.965 41.5373 115.639 44.3628C114.685 46.3939 113.05 47.5219 110.795 47.5599C108.351 47.6033 106.506 46.4291 105.511 44.2598C104.007 40.9814 102.668 37.6298 101.252 34.3107C101.079 33.904 100.87 33.5081 100.68 33.1095C100.513 33.1041 100.342 33.0959 100.175 33.0905C100.12 33.5461 99.8831 34.0694 100.034 34.4436C101.453 37.9254 102.852 41.418 104.433 44.8292C105.772 47.7144 108.788 49.1896 111.785 48.6961V48.6906ZM96.1027 38.8582C95.0168 41.5183 93.8318 44.1459 92.8778 46.8521C92.3004 48.49 93.018 50.1875 94.3322 51.0037C95.6739 51.8389 97.0595 51.8199 98.3929 50.9874C99.6521 50.201 100.389 48.5144 99.8473 46.9742C98.8796 44.2191 97.6946 41.54 96.6004 38.8311C96.4354 38.8419 96.2704 38.8501 96.1055 38.8609L96.1027 38.8582ZM96.5894 17.4334C97.6836 14.7272 98.8878 12.0562 99.8363 9.30119C100.405 7.6498 99.6274 5.96315 98.2857 5.20118C96.9248 4.42836 95.5281 4.45005 94.2194 5.32592C92.93 6.18822 92.3087 7.88571 92.9053 9.52897C93.8703 12.1783 95.0277 14.7597 96.1027 17.3711C96.2649 17.3928 96.4272 17.4145 96.5894 17.4361V17.4334ZM103.702 35.7262C104.862 38.4135 105.929 41.1414 107.213 43.769C108.013 45.4068 109.764 46.1444 111.301 45.8542C112.846 45.5614 114.086 44.3113 114.334 42.7955C114.606 41.1414 113.789 39.4873 112.065 38.709C109.429 37.5213 106.729 36.4746 104.054 35.3683L103.702 35.7235V35.7262ZM92.3939 53.3547C94.7336 54.9979 97.8815 55.0196 100.216 53.4062C102.599 51.7602 103.749 48.6852 102.701 45.838C101.368 42.2179 99.7869 38.6846 98.2637 35.1324C98.1098 34.7744 97.6204 34.5548 97.285 34.2701C97.131 34.3921 96.9743 34.5168 96.8203 34.6389C97.1723 35.5066 97.5131 36.3797 97.8733 37.242C99.0308 40.0079 100.279 42.744 101.343 45.5451C102.896 49.637 100.367 53.4442 96.243 53.3709C92.3197 53.3004 89.8563 49.6262 91.2969 45.7729C92.5066 42.5379 93.9363 39.3842 95.2669 36.1926C95.4759 35.691 95.6601 35.1758 95.8553 34.6687C95.7371 34.5439 95.6216 34.4192 95.5034 34.2972C95.1515 34.5385 94.6209 34.7066 94.4779 35.0348C92.9355 38.6331 91.3382 42.2152 89.9992 45.8868C88.9792 48.6825 90.1147 51.7494 92.3994 53.3547H92.3939ZM75.4416 43.2239C75.9117 46.0576 78.2431 48.3273 81.0886 48.7205C84.0909 49.1381 87.008 47.5978 88.3469 44.6665C89.8673 41.3366 91.2365 37.9417 92.6249 34.5575C92.7898 34.1535 92.6468 33.6301 92.6468 33.161C92.4406 33.1393 92.2317 33.1149 92.0255 33.0932C91.5773 34.0911 91.1127 35.0836 90.6811 36.0896C89.5236 38.8012 88.4651 41.5563 87.2059 44.2218C86.1666 46.421 84.3246 47.6331 81.7897 47.5653C79.5793 47.5056 77.6768 46.0739 76.8877 43.9751C75.9007 41.3448 77.2259 38.362 80.1182 37.0821C83.3074 35.672 86.5626 34.4084 89.7875 33.0742C90.2962 32.8627 90.791 32.6187 91.2942 32.3909C91.2942 32.2119 91.2942 32.0357 91.2942 31.8567C90.8185 31.8187 90.2742 31.6127 89.8783 31.7699C86.3949 33.1475 82.9032 34.5141 79.4831 36.0381C76.5275 37.3586 74.9604 40.3252 75.4416 43.2267V43.2239ZM89.0507 35.6666C88.9188 35.5527 88.784 35.4415 88.652 35.3276C85.8835 36.4963 83.0709 37.5756 80.3601 38.869C78.6912 39.6663 78.0452 41.3068 78.3723 42.9392C78.661 44.3737 79.8762 45.5533 81.3746 45.8542C82.8702 46.1552 84.6353 45.4665 85.3886 43.9344C86.7165 41.2309 87.8383 38.4297 89.048 35.6666H89.0507ZM70.7099 24.2478C69.0081 26.5744 69.0301 29.7498 70.765 32.0791C72.4586 34.3487 75.612 35.3846 78.5126 34.3324C82.1307 33.02 85.6745 31.5042 89.2239 30.0209C89.5868 29.8691 89.7875 29.3376 90.0652 28.9824C89.9305 28.8549 89.7958 28.7275 89.6583 28.6027C86.722 29.7904 83.7858 30.9808 80.8467 32.1685C80.0384 32.4967 79.2356 32.8465 78.4108 33.1285C75.8099 34.0098 73.1899 33.3047 71.7382 31.3632C70.3141 29.4596 70.3031 26.9025 71.708 24.961C73.1321 22.9977 75.7467 22.1842 78.3476 23.1279C81.3388 24.2153 84.2586 25.4897 87.2086 26.6802C88.0087 27.0028 88.8142 27.3201 89.6171 27.6401C89.7545 27.5398 89.8892 27.4394 90.0267 27.3391C89.7848 26.9703 89.6253 26.409 89.2844 26.2653C85.6855 24.7603 82.0977 23.2174 78.4273 21.8995C75.535 20.8637 72.3871 21.951 70.7072 24.2478H70.7099ZM85.5233 28.3397C85.5068 28.196 85.4904 28.0495 85.4739 27.9058C82.8153 26.8429 80.1814 25.704 77.4843 24.744C75.8182 24.1502 74.1109 24.7793 73.1953 26.0212C72.2798 27.2659 72.2606 28.8685 73.1431 30.1565C74.0229 31.4418 75.6945 32.1143 77.3853 31.5286C80.1346 30.5741 82.8125 29.4135 85.5206 28.3397H85.5233ZM81.0337 7.54404C78.1716 7.96977 75.898 10.2259 75.4416 13.0921C74.9852 15.9556 76.478 18.8489 79.4006 20.1722C82.8565 21.7368 86.4059 23.1035 89.9333 24.5054C90.3099 24.6546 90.8213 24.4702 91.2694 24.4403C91.2694 24.2261 91.2694 24.0146 91.2694 23.8004C87.9537 22.4446 84.6161 21.143 81.3361 19.7085C80.1374 19.1852 78.8974 18.5235 77.9984 17.6151C75.9529 15.5488 76.1591 12.1701 78.2431 10.2096C80.4013 8.18128 83.805 8.16501 85.8973 10.2584C86.5296 10.8929 87.0602 11.6929 87.4231 12.5118C88.806 15.6248 90.0982 18.773 91.4316 21.9077C91.6076 22.3198 91.8193 22.713 92.0172 23.1171C92.1849 23.1279 92.3554 23.1387 92.5231 23.1469C92.5781 22.6913 92.809 22.168 92.6578 21.7938C91.2584 18.3581 89.87 14.9143 88.3194 11.5437C86.9722 8.61515 84.0277 7.09933 81.0364 7.54404H81.0337ZM89.0699 20.5681C87.7668 17.6856 86.5983 14.7326 85.1054 11.9478C84.3769 10.5865 82.8208 10.0849 81.1986 10.4726C79.7278 10.8251 78.7407 11.7688 78.4108 13.225C78.0534 14.8031 78.4933 16.3434 79.9257 17.0701C82.7657 18.5127 85.7543 19.6787 88.6796 20.9586C88.8115 20.8284 88.9407 20.6956 89.0727 20.5654L89.0699 20.5681ZM100.199 2.83391C97.8733 1.24488 94.6593 1.28284 92.3746 2.9261C90.0927 4.56936 88.982 7.61183 90.002 10.4075C91.3272 14.033 92.9026 17.569 94.4202 21.124C94.5769 21.4901 95.0717 21.7151 95.4071 22.0053C95.5639 21.886 95.7233 21.7667 95.88 21.6501C95.6326 21.0182 95.3989 20.3783 95.1377 19.7519C93.8813 16.7501 92.5424 13.7781 91.3739 10.7438C89.8728 6.84715 92.1135 3.09694 95.968 2.87729C100.161 2.63867 102.921 6.49192 101.379 10.6055C100.199 13.7456 98.8054 16.8043 97.5104 19.901C97.2795 20.4515 97.0595 21.0101 96.8368 21.5633C96.9495 21.6907 97.065 21.8155 97.1777 21.9429C97.5324 21.7124 98.0767 21.5633 98.2142 21.2433C99.7758 17.5988 101.417 13.9761 102.742 10.2476C103.749 7.42202 102.542 4.4392 100.199 2.83662V2.83391ZM117.256 12.9511C116.786 10.1933 114.49 7.96978 111.686 7.55489C108.725 7.11832 105.767 8.58803 104.463 11.4027C102.883 14.8167 101.464 18.3039 100.034 21.7829C99.8803 22.1598 100.111 22.694 100.163 23.155C100.353 23.1577 100.543 23.1604 100.733 23.1632C101.879 20.4651 103.023 17.7643 104.172 15.0662C104.631 13.9896 105.041 12.8887 105.574 11.8501C106.751 9.56694 109.184 8.34669 111.579 8.75886C113.888 9.15747 115.692 10.958 116.052 13.2222C116.431 15.6112 115.211 18.0083 112.813 19.074C109.533 20.5356 106.176 21.829 102.855 23.2038C102.357 23.4099 101.879 23.6621 101.39 23.8926C101.406 24.0716 101.42 24.2478 101.436 24.4268C101.879 24.4647 102.385 24.66 102.751 24.5136C106.325 23.0845 109.921 21.6907 113.421 20.0963C116.294 18.7893 117.745 15.8444 117.251 12.9457L117.256 12.9511ZM103.713 20.4515C103.856 20.6115 104.002 20.7715 104.145 20.9315C107.067 19.6407 110.061 18.4828 112.882 17.0023C114.268 16.2729 114.718 14.7082 114.273 13.1219C113.852 11.6278 112.846 10.6868 111.254 10.4455C109.539 10.1852 108.09 10.798 107.35 12.2732C106.017 14.9414 104.914 17.7182 103.716 20.4515H103.713ZM113.927 21.9999C110.465 23.2933 107.056 24.7224 103.65 26.1541C103.226 26.3331 102.962 26.8835 102.627 27.2632C102.753 27.3988 102.88 27.5316 103.006 27.6672C106.514 26.249 109.984 24.7224 113.553 23.4669C114.936 22.9815 116.613 22.7537 118.031 23.033C121.094 23.6377 122.702 26.8157 121.77 29.7959C120.869 32.6783 117.622 34.2972 114.534 33.1935C111.345 32.0547 108.241 30.688 105.099 29.4244C104.397 29.1423 103.694 28.8685 102.993 28.5892C102.863 28.7247 102.737 28.8603 102.608 28.9959C102.913 29.3593 103.144 29.8935 103.537 30.0562C107.04 31.5232 110.534 33.0173 114.103 34.3162C117.132 35.4198 120.377 34.3324 122.073 31.9136C123.692 29.606 123.645 26.4307 121.957 24.2153C120.132 21.8182 116.965 20.8691 113.929 22.0053L113.927 21.9999ZM107.215 28.3614C109.97 29.4433 112.692 30.6202 115.491 31.5693C117.091 32.1116 118.776 31.3903 119.574 30.1484C120.418 28.8332 120.464 27.4638 119.593 26.1405C118.724 24.8227 117.042 24.1393 115.376 24.7142C112.626 25.6633 109.951 26.8212 107.243 27.8896C107.235 28.0468 107.224 28.2041 107.215 28.3614Z" fill="url(#paint6_linear_129_15711)"/>
<path d="M32.8381 27.6564C32.9343 32.7895 29.9321 35.5174 24.8816 36.5885C27.5924 40.4174 27.9553 44.2435 24.7359 47.69C21.1727 51.5053 17.0185 51.2884 12.8423 48.4791C11.2037 53.7804 8.68258 56.2236 4.63282 56.2697C-0.579903 56.3266 -3.31002 53.3709 -4.34377 48.4412C-8.20932 51.0579 -12.1023 51.5135 -15.6132 48.3463C-19.443 44.8916 -19.3413 40.8187 -16.4518 36.5885C-21.0129 35.5879 -24.1279 33.2668 -24.3148 28.5404C-24.5183 23.3801 -21.3923 20.7335 -16.5837 19.695C-19.0444 13.9598 -19.0251 11.2807 -16.2676 8.51482C-12.6275 4.86222 -8.57772 4.98695 -4.33276 7.77996C-3.3595 3.13761 -0.835623 0.119541 3.9812 0.00565338C9.09769 -0.113659 11.8031 2.93966 12.8148 7.84775C16.4934 5.24998 20.2407 4.78358 23.7214 7.62811C27.9691 11.0963 27.8206 15.3211 24.9778 19.6597C30.295 21.3138 32.7639 23.7353 32.8354 27.6618L32.8381 27.6564ZM19.6716 48.6906C22.4374 48.2351 24.7414 45.9302 25.1565 43.205C25.6047 40.2574 24.0458 37.3288 21.0958 36.0245C17.6728 34.5114 14.1785 33.1502 10.6978 31.7672C10.3019 31.6099 9.78508 31.7455 9.32594 31.7455L9.21868 32.3068C9.68606 32.54 10.1425 32.8004 10.6264 33.001C13.8046 34.308 17.0075 35.5635 20.1693 36.9085C23.4162 38.286 24.8514 41.5373 23.5262 44.3628C22.5722 46.3939 20.9363 47.5219 18.6818 47.5599C16.2377 47.6033 14.3929 46.4291 13.3976 44.2598C11.8938 40.9814 10.5548 37.6298 9.13894 34.3107C8.96573 33.904 8.75682 33.5081 8.56712 33.1095C8.39941 33.1041 8.22893 33.0959 8.06122 33.0905C8.00623 33.5461 7.76979 34.0694 7.921 34.4436C9.33966 37.9254 10.7391 41.418 12.3199 44.8292C13.6588 47.7144 16.6749 49.1896 19.6716 48.6961V48.6906ZM3.98945 38.8582C2.90347 41.5183 1.71852 44.1459 0.7645 46.8521C0.187141 48.49 0.904726 50.1875 2.2189 51.0037C3.56058 51.8389 4.94624 51.8199 6.27966 50.9874C7.53885 50.201 8.27568 48.5144 7.73407 46.9742C6.76631 44.2191 5.58133 41.54 4.4871 38.8311C4.32214 38.8419 4.15717 38.8501 3.9922 38.8609L3.98945 38.8582ZM4.47609 17.4334C5.57032 14.7272 6.77454 12.0562 7.72306 9.30119C8.29217 7.6498 7.51407 5.96315 6.1724 5.20118C4.81149 4.42836 3.41488 4.45005 2.1062 5.32592C0.816771 6.18822 0.195415 7.88571 0.792019 9.52897C1.75703 12.1783 2.91447 14.7597 3.98945 17.3711C4.15166 17.3928 4.31388 17.4145 4.47609 17.4361V17.4334ZM11.5886 35.7262C12.7488 38.4135 13.8156 41.1414 15.0995 43.769C15.8996 45.4068 17.6509 46.1444 19.1877 45.8542C20.7329 45.5614 21.9728 44.3113 22.2203 42.7955C22.4924 41.1414 21.6759 39.4873 19.9521 38.709C17.3155 37.5213 14.6156 36.4746 11.9406 35.3683L11.5886 35.7235V35.7262ZM0.280615 53.3547C2.62029 54.9979 5.76826 55.0196 8.10244 53.4062C10.4861 51.7602 11.6353 48.6852 10.5878 45.838C9.25441 42.2179 7.67358 38.6846 6.15045 35.1324C5.99649 34.7744 5.5071 34.5548 5.17168 34.2701C5.01772 34.3921 4.86102 34.5168 4.70706 34.6389C5.05897 35.5066 5.39984 36.3797 5.76 37.242C6.91747 40.0079 8.1657 42.744 9.22969 45.5451C10.7831 49.637 8.25366 53.4442 4.12967 53.3709C0.206383 53.3004 -2.25701 49.6262 -0.816364 45.7729C0.393339 42.5379 1.82297 39.3842 3.15365 36.1926C3.3626 35.691 3.54684 35.1758 3.74204 34.6687C3.62382 34.5439 3.50834 34.4192 3.39012 34.2972C3.03821 34.5385 2.50759 34.7066 2.36463 35.0348C0.822254 38.6331 -0.775116 42.2152 -2.11404 45.8868C-3.13404 48.6825 -1.99857 51.7494 0.286119 53.3547H0.280615ZM-16.6717 43.2239C-16.2016 46.0576 -13.8701 48.3273 -11.0246 48.7205C-8.02232 49.1381 -5.10531 47.5978 -3.76639 44.6665C-2.24601 41.3366 -0.876827 37.9417 0.511583 34.5575C0.676542 34.1535 0.533531 33.6301 0.533531 33.161C0.327332 33.1393 0.118448 33.1149 -0.0877514 33.0932C-0.535892 34.0911 -1.00057 35.0836 -1.43221 36.0896C-2.58968 38.8012 -3.64814 41.5563 -4.90733 44.2218C-5.94657 46.421 -7.78868 47.6331 -10.3236 47.5653C-12.534 47.5056 -14.4365 46.0739 -15.2256 43.9751C-16.2126 41.3448 -14.8874 38.362 -11.9951 37.0821C-8.80588 35.672 -5.5507 34.4084 -2.32574 33.0742C-1.81712 32.8627 -1.32224 32.6187 -0.819115 32.3909C-0.819115 32.2119 -0.819115 32.0357 -0.819115 31.8567C-1.29475 31.8187 -1.83909 31.6127 -2.23499 31.7699C-5.71839 33.1475 -9.21005 34.5141 -12.6302 36.0381C-15.5857 37.3586 -17.1528 40.3252 -16.6717 43.2267V43.2239ZM-3.06254 35.6666C-3.19451 35.5527 -3.32921 35.4415 -3.46118 35.3276C-6.22975 36.4963 -9.04236 37.5756 -11.7532 38.869C-13.422 39.6663 -14.0681 41.3068 -13.7409 42.9392C-13.4523 44.3737 -12.2371 45.5533 -10.7387 45.8542C-9.24307 46.1552 -7.47798 45.4665 -6.72466 43.9344C-5.39674 41.2309 -4.275 38.4297 -3.06529 35.6666H-3.06254ZM-21.4033 24.2478C-23.1052 26.5744 -23.0831 29.7498 -21.3483 32.0791C-19.6547 34.3487 -16.5013 35.3846 -13.6007 34.3324C-9.98262 33.02 -6.43875 31.5042 -2.88937 30.0209C-2.52645 29.8691 -2.32574 29.3376 -2.04806 28.9824C-2.18277 28.8549 -2.31749 28.7275 -2.45495 28.6027C-5.39123 29.7904 -8.32753 30.9808 -11.2666 32.1685C-12.0749 32.4967 -12.8776 32.8465 -13.7024 33.1285C-16.3033 34.0098 -18.9234 33.3047 -20.3751 31.3632C-21.7992 29.4596 -21.8102 26.9025 -20.4053 24.961C-18.9812 22.9977 -16.3665 22.1842 -13.7656 23.1279C-10.7744 24.2153 -7.8546 25.4897 -4.90458 26.6802C-4.10452 27.0028 -3.29897 27.3201 -2.49616 27.6401C-2.3587 27.5398 -2.22398 27.4394 -2.08652 27.3391C-2.32846 26.9703 -2.48797 26.409 -2.82889 26.2653C-6.42776 24.7603 -10.0156 23.2174 -13.686 21.8995C-16.5783 20.8637 -19.7262 21.951 -21.4061 24.2478H-21.4033ZM-6.58995 28.3397C-6.60645 28.196 -6.62292 28.0495 -6.63942 27.9058C-9.29802 26.8429 -11.9319 25.704 -14.629 24.744C-16.2951 24.1502 -18.0024 24.7793 -18.9179 26.0212C-19.8334 27.2659 -19.8527 28.8685 -18.9702 30.1565C-18.0904 31.4418 -16.4188 32.1143 -14.7279 31.5286C-11.9786 30.5741 -9.30079 29.4135 -6.5927 28.3397H-6.58995ZM-11.0796 7.54404C-13.9417 7.96977 -16.2153 10.2259 -16.6717 13.0921C-17.1281 15.9556 -15.6352 18.8489 -12.7127 20.1722C-9.2568 21.7368 -5.70741 23.1035 -2.18002 24.5054C-1.80336 24.6546 -1.29196 24.4702 -0.843817 24.4403C-0.843817 24.2261 -0.843817 24.0146 -0.843817 23.8004C-4.1595 22.4446 -7.49722 21.143 -10.7772 19.7085C-11.9759 19.1852 -13.2158 18.5235 -14.1149 17.6151C-16.1604 15.5488 -15.9541 12.1701 -13.8702 10.2096C-11.7119 8.18128 -8.30825 8.16501 -6.21601 10.2584C-5.58367 10.8929 -5.0531 11.6929 -4.69019 12.5118C-3.30728 15.6248 -2.01507 18.773 -0.68165 21.9077C-0.505692 22.3198 -0.293959 22.713 -0.0960083 23.1171C0.071701 23.1279 0.242117 23.1387 0.409824 23.1469C0.464811 22.6913 0.695753 22.168 0.54454 21.7938C-0.854868 18.3581 -2.24329 14.9143 -3.79391 11.5437C-5.14108 8.61515 -8.0856 7.09933 -11.0769 7.54404H-11.0796ZM-3.04328 20.5681C-4.34646 17.6856 -5.51497 14.7326 -7.00785 11.9478C-7.73642 10.5865 -9.29253 10.0849 -10.9146 10.4726C-12.3855 10.8251 -13.3725 11.7688 -13.7024 13.225C-14.0598 14.8031 -13.6199 16.3434 -12.1875 17.0701C-9.34749 18.5127 -6.35901 19.6787 -3.43373 20.9586C-3.30176 20.8284 -3.17256 20.6956 -3.04059 20.5654L-3.04328 20.5681ZM8.08599 2.83391C5.76006 1.24488 2.54604 1.28284 0.261351 2.9261C-2.02059 4.56936 -3.13128 7.61183 -2.11129 10.4075C-0.78611 14.033 0.789272 17.569 2.3069 21.124C2.46361 21.4901 2.95845 21.7151 3.29387 22.0053C3.45058 21.886 3.61003 21.7667 3.76674 21.6501C3.5193 21.0182 3.28562 20.3783 3.02444 19.7519C1.768 16.7501 0.429089 13.7781 -0.739374 10.7438C-2.24051 6.84715 0.000183105 3.09694 3.85474 2.87729C8.04746 2.63867 10.8078 6.49192 9.2654 10.6055C8.08593 13.7456 6.69207 16.8043 5.39714 19.901C5.1662 20.4515 4.94626 21.0101 4.72357 21.5633C4.83629 21.6907 4.95176 21.8155 5.06448 21.9429C5.41915 21.7124 5.96345 21.5633 6.10092 21.2433C7.66253 17.5988 9.30394 13.9761 10.6291 10.2476C11.6354 7.42202 10.4284 4.4392 8.08599 2.83662V2.83391ZM25.1428 12.9511C24.6726 10.1933 22.3769 7.96978 19.5726 7.55489C16.6116 7.11832 13.6534 8.58803 12.3502 11.4027C10.7693 14.8167 9.35065 18.3039 7.921 21.7829C7.76704 22.1598 7.99798 22.694 8.05021 23.155C8.23992 23.1577 8.42964 23.1604 8.61934 23.1632C9.76581 20.4651 10.9095 17.7643 12.0588 15.0662C12.5179 13.9896 12.9275 12.8887 13.4609 11.8501C14.6376 9.56694 17.0708 8.34669 19.4654 8.75886C21.7749 9.15747 23.5784 10.958 23.9386 13.2222C24.318 15.6112 23.0973 18.0083 20.6999 19.074C17.4199 20.5356 14.063 21.829 10.7418 23.2038C10.2442 23.4099 9.76578 23.6621 9.2764 23.8926C9.2929 24.0716 9.30669 24.2478 9.32318 24.4268C9.76583 24.4647 10.2716 24.66 10.6373 24.5136C14.2114 23.0845 17.8076 21.6907 21.3075 20.0963C24.1805 18.7893 25.6322 15.8444 25.1373 12.9457L25.1428 12.9511ZM11.5996 20.4515C11.7425 20.6115 11.8883 20.7715 12.0312 20.9315C14.9538 19.6407 17.9478 18.4828 20.7686 17.0023C22.1543 16.2729 22.6052 14.7082 22.1598 13.1219C21.7391 11.6278 20.7329 10.6868 19.141 10.4455C17.4254 10.1852 15.9766 10.798 15.237 12.2732C13.9036 14.9414 12.801 17.7182 11.6023 20.4515H11.5996ZM21.8134 21.9999C18.352 23.2933 14.9428 24.7224 11.5363 26.1541C11.1129 26.3331 10.849 26.8835 10.5136 27.2632C10.6401 27.3988 10.7666 27.5316 10.893 27.6672C14.4012 26.249 17.8708 24.7224 21.4394 23.4669C22.8223 22.9815 24.4994 22.7537 25.9181 23.033C28.9808 23.6377 30.5892 26.8157 29.6572 29.7959C28.7554 32.6783 25.5084 34.2972 22.4209 33.1935C19.2317 32.0547 16.1277 30.688 12.9852 29.4244C12.2842 29.1423 11.5804 28.8685 10.8793 28.5892C10.7501 28.7247 10.6236 28.8603 10.4944 28.9959C10.7996 29.3593 11.0305 29.8935 11.4236 30.0562C14.9263 31.5232 18.4207 33.0173 21.9893 34.3162C25.019 35.4198 28.2632 34.3324 29.9596 31.9136C31.5789 29.606 31.5322 26.4307 29.8441 24.2153C28.0186 21.8182 24.8514 20.8691 21.8161 22.0053L21.8134 21.9999ZM15.1023 28.3614C17.8571 29.4433 20.5789 30.6202 23.3777 31.5693C24.9778 32.1116 26.6632 31.3903 27.4605 30.1484C28.3045 28.8332 28.3512 27.4638 27.4797 26.1405C26.6109 24.8227 24.9283 24.1393 23.2623 24.7142C20.5129 25.6633 17.8378 26.8212 15.1297 27.8896C15.1215 28.0468 15.1105 28.2041 15.1023 28.3614Z" fill="url(#paint7_linear_129_15711)"/>
<path d="M50.3151 25.8227C51.6088 25.8227 52.6575 26.8571 52.6575 28.133C52.6575 29.409 51.6088 30.4434 50.3151 30.4434C49.0214 30.4434 47.9727 29.409 47.9727 28.133C47.9727 26.8571 49.0214 25.8227 50.3151 25.8227Z" fill="url(#paint8_linear_129_15711)"/>
<path d="M142.428 25.8227C143.722 25.8227 144.771 26.8571 144.771 28.133C144.771 29.409 143.722 30.4434 142.428 30.4434C141.135 30.4434 140.086 29.409 140.086 28.133C140.086 26.8571 141.135 25.8227 142.428 25.8227Z" fill="url(#paint9_linear_129_15711)"/>
<path d="M234.538 25.8227C235.831 25.8227 236.88 26.8571 236.88 28.133C236.88 29.409 235.831 30.4434 234.538 30.4434C233.244 30.4434 232.195 29.409 232.195 28.133C232.195 26.8571 233.244 25.8227 234.538 25.8227Z" fill="url(#paint10_linear_129_15711)"/>
<path d="M326.651 25.8227C327.945 25.8227 328.993 26.8571 328.993 28.133C328.993 29.409 327.945 30.4434 326.651 30.4434C325.357 30.4434 324.309 29.409 324.309 28.133C324.309 26.8571 325.357 25.8227 326.651 25.8227Z" fill="url(#paint11_linear_129_15711)"/>
</g>
<defs>
<linearGradient id="paint0_linear_129_15711" x1="-379.82" y1="80.2119" x2="-379.82" y2="126.671" gradientUnits="userSpaceOnUse">
<stop stop-color="#EFD891"/>
<stop offset="1" stop-color="#EDE2B2"/>
</linearGradient>
<linearGradient id="paint1_linear_129_15711" x1="-379.82" y1="61.1504" x2="-379.82" y2="74.2546" gradientUnits="userSpaceOnUse">
<stop stop-color="#EFD891"/>
<stop offset="1" stop-color="#EDE2B2"/>
</linearGradient>
<linearGradient id="paint2_linear_129_15711" x1="-379.82" y1="130.844" x2="-379.82" y2="143.948" gradientUnits="userSpaceOnUse">
<stop stop-color="#EFD891"/>
<stop offset="1" stop-color="#EDE2B2"/>
</linearGradient>
<linearGradient id="paint3_linear_129_15711" x1="372.707" y1="56.2705" x2="372.707" y2="0.00227737" gradientUnits="userSpaceOnUse">
<stop stop-color="#EFD891"/>
<stop offset="1" stop-color="#EDE2B2"/>
</linearGradient>
<linearGradient id="paint4_linear_129_15711" x1="280.594" y1="56.2705" x2="280.594" y2="0.00227737" gradientUnits="userSpaceOnUse">
<stop stop-color="#EFD891"/>
<stop offset="1" stop-color="#EDE2B2"/>
</linearGradient>
<linearGradient id="paint5_linear_129_15711" x1="188.485" y1="56.2705" x2="188.485" y2="0.00227737" gradientUnits="userSpaceOnUse">
<stop stop-color="#EFD891"/>
<stop offset="1" stop-color="#EDE2B2"/>
</linearGradient>
<linearGradient id="paint6_linear_129_15711" x1="96.3714" y1="56.2705" x2="96.3714" y2="0.00227737" gradientUnits="userSpaceOnUse">
<stop stop-color="#EFD891"/>
<stop offset="1" stop-color="#EDE2B2"/>
</linearGradient>
<linearGradient id="paint7_linear_129_15711" x1="4.25807" y1="56.2705" x2="4.25807" y2="0.00227737" gradientUnits="userSpaceOnUse">
<stop stop-color="#EFD891"/>
<stop offset="1" stop-color="#EDE2B2"/>
</linearGradient>
<linearGradient id="paint8_linear_129_15711" x1="50.3151" y1="30.4434" x2="50.3151" y2="25.8227" gradientUnits="userSpaceOnUse">
<stop stop-color="#EFD891"/>
<stop offset="1" stop-color="#EDE2B2"/>
</linearGradient>
<linearGradient id="paint9_linear_129_15711" x1="142.428" y1="30.4434" x2="142.428" y2="25.8227" gradientUnits="userSpaceOnUse">
<stop stop-color="#EFD891"/>
<stop offset="1" stop-color="#EDE2B2"/>
</linearGradient>
<linearGradient id="paint10_linear_129_15711" x1="234.538" y1="30.4434" x2="234.538" y2="25.8227" gradientUnits="userSpaceOnUse">
<stop stop-color="#EFD891"/>
<stop offset="1" stop-color="#EDE2B2"/>
</linearGradient>
<linearGradient id="paint11_linear_129_15711" x1="326.651" y1="30.4434" x2="326.651" y2="25.8227" gradientUnits="userSpaceOnUse">
<stop stop-color="#EFD891"/>
<stop offset="1" stop-color="#EDE2B2"/>
</linearGradient>
<clipPath id="clip0_129_15711">
<rect width="978.29" height="56.2695" fill="white" transform="matrix(1 0 0 -1 -577 56.2695)"/>
</clipPath>
</defs>
</svg>
