<svg width="395" height="28" viewBox="0 0 395 28" fill="none" xmlns="http://www.w3.org/2000/svg">
<path d="M394.997 13.891C395.04 14.9331 394.6 15.8959 393.855 16.8164C393.11 17.7474 391.908 18.25 390.275 18.4034C389.242 18.5039 387.999 18.2605 387.228 18.8213C386.551 19.3133 386.983 20.0221 386.797 20.6199C386.551 21.4134 386.018 22.1275 385.172 22.7253C384.461 23.2279 383.691 23.7198 382.845 24.1325C380.424 25.3174 377.369 25.0741 375.414 23.5664C374.737 23.0427 374.179 22.4608 373.493 21.9371C372.19 20.932 370.573 20.8897 369.135 21.8207C368.576 22.1804 368.102 22.5983 367.637 23.0057C365.25 25.1005 362.119 26.5341 358.125 27.1848C357.439 27.2959 356.703 27.3012 355.984 27.3012C350.322 27.3012 344.652 27.28 338.982 27.28C328.361 27.2906 317.748 27.3171 307.128 27.3223C301.102 27.3223 295.068 27.3117 289.043 27.3065C279.776 27.3065 270.509 27.317 261.242 27.3065C250.892 27.2959 240.55 27.2536 230.2 27.2483C221.56 27.2483 212.919 27.2853 204.287 27.2906C192.499 27.2959 180.718 27.2906 168.93 27.2906C161.821 27.2906 154.72 27.2536 147.611 27.2589C135.467 27.2642 123.323 27.2906 111.179 27.3065C99.3057 27.3223 87.4238 27.3435 75.5505 27.3435C66.3768 27.3435 57.203 27.3064 48.0293 27.2959C45.6089 27.2959 43.1885 27.3699 40.7597 27.3646C37.1122 27.3594 33.8795 26.5976 31.146 25.0953C29.9273 24.4287 28.8187 23.6934 27.9216 22.8364C27.4815 22.4185 26.94 22.027 26.3646 21.6832C25.0951 20.9267 23.5124 20.9796 22.353 21.8154C21.7691 22.2386 21.2191 22.6936 20.7451 23.1697C18.9679 24.9313 15.3119 25.6137 12.2061 23.7992C10.2173 22.6354 8.74483 21.3922 8.68559 19.6095C8.6602 18.7948 8.32173 18.6467 7.03538 18.6044C6.23141 18.578 5.41042 18.6044 4.60645 18.5727C3.25239 18.5304 2.16927 18.1759 1.55995 17.393C-0.0479907 15.3405 -0.648877 13.2509 0.899822 11.0608C1.74611 9.8653 3.07485 9.16173 5.20748 9.11412C5.92682 9.09825 6.646 9.08237 7.36534 9.03476C8.31318 8.97128 8.5925 8.79141 8.68559 8.17248C8.77868 7.50065 8.75334 6.82881 9.15956 6.18343C10.0312 4.81861 11.5714 3.80293 13.5009 3.04646C15.7435 2.16831 18.5617 2.5492 20.2881 3.87699C20.9651 4.4007 21.5322 4.97733 22.2007 5.50633C23.5209 6.54846 25.0612 6.61194 26.5253 5.67561C27.0839 5.31589 27.5578 4.90325 28.0317 4.49592C29.4704 3.25805 31.0698 2.10483 33.2702 1.38539C35.7498 0.581303 38.3139 -0.0905161 41.2167 0.00999413C47.0391 0.216305 52.8617 0.0470307 58.6841 0.115801C60.6559 0.136961 62.6362 0.184565 64.6081 0.142245C68.1032 0.0628943 71.5983 0.211022 75.0935 0.0840621C78.047 -0.0217382 81.0174 0.147545 83.9794 0.152835C90.8174 0.168705 97.6469 0.152835 104.485 0.152835C109.698 0.152835 114.911 0.184574 120.124 0.184574C124.787 0.184574 129.459 0.12638 134.122 0.14754C137.625 0.15812 141.138 0.099914 144.633 0.131654C148.314 0.163394 152.004 0.205739 155.685 0.189869C159.189 0.179289 162.684 0.189852 166.188 0.0734717C167.956 0.0152816 169.767 0.105216 171.561 0.110506C180.82 0.126376 190.07 0.173972 199.328 0.195132C206.792 0.211002 214.248 0.195132 221.712 0.195132C227.729 0.195132 233.755 0.221581 239.772 0.226871C245.256 0.232161 250.748 0.343262 256.224 0.205722C262.165 0.0576017 268.089 0.253339 274.029 0.179278C277.618 0.136958 281.223 0.0364571 284.803 0.0893573C288.755 0.152837 292.707 0.189864 296.659 0.184574C301.153 0.173994 305.638 0.115806 310.132 0.121096C314.719 0.121096 319.297 0.184557 323.884 0.200427C325.23 0.205717 326.575 0.147535 327.929 0.142245C329.994 0.131664 332.059 0.1211 334.124 0.15813C337.814 0.22161 341.487 0.269211 345.177 0.115801C346.776 0.0523207 348.401 0.343252 350.017 0.195132C352.167 -0.00059882 354.333 0.110513 356.474 0.184574C359.606 0.295664 362.373 1.1156 364.726 2.41694C365.877 3.05175 366.875 3.77119 367.738 4.56998C368.187 4.9879 368.703 5.38465 369.27 5.73379C370.641 6.5802 372.181 6.51142 373.425 5.55921C373.992 5.12543 374.483 4.64933 375.017 4.19968C377.302 2.2794 380.534 2.05724 383.403 3.59134C385.553 4.73928 386.991 6.07764 386.898 7.94502C386.864 8.65917 387.279 8.85489 388.337 8.89192C388.608 8.9025 388.879 8.89194 389.149 8.88665C392.501 8.75969 393.432 9.76477 394.261 11.2407C394.498 11.6639 394.659 12.1083 394.777 12.5473C394.896 12.9917 394.921 13.4413 394.98 13.891H394.997Z" fill="#D15454"/>
<path d="M269.906 25.0633C265.506 25.0633 261.105 25.0527 256.705 25.0633C254.276 25.0739 251.855 25.1532 249.426 25.1479C241.971 25.1268 234.507 25.0633 227.051 25.058C222.379 25.058 217.699 25.2326 213.036 25.1321C207.908 25.021 202.788 25.1109 197.659 25.0898C193.529 25.0686 189.391 25.148 185.261 25.1638C183.56 25.1691 181.859 25.1109 180.158 25.1056C175.664 25.0844 171.171 25.0633 166.685 25.0633C163.808 25.0633 160.939 25.1109 158.062 25.1109C154.287 25.1109 150.513 25.0845 146.739 25.0845C140.713 25.0845 134.687 25.1056 128.662 25.1056C122.01 25.1056 115.367 25.0951 108.715 25.0898C104.399 25.0898 100.091 25.1056 95.7751 25.0951C94.3364 25.0951 92.9148 25.021 91.4846 24.9046C89.5381 24.7459 87.5409 24.7141 85.5691 24.7353C81.8962 24.7723 78.2148 24.7512 74.542 24.8834C70.6914 25.021 66.807 24.8993 62.9394 24.9046C58.2595 24.9152 53.5879 24.9575 48.908 24.9469C46.1237 24.9416 43.3394 24.8834 40.5635 24.8094C38.981 24.7671 38.8458 24.6877 38.8288 23.7302C38.795 21.593 38.8373 19.4559 38.8288 17.3187C38.8119 13.1555 38.7865 8.99222 38.7695 4.82898C38.7695 4.37933 38.7948 3.92968 38.8625 3.48003C38.9641 2.87168 39.2011 2.69181 40.2421 2.68123C41.9431 2.66536 43.6357 2.35326 45.3452 2.61776C48.9334 2.34268 52.5216 2.6019 56.1099 2.59661C60.6967 2.58603 65.2836 2.59659 69.8705 2.61246C76.4292 2.62833 82.9963 2.64951 89.555 2.66538C89.7328 2.66538 89.9188 2.67596 90.0966 2.66538C96.5368 2.06761 103.028 2.36383 109.494 2.34796C124.879 2.30035 140.273 2.32681 155.658 2.32681C164.57 2.32681 173.473 2.35326 182.384 2.35326C192.463 2.35326 202.534 2.32152 212.613 2.32152C223.682 2.32152 234.752 2.35326 245.821 2.35326C253.827 2.35326 261.842 2.32151 269.847 2.31622C280.282 2.30564 290.717 2.31622 301.151 2.31093C306.906 2.31093 312.669 2.31095 318.424 2.30566C326.244 2.29508 334.063 2.27393 341.883 2.27393C346.199 2.27393 350.507 2.29508 354.823 2.30566C355.271 2.30566 355.728 2.28977 356.168 2.31622C357.201 2.36912 357.548 2.5966 357.641 3.2843C357.683 3.61758 357.683 3.96141 357.683 4.29468C357.683 10.5951 357.683 16.9008 357.683 23.2012C357.683 23.4287 357.683 23.6509 357.675 23.8783C357.59 25.0686 357.378 25.222 355.424 25.2273C347.24 25.2485 339.056 25.2537 330.873 25.2537C325.025 25.2537 319.177 25.2378 313.338 25.2378C305.425 25.2378 297.504 25.2484 289.591 25.2378C284.293 25.2273 278.996 25.185 273.698 25.1585C272.437 25.1532 271.184 25.1585 269.923 25.1585C269.923 25.1321 269.923 25.1109 269.923 25.0845L269.906 25.0633Z" fill="#26AC94"/>
<path d="M36.1235 13.7057C36.1235 16.7421 36.1319 19.7839 36.115 22.8204C36.115 23.2541 36.3606 23.8043 35.6666 24.0688C34.8119 24.3968 34.1602 23.8995 33.5255 23.6298C32.2476 23.0743 31.3421 22.2914 30.5127 21.4926C29.8695 20.8736 29.1079 20.3235 28.2363 19.8368C25.8836 18.5196 22.3798 18.636 20.2811 20.1172C19.5702 20.6197 18.9778 21.191 18.3939 21.7571C17.0483 23.0584 15.1019 22.741 13.8579 21.9316C12.6985 21.1805 11.869 20.3711 11.869 19.2602C11.886 17.2341 11.7507 15.2133 11.7422 13.1872C11.7422 11.4997 11.8775 9.81224 11.8775 8.12472C11.8775 6.72816 13.1384 5.81825 14.7887 5.06178C15.8973 4.55394 16.9976 4.65445 17.8947 5.32099C18.5294 5.7918 19.0708 6.31553 19.604 6.83396C21.0596 8.25168 23.2347 8.56907 25.7143 8.44211C26.4591 8.40508 27.0767 8.18289 27.6606 7.90252C28.82 7.35236 29.7426 6.67523 30.5466 5.91347C31.4944 5.01945 32.5437 4.17307 34.0162 3.58588C34.3209 3.46421 34.6426 3.36368 34.9642 3.26846C35.4127 3.1415 35.9628 3.28963 36.0051 3.57529C36.0728 4.01965 36.1065 4.47461 36.115 4.91897C36.1235 7.84435 36.115 10.7697 36.115 13.6951L36.1235 13.7057Z" fill="#1A1A1A"/>
<path d="M359.632 13.5686C359.632 10.5903 359.624 7.61199 359.641 4.63371C359.641 4.15761 359.311 3.51224 360.216 3.29006C361.029 3.08904 361.714 3.581 362.332 3.88253C363.474 4.43799 364.38 5.14686 365.15 5.90862C365.827 6.58574 366.724 7.12533 367.587 7.69665C369.618 9.02973 374.265 8.49543 375.593 7.25757C376.194 6.69683 376.786 6.13079 377.446 5.60179C378.741 4.55966 379.943 4.49087 381.543 5.35314C382.888 6.07787 383.819 6.93486 383.836 8.09866C383.853 8.99796 383.997 9.89199 383.997 10.7913C383.997 13.2617 383.963 15.7375 383.921 18.2079C383.912 18.7686 383.844 19.3347 383.717 19.8901C383.463 21.0381 382.287 21.8104 380.823 22.4082C379.731 22.8525 378.555 22.6938 377.709 22.0432C377.091 21.5671 376.549 21.0434 376.008 20.5249C374.738 19.3135 372.817 18.9538 370.659 18.922C369.618 18.9062 368.738 19.1707 367.96 19.5833C366.86 20.1705 365.903 20.8317 365.099 21.5882C364.202 22.4293 363.204 23.2334 361.824 23.7941C361.452 23.9422 361.037 24.0639 360.622 24.1486C360.225 24.2226 359.869 24.0851 359.818 23.8418C359.717 23.3445 359.666 22.8367 359.666 22.3341C359.649 19.414 359.666 16.4886 359.666 13.5686H359.658H359.632Z" fill="#1A1A1A"/>
</svg>
