<svg width="78" height="228" viewBox="0 0 78 228" fill="none" xmlns="http://www.w3.org/2000/svg">
<path d="M75.794 70.4333C75.0103 69.8725 74.2057 69.4069 73.2443 69.2535C72.9309 69.2059 72.5599 69.2747 72.3196 68.8885C72.3561 68.7033 72.4032 68.4863 72.4397 68.2694C72.7219 66.4917 72.2465 65.0209 70.6582 64.0844C70.0678 63.7352 69.8118 63.2802 69.676 62.6294C69.42 61.439 68.678 60.6454 67.5338 60.2539C67.0584 60.0899 66.5882 59.9153 66.1023 59.8095C65.5119 59.6825 65.2611 59.3597 65.282 58.7513C65.3186 57.6455 64.9581 56.6562 64.3834 55.7303C63.9132 54.9737 63.2862 54.5028 62.4241 54.2912C61.1128 53.9685 59.9006 54.0955 58.7617 54.8785C58.3855 55.1377 58.1504 55.016 58.0459 54.5505C57.6332 52.6405 56.5151 51.4712 54.5976 51.1538C54.117 51.0744 53.8192 50.831 53.5632 50.413C52.9728 49.4501 52.0428 48.9369 50.9875 48.6935C49.8119 48.4237 48.6782 48.5771 47.5967 49.1644C46.9593 49.5083 46.8913 49.4713 46.5935 48.8258C45.7784 47.0746 44.4148 45.9794 42.5967 45.5508C41.6667 45.3286 41.4837 45.1435 41.4837 44.2229C41.4837 43.9424 41.4107 43.6621 41.4159 43.3816C41.4316 42.4029 41.0763 41.6251 40.2613 41.0907C39.7858 40.7785 39.6343 40.3394 39.6396 39.7998C39.65 37.6623 39.6551 35.5248 39.6604 33.3874C39.6604 33.0329 39.7439 32.7154 40.0522 32.5091C40.9926 31.8848 41.6981 30.9959 42.4974 30.2234C46.7085 26.139 50.9038 22.0386 55.0992 17.9383C58.2549 14.8537 61.3688 11.7163 64.5663 8.67941C66.677 6.6795 68.793 4.69015 70.7992 2.58443C71.1441 2.21936 71.5255 1.88604 71.7136 1.394C71.8755 0.970739 71.7502 0.526353 71.3792 0.177162C71.0971 -0.0873771 70.815 -0.0556686 70.3343 0.272359C69.2737 1.00249 68.3489 1.88076 67.4346 2.78548C65.6426 4.5526 63.7825 6.24036 61.9957 8.01277C60.4492 9.54709 59.0333 11.219 57.445 12.7057C53.5266 16.3722 49.723 20.1551 45.6687 23.6735C43.5632 25.4988 41.4576 27.34 39.5402 29.3822C39.3469 29.5833 39.1379 29.7738 38.9237 29.9484C38.5319 30.2658 38.3072 30.2605 37.8893 29.9166C37.675 29.742 37.4609 29.5515 37.2728 29.3505C35.533 27.4458 33.5476 25.811 31.6668 24.065C30.0262 22.5466 28.2603 21.1762 26.6667 19.5996C25.1934 18.1446 23.6939 16.7267 22.1683 15.3299C20.1881 13.5205 18.3073 11.6052 16.4578 9.65819C15.3031 8.44131 14.1171 7.25618 12.9207 6.08692C11.3637 4.56317 9.77023 3.07649 8.21851 1.54745C7.76397 1.10303 7.19973 0.875528 6.67727 0.558082C6.31154 0.335869 5.75771 0.531615 5.48603 0.875516C5.2666 1.15064 5.29792 1.56335 5.58527 1.96545C5.71589 2.14533 5.86744 2.31462 6.01896 2.47864C9.96356 6.83294 14.0074 11.0867 18.3752 15.0125C19.953 16.4304 21.4211 17.97 22.931 19.462C23.5267 20.0493 24.0596 20.7159 24.6918 21.2503C27.0377 23.2396 29.3522 25.2501 31.5309 27.4247C31.6876 27.5834 31.8496 27.7421 32.0272 27.8744C33.6991 29.1018 35.1411 30.5885 36.6876 31.9588C37.4086 32.599 37.8214 33.2656 37.8057 34.2656C37.7744 36.0644 37.79 37.8633 37.8736 39.6569C37.9101 40.387 37.7116 40.8315 37.0637 41.1225C36.0083 41.5986 35.6897 42.5298 35.6479 43.5985C35.6322 43.9371 35.6688 44.2705 35.6792 44.6091C35.7054 45.3022 35.7106 45.3181 35.0262 45.5508C33.2655 46.1593 31.8809 47.2016 31.1234 48.9793C31.0607 49.1221 30.9143 49.228 30.8203 49.3338C30.3083 49.3549 29.9635 49.0269 29.556 48.8682C27.6908 48.1169 25.1359 48.8205 24.206 50.4395C23.9134 50.9474 23.511 51.0956 22.9938 51.1855C21.4212 51.4554 20.4546 52.4659 19.8643 53.9102C19.718 54.2647 19.7911 54.7092 19.4201 54.9896C19.2738 54.942 19.1119 54.9155 18.9656 54.8414C18.7671 54.7462 18.5842 54.6033 18.3856 54.5081C16.254 53.5081 14.091 54.27 13.0461 56.3705C12.7378 56.9842 12.5602 57.635 12.5654 58.3175C12.5759 59.709 12.4191 59.5873 11.3324 59.8888C11.0659 59.9629 10.7994 60.0422 10.533 60.1216C9.20071 60.5343 8.31251 61.402 8.04083 62.7988C7.92066 63.4178 7.6125 63.7776 7.09526 64.0739C5.73163 64.8463 5.26143 66.1108 5.2771 67.6187C5.2771 67.788 5.2979 67.9572 5.30835 68.1213C5.37105 69.0418 5.37629 69.0736 4.41496 69.2641C3.33868 69.4757 2.44535 70.0154 1.62508 70.7085C-0.443875 72.4597 -0.553695 75.5125 1.38987 77.4119C1.6302 77.6447 1.90711 77.8352 2.17357 78.0362C2.66468 78.4101 2.76399 78.8422 2.47141 79.3324C2.35646 79.5229 2.22589 79.7081 2.1214 79.9091C1.28023 81.5545 1.5885 83.1153 3.05663 84.2581C4.84345 85.6496 6.83401 85.7607 8.89774 85.0147C9.46722 84.8084 9.98963 84.4592 10.533 84.1788C11.8862 83.4857 13.3125 83.3111 14.7336 83.8243C16.4734 84.4539 18.2185 84.4222 19.9896 84.1047C21.2488 83.8772 22.4974 83.6021 23.7618 83.4222C25.5277 83.1682 27.3251 82.9989 29.0387 83.6127C30.5016 84.1364 31.8914 84.8719 33.0669 85.9353C33.9394 86.7183 34.8276 87.4908 35.6479 88.332C36.0449 88.7394 36.9018 89.0251 36.6354 89.6917C36.4369 90.1944 35.6269 89.988 35.094 90.0145C33.8506 90.078 32.6698 90.3266 31.6092 91.0197C30.6688 91.6335 29.7962 92.3424 29.0857 93.2101C27.1055 95.6386 26.745 98.448 27.7795 101.305C28.7043 103.86 30.6113 105.569 33.302 106.247C34.2215 106.479 35.1464 106.633 36.0972 106.659C36.5622 106.675 36.7346 106.855 36.6823 107.289C36.5308 108.448 36.5883 109.537 37.4346 110.447C37.6018 110.627 37.5705 110.871 37.4713 111.082C37.3302 111.389 37.1526 111.675 37.022 111.987C35.9457 114.463 35.8046 116.881 37.5079 119.161C37.8475 119.616 37.8736 119.987 37.5131 120.505C36.6667 121.743 36.7451 122.722 37.6489 123.886C37.8527 124.151 38.1087 124.373 38.3334 124.621C38.5633 124.87 38.5267 125.129 38.3125 125.367C38.1244 125.574 37.9415 125.785 37.7325 125.971C34.7962 128.563 32.2623 131.568 29.4097 134.251C29.2477 134.404 29.1066 134.584 28.9394 134.732C28.1348 135.441 28.0983 136.266 28.5894 137.161C28.9708 137.848 29.326 138.552 29.7649 139.198C30.8987 140.869 31.9383 142.6 32.8683 144.393C34.1327 146.832 35.4023 149.271 36.8234 151.626C37.4608 152.684 38.1243 153.721 38.7408 154.795C39.1483 155.504 39.1013 155.678 38.3803 156.123C37.2518 156.816 36.7712 157.779 37.0011 159.107C37.0481 159.377 37.1369 159.689 37.0533 159.927C36.5256 161.387 36.5674 162.921 36.4316 164.424C36.1442 167.614 35.8987 170.815 35.7158 174.016C35.5016 177.667 35.4024 181.323 35.1934 184.968C35.068 187.158 34.8538 189.338 34.6605 191.523C34.4463 193.931 34.2216 196.338 33.9812 198.745C33.7357 201.205 33.4849 203.666 33.1818 206.121C33.0878 206.904 32.9781 207.676 32.9781 208.464C32.9781 209.306 32.9468 210.157 32.4557 210.903C30.9719 213.157 30.1411 215.617 30.068 218.342C30.0471 219.183 29.8956 220.019 29.8172 220.861C29.7754 221.31 29.7335 221.76 29.7335 222.21C29.7335 223.231 29.8328 223.337 30.8046 223.522C31.2957 223.612 31.7869 223.707 32.2623 223.861C32.8579 224.046 33.464 224.083 34.0752 224.088C34.697 224.093 35.2769 223.85 35.8151 223.554C36.3219 223.273 36.2591 222.686 36.3845 222.21C36.3949 222.173 36.4734 222.152 36.5726 222.093C36.6928 223.342 36.8756 224.569 36.9122 225.797C36.9435 226.818 37.6071 227.553 38.6468 227.559C39.7492 227.559 40.8516 227.569 41.9645 227.585C43.1609 227.601 43.4588 227.21 43.5423 226.061C43.5685 225.67 43.5945 225.273 43.6102 224.882C43.6363 224.099 43.7827 223.67 44.7022 223.972C44.9112 224.04 45.1358 224.088 45.3553 224.088C46.7032 224.12 47.9624 223.601 49.2738 223.39C49.5193 223.347 49.6238 223.104 49.6447 222.882C49.6865 222.437 49.7283 221.982 49.6918 221.538C49.5977 220.247 49.4096 218.967 49.3573 217.676C49.2789 215.776 48.8506 213.993 47.8527 212.385C46.9436 210.919 46.3271 209.406 46.5465 207.628C46.5779 207.359 46.4733 207.073 46.4367 206.792C46.1702 204.618 45.8517 202.443 45.6479 200.264C45.2404 195.899 44.9268 191.518 44.4984 187.153C44.3155 185.301 44.4358 183.434 44.1954 181.593C43.9133 179.407 43.976 177.212 43.7879 175.027C43.5476 172.228 43.4797 169.413 43.2811 166.609C43.1505 164.757 42.9206 162.916 42.722 161.075C42.6541 160.456 42.6645 159.847 42.7847 159.228C43.0093 158.027 42.6489 157.022 41.7294 156.207C41.0084 155.567 41.0135 155.535 41.4733 154.673C41.7868 154.081 42.1212 153.493 42.4765 152.922C44.0543 150.403 45.4806 147.795 46.839 145.144C47.9414 142.996 49.1274 140.901 50.5276 138.928C51.0449 138.192 51.4472 137.388 51.7659 136.542C51.9645 136.018 51.8966 135.536 51.5204 135.134C50.9509 134.52 50.3761 133.907 49.7753 133.325C47.0794 130.727 44.629 127.875 41.7868 125.42C41.2748 124.981 41.3114 124.838 41.792 124.352C43.0669 123.055 43.2392 122.219 42.3876 120.611C42.0375 119.939 42.1108 119.415 42.3407 118.717C43.1818 116.14 43.4587 113.548 41.8756 111.104C41.698 110.828 41.7189 110.553 41.9279 110.336C42.5496 109.68 42.7743 108.897 42.7064 108.014C42.5966 106.553 42.9049 106.755 43.8924 106.426C44.1013 106.358 44.326 106.321 44.5402 106.268C46.7868 105.755 48.3751 104.368 49.6238 102.458C51.2486 99.9717 51.0031 95.3 48.5684 92.9033C48.0929 92.4324 47.5914 91.9827 47.0742 91.5594C45.9143 90.6177 44.6029 90.0727 43.093 90.0463C42.4817 90.0357 41.8756 89.9669 41.2643 89.9087C41.1703 89.8981 41.0606 89.8135 41.0031 89.7288C40.8986 89.5701 40.9665 89.4007 41.0919 89.2896C42.4033 88.0781 43.7147 86.8612 45.047 85.6655C46.0606 84.7555 47.3198 84.2687 48.511 83.6761C49.0648 83.401 49.676 83.3058 50.2925 83.2846C51.7398 83.2317 53.1765 83.2105 54.6081 83.528C55.7471 83.7819 56.8965 83.983 58.0512 84.1629C59.7126 84.4222 61.3531 84.4433 62.9832 83.8508C64.467 83.3111 65.9403 83.4751 67.3352 84.2211C67.8264 84.4856 68.3018 84.7978 68.8191 84.9882C70.8149 85.7395 72.7375 85.639 74.54 84.401C76.4 83.1206 76.3269 81.0943 75.585 79.7927C75.4753 79.597 75.329 79.4276 75.2088 79.2372C74.8326 78.634 74.8484 78.5918 75.4022 78.1632C75.7993 77.8563 76.212 77.5653 76.562 77.2055C77.1158 76.6394 77.5391 75.9728 77.6488 75.158C77.91 73.2269 77.445 71.6026 75.794 70.4228V70.4333ZM38.1662 214.416C37.5444 215.803 37.2884 217.3 36.8182 218.829C36.5987 218.279 36.7398 217.834 36.7973 217.395C37.048 215.411 36.9331 213.464 36.2643 211.57C36.0135 210.861 36.0136 210.142 36.0815 209.406C36.6145 203.697 37.1265 197.983 37.6594 192.275C37.7587 191.222 37.9154 190.169 38.0408 189.116C38.1296 189.127 38.2184 189.137 38.302 189.148C38.302 189.534 38.302 189.925 38.302 190.312C38.2968 196.666 38.2863 203.025 38.2863 209.38C38.2863 210.56 38.3282 211.739 38.3177 212.924C38.3177 213.427 38.3543 213.988 38.1609 214.422L38.1662 214.416ZM41.5204 191.687C41.9174 191.851 41.8704 192.238 41.8965 192.544C42.163 195.454 42.4085 198.37 42.6697 201.279C42.9101 203.967 43.14 206.655 43.4013 209.337C43.4901 210.247 43.4274 211.115 43.1244 211.988C42.743 213.088 42.6854 214.268 42.5339 215.517C41.8233 214.866 41.5779 214.163 41.5726 213.348C41.5622 211.946 41.5883 210.544 41.5308 209.142C41.3479 204.814 41.3531 200.486 41.3636 196.158C41.3636 194.92 41.3479 193.682 41.3636 192.449C41.3636 192.195 41.2905 191.904 41.5256 191.687H41.5204Z" fill="#D15454"/>
<path d="M42.5391 227.246C42.7846 227.231 43.0303 227.22 43.2758 227.204C43.0459 227.511 42.7951 227.389 42.5391 227.246Z" fill="#D15454"/>
<path d="M50.3036 136.261C50.2566 136.409 50.22 136.637 50.1155 136.827C49.8229 137.367 49.5407 137.922 49.1907 138.425C47.7539 140.504 46.5471 142.711 45.382 144.949C43.9348 147.732 42.43 150.483 40.6902 153.096C40.5961 153.234 40.5179 153.382 40.4186 153.52C40.2253 153.784 39.9013 153.816 39.7185 153.583C39.5513 153.361 39.4051 153.123 39.2483 152.89C37.5608 150.308 36.0822 147.61 34.6611 144.875C33.5221 142.689 32.3465 140.526 30.9411 138.494C30.5597 137.944 30.2619 137.335 29.9327 136.753C29.6715 136.298 29.7604 135.891 30.1052 135.526C30.4135 135.203 30.7059 134.864 31.0403 134.568C32.6181 133.145 34.0654 131.595 35.4969 130.023C36.5941 128.822 37.8115 127.764 39.0288 126.695C40.011 125.833 40.0319 125.849 41.1134 126.732C42.6704 128.008 44.0445 129.473 45.4447 130.917C46.8031 132.32 48.1981 133.69 49.567 135.081C49.8752 135.399 50.22 135.7 50.3036 136.256V136.261Z" fill="#EBCE74"/>
<path d="M52.8714 65.8936C52.9811 67.1475 52.5109 68.2374 51.5443 69.1209C50.9278 69.6871 50.3532 70.3061 49.7001 70.8193C48.2843 71.941 47.0616 73.2372 46.1838 74.8244C45.6823 75.7291 44.9874 76.2582 43.9843 76.4328C43.3521 76.5387 43.2268 76.528 43.0335 75.8561C42.5215 74.0414 41.4242 72.6764 39.9352 71.5971C39.0156 70.9357 38.7387 70.9251 37.8506 71.5706C36.3668 72.6499 35.2852 74.0308 34.7053 75.8085C34.4493 76.5915 34.4024 76.5598 33.6291 76.3958C32.8245 76.2265 32.1871 75.8561 31.7691 75.1154C30.7399 73.2795 29.3031 71.8192 27.6834 70.5018C26.952 69.9093 26.2571 69.2374 25.6719 68.4967C24.3553 66.8354 24.6688 63.9836 26.2362 62.6979C27.4483 61.7033 29.4442 61.5816 30.7451 62.4705C31.4766 62.9731 32.1609 63.5498 32.861 64.0947C33.3887 64.5074 33.9687 64.3434 34.1411 63.6979C34.2456 63.3223 34.2665 62.9255 34.3239 62.534C34.8255 59.1373 38.1065 58.2326 40.1703 58.8516C41.9884 59.3966 43.1014 60.5922 43.4044 62.5181C43.4671 62.9043 43.5298 63.2958 43.6343 63.6715C43.8276 64.3646 44.3709 64.5551 44.8829 64.0789C45.4994 63.5075 46.1995 63.0577 46.8787 62.571C48.1379 61.6557 49.5172 61.6504 50.8234 62.2588C52.2497 62.9202 52.955 64.1794 52.8662 65.8936H52.8714Z" fill="#26AC94"/>
<path d="M38.9241 91.385C40.1415 91.385 41.364 91.3374 42.5814 91.3956C46.2856 91.5649 50.131 94.9669 49.1383 99.9455C48.6733 102.273 47.106 103.903 44.8594 104.734C43.9712 105.062 43.0359 105.205 42.0798 105.205C39.9168 105.205 37.7486 105.242 35.5856 105.194C33.0308 105.136 31.0558 104.046 29.5616 101.877C28.1875 99.8767 28.501 96.2472 29.8019 94.5436C31.3954 92.459 33.4174 91.2739 36.0924 91.3956C37.0328 91.438 37.9784 91.4009 38.9189 91.4009C38.9189 91.3956 38.9189 91.3903 38.9189 91.385H38.9241Z" fill="#26AC94"/>
<path d="M27.9493 49.9741C28.7853 49.9212 29.4488 50.3391 30.081 50.8047C30.4363 51.0692 30.7393 51.4079 31.0998 51.6777C31.6484 52.0904 32.1813 51.8417 32.3015 51.1327C32.3381 50.9105 32.3432 50.683 32.3641 50.4608C32.5522 48.5932 33.5919 47.3551 35.3578 46.8948C36.293 46.6514 41.5961 46.6568 42.4895 46.916C43.4248 47.1858 44.1719 47.7731 44.8302 48.4715C45.2377 48.9054 45.3265 49.4609 45.3526 50.0323C45.3788 50.5349 45.3422 51.0481 45.6034 51.5137C45.7758 51.8206 46.1728 51.9898 46.4497 51.7941C46.8573 51.5031 47.223 51.1592 47.6148 50.8524C48.4351 50.2122 49.3233 49.8206 50.3996 50.0111C51.711 50.2386 52.4373 51.1751 52.3014 52.5242C52.2231 53.3337 51.873 54.0321 51.361 54.6458C50.5721 55.5929 49.7779 56.5346 48.9837 57.4711C48.3672 58.2012 47.7768 58.942 47.4007 59.8361C46.9618 60.8784 45.9691 60.963 45.06 61.1641C44.9555 61.1853 44.7727 61.0159 44.6891 60.8943C44.5637 60.7144 44.4905 60.4921 44.3913 60.2911C43.7643 59.0319 42.7977 58.2065 41.5072 57.6351C39.7622 56.868 38.1217 56.8415 36.3558 57.5928C34.9922 58.1748 33.963 59.016 33.3726 60.3599C32.9024 61.418 32.7455 61.2276 31.8417 60.9524C31.1259 60.7355 30.5616 60.3916 30.2534 59.6086C29.7936 58.4446 28.8898 57.5663 28.1009 56.6246C27.5262 55.9368 26.9462 55.2542 26.3715 54.5664C26.0476 54.1749 25.8125 53.7358 25.6401 53.2543C24.9557 51.3444 26.1573 49.9053 27.9598 49.9635L27.9493 49.9741Z" fill="#26AC94"/>
<path d="M64.2079 61.1213C65.1588 61.0472 66.0888 61.0948 66.977 61.5075C68.5757 62.2535 68.8996 64.1265 67.6196 65.3645C67.2121 65.7613 66.721 66.0206 66.1985 66.2163C65.4723 66.4914 64.7409 66.756 64.0147 67.0364C63.6019 67.1951 63.1525 67.3115 62.792 67.5549C61.9143 68.1369 61.2561 68.0999 60.4985 67.2533C59.7252 66.391 58.5705 66.1793 57.442 66.1105C56.6688 66.0629 55.8903 66.1105 55.1118 66.1052C54.7252 66.1052 54.4901 65.883 54.4274 65.5074C54.3699 65.174 54.3647 64.8354 54.3177 64.5021C54.0094 62.444 52.3062 60.6875 50.2791 60.3383C49.9551 60.2801 49.6208 60.2483 49.3073 60.1531C49.1506 60.1108 49.0251 59.9309 49.1087 59.751C49.2446 59.4494 49.3856 59.132 49.5894 58.878C50.1536 58.1849 50.7388 57.5077 51.3397 56.8464C52.3898 55.6877 53.5288 54.6031 53.8214 52.9471C53.8893 52.5714 54.2603 52.4656 54.6103 52.4709C55.8067 52.4868 56.7211 53.2857 56.8726 54.5078C56.9667 55.2856 56.9353 56.0792 56.9875 56.8623C57.0346 57.5183 57.4734 57.7352 58.0272 57.3649C58.393 57.1162 58.7116 56.7988 59.0512 56.513C59.349 56.2644 59.6312 55.9787 59.9656 55.7935C60.8642 55.2962 62.254 55.4179 62.8809 56.1797C63.7221 57.2061 63.9153 58.1849 63.2936 59.2642C63.0689 59.6505 62.7711 59.9838 62.5308 60.3647C62.327 60.6875 62.5205 61.0948 62.8862 61.116C63.325 61.1425 63.769 61.1213 64.2131 61.1213H64.2079Z" fill="#D15454"/>
<path d="M13.7626 61.1002C13.9925 61.1002 14.4313 61.1214 14.8754 61.0949C15.2359 61.0738 15.4291 60.661 15.2306 60.3383C15.0268 60.005 14.7605 59.714 14.5515 59.386C13.7887 58.1744 13.9454 57.111 15.0269 56.0634C15.8106 55.3015 17.1011 55.2486 18.0886 55.9681C18.3603 56.1639 18.5797 56.4231 18.8357 56.6401C19.1335 56.894 19.4208 57.1586 19.75 57.3702C20.309 57.73 20.7532 57.5289 20.8211 56.8887C20.8629 56.4972 20.8576 56.1004 20.8732 55.7089C20.8889 55.3174 20.936 54.9206 20.9255 54.529C20.9046 53.6561 21.7301 52.7355 22.6705 52.5291C23.4437 52.3598 23.8043 52.5133 24.008 53.3016C24.1961 54.037 24.5723 54.6508 25.0268 55.2169C25.5493 55.8729 26.1241 56.4866 26.6726 57.1162C27.1847 57.7088 27.7332 58.2749 28.2034 58.8992C28.7886 59.6717 29.1386 60.2008 27.6862 60.3436C25.5598 60.5552 23.9505 62.1795 23.4594 64.3011C23.3236 64.8778 23.5796 65.6344 22.9526 65.9942C22.4615 66.2799 21.8607 66.0259 21.3122 66.0577C20.9778 66.0788 20.6433 66.0682 20.3142 66.0947C19.008 66.2058 17.796 66.5603 16.8974 67.6078C16.5003 68.0681 16.0823 68.1158 15.5755 67.8248C14.4574 67.1793 13.2035 66.8671 12.0227 66.3804C11.4585 66.1476 10.8941 65.8883 10.3926 65.555C9.70293 65.0947 9.34766 64.3964 9.34766 63.5498C9.34766 62.6927 9.69257 62.0525 10.4815 61.6504C11.4585 61.1478 12.4878 61.0209 13.773 61.1002H13.7626Z" fill="#D15454"/>
<path d="M12.0399 82.1314C10.786 82.5547 9.73057 83.0467 8.70654 83.5969C7.72953 84.1207 6.67943 84.1472 5.62405 84.0202C4.94485 83.9409 4.35974 83.6022 3.84773 83.1578C2.67741 82.1473 2.76616 80.6236 4.0462 79.7506C4.27086 79.5972 4.53728 79.4913 4.79329 79.3802C5.21649 79.195 5.61882 78.9781 5.61882 78.4384C5.61882 77.7665 5.0598 77.6871 4.58958 77.5284C3.90516 77.3009 3.20504 77.1157 2.61466 76.666C1.23013 75.6237 0.94275 73.4916 2.07127 72.1795C2.8184 71.3118 3.74837 70.6981 4.92914 70.6187C5.53519 70.5764 6.14648 70.5975 6.75776 70.5922C7.45264 70.5816 7.60944 70.37 7.21236 69.8409C6.53838 68.9468 6.55927 67.9521 6.67944 66.9469C6.72646 66.5765 6.90414 66.1903 7.11313 65.8728C7.57812 65.1586 8.09535 65.1427 8.67529 65.8305C9.34404 66.6241 10.1643 67.1638 11.1204 67.5183C11.9511 67.8252 12.7871 68.1373 13.6125 68.4706C14.0775 68.6558 14.5268 68.8727 14.9761 69.0897C15.6867 69.4389 16.0629 69.9838 16.0472 70.8251C16.0367 71.4388 16.1726 72.0525 16.2092 72.6662C16.2249 72.8937 16.11 73.1001 15.8644 73.1794C15.7077 73.2323 15.5456 73.2694 15.3836 73.317C15.0649 73.4069 14.7306 73.4704 14.4224 73.5974C11.1361 74.9307 10.1433 77.1316 11.3293 80.5971C11.4913 81.068 11.7474 81.5018 12.0452 82.1367L12.0399 82.1314Z" fill="#26AC94"/>
<path d="M71.6609 70.5707C72.9932 70.4702 74.1844 70.8035 75.2189 71.6923C76.9535 73.1843 76.7184 75.8297 74.7174 76.9249C74.3307 77.1365 73.897 77.2582 73.4791 77.417C73.1656 77.5334 72.8365 77.6127 72.5387 77.7503C71.9588 78.0201 71.9117 78.7449 72.4603 79.0994C72.8312 79.3375 73.2701 79.4698 73.6463 79.7026C74.3725 80.1417 74.7278 80.7925 74.6912 81.6708C74.6651 82.3533 74.3412 82.8453 73.8344 83.2368C72.523 84.2474 71.0496 84.332 69.5658 83.7976C68.3641 83.3638 67.22 82.7818 66.0601 82.2474C65.8354 82.1416 65.7936 81.9088 65.9033 81.676C66.0496 81.3744 66.2064 81.0782 66.3527 80.7713C66.8177 79.7819 66.9483 78.7343 66.9118 77.6497C66.8804 76.8244 66.593 76.1207 66.0601 75.507C65.2764 74.6023 64.3516 73.9039 63.1918 73.5653C62.7633 73.4383 62.3297 73.3536 61.9065 73.2214C61.6871 73.1526 61.5199 72.9939 61.5408 72.7294C61.5931 71.9463 61.6558 71.1632 61.7133 70.3749C61.7446 69.9464 61.964 69.6237 62.3141 69.4173C62.8365 69.1052 63.3747 68.7983 63.9338 68.5602C64.6495 68.2534 65.3862 67.9994 66.1176 67.7401C67.3454 67.3063 68.453 66.719 69.2576 65.6291C69.5868 65.1794 69.9681 65.2165 70.3861 65.5974C70.7257 65.9096 70.9608 66.2852 71.0444 66.7402C71.2534 67.8777 71.2848 68.9782 70.4489 69.9252C70.3496 70.0363 70.2608 70.2321 70.2921 70.3644C70.3496 70.6342 70.6108 70.6289 70.8355 70.6183C71.1124 70.6078 71.3892 70.5918 71.6661 70.5813L71.6609 70.5707Z" fill="#26AC94"/>
<path d="M27.1277 81.4644C26.9605 81.512 26.856 81.5702 26.7515 81.5649C24.3429 81.4855 22.0127 82.0569 19.6721 82.4908C18.6794 82.6759 17.6815 82.7341 16.6888 82.6283C14.2542 82.3691 12.5144 80.4802 12.5039 78.1735C12.5039 77.3322 12.786 76.6762 13.4287 76.1154C14.3064 75.3482 15.2625 74.8773 16.4433 74.8879C16.9971 74.8932 17.5509 74.8667 18.1047 74.8085C18.5174 74.7662 18.831 74.5176 18.9459 74.0996C19.0452 73.7504 18.9459 73.4224 18.6429 73.2055C17.3001 72.2373 17.5823 70.8246 17.7442 69.5125C17.8592 68.6025 18.5436 68.0628 19.4422 67.8776C20.32 67.6978 21.2082 67.6555 22.0912 67.7771C22.7495 67.8671 23.4287 68.0575 23.8258 68.666C24.9177 70.3326 26.4485 71.5494 27.927 72.8192C28.6533 73.4435 29.2803 74.1472 29.7766 74.9673C30.0953 75.4858 29.9281 75.7715 29.2855 75.8191C28.622 75.8667 27.9532 75.872 27.2897 75.9355C26.3962 76.0254 25.5446 76.2794 24.8132 76.8349C23.9407 77.4963 23.8832 78.3428 24.6983 79.1046C25.3513 79.7131 26.0618 80.258 26.7463 80.8294C26.9135 80.967 27.1224 81.0729 27.1277 81.475V81.4644Z" fill="#26AC94"/>
<path d="M60.0169 82.697C59.5206 82.6494 59.019 82.6388 58.5278 82.5542C56.0723 82.1468 53.6428 81.496 51.1246 81.5648C50.9678 81.5648 50.7484 81.5331 50.7432 81.3267C50.738 81.1892 50.8215 81.004 50.926 80.9088C51.2081 80.6442 51.532 80.4167 51.8298 80.168C52.2948 79.7712 52.786 79.3903 53.204 78.9459C53.8309 78.2846 53.7525 77.4592 53.042 76.8984C52.2739 76.2952 51.3701 76.0254 50.4192 75.9301C49.8131 75.8666 49.2019 75.8666 48.5906 75.8137C47.786 75.745 47.6502 75.4381 48.1256 74.7239C48.6272 73.9779 49.2437 73.3324 49.9176 72.7451C50.7588 72.015 51.5791 71.2584 52.3994 70.5018C52.9323 70.0097 53.4547 69.5071 53.81 68.8564C54.0346 68.4437 54.3847 68.1792 54.8183 68.0257C56.1819 67.539 57.5508 67.6025 58.8831 68.0945C59.6929 68.3961 60.0482 69.1262 60.09 69.9622C60.1214 70.5759 60.0535 71.1949 60.0065 71.8139C59.9594 72.4224 59.5675 72.7927 59.1339 73.1789C58.4808 73.7662 58.7159 74.618 59.578 74.7821C60.1736 74.8932 60.7901 74.8984 61.4014 74.8984C62.5822 74.8984 63.5278 75.4064 64.3951 76.1682C65.1422 76.8243 65.3773 77.6232 65.2728 78.5808C65.0377 80.6971 63.2405 82.4219 61.0148 82.6441C60.6856 82.6759 60.3513 82.6441 60.0169 82.6441C60.0169 82.66 60.0169 82.6812 60.0169 82.697Z" fill="#26AC94"/>
<path d="M29.317 77.417C31.177 77.4382 32.9742 77.671 34.5938 78.6921C34.7767 78.8085 34.9909 78.8931 35.2051 78.9513C35.7432 79.0942 36.2343 78.7556 36.2709 78.2106C36.2918 77.9302 36.2606 77.6498 36.2449 77.3694C36.1404 75.7134 36.8875 74.4489 38.0526 73.396C38.6639 72.8458 39.087 72.8299 39.6617 73.3748C40.9313 74.5653 41.8613 75.9197 41.4746 77.8138C41.4537 77.9249 41.4434 78.036 41.4434 78.1471C41.4538 78.6921 41.9293 79.0994 42.4569 78.9724C42.7234 78.909 42.9898 78.7979 43.2197 78.655C44.5886 77.8138 46.0881 77.4752 47.6711 77.4858C48.6116 77.4858 49.5572 77.5228 50.4976 77.5651C50.8215 77.581 51.2135 77.5863 51.365 77.9408C51.5374 78.3429 51.1507 78.5386 50.9156 78.7344C50.2782 79.274 49.6094 79.7819 48.9564 80.3004C47.995 81.0623 47.0337 81.8242 46.0828 82.5967C45.623 82.9723 45.1842 83.2156 44.5782 82.8717C44.0244 82.5596 43.4025 82.6125 42.786 82.6602C42.3524 82.6919 41.924 83.0146 41.4956 82.7501C41.1403 82.5279 41.1507 82.0676 40.9783 81.7237C40.9522 81.6761 40.9366 81.6179 40.9105 81.5702C40.4716 80.7555 39.7766 80.3428 38.878 80.3428C37.9062 80.3428 37.18 80.7925 36.7725 81.7131C36.6836 81.9194 36.6471 82.1469 36.5583 82.3533C36.3545 82.8453 36.2344 82.9352 35.6545 82.803C34.7088 82.586 33.7945 82.5332 32.8906 82.9776C32.5562 83.1469 32.2427 83.0411 31.9658 82.8189C30.1372 81.3533 28.3086 79.8984 26.4956 78.417C26.156 78.1365 26.2501 77.7344 26.6681 77.6815C27.5458 77.5651 28.4288 77.5016 29.3118 77.417H29.317Z" fill="#D15454"/>
<path d="M40.5263 185.285C40.5263 185.841 40.5419 186.179 40.5263 186.513C40.1449 192.639 40.4113 198.766 40.3852 204.898C40.3852 206.02 40.4949 207.147 40.5315 208.268C40.5472 208.655 40.5889 209.067 40.3277 209.406C40.2702 209.485 40.1396 209.549 40.0455 209.549C39.9515 209.549 39.821 209.485 39.7687 209.406C39.5441 209.057 39.5597 208.649 39.5649 208.263C39.5649 206.686 39.5963 205.115 39.6015 203.538C39.6015 198.592 39.5754 193.639 39.6172 188.693C39.6381 185.994 39.8209 183.301 39.868 180.603C39.9359 176.614 39.9098 172.619 39.9986 168.63C40.0456 166.328 40.2337 164.027 40.3643 161.725C40.3643 161.657 40.5053 161.54 40.5627 161.546C40.6463 161.561 40.7666 161.657 40.7823 161.741C40.8345 161.958 40.8501 162.186 40.8606 162.408C40.9233 164.715 40.9232 167.016 40.8187 169.318C40.6881 172.18 40.7039 175.053 40.6464 177.915C40.6151 179.434 40.5681 180.952 40.5367 182.471C40.5158 183.481 40.3852 184.492 40.5367 185.285H40.5263Z" fill="#26AC94"/>
<path d="M38.5925 163.376C38.326 166.524 38.0177 169.884 37.7565 173.249C37.5841 175.434 37.4482 177.624 37.3489 179.815C37.1661 183.809 36.8369 187.783 36.4294 191.761C36.0898 195.063 35.8755 198.375 35.5986 201.681C35.4994 202.856 35.3949 204.036 35.2643 205.21C35.233 205.48 35.1128 205.739 34.9978 205.988C34.9665 206.057 34.8045 206.099 34.7105 206.089C34.6164 206.078 34.4806 205.999 34.4545 205.919C34.3865 205.713 34.3186 205.485 34.3343 205.274C34.3813 204.66 34.4754 204.046 34.5381 203.433C34.9091 199.681 35.2643 195.93 35.6509 192.184C35.9696 189.105 36.116 186.015 36.3563 182.931C36.7377 178.106 37.0198 173.28 37.3437 168.45C37.4952 166.207 37.7199 163.969 37.9185 161.731C37.9394 161.514 38.0229 161.302 38.0908 161.096C38.1012 161.059 38.1796 161.011 38.211 161.017C38.305 161.048 38.4461 161.085 38.4774 161.159C38.7282 161.81 38.5611 162.493 38.5925 163.376Z" fill="#26AC94"/>
<path d="M42.2649 172.191C42.3798 173.127 42.5628 174.064 42.5941 175.006C42.6986 177.868 42.965 180.72 43.2106 183.571C43.3778 185.529 43.383 187.497 43.5972 189.449C43.9211 192.407 44.1615 195.375 44.4541 198.333C44.6788 200.624 44.9399 202.909 45.175 205.2C45.2325 205.756 45.0078 206.184 44.7361 206.11C44.3286 205.999 44.3078 205.634 44.2607 205.311C44.1562 204.533 44.0308 203.756 43.989 202.967C43.7435 198.311 43.1792 193.682 42.7926 189.042C42.3485 183.725 41.8521 178.413 41.9932 173.069C41.9984 172.794 41.9932 172.514 41.9932 172.239C42.082 172.223 42.1708 172.207 42.2597 172.191H42.2649Z" fill="#26AC94"/>
<path d="M41.5978 115.421C41.6501 116.22 41.5403 117.114 41.1955 117.955C40.6992 119.177 39.6072 119.368 38.6929 118.416C38.1286 117.828 37.8151 117.109 37.6897 116.326C37.465 114.95 37.721 113.649 38.3427 112.405C38.86 111.374 39.9833 111.326 40.7095 111.998C41.0491 112.31 41.2529 112.696 41.3835 113.135C41.5925 113.85 41.5926 114.58 41.5978 115.416V115.421Z" fill="#26AC94"/>
<path d="M39.9954 83.216C39.985 83.7081 39.567 84.29 39.0759 84.4752C38.9818 84.5123 38.8564 84.5176 38.7624 84.4911C38.0727 84.2901 37.6287 83.5229 37.7854 82.8139C37.9578 82.0309 38.3601 81.5229 38.8408 81.4806C39.3737 81.433 39.8648 82.0468 39.9745 82.888C39.9902 82.9991 39.985 83.1102 39.9902 83.2213L39.9954 83.216Z" fill="#26AC94"/>
<path d="M41.3459 86.4114C41.1056 86.1045 41.2729 85.7712 41.3095 85.459C41.3774 84.9247 41.2363 84.2898 41.7901 83.9353C42.4327 83.5279 43.1485 83.5597 43.859 83.7448C44.0576 83.7977 44.1359 84.1205 44.0001 84.2951C43.6135 84.7977 41.999 86.0834 41.3459 86.4114Z" fill="#26AC94"/>
<path d="M36.4309 86.4592C35.6106 86.2317 35.177 85.5333 34.5813 85.073C34.2104 84.7873 33.7088 84.544 33.6723 83.9726C33.6514 83.6498 34.4717 83.5069 35.3286 83.6763C35.9503 83.7979 36.3682 84.1366 36.3526 84.7768C36.3369 85.3164 36.6921 85.8349 36.4414 86.4592H36.4309Z" fill="#26AC94"/>
<path d="M39.3142 217.237C39.3037 218.554 39.2254 219.861 38.9276 221.146C38.7186 223.056 38.7134 224.961 38.9328 226.871L38.9537 226.897C39.1732 226.887 39.3978 226.871 39.6173 226.86C39.68 223.173 39.4396 219.474 39.8733 215.797C39.3195 216.136 39.3142 216.692 39.309 217.242L39.3142 217.237Z" fill="#EBCE74"/>
<path d="M38.1127 216.909C37.2088 219.766 37.0991 223.342 37.888 225.464C37.9507 223.316 37.9716 221.168 38.2851 219.041C38.3635 218.496 38.3269 217.93 38.3269 217.374C38.3269 217.279 38.238 217.179 38.1074 216.909H38.1127Z" fill="#EBCE74"/>
<path d="M40.9311 217.131C40.7796 217.163 40.5862 217.147 40.487 217.237C40.3825 217.337 40.3302 217.533 40.3302 217.686C40.3198 220.136 40.3145 222.586 40.3302 225.035C40.3302 225.295 40.5131 225.548 40.6124 225.808C40.6333 224.591 40.6542 223.369 40.6751 222.147C40.6699 221.538 40.6437 220.93 40.6542 220.327C40.6699 219.559 40.5758 218.771 40.9363 218.046C40.9363 217.739 40.9311 217.432 40.9259 217.131H40.9311Z" fill="#EBCE74"/>
<path d="M42.6098 220.184C42.5785 219.692 42.474 219.2 42.0978 218.607C41.8888 219.522 41.9724 220.274 42.124 221.02C42.2911 221.85 42.2806 222.691 42.2911 223.533C42.3015 224.305 42.2963 225.083 42.3015 225.855C42.4112 225.855 42.5262 225.861 42.636 225.861C42.7196 223.966 42.73 222.072 42.615 220.178L42.6098 220.184Z" fill="#EBCE74"/>
<path d="M41.2586 223.649C41.2169 224.522 41.3997 225.421 41.0131 226.263L40.9922 226.427C41.175 226.792 41.3945 226.755 41.6348 226.49C41.6244 224.85 41.6191 223.205 41.6087 221.564C41.175 222.205 41.2952 222.94 41.2639 223.649H41.2586Z" fill="#EBCE74"/>
<path d="M44.6133 208.11C44.3312 208.089 44.0961 207.824 44.1327 207.56C44.1797 207.226 44.488 206.994 44.838 207.047C45.0888 207.084 45.2038 207.269 45.2194 207.502C45.2403 207.856 44.9529 208.131 44.6133 208.11Z" fill="#26AC94"/>
<path d="M34.7985 207.046C35.1486 207.057 35.4359 207.337 35.3836 207.655C35.3314 207.956 35.1328 208.126 34.8246 208.094C34.532 208.062 34.3544 207.882 34.3335 207.565C34.3126 207.268 34.5216 207.036 34.7985 207.046Z" fill="#26AC94"/>
<path d="M39.8802 214.946C39.6399 214.935 39.4517 214.845 39.4152 214.58C39.3734 214.3 39.598 214.067 39.9167 214.062C40.1518 214.062 40.3713 214.141 40.3818 214.416C40.3974 214.744 40.1937 214.914 39.8802 214.946Z" fill="#26AC94"/>
<path d="M40.4394 212.845C40.361 213.131 40.1992 213.321 39.8857 213.332C39.5931 213.343 39.3579 213.078 39.4258 212.813C39.5094 212.491 39.7497 212.39 40.0371 212.411C40.267 212.433 40.4133 212.597 40.4446 212.845H40.4394Z" fill="#26AC94"/>
<path d="M45.5085 209.337C45.4615 209.671 45.148 209.909 44.8188 209.84C44.5889 209.792 44.4531 209.623 44.4531 209.385C44.4531 209.067 44.7717 208.851 45.1479 208.898C45.3726 208.925 45.5451 209.131 45.5137 209.343L45.5085 209.337Z" fill="#26AC94"/>
<path d="M34.5155 208.882C34.8917 208.893 35.1685 209.184 35.0849 209.496C35.0223 209.734 34.8447 209.85 34.6096 209.85C34.2595 209.85 33.9773 209.538 34.04 209.221C34.087 208.962 34.2961 208.898 34.5208 208.877L34.5155 208.882Z" fill="#26AC94"/>
<path d="M45.2765 213.877C45.2765 213.596 45.2766 213.316 45.2504 213.036C45.2348 212.861 45.1407 212.713 44.9474 212.766C44.8742 212.787 44.7801 212.94 44.7854 213.03C44.8846 214.543 44.9631 216.051 44.869 217.363C44.8638 219.194 44.9055 220.824 45.1772 222.437C45.2138 222.649 45.2922 222.866 45.3863 223.056C45.4176 223.12 45.5795 223.162 45.6683 223.141C45.7571 223.12 45.8669 223.019 45.8878 222.935C45.9244 222.776 45.9244 222.601 45.9035 222.437C45.5639 219.596 45.2765 216.75 45.2869 213.882L45.2765 213.877Z" fill="#EBCE74"/>
<path d="M34.6433 213.194C34.6433 213.105 34.544 213.009 34.4865 212.914C34.4291 212.999 34.3245 213.083 34.3193 213.168C34.3036 216.311 33.9746 219.432 33.635 222.554C33.6193 222.707 33.6924 222.871 33.7394 223.025C33.7551 223.067 33.823 223.125 33.8596 223.125C33.9589 223.115 34.1209 223.109 34.147 223.046C34.241 222.85 34.3089 222.638 34.3455 222.427C34.8575 219.364 34.6224 216.274 34.6433 213.194Z" fill="#EBCE74"/>
<path d="M46.3097 213.522C46.2992 213.311 46.1896 213.099 46.1164 212.893C46.106 212.866 46.0171 212.85 45.9649 212.856C45.9179 212.856 45.8447 212.893 45.8343 212.924C45.782 213.136 45.6775 213.358 45.7089 213.564C45.8761 214.792 45.8708 216.03 45.944 217.263C46.0328 218.776 46.2157 220.278 46.3724 221.786C46.3776 221.86 46.5187 221.961 46.6023 221.966C46.6545 221.966 46.7277 221.85 46.7747 221.765C46.7225 220.871 46.6859 220.22 46.6493 219.569C46.5396 217.554 46.4298 215.533 46.3097 213.517V213.522Z" fill="#EBCE74"/>
<path d="M46.7748 221.77C46.7748 221.802 46.7748 221.834 46.7801 221.865C46.7801 221.791 46.7906 221.754 46.7906 221.733C46.7906 221.739 46.7906 221.749 46.7801 221.754C46.7801 221.754 46.7748 221.765 46.7695 221.77H46.7748Z" fill="#E6E6E6"/>
<path d="M35.7714 213.385C35.7244 213.491 35.646 213.591 35.646 213.692C35.6303 215.094 35.6199 216.496 35.6251 217.898C35.6251 219.13 35.693 220.363 35.3743 221.575C35.3273 221.765 35.2803 222.009 35.5154 222.151C35.7453 222.03 35.7976 221.802 35.8185 221.585C36.0013 219.914 36.1999 218.247 36.3252 216.575C36.3775 215.855 36.2991 215.12 36.2103 214.395C36.1685 214.035 36.1894 213.596 35.7662 213.379L35.7714 213.385Z" fill="#EBCE74"/>
<path d="M43.9744 217.48C43.9744 216.474 43.9848 215.469 43.9796 214.464C43.9796 214.131 43.9483 213.797 43.9013 213.464C43.8908 213.385 43.7655 213.274 43.6871 213.268C43.6087 213.263 43.4623 213.353 43.4467 213.422C43.384 213.744 43.3631 214.078 43.3265 214.406C43.269 215.496 43.2064 216.586 43.3474 217.675C43.29 219.078 43.6714 220.437 43.7393 221.829C43.7393 221.929 43.8281 222.03 43.8908 222.12C43.9169 222.157 43.9849 222.183 44.0319 222.183C44.0737 222.183 44.1468 222.151 44.1573 222.12C44.1938 221.961 44.2617 221.786 44.2251 221.644C43.9012 220.268 43.9744 218.871 43.9744 217.474V217.48Z" fill="#EBCE74"/>
<path d="M32.7826 221.882C33.0804 221.829 33.1692 221.67 33.1797 221.506C33.3573 218.723 33.8955 215.951 33.4723 213.115C33.0229 216.004 32.9863 218.935 32.7773 221.882H32.7826Z" fill="#EBCE74"/>
<path d="M31.8843 215.083C31.8843 215.051 31.8112 215.025 31.7694 214.999C31.1267 216.215 30.7924 217.829 30.6252 220.511C30.5869 221.115 30.6861 221.73 30.9229 222.358C31.3722 220.056 31.3828 217.856 31.9314 215.739C31.9836 215.538 31.9104 215.3 31.8843 215.083Z" fill="#EBCE74"/>
<path d="M48.9538 221.4C48.8441 220.284 48.7762 219.162 48.5829 218.062C48.4209 217.141 48.4314 216.162 47.8515 215.184C47.538 215.654 47.6268 215.998 47.6947 216.316C48.0813 218.014 48.3478 219.728 48.3583 221.474C48.3583 221.691 48.4157 221.919 48.4889 222.125C48.515 222.204 48.6561 222.294 48.7344 222.289C48.8023 222.284 48.9017 222.152 48.9173 222.067C48.9539 221.85 48.9695 221.617 48.9486 221.4H48.9538Z" fill="#EBCE74"/>
<path d="M47.3023 217.781C46.8164 219.353 47.3283 220.866 47.3545 222.405C47.3545 222.453 47.3963 222.506 47.4329 222.548C47.4643 222.585 47.5217 222.638 47.5531 222.628C47.6471 222.596 47.7934 222.559 47.8143 222.49C47.8822 222.284 47.9553 222.056 47.9345 221.85C47.8195 220.691 47.6889 219.538 47.5426 218.384C47.5165 218.178 47.3859 217.988 47.3023 217.792V217.781Z" fill="#EBCE74"/>
<path d="M32.0386 218.4C31.9184 219.295 31.7877 220.152 31.6937 221.009C31.6362 221.543 31.4795 222.104 31.8347 222.607C32.5453 222.242 32.2058 221.543 32.2894 221.003C32.3886 220.353 32.3572 219.681 32.3624 219.019C32.3624 218.813 32.3834 218.58 32.0438 218.406L32.0386 218.4Z" fill="#EBCE74"/>
<path d="M45.559 210.935C45.4963 211.226 45.2874 211.374 44.9896 211.358C44.7545 211.348 44.582 211.189 44.6081 210.94C44.6394 210.628 44.8589 210.464 45.1619 210.491C45.3866 210.512 45.5381 210.665 45.559 210.935Z" fill="#26AC94"/>
<path d="M34.4415 211.406C34.1332 211.39 33.9242 211.232 33.9033 210.919C33.8877 210.671 34.0601 210.523 34.29 210.486C34.64 210.433 34.9693 210.734 34.9118 211.052C34.8648 211.3 34.6766 211.39 34.4467 211.406H34.4415Z" fill="#26AC94"/>
<path d="M39.7659 211.559C39.5204 211.528 39.3741 211.369 39.3532 211.131C39.327 210.866 39.6248 210.649 39.9121 210.702C40.1733 210.755 40.257 210.935 40.2256 211.178C40.1891 211.438 40.001 211.528 39.7712 211.554L39.7659 211.559Z" fill="#26AC94"/>
<path d="M33.8615 71.6023C33.8562 71.9356 33.7203 72.0997 33.5113 72.2108C33.3023 72.3219 33.0359 72.343 32.8948 72.1684C31.9544 71.015 31.0296 69.8458 30.1153 68.6712C29.969 68.486 30.0108 68.2321 30.1467 68.0469C30.3295 67.8035 30.5856 67.7348 30.8782 67.8406C30.9305 67.8617 30.9878 67.8723 31.0244 67.9094C32.0902 68.8776 33.1196 69.8775 33.7622 71.2055C33.8301 71.3484 33.8406 71.5229 33.8562 71.6023H33.8615Z" fill="#D15454"/>
<path d="M47.729 68.3698C47.7029 68.4439 47.6767 68.682 47.5461 68.8354C46.6475 69.8883 45.7332 70.92 44.9599 72.0734C44.8293 72.2638 44.5889 72.2902 44.359 72.2215C44.0455 72.1262 43.9307 71.8723 43.9516 71.5813C43.9621 71.3644 44.0247 71.1369 44.1239 70.9464C44.7822 69.6978 45.801 68.756 46.8303 67.8354C47.1333 67.5656 47.6924 67.8355 47.7342 68.3698H47.729Z" fill="#D15454"/>
<path d="M39.62 67.1477C39.62 67.8196 39.6409 68.4968 39.6096 69.1688C39.5939 69.4703 39.3953 69.682 39.0714 69.6979C38.7527 69.7137 38.5542 69.5179 38.4497 69.2428C38.3713 69.0364 38.3086 68.809 38.3086 68.592C38.293 67.5815 38.293 66.571 38.3086 65.5604C38.3086 65.3435 38.3661 65.1054 38.4602 64.9097C38.5856 64.6398 38.831 64.4811 39.134 64.5341C39.3639 64.5711 39.5416 64.7298 39.5834 64.9679C39.6304 65.243 39.646 65.5234 39.6513 65.8038C39.6617 66.2535 39.6513 66.7032 39.6513 67.153C39.6408 67.153 39.6357 67.153 39.6252 67.153L39.62 67.1477Z" fill="#D15454"/>
<path d="M19.5231 79.5811C18.917 79.5811 18.3161 79.6022 17.7152 79.5705C17.5167 79.5599 17.3078 79.4223 17.1406 79.2954C16.9003 79.1102 16.9839 78.5335 17.2712 78.4435C17.5795 78.3483 17.9033 78.2743 18.2272 78.2637C19.105 78.2372 19.9827 78.2478 20.8605 78.2584C21.1322 78.2584 21.4091 78.2849 21.6756 78.3431C21.9629 78.4065 22.1666 78.5917 22.151 78.9197C22.1353 79.2266 21.9472 79.4541 21.6599 79.5017C21.2314 79.5705 20.7874 79.5864 20.3537 79.6128C20.082 79.6287 19.8051 79.6128 19.5282 79.6128C19.5282 79.6023 19.5282 79.5917 19.5282 79.5811H19.5231Z" fill="#D15454"/>
<path d="M24.9172 74.2216C24.8127 74.4015 24.7552 74.5549 24.6507 74.666C24.4835 74.8353 24.2433 74.8883 24.0447 74.7877C23.2036 74.3803 22.4041 73.8936 21.7824 73.1793C21.5995 72.973 21.5891 72.6556 21.7772 72.4122C21.9757 72.1529 22.2684 72.1476 22.5139 72.301C23.2088 72.7402 23.888 73.2057 24.5567 73.6872C24.7187 73.8036 24.797 74.0311 24.9277 74.2216H24.9172Z" fill="#D15454"/>
<path d="M58.1284 79.6021C57.6321 79.6021 57.1305 79.6127 56.6341 79.5968C56.4147 79.5916 56.19 79.5545 55.9863 79.4752C55.7041 79.3641 55.5631 79.1048 55.6049 78.8032C55.6362 78.5757 55.7982 78.3958 56.0333 78.3482C56.305 78.2953 56.582 78.253 56.8536 78.2583C58.0135 78.2741 59.1786 78.3006 60.3384 78.3482C60.5735 78.3588 60.746 78.5651 60.7878 78.7873C60.8505 79.0889 60.6937 79.3482 60.4324 79.4805C60.2391 79.5757 60.004 79.6074 59.7898 79.6127C59.236 79.6286 58.6822 79.618 58.1284 79.618V79.6074V79.6021Z" fill="#D15454"/>
<path d="M55.6003 72.1899C55.966 72.2217 56.2273 72.6026 56.1437 72.8354C56.0706 73.0364 55.987 73.2746 55.8303 73.3963C55.2138 73.8566 54.5763 74.2904 53.9337 74.7084C53.8031 74.793 53.6255 74.8142 53.4635 74.8247C53.2284 74.8406 53.0508 74.7084 52.9201 74.5126C52.7686 74.2904 52.8678 74.084 52.9985 73.9041C53.0925 73.7719 53.2128 73.6449 53.3486 73.5549C53.9338 73.1475 54.5241 72.7402 55.1301 72.3592C55.3026 72.2481 55.5324 72.2217 55.6108 72.1952L55.6003 72.1899Z" fill="#D15454"/>
<path d="M48.3332 79.1104C48.3697 79.3802 48.2862 79.65 48.0928 79.8564C47.3614 80.6394 46.4732 81.1579 45.4439 81.4277C45.2245 81.4859 44.9999 81.4118 44.8588 81.2214C44.723 81.0415 44.6393 80.8034 44.7647 80.6024C45.3969 79.5971 46.2119 78.8035 47.3718 78.4543C47.842 78.3115 48.3123 78.6448 48.3332 79.1104Z" fill="#26AC94"/>
<path d="M30.1498 78.396C30.2857 78.433 30.5104 78.4542 30.7089 78.5442C31.6493 78.9568 32.3442 79.6658 32.9346 80.4911C33.1122 80.7398 33.0704 81.0255 32.8823 81.2689C32.7256 81.47 32.501 81.507 32.2867 81.4329C31.2261 81.0837 30.2439 80.5917 29.5386 79.6711C29.3609 79.4383 29.3192 79.1526 29.4237 78.8775C29.5334 78.5971 29.7841 78.4701 30.1498 78.4013V78.396Z" fill="#26AC94"/>
<path d="M39.6127 76.872C39.5814 77.7185 39.5918 78.3958 39.2261 78.9989C39.0798 79.237 38.6566 79.2529 38.5364 78.9989C38.0923 78.073 37.7998 77.126 38.1655 76.0943C38.3275 75.6393 38.6983 75.3588 39.0118 75.4594C39.3723 75.5705 39.5343 75.8562 39.5761 76.2107C39.6127 76.4858 39.6075 76.7662 39.6127 76.872Z" fill="#26AC94"/>
<path d="M46.6024 96.268C46.3411 95.686 45.9441 95.2363 45.3747 94.9506C44.9724 94.7495 44.4656 94.8289 44.3297 95.1252C44.1573 95.5061 44.3976 95.7548 44.6327 95.9982C44.6692 96.0405 44.7163 96.0722 44.7528 96.1145C45.85 97.3685 45.9284 98.744 44.9567 100.061C44.7268 100.374 44.4498 100.654 44.2408 100.982C44.1677 101.093 44.1886 101.331 44.2617 101.448C44.3349 101.564 44.5387 101.654 44.6797 101.649C45.4843 101.628 45.9964 101.114 46.3934 100.479C46.8166 99.7969 46.9733 99.0298 46.9681 98.2308C46.989 97.5483 46.8793 96.8923 46.5971 96.268H46.6024Z" fill="#D15454"/>
<path d="M32.9342 100.104C32.1662 99.3686 31.9729 98.4903 32.2864 97.4904C32.4222 97.0618 32.5945 96.6544 32.7356 96.2312C32.8035 96.0248 32.8871 95.8026 32.8871 95.591C32.8871 95.4481 32.7827 95.2736 32.6782 95.1625C32.511 94.9932 32.2758 94.9667 32.0721 95.099C31.8892 95.2207 31.7116 95.3635 31.5705 95.5275C30.9227 96.2894 30.6824 97.1941 30.6876 98.5856C30.766 99.6808 31.3721 100.876 32.7148 101.612C32.9656 101.749 33.2634 101.776 33.4671 101.511C33.6552 101.268 33.6552 100.977 33.4828 100.728C33.3261 100.501 33.1327 100.295 32.9342 100.104Z" fill="#D15454"/>
<path d="M39.7938 94.4956C39.8356 94.3951 39.8409 94.2839 39.867 94.1834C39.8983 93.6861 39.611 93.2893 39.0624 93.0565C38.4459 92.7972 37.8711 92.8713 37.5524 93.2628C37.4845 93.3475 37.4323 93.448 37.3958 93.5485C37.1711 94.1411 37.4584 94.7072 38.1219 94.9982C38.8377 95.3104 39.5482 95.0988 39.799 94.4956H39.7938Z" fill="#D15454"/>
<path d="M39.313 100.665C38.7226 100.686 38.3047 101.136 38.3047 101.749C38.3047 102.358 38.7331 102.802 39.3339 102.813C40.0131 102.829 40.6088 102.194 40.5408 101.527C40.4886 101.019 39.9504 100.638 39.313 100.66V100.665Z" fill="#D15454"/>
<path d="M35.4411 100.892C34.8664 100.892 34.4379 101.294 34.4535 101.802C34.4692 102.289 34.9133 102.654 35.5037 102.67C36.0366 102.68 36.486 102.257 36.486 101.744C36.486 101.262 36.0314 100.892 35.4358 100.897L35.4411 100.892Z" fill="#D15454"/>
<path d="M42.8768 94.2154C42.8246 93.7022 42.3335 93.2948 41.8424 93.3636C41.4139 93.4218 41.0482 93.8503 41.043 94.2947C41.043 94.7656 41.5184 95.1359 42.0984 95.1042C42.5738 95.0777 42.9238 94.6809 42.8768 94.2154Z" fill="#D15454"/>
<path d="M35.196 95.3948C35.5565 95.4265 35.9274 95.0774 35.9483 94.6859C35.9744 94.1726 35.5721 93.6859 35.0966 93.6488C34.7518 93.6224 34.3704 93.9874 34.3391 94.3789C34.2973 94.8922 34.6787 95.3525 35.196 95.4001V95.3948Z" fill="#D15454"/>
<path d="M42.6275 100.712C42.2043 100.643 41.8386 101.046 41.8438 101.58C41.8438 101.929 42.1625 102.225 42.4969 102.199C42.8783 102.167 43.2178 101.807 43.2283 101.416C43.2387 101.098 42.9567 100.77 42.6275 100.718V100.712Z" fill="#D15454"/>
<path d="M39.3514 49.4445C38.9491 49.0689 38.4475 48.9948 37.972 49.2593C37.46 49.545 37.11 49.9683 37.0003 50.5503C36.9272 50.9312 36.9167 51.328 36.8906 51.619C36.9167 52.0581 36.9324 52.3914 36.9637 52.7248C37.0369 53.4549 37.1936 54.1638 37.5123 54.8252C37.8624 55.55 38.4893 55.6241 38.923 54.9733C39.2626 54.4654 39.5812 53.931 39.8268 53.3702C40.2448 52.4179 40.297 51.4232 39.9679 50.418C39.8425 50.0371 39.6388 49.709 39.3514 49.4392V49.4445Z" fill="#D15454"/>
<path d="M72.1156 72.9672C71.5043 72.6603 70.8513 72.5757 70.1721 72.6445C69.1585 72.7503 68.2545 73.1841 67.3507 73.618C67.0947 73.7396 66.8962 73.9407 66.891 74.2635C66.8805 74.655 67.1104 74.8931 67.4291 75.0359C68.2024 75.3798 69.0174 75.5174 69.9108 75.5121C70.5953 75.5438 71.2953 75.3639 71.9798 75.147C72.4291 75.0041 72.7425 74.692 72.8209 74.2C72.894 73.745 72.6015 73.2212 72.1156 72.9725V72.9672Z" fill="#D15454"/>
<path d="M47.3857 52.8254C46.9311 52.4709 46.1631 52.5238 45.5571 53.0423C44.5957 53.8676 44.0314 54.9205 43.9688 56.1321C43.9896 56.3861 43.9897 56.5554 44.0158 56.7194C44.1412 57.5289 44.7838 57.8569 45.4631 57.4072C46.4923 56.7247 47.3178 55.8358 47.7671 54.6507C48.0388 53.9259 47.8611 53.201 47.3805 52.8254H47.3857Z" fill="#D15454"/>
<path d="M57.2872 62.7138C58.5777 62.5498 59.8579 61.8303 60.9289 60.7086C61.0386 60.5922 61.1065 60.4229 61.1588 60.2641C61.4618 59.4335 60.9602 58.6399 60.0877 58.5605C59.5705 58.5129 59.0898 58.6505 58.6614 58.9362C57.6739 59.5922 56.8641 60.4335 56.2789 61.4758C55.8975 62.153 56.2475 62.7191 57.282 62.7138H57.2872Z" fill="#26AC94"/>
<path d="M9.78411 74.3691C8.70261 73.7395 7.53232 73.4855 6.28886 73.6072C5.83954 73.6495 5.4477 73.8559 5.11855 74.1786C4.46547 74.8188 4.64308 75.7288 5.48424 76.0674C6.00671 76.2791 6.56054 76.2738 7.06733 76.3002C8.1227 76.3055 9.08402 76.0516 9.78934 75.586C10.2909 75.258 10.3014 74.676 9.78411 74.3744V74.3691Z" fill="#D15454"/>
<path d="M31.544 53.1426C30.9641 52.7881 30.102 52.8199 29.6735 53.2114C29.1981 53.64 29.1667 54.2219 29.3496 54.7616C29.7832 56.0208 30.5461 57.026 31.8052 57.5392C32.5053 57.8249 33.0277 57.4387 33.0382 56.6927C32.9703 55.915 32.9284 55.132 32.6045 54.3965C32.3694 53.8727 32.035 53.4389 31.5491 53.1426H31.544Z" fill="#D15454"/>
<path d="M19.5329 59.3914C19.2038 59.1692 18.8486 59.0369 18.4567 59.0157C17.4902 58.9681 16.9102 59.7459 17.2655 60.6665C17.7984 62.0527 18.8956 62.8728 20.1704 63.4759C20.5309 63.6452 20.9227 63.5923 21.2884 63.4177C21.5601 63.2907 21.7064 63.0685 21.7534 62.7722C21.7429 62.6664 21.7587 62.55 21.7221 62.4495C21.2728 61.2273 20.6353 60.1374 19.5329 59.3967V59.3914Z" fill="#26AC94"/>
<path d="M63.8114 62.915C63.5658 62.8039 63.2838 62.7351 63.0173 62.7192C61.6851 62.6346 60.5355 63.1372 59.5115 63.9467C59.0674 64.2959 59.1719 64.9202 59.6683 65.1953C60.2273 65.5075 60.8439 65.4334 61.4133 65.4705C62.3277 65.4599 63.2158 65.4546 63.9786 64.9096C64.7936 64.3276 64.71 63.3171 63.8114 62.915Z" fill="#26AC94"/>
<path d="M8.73994 78.7713C8.57798 78.7449 8.41076 78.7396 8.31671 78.729C7.36583 78.7607 6.07535 79.4697 5.57901 80.2104C5.2812 80.6549 5.19238 81.131 5.44316 81.6283C5.64692 82.0357 6.17982 82.2685 6.73363 82.1521C7.77334 81.9299 8.71907 81.5278 9.41917 80.6549C10.1715 79.7078 9.91548 78.9829 8.73994 78.7766V78.7713Z" fill="#D15454"/>
<path d="M13.6866 62.645C12.788 62.5286 12.1349 63.0842 12.3439 64.2482C12.4484 64.8407 12.8351 65.2587 13.3418 65.5127C14.2509 65.973 15.2123 66.1634 16.2259 65.8724C16.5498 65.7772 16.8423 65.6397 17.0879 65.4016C17.464 65.0471 17.5163 64.5973 17.1767 64.2217C16.231 63.1741 15.0503 62.6609 13.6866 62.6345V62.645Z" fill="#26AC94"/>
<path d="M13.3149 71.0095C12.6619 70.1101 11.7841 69.5757 10.6765 69.5017C9.89799 69.4488 9.35472 69.8561 9.19798 70.5492C9.06214 71.1365 9.33901 71.7344 9.94507 72.0836C10.5825 72.4539 11.2878 72.565 12.1237 72.5703C12.2857 72.5438 12.5626 72.5227 12.8238 72.4539C13.503 72.2687 13.7434 71.6021 13.3149 71.0095Z" fill="#D15454"/>
<path d="M71.8921 79.6232C71.1554 78.7238 70.168 78.2846 69.1387 78.1259C68.3393 78.0942 67.8638 78.4646 67.9004 79.0148C68.0153 80.7237 69.8074 82.0517 71.4218 81.6284C71.9965 81.4803 72.3518 80.9459 72.2212 80.3639C72.1637 80.0994 72.0593 79.819 71.8921 79.618V79.6232Z" fill="#D15454"/>
<path d="M22.964 55.6082C22.4937 55.8146 22.2482 56.3807 22.3579 57.0367C22.3841 57.2007 22.4207 57.3701 22.4938 57.5182C22.9118 58.37 23.3453 59.2112 23.9671 59.936C24.1551 60.153 24.3903 60.3064 24.6933 60.2059C24.9807 60.1106 25.1427 59.8831 25.2106 59.6027C25.2733 59.3329 25.2837 59.0525 25.3046 58.8409C25.2576 57.7404 25.0225 56.7775 24.3067 55.9997C23.9044 55.5659 23.3819 55.4284 22.9587 55.6135L22.964 55.6082Z" fill="#26AC94"/>
<path d="M67.9843 69.9306C67.953 69.3062 67.5401 68.8512 66.9445 68.8671C65.91 68.8936 65.0167 69.2904 64.3166 70.0681C64.045 70.3644 63.9508 70.7454 63.9665 71.1528C63.9822 71.6395 64.2643 72.0045 64.7293 72.1051C64.9435 72.1527 65.1629 72.1633 65.257 72.1738C66.1974 72.1738 66.8819 71.8511 67.4514 71.285C67.8224 70.92 68.0052 70.4649 67.9791 69.9306H67.9843Z" fill="#D15454"/>
<path d="M54.1913 56.5445C53.1986 56.8779 52.7128 57.6503 52.4359 58.6027C52.1903 59.4545 52.765 60.1687 53.6479 60.1264C54.6406 60.0788 55.7691 58.973 55.8527 57.9519C55.8684 57.7879 55.8476 57.6186 55.811 57.4546C55.6386 56.6345 54.9802 56.2748 54.1913 56.5393V56.5445Z" fill="#26AC94"/>
<path d="M28.4338 64.4652C27.7284 64.4811 27.2269 65.0842 27.3 65.8355C27.3627 66.4598 27.9479 66.9307 28.5958 66.8725C29.2436 66.8143 29.8026 66.1424 29.7713 65.4652C29.7452 64.9097 29.1339 64.4494 28.4338 64.4652Z" fill="#D15454"/>
<path d="M56.8575 69.4647C56.241 69.507 55.8752 69.9938 55.9954 70.6181C56.0842 71.0837 56.3298 71.4328 56.753 71.6392C57.5262 72.0148 58.4823 71.5069 58.4719 70.7292C58.4562 69.9408 57.7719 69.4012 56.8628 69.4594L56.8575 69.4647Z" fill="#D15454"/>
<path d="M48.5507 64.4598C48.0543 64.4809 47.6625 64.9994 47.767 65.502C47.8767 66.0258 48.1954 66.3751 48.6708 66.592C49.2873 66.8777 49.9144 66.465 49.9144 65.7772C49.9144 65.01 49.3135 64.428 48.5507 64.4545V64.4598Z" fill="#D15454"/>
<path d="M38.5446 60.3169C38.0326 60.3169 37.6094 60.8618 37.6094 61.5073C37.6094 62.1052 38.1005 62.5814 38.6805 62.5497C39.2761 62.5179 39.762 61.9359 39.7463 61.264C39.7358 60.7984 39.1193 60.3169 38.5446 60.3169Z" fill="#D15454"/>
<path d="M62.059 77.5069C61.6254 77.7714 61.4372 78.3216 61.6305 78.8084C61.7821 79.1946 62.0747 79.4327 62.4665 79.5385C63.0412 79.6972 63.5846 79.2792 63.5898 78.6708C63.6002 78.3216 63.4749 78.0254 63.2398 77.7714C62.8897 77.3958 62.43 77.2846 62.0642 77.5069H62.059Z" fill="#D15454"/>
<path d="M20.7511 69.9146C20.2809 69.9304 19.8368 70.1156 19.5285 70.5601C19.2725 70.9251 19.4241 71.5018 19.8211 71.7187C20.4324 72.052 21.2056 71.7981 21.5034 71.1632C21.7542 70.6235 21.3781 69.9463 20.7511 69.9146Z" fill="#D15454"/>
<path d="M14.8779 77.8241C14.4495 77.6231 13.9637 77.6972 13.6502 78.0252C13.4935 78.1892 13.4046 78.3955 13.4359 78.6336C13.5091 79.1468 13.8643 79.4008 14.3136 79.533C14.695 79.6442 15.0921 79.6547 15.3952 79.3214C15.4997 79.205 15.5363 79.0304 15.5833 78.9299C15.5833 78.3638 15.3168 78.0358 14.8832 77.8294L14.8779 77.8241Z" fill="#D15454"/>
<path d="M40.1116 128.643C39.5508 128.659 39.3192 129.209 39.1566 129.781C38.6039 131.696 38.7948 133.537 39.506 135.32C39.5264 135.368 39.563 135.4 39.5874 135.442C39.7378 135.675 40.1198 135.706 40.2661 135.468C40.3962 135.257 40.514 135.024 40.5953 134.781C40.9611 133.722 41.1927 132.622 41.1683 131.442C41.1358 130.95 41.1358 130.453 41.0627 129.977C40.9407 129.183 40.5383 128.633 40.1035 128.643H40.1116Z" fill="#D15454"/>
<path d="M46.1751 134.595C45.8459 134.309 45.472 134.246 45.0412 134.241C43.9398 134.288 42.9481 134.854 42.0743 135.786C41.7532 136.124 41.3183 136.489 41.5419 137.124C41.7329 137.674 42.2124 137.791 42.6392 137.749C43.5658 137.648 44.4925 137.526 45.3541 137.013C45.7402 136.786 46.106 136.505 46.3661 136.05C46.6303 135.579 46.5449 134.918 46.1751 134.6V134.595Z" fill="#D15454"/>
<path d="M38.2262 137.833C38.6652 137.542 38.7261 136.892 38.3116 136.532C37.7223 136.013 37.1248 135.511 36.503 135.066C35.9462 134.664 35.3244 134.511 34.6864 134.548C34.3368 134.564 34.0076 134.707 33.845 135.14C33.6459 135.68 33.7231 136.204 34.0157 136.664C34.288 137.093 34.6416 137.389 35.0358 137.579C35.6658 137.886 36.3282 138.019 36.8769 138.087C37.5719 138.114 37.9052 138.045 38.2222 137.839L38.2262 137.833Z" fill="#D15454"/>
<path d="M40.6485 141.077C40.6444 140.812 40.6038 140.532 40.5306 140.283C40.494 140.161 40.3396 140.04 40.238 140.04C40.1364 140.04 40.0023 140.156 39.9372 140.272C39.8682 140.394 39.8356 140.574 39.8356 140.733C39.8275 142.42 39.8356 144.103 39.8356 145.791C39.8356 145.896 39.8641 146.002 39.8845 146.108C39.9292 146.341 40.051 146.51 40.2258 146.515C40.4005 146.521 40.5266 146.351 40.5713 146.119C40.742 145.203 40.6038 144.277 40.6525 143.42C40.6525 142.595 40.6607 141.828 40.6485 141.071V141.077Z" fill="#D15454"/>
<path d="M42.3806 139.664C42.1977 139.537 42.0027 139.431 41.7994 139.357C41.6328 139.294 41.458 139.347 41.3483 139.537C41.2345 139.733 41.2792 139.944 41.3808 140.14C41.4052 140.188 41.4255 140.235 41.458 140.267C42.1408 140.897 42.8195 141.532 43.5104 142.151C43.6039 142.235 43.7502 142.262 43.868 142.256C44.0469 142.251 44.1811 142.124 44.238 141.886C44.2745 141.59 44.1729 141.357 44.0225 141.156C43.5552 140.51 42.9699 140.082 42.3765 139.669L42.3806 139.664Z" fill="#D15454"/>
<path d="M38.4275 139.585C37.7528 140.05 37.1839 140.685 36.7246 141.479C36.6758 141.563 36.6474 141.674 36.6311 141.78C36.5742 142.077 36.6555 142.315 36.8425 142.489C36.9969 142.632 37.1879 142.611 37.3098 142.463C37.8585 141.791 38.3909 141.103 38.9192 140.405C38.9964 140.304 38.9964 140.103 39.0127 140.024C39.0208 139.659 38.6673 139.421 38.4315 139.585H38.4275Z" fill="#D15454"/>
<path d="M40.3663 147.981C40.1793 147.912 40.0168 148.076 39.9639 148.272C39.777 148.954 39.7363 149.653 39.9964 150.325C40.0817 150.542 40.2606 150.61 40.4272 150.563C40.5369 150.531 40.6792 150.409 40.7117 150.282C40.793 149.981 40.8174 149.653 40.854 149.425C40.8174 148.954 40.8621 148.557 40.6711 148.235C40.602 148.118 40.4801 148.028 40.3704 147.986L40.3663 147.981Z" fill="#D15454"/>
<path d="M40.7256 137.822C40.7581 137.346 40.4289 136.875 40.0388 136.849C39.6649 136.822 39.3682 137.235 39.352 137.801C39.3398 138.288 39.608 138.701 39.9331 138.69C40.3192 138.68 40.6931 138.267 40.7256 137.822Z" fill="#D15454"/>
</svg>
