<svg width="1113" height="144" viewBox="0 0 1113 144" fill="none" xmlns="http://www.w3.org/2000/svg">
<path d="M1562.36 88.5528V80.2119H1517.06V107.61H1546.05V118.335H1482.64V105.825H1509.82V80.2119H1470.56H1468.75H1425.27V107.61H1454.26V118.335H1390.85V105.825H1418.02V80.2119H1378.77H1376.95H1333.47V107.61H1362.46V118.335H1299.05V105.825H1326.22V80.2119H1286.97H1285.15H1241.67V107.61H1270.66V118.335H1207.25V105.825H1234.43V80.2119H1195.17H1193.36H1149.88V107.61H1178.86V118.335H1115.45V105.825H1142.63V80.2119H1103.37H1101.56H1058.08V107.61H1087.07V118.335H1023.66V105.825H1050.83V80.2119H1011.58H1009.77H966.281V107.61H995.27V118.335H931.859V105.825H959.034V80.2119H919.779H917.969H874.487V107.61H903.473V118.335H840.061V105.825H867.237V80.2119H827.986H826.172H782.69V107.61H811.679V118.335H748.264V105.825H775.444V80.2119H736.188H734.375H690.893V107.61H719.882V118.335H656.467V105.825H683.646V80.2119H644.391H642.577H599.095V107.61H628.085V118.335H564.673V105.825H591.849V80.2119H552.594H550.78H507.298V107.61H536.287V118.335H472.876V105.825H500.052V80.2119H460.796H458.983H415.501V107.61H444.49V118.335H381.079V105.825H408.254V80.2119H368.999H367.189H323.703V107.61H352.693V118.335H289.281V105.825H316.457V80.2119H277.202H275.392H231.906V107.61H260.895V118.335H197.484V105.825H224.66V80.2119H185.404H183.595H140.113V107.61H169.098V118.335H105.687V105.825H132.862V80.2119H93.6069H91.7973H48.3155V107.61H77.3007V118.335H13.8894V105.825H41.0692V80.2119H0V88.5528H32.6124V97.4845H5.43677V126.671H85.7574V99.2733H56.7681V88.5528H91.7973H93.6069H124.41V97.4845H97.2341V126.671H177.555V99.2733H148.565V88.5528H183.595H185.404H216.207V97.4845H189.027V126.671H269.352V99.2733H240.363V88.5528H275.392H277.202H308.004V97.4845H280.825V126.671H361.149V99.2733H332.16V88.5528H367.189H368.999H399.798V97.4845H372.622V126.671H452.947V99.2733H423.957V88.5528H458.983H460.796H491.595V97.4845H464.419V126.671H544.74V99.2733H515.755V88.5528H550.78H552.594H583.392V97.4845H556.217V126.671H636.537V99.2733H607.552V88.5528H642.577H644.391H675.19V97.4845H648.014V126.671H728.335V99.2733H699.345V88.5528H734.375H736.188H766.987V97.4845H739.811V126.671H820.132V99.2733H791.143V88.5528H826.172H827.986H858.784V97.4845H831.609V126.671H911.929V99.2733H882.94V88.5528H917.969H919.779H950.582V97.4845H923.402V126.671H1003.73V99.2733H974.737V88.5528H1009.77H1011.58H1042.38V97.4845H1015.2V126.671H1095.52V99.2733H1066.53V88.5528H1101.56H1103.37H1134.17V97.4845H1107V126.671H1187.32V99.2733H1158.33V88.5528H1193.36H1195.17H1225.97V97.4845H1198.79V126.671H1279.12V99.2733H1250.13V88.5528H1285.15H1286.97H1317.77V97.4845H1290.59V126.671H1370.91V99.2733H1341.93V88.5528H1376.95H1378.77H1409.56V97.4845H1382.39V126.671H1462.71V99.2733H1433.72V88.5528H1468.75H1470.56H1501.36V97.4845H1474.19V126.671H1554.51V99.2733H1525.52V88.5528H1562.36Z" fill="url(#paint0_linear_129_15683)"/>
<path d="M1562.36 61.1504H0V74.2546H1562.36V61.1504Z" fill="url(#paint1_linear_129_15683)"/>
<path d="M1562.36 130.844H0V143.948H1562.36V130.844Z" fill="url(#paint2_linear_129_15683)"/>
<g clip-path="url(#clip0_129_15683)">
<path d="M1137.61 27.6564C1137.71 32.7895 1134.71 35.5174 1129.66 36.5885C1132.37 40.4174 1132.73 44.2435 1129.51 47.69C1125.95 51.5053 1121.79 51.2884 1117.62 48.4791C1115.98 53.7804 1113.46 56.2236 1109.41 56.2697C1104.19 56.3266 1101.46 53.3709 1100.43 48.4412C1096.56 51.0579 1092.67 51.5135 1089.16 48.3463C1085.33 44.8916 1085.43 40.8187 1088.32 36.5885C1083.76 35.5879 1080.65 33.2668 1080.46 28.5404C1080.26 23.3801 1083.38 20.7335 1088.19 19.695C1085.73 13.9598 1085.75 11.2807 1088.51 8.51482C1092.15 4.86222 1096.2 4.98695 1100.44 7.77996C1101.41 3.13761 1103.94 0.119541 1108.75 0.00565338C1113.87 -0.113659 1116.58 2.93966 1117.59 7.84775C1121.27 5.24998 1125.01 4.78358 1128.49 7.62811C1132.74 11.0963 1132.59 15.3211 1129.75 19.6597C1135.07 21.3138 1137.54 23.7353 1137.61 27.6618L1137.61 27.6564ZM1124.45 48.6906C1127.21 48.2351 1129.51 45.9302 1129.93 43.205C1130.38 40.2574 1128.82 37.3288 1125.87 36.0245C1122.45 34.5114 1118.95 33.1502 1115.47 31.7672C1115.08 31.6099 1114.56 31.7455 1114.1 31.7455L1113.99 32.3068C1114.46 32.54 1114.92 32.8004 1115.4 33.001C1118.58 34.308 1121.78 35.5635 1124.94 36.9085C1128.19 38.286 1129.62 41.5373 1128.3 44.3628C1127.35 46.3939 1125.71 47.5219 1123.46 47.5599C1121.01 47.6033 1119.17 46.4291 1118.17 44.2598C1116.67 40.9814 1115.33 37.6298 1113.91 34.3107C1113.74 33.904 1113.53 33.5081 1113.34 33.1095C1113.17 33.1041 1113 33.0959 1112.83 33.0905C1112.78 33.5461 1112.54 34.0694 1112.69 34.4436C1114.11 37.9254 1115.51 41.418 1117.09 44.8292C1118.43 47.7144 1121.45 49.1896 1124.45 48.6961V48.6906ZM1108.76 38.8582C1107.68 41.5183 1106.49 44.1459 1105.54 46.8521C1104.96 48.49 1105.68 50.1875 1106.99 51.0037C1108.33 51.8389 1109.72 51.8199 1111.05 50.9874C1112.31 50.201 1113.05 48.5144 1112.51 46.9742C1111.54 44.2191 1110.35 41.54 1109.26 38.8311C1109.1 38.8419 1108.93 38.8501 1108.77 38.8609L1108.76 38.8582ZM1109.25 17.4334C1110.34 14.7272 1111.55 12.0562 1112.5 9.30119C1113.07 7.6498 1112.29 5.96315 1110.95 5.20118C1109.58 4.42836 1108.19 4.45005 1106.88 5.32592C1105.59 6.18822 1104.97 7.88571 1105.57 9.52897C1106.53 12.1783 1107.69 14.7597 1108.76 17.3711C1108.93 17.3928 1109.09 17.4145 1109.25 17.4361V17.4334ZM1116.36 35.7262C1117.52 38.4135 1118.59 41.1414 1119.87 43.769C1120.67 45.4068 1122.42 46.1444 1123.96 45.8542C1125.51 45.5614 1126.75 44.3113 1126.99 42.7955C1127.27 41.1414 1126.45 39.4873 1124.73 38.709C1122.09 37.5213 1119.39 36.4746 1116.71 35.3683C1116.6 35.4876 1116.48 35.6069 1116.36 35.7235V35.7262ZM1105.05 53.3547C1107.39 54.9979 1110.54 55.0196 1112.88 53.4062C1115.26 51.7602 1116.41 48.6852 1115.36 45.838C1114.03 42.2179 1112.45 38.6846 1110.92 35.1324C1110.77 34.7744 1110.28 34.5548 1109.95 34.2701C1109.79 34.3921 1109.63 34.5168 1109.48 34.6389C1109.83 35.5066 1110.17 36.3797 1110.53 37.242C1111.69 40.0079 1112.94 42.744 1114 45.5451C1115.56 49.637 1113.03 53.4442 1108.9 53.3709C1104.98 53.3004 1102.52 49.6262 1103.96 45.7729C1105.17 42.5379 1106.6 39.3842 1107.93 36.1926C1108.14 35.691 1108.32 35.1758 1108.52 34.6687C1108.4 34.5439 1108.28 34.4192 1108.16 34.2972C1107.81 34.5385 1107.28 34.7066 1107.14 35.0348C1105.6 38.6331 1104 42.2152 1102.66 45.8868C1101.64 48.6825 1102.77 51.7494 1105.06 53.3547H1105.05ZM1088.1 43.2239C1088.57 46.0576 1090.9 48.3273 1093.75 48.7205C1096.75 49.1381 1099.67 47.5978 1101.01 44.6665C1102.53 41.3366 1103.9 37.9417 1105.28 34.5575C1105.45 34.1535 1105.31 33.6301 1105.31 33.161C1105.1 33.1393 1104.89 33.1149 1104.69 33.0932C1104.24 34.0911 1103.77 35.0836 1103.34 36.0896C1102.18 38.8012 1101.13 41.5563 1099.87 44.2218C1098.83 46.421 1096.98 47.6331 1094.45 47.5653C1092.24 47.5056 1090.34 46.0739 1089.55 43.9751C1088.56 41.3448 1089.89 38.362 1092.78 37.0821C1095.97 35.672 1099.22 34.4084 1102.45 33.0742C1102.96 32.8627 1103.45 32.6187 1103.95 32.3909C1103.95 32.2119 1103.95 32.0357 1103.95 31.8567C1103.48 31.8187 1102.93 31.6127 1102.54 31.7699C1099.06 33.1475 1095.56 34.5141 1092.14 36.0381C1089.19 37.3586 1087.62 40.3252 1088.1 43.2267V43.2239ZM1101.71 35.6666C1101.58 35.5527 1101.44 35.4415 1101.31 35.3276C1098.54 36.4963 1095.73 37.5756 1093.02 38.869C1091.35 39.6663 1090.71 41.3068 1091.03 42.9392C1091.32 44.3737 1092.54 45.5533 1094.03 45.8542C1095.53 46.1552 1097.3 45.4665 1098.05 43.9344C1099.38 41.2309 1100.5 38.4297 1101.71 35.6666H1101.71ZM1083.37 24.2478C1081.67 26.5744 1081.69 29.7498 1083.43 32.0791C1085.12 34.3487 1088.27 35.3846 1091.17 34.3324C1094.79 33.02 1098.33 31.5042 1101.88 30.0209C1102.25 29.8691 1102.45 29.3376 1102.73 28.9824C1102.59 28.8549 1102.46 28.7275 1102.32 28.6027C1099.38 29.7904 1096.45 30.9808 1093.51 32.1685C1092.7 32.4967 1091.9 32.8465 1091.07 33.1285C1088.47 34.0098 1085.85 33.3047 1084.4 31.3632C1082.97 29.4596 1082.96 26.9025 1084.37 24.961C1085.79 22.9977 1088.41 22.1842 1091.01 23.1279C1094 24.2153 1096.92 25.4897 1099.87 26.6802C1100.67 27.0028 1101.47 27.3201 1102.28 27.6401C1102.41 27.5398 1102.55 27.4394 1102.69 27.3391C1102.44 26.9703 1102.29 26.409 1101.94 26.2653C1098.35 24.7603 1094.76 23.2174 1091.09 21.8995C1088.2 20.8637 1085.05 21.951 1083.37 24.2478H1083.37ZM1098.18 28.3397C1098.17 28.196 1098.15 28.0495 1098.13 27.9058C1095.48 26.8429 1092.84 25.704 1090.14 24.744C1088.48 24.1502 1086.77 24.7793 1085.86 26.0212C1084.94 27.2659 1084.92 28.8685 1085.8 30.1565C1086.68 31.4418 1088.35 32.1143 1090.05 31.5286C1092.79 30.5741 1095.47 29.4135 1098.18 28.3397H1098.18ZM1093.69 7.54404C1090.83 7.96977 1088.56 10.2259 1088.1 13.0921C1087.65 15.9556 1089.14 18.8489 1092.06 20.1722C1095.52 21.7368 1099.07 23.1035 1102.59 24.5054C1102.97 24.6546 1103.48 24.4702 1103.93 24.4403C1103.93 24.2261 1103.93 24.0146 1103.93 23.8004C1100.61 22.4446 1097.28 21.143 1094 19.7085C1092.8 19.1852 1091.56 18.5235 1090.66 17.6151C1088.61 15.5488 1088.82 12.1701 1090.9 10.2096C1093.06 8.18128 1096.47 8.16501 1098.56 10.2584C1099.19 10.8929 1099.72 11.6929 1100.08 12.5118C1101.47 15.6248 1102.76 18.773 1104.09 21.9077C1104.27 22.3198 1104.48 22.713 1104.68 23.1171C1104.85 23.1279 1105.02 23.1387 1105.18 23.1469C1105.24 22.6913 1105.47 22.168 1105.32 21.7938C1103.92 18.3581 1102.53 14.9143 1100.98 11.5437C1099.63 8.61515 1096.69 7.09933 1093.7 7.54404H1093.69ZM1101.73 20.5681C1100.43 17.6856 1099.26 14.7326 1097.77 11.9478C1097.04 10.5865 1095.48 10.0849 1093.86 10.4726C1092.39 10.8251 1091.4 11.7688 1091.07 13.225C1090.71 14.8031 1091.15 16.3434 1092.59 17.0701C1095.43 18.5127 1098.41 19.6787 1101.34 20.9586C1101.47 20.8284 1101.6 20.6956 1101.73 20.5654L1101.73 20.5681ZM1112.86 2.83391C1110.53 1.24488 1107.32 1.28284 1105.03 2.9261C1102.75 4.56936 1101.64 7.61183 1102.66 10.4075C1103.99 14.033 1105.56 17.569 1107.08 21.124C1107.24 21.4901 1107.73 21.7151 1108.07 22.0053C1108.22 21.886 1108.38 21.7667 1108.54 21.6501C1108.29 21.0182 1108.06 20.3783 1107.8 19.7519C1106.54 16.7501 1105.2 13.7781 1104.03 10.7438C1102.53 6.84715 1104.77 3.09694 1108.63 2.87729C1112.82 2.63867 1115.58 6.49192 1114.04 10.6055C1112.86 13.7456 1111.47 16.8043 1110.17 19.901C1109.94 20.4515 1109.72 21.0101 1109.5 21.5633C1109.61 21.6907 1109.73 21.8155 1109.84 21.9429C1110.19 21.7124 1110.74 21.5633 1110.87 21.2433C1112.44 17.5988 1114.08 13.9761 1115.4 10.2476C1116.41 7.42202 1115.2 4.4392 1112.86 2.83662V2.83391ZM1129.92 12.9511C1129.45 10.1933 1127.15 7.96978 1124.35 7.55489C1121.39 7.11832 1118.43 8.58803 1117.12 11.4027C1115.54 14.8167 1114.12 18.3039 1112.69 21.7829C1112.54 22.1598 1112.77 22.694 1112.82 23.155C1113.01 23.1577 1113.2 23.1604 1113.39 23.1632C1114.54 20.4651 1115.68 17.7643 1116.83 15.0662C1117.29 13.9896 1117.7 12.8887 1118.23 11.8501C1119.41 9.56694 1121.84 8.34669 1124.24 8.75886C1126.55 9.15747 1128.35 10.958 1128.71 13.2222C1129.09 15.6112 1127.87 18.0083 1125.47 19.074C1122.19 20.5356 1118.84 21.829 1115.52 23.2038C1115.02 23.4099 1114.54 23.6621 1114.05 23.8926C1114.07 24.0716 1114.08 24.2478 1114.1 24.4268C1114.54 24.4647 1115.05 24.66 1115.41 24.5136C1118.98 23.0845 1122.58 21.6907 1126.08 20.0963C1128.95 18.7893 1130.41 15.8444 1129.91 12.9457L1129.92 12.9511ZM1116.37 20.4515C1116.52 20.6115 1116.66 20.7715 1116.8 20.9315C1119.73 19.6407 1122.72 18.4828 1125.54 17.0023C1126.93 16.2729 1127.38 14.7082 1126.93 13.1219C1126.51 11.6278 1125.51 10.6868 1123.91 10.4455C1122.2 10.1852 1120.75 10.798 1120.01 12.2732C1118.68 14.9414 1117.57 17.7182 1116.38 20.4515H1116.37ZM1126.59 21.9999C1123.13 23.2933 1119.72 24.7224 1116.31 26.1541C1115.89 26.3331 1115.62 26.8835 1115.29 27.2632C1115.41 27.3988 1115.54 27.5316 1115.67 27.6672C1119.17 26.249 1122.64 24.7224 1126.21 23.4669C1127.6 22.9815 1129.27 22.7537 1130.69 23.033C1133.75 23.6377 1135.36 26.8157 1134.43 29.7959C1133.53 32.6783 1130.28 34.2972 1127.19 33.1935C1124.01 32.0547 1120.9 30.688 1117.76 29.4244C1117.06 29.1423 1116.35 28.8685 1115.65 28.5892C1115.52 28.7247 1115.4 28.8603 1115.27 28.9959C1115.57 29.3593 1115.8 29.8935 1116.2 30.0562C1119.7 31.5232 1123.19 33.0173 1126.76 34.3162C1129.79 35.4198 1133.04 34.3324 1134.73 31.9136C1136.35 29.606 1136.31 26.4307 1134.62 24.2153C1132.79 21.8182 1129.62 20.8691 1126.59 22.0053L1126.59 21.9999ZM1119.88 28.3614C1122.63 29.4433 1125.35 30.6202 1128.15 31.5693C1129.75 32.1116 1131.44 31.3903 1132.23 30.1484C1133.08 28.8332 1133.12 27.4638 1132.25 26.1405C1131.38 24.8227 1129.7 24.1393 1128.04 24.7142C1125.29 25.6633 1122.61 26.8212 1119.9 27.8896C1119.89 28.0468 1119.88 28.2041 1119.88 28.3614Z" fill="url(#paint3_linear_129_15683)"/>
<path d="M1045.5 27.6564C1045.59 32.7895 1042.59 35.5174 1037.54 36.5885C1040.25 40.4174 1040.62 44.2435 1037.4 47.69C1033.83 51.5053 1029.68 51.2884 1025.5 48.4791C1023.86 53.7804 1021.34 56.2236 1017.29 56.2697C1012.08 56.3266 1009.35 53.3709 1008.32 48.4412C1004.45 51.0579 1000.56 51.5135 997.047 48.3463C993.217 44.8916 993.319 40.8187 996.208 36.5885C991.647 35.5879 988.532 33.2668 988.345 28.5404C988.142 23.3801 991.268 20.7335 996.076 19.695C993.616 13.9598 993.635 11.2807 996.393 8.51482C1000.03 4.86222 1004.08 4.98695 1008.33 7.77996C1009.3 3.13761 1011.82 0.119541 1016.64 0.00565338C1021.76 -0.113659 1024.46 2.93966 1025.47 7.84775C1029.15 5.24998 1032.9 4.78358 1036.38 7.62811C1040.63 11.0963 1040.48 15.3211 1037.64 19.6597C1042.96 21.3138 1045.42 23.7353 1045.5 27.6618L1045.5 27.6564ZM1032.33 48.6906C1035.1 48.2351 1037.4 45.9302 1037.82 43.205C1038.26 40.2574 1036.71 37.3288 1033.76 36.0245C1030.33 34.5114 1026.84 33.1502 1023.36 31.7672C1022.96 31.6099 1022.45 31.7455 1021.99 31.7455L1021.88 32.3068C1022.35 32.54 1022.8 32.8004 1023.29 33.001C1026.46 34.308 1029.67 35.5635 1032.83 36.9085C1036.08 38.286 1037.51 41.5373 1036.19 44.3628C1035.23 46.3939 1033.6 47.5219 1031.34 47.5599C1028.9 47.6033 1027.05 46.4291 1026.06 44.2598C1024.55 40.9814 1023.21 37.6298 1021.8 34.3107C1021.63 33.904 1021.42 33.5081 1021.23 33.1095C1021.06 33.1041 1020.89 33.0959 1020.72 33.0905C1020.67 33.5461 1020.43 34.0694 1020.58 34.4436C1022 37.9254 1023.4 41.418 1024.98 44.8292C1026.32 47.7144 1029.34 49.1896 1032.33 48.6961V48.6906ZM1016.65 38.8582C1015.56 41.5183 1014.38 44.1459 1013.42 46.8521C1012.85 48.49 1013.56 50.1875 1014.88 51.0037C1016.22 51.8389 1017.61 51.8199 1018.94 50.9874C1020.2 50.201 1020.94 48.5144 1020.39 46.9742C1019.43 44.2191 1018.24 41.54 1017.15 38.8311C1016.98 38.8419 1016.82 38.8501 1016.65 38.8609L1016.65 38.8582ZM1017.14 17.4334C1018.23 14.7272 1019.43 12.0562 1020.38 9.30119C1020.95 7.6498 1020.17 5.96315 1018.83 5.20118C1017.47 4.42836 1016.08 4.45005 1014.77 5.32592C1013.48 6.18822 1012.86 7.88571 1013.45 9.52897C1014.42 12.1783 1015.57 14.7597 1016.65 17.3711C1016.81 17.3928 1016.97 17.4145 1017.14 17.4361V17.4334ZM1024.25 35.7262C1025.41 38.4135 1026.48 41.1414 1027.76 43.769C1028.56 45.4068 1030.31 46.1444 1031.85 45.8542C1033.39 45.5614 1034.63 44.3113 1034.88 42.7955C1035.15 41.1414 1034.34 39.4873 1032.61 38.709C1029.98 37.5213 1027.28 36.4746 1024.6 35.3683L1024.25 35.7235V35.7262ZM1012.94 53.3547C1015.28 54.9979 1018.43 55.0196 1020.76 53.4062C1023.15 51.7602 1024.3 48.6852 1023.25 45.838C1021.91 42.2179 1020.33 38.6846 1018.81 35.1324C1018.66 34.7744 1018.17 34.5548 1017.83 34.2701C1017.68 34.3921 1017.52 34.5168 1017.37 34.6389C1017.72 35.5066 1018.06 36.3797 1018.42 37.242C1019.58 40.0079 1020.83 42.744 1021.89 45.5451C1023.44 49.637 1020.91 53.4442 1016.79 53.3709C1012.87 53.3004 1010.4 49.6262 1011.84 45.7729C1013.05 42.5379 1014.48 39.3842 1015.81 36.1926C1016.02 35.691 1016.21 35.1758 1016.4 34.6687C1016.28 34.5439 1016.17 34.4192 1016.05 34.2972C1015.7 34.5385 1015.17 34.7066 1015.02 35.0348C1013.48 38.6331 1011.89 42.2152 1010.55 45.8868C1009.53 48.6825 1010.66 51.7494 1012.95 53.3547H1012.94ZM995.988 43.2239C996.459 46.0576 998.79 48.3273 1001.64 48.7205C1004.64 49.1381 1007.55 47.5978 1008.89 44.6665C1010.41 41.3366 1011.78 37.9417 1013.17 34.5575C1013.34 34.1535 1013.19 33.6301 1013.19 33.161C1012.99 33.1393 1012.78 33.1149 1012.57 33.0932C1012.12 34.0911 1011.66 35.0836 1011.23 36.0896C1010.07 38.8012 1009.01 41.5563 1007.75 44.2218C1006.71 46.421 1004.87 47.6331 1002.34 47.5653C1000.13 47.5056 998.224 46.0739 997.435 43.9751C996.448 41.3448 997.773 38.362 1000.67 37.0821C1003.85 35.672 1007.11 34.4084 1010.33 33.0742C1010.84 32.8627 1011.34 32.6187 1011.84 32.3909C1011.84 32.2119 1011.84 32.0357 1011.84 31.8567C1011.37 31.8187 1010.82 31.6127 1010.43 31.7699C1006.94 33.1475 1003.45 34.5141 1000.03 36.0381C997.074 37.3586 995.507 40.3252 995.988 43.2267V43.2239ZM1009.6 35.6666C1009.47 35.5527 1009.33 35.4415 1009.2 35.3276C1006.43 36.4963 1003.62 37.5756 1000.91 38.869C999.238 39.6663 998.592 41.3068 998.919 42.9392C999.208 44.3737 1000.42 45.5533 1001.92 45.8542C1003.42 46.1552 1005.18 45.4665 1005.94 43.9344C1007.26 41.2309 1008.39 38.4297 1009.59 35.6666H1009.6ZM991.257 24.2478C989.555 26.5744 989.577 29.7498 991.312 32.0791C993.005 34.3487 996.159 35.3846 999.059 34.3324C1002.68 33.02 1006.22 31.5042 1009.77 30.0209C1010.13 29.8691 1010.33 29.3376 1010.61 28.9824C1010.48 28.8549 1010.34 28.7275 1010.21 28.6027C1007.27 29.7904 1004.33 30.9808 1001.39 32.1685C1000.59 32.4967 999.783 32.8465 998.958 33.1285C996.357 34.0098 993.737 33.3047 992.285 31.3632C990.861 29.4596 990.85 26.9025 992.255 24.961C993.679 22.9977 996.294 22.1842 998.894 23.1279C1001.89 24.2153 1004.81 25.4897 1007.76 26.6802C1008.56 27.0028 1009.36 27.3201 1010.16 27.6401C1010.3 27.5398 1010.44 27.4394 1010.57 27.3391C1010.33 26.9703 1010.17 26.409 1009.83 26.2653C1006.23 24.7603 1002.64 23.2174 998.974 21.8995C996.082 20.8637 992.934 21.951 991.254 24.2478H991.257ZM1006.07 28.3397C1006.05 28.196 1006.04 28.0495 1006.02 27.9058C1003.36 26.8429 1000.73 25.704 998.031 24.744C996.365 24.1502 994.658 24.7793 993.742 26.0212C992.827 27.2659 992.807 28.8685 993.69 30.1565C994.57 31.4418 996.241 32.1143 997.932 31.5286C1000.68 30.5741 1003.36 29.4135 1006.07 28.3397H1006.07ZM1001.58 7.54404C998.719 7.96977 996.445 10.2259 995.988 13.0921C995.532 15.9556 997.025 18.8489 999.947 20.1722C1003.4 21.7368 1006.95 23.1035 1010.48 24.5054C1010.86 24.6546 1011.37 24.4702 1011.82 24.4403C1011.82 24.2261 1011.82 24.0146 1011.82 23.8004C1008.5 22.4446 1005.16 21.143 1001.88 19.7085C1000.68 19.1852 999.444 18.5235 998.545 17.6151C996.5 15.5488 996.706 12.1701 998.79 10.2096C1000.95 8.18128 1004.35 8.16501 1006.44 10.2584C1007.08 10.8929 1007.61 11.6929 1007.97 12.5118C1009.35 15.6248 1010.65 18.773 1011.98 21.9077C1012.15 22.3198 1012.37 22.713 1012.56 23.1171C1012.73 23.1279 1012.9 23.1387 1013.07 23.1469C1013.12 22.6913 1013.36 22.168 1013.2 21.7938C1011.81 18.3581 1010.42 14.9143 1008.87 11.5437C1007.52 8.61515 1004.57 7.09933 1001.58 7.54404H1001.58ZM1009.62 20.5681C1008.31 17.6856 1007.15 14.7326 1005.65 11.9478C1004.92 10.5865 1003.37 10.0849 1001.75 10.4726C1000.27 10.8251 999.288 11.7688 998.958 13.225C998.6 14.8031 999.04 16.3434 1000.47 17.0701C1003.31 18.5127 1006.3 19.6787 1009.23 20.9586C1009.36 20.8284 1009.49 20.6956 1009.62 20.5654L1009.62 20.5681ZM1020.75 2.83391C1018.42 1.24488 1015.21 1.28284 1012.92 2.9261C1010.64 4.56936 1009.53 7.61183 1010.55 10.4075C1011.87 14.033 1013.45 17.569 1014.97 21.124C1015.12 21.4901 1015.62 21.7151 1015.95 22.0053C1016.11 21.886 1016.27 21.7667 1016.43 21.6501C1016.18 21.0182 1015.95 20.3783 1015.68 19.7519C1014.43 16.7501 1013.09 13.7781 1011.92 10.7438C1010.42 6.84715 1012.66 3.09694 1016.51 2.87729C1020.71 2.63867 1023.47 6.49192 1021.93 10.6055C1020.75 13.7456 1019.35 16.8043 1018.06 19.901C1017.83 20.4515 1017.61 21.0101 1017.38 21.5633C1017.5 21.6907 1017.61 21.8155 1017.72 21.9429C1018.08 21.7124 1018.62 21.5633 1018.76 21.2433C1020.32 17.5988 1021.96 13.9761 1023.29 10.2476C1024.3 7.42202 1023.09 4.4392 1020.75 2.83662V2.83391ZM1037.8 12.9511C1037.33 10.1933 1035.04 7.96978 1032.23 7.55489C1029.27 7.11832 1026.31 8.58803 1025.01 11.4027C1023.43 14.8167 1022.01 18.3039 1020.58 21.7829C1020.43 22.1598 1020.66 22.694 1020.71 23.155C1020.9 23.1577 1021.09 23.1604 1021.28 23.1632C1022.43 20.4651 1023.57 17.7643 1024.72 15.0662C1025.18 13.9896 1025.59 12.8887 1026.12 11.8501C1027.3 9.56694 1029.73 8.34669 1032.13 8.75886C1034.44 9.15747 1036.24 10.958 1036.6 13.2222C1036.98 15.6112 1035.76 18.0083 1033.36 19.074C1030.08 20.5356 1026.72 21.829 1023.4 23.2038C1022.9 23.4099 1022.43 23.6621 1021.94 23.8926C1021.95 24.0716 1021.97 24.2478 1021.98 24.4268C1022.43 24.4647 1022.93 24.66 1023.3 24.5136C1026.87 23.0845 1030.47 21.6907 1033.97 20.0963C1036.84 18.7893 1038.29 15.8444 1037.8 12.9457L1037.8 12.9511ZM1024.26 20.4515C1024.4 20.6115 1024.55 20.7715 1024.69 20.9315C1027.61 19.6407 1030.61 18.4828 1033.43 17.0023C1034.81 16.2729 1035.27 14.7082 1034.82 13.1219C1034.4 11.6278 1033.39 10.6868 1031.8 10.4455C1030.09 10.1852 1028.64 10.798 1027.9 12.2732C1026.56 14.9414 1025.46 17.7182 1024.26 20.4515H1024.26ZM1034.47 21.9999C1031.01 23.2933 1027.6 24.7224 1024.2 26.1541C1023.77 26.3331 1023.51 26.8835 1023.17 27.2632C1023.3 27.3988 1023.43 27.5316 1023.55 27.6672C1027.06 26.249 1030.53 24.7224 1034.1 23.4669C1035.48 22.9815 1037.16 22.7537 1038.58 23.033C1041.64 23.6377 1043.25 26.8157 1042.32 29.7959C1041.42 32.6783 1038.17 34.2972 1035.08 33.1935C1031.89 32.0547 1028.79 30.688 1025.65 29.4244C1024.94 29.1423 1024.24 28.8685 1023.54 28.5892C1023.41 28.7247 1023.28 28.8603 1023.15 28.9959C1023.46 29.3593 1023.69 29.8935 1024.08 30.0562C1027.59 31.5232 1031.08 33.0173 1034.65 34.3162C1037.68 35.4198 1040.92 34.3324 1042.62 31.9136C1044.24 29.606 1044.19 26.4307 1042.5 24.2153C1040.68 21.8182 1037.51 20.8691 1034.48 22.0053L1034.47 21.9999ZM1027.76 28.3614C1030.52 29.4433 1033.24 30.6202 1036.04 31.5693C1037.64 32.1116 1039.32 31.3903 1040.12 30.1484C1040.96 28.8332 1041.01 27.4638 1040.14 26.1405C1039.27 24.8227 1037.59 24.1393 1035.92 24.7142C1033.17 25.6633 1030.5 26.8212 1027.79 27.8896C1027.78 28.0468 1027.77 28.2041 1027.76 28.3614Z" fill="url(#paint4_linear_129_15683)"/>
<path d="M953.386 27.6564C953.482 32.7895 950.48 35.5174 945.43 36.5885C948.14 40.4174 948.503 44.2435 945.284 47.69C941.721 51.5053 937.567 51.2884 933.39 48.4791C931.754 53.7804 929.233 56.2263 925.184 56.2697C919.971 56.3266 917.241 53.3709 916.207 48.4412C912.341 51.0579 908.448 51.5135 904.938 48.3463C901.108 44.8916 901.209 40.8187 904.099 36.5885C899.538 35.5879 896.423 33.2668 896.236 28.5404C896.032 23.3801 899.158 20.7335 903.967 19.695C901.506 13.9598 901.526 11.2807 904.283 8.51482C907.923 4.86222 911.973 4.98695 916.218 7.77996C917.191 3.13761 919.715 0.119541 924.532 0.00565338C929.649 -0.113659 932.354 2.93966 933.366 7.84775C937.044 5.24998 940.792 4.78358 944.272 7.62811C948.52 11.0963 948.371 15.3211 945.529 19.6597C950.846 21.3138 953.315 23.7353 953.386 27.6618V27.6564ZM940.22 48.6906C942.985 48.2351 945.289 45.9302 945.705 43.205C946.153 40.2574 944.594 37.3288 941.644 36.0245C938.221 34.5114 934.727 33.1502 931.246 31.7672C930.85 31.6099 930.333 31.7455 929.874 31.7455C929.838 31.9326 929.802 32.1197 929.767 32.3068C930.234 32.54 930.69 32.8004 931.174 33.001C934.353 34.308 937.556 35.5635 940.717 36.9085C943.964 38.286 945.399 41.5373 944.074 44.3628C943.12 46.3939 941.484 47.5219 939.23 47.5599C936.786 47.6033 934.941 46.4291 933.946 44.2598C932.442 40.9814 931.103 37.6298 929.687 34.3107C929.514 33.904 929.305 33.5081 929.115 33.1095C928.947 33.1041 928.777 33.0959 928.609 33.0905C928.554 33.5461 928.318 34.0694 928.469 34.4436C929.888 37.9254 931.287 41.418 932.868 44.8292C934.207 47.7144 937.223 49.1896 940.22 48.6961V48.6906ZM924.537 38.8582C923.452 41.5183 922.267 44.1459 921.313 46.8521C920.735 48.49 921.453 50.1875 922.767 51.0037C924.109 51.8389 925.494 51.8199 926.828 50.9874C928.087 50.201 928.824 48.5144 928.282 46.9742C927.314 44.2191 926.129 41.54 925.035 38.8311C924.87 38.8419 924.705 38.8501 924.54 38.8609L924.537 38.8582ZM925.024 17.4334C926.118 14.7272 927.323 12.0562 928.271 9.30119C928.84 7.6498 928.062 5.96315 926.72 5.20118C925.36 4.42836 923.963 4.45005 922.654 5.32592C921.365 6.18822 920.743 7.88571 921.34 9.52897C922.305 12.1783 923.463 14.7597 924.537 17.3711C924.7 17.3928 924.862 17.4145 925.024 17.4361V17.4334ZM932.137 35.7262C933.297 38.4135 934.364 41.1414 935.648 43.769C936.448 45.4068 938.199 46.1444 939.736 45.8542C941.281 45.5614 942.521 44.3113 942.768 42.7955C943.04 41.1414 942.224 39.4873 940.5 38.709C937.863 37.5213 935.164 36.4746 932.489 35.3683L932.137 35.7235V35.7262ZM920.829 53.3547C923.168 54.9979 926.316 55.0196 928.65 53.4062C931.034 51.7602 932.183 48.6852 931.136 45.838C929.802 42.2179 928.222 38.6846 926.698 35.1324C926.545 34.7744 926.055 34.5548 925.72 34.2701C925.566 34.3921 925.409 34.5168 925.255 34.6389C925.607 35.5066 925.948 36.3797 926.308 37.242C927.466 40.0079 928.714 42.744 929.778 45.5451C931.331 49.637 928.802 53.4442 924.678 53.3709C920.754 53.3004 918.291 49.6262 919.732 45.7729C920.941 42.5379 922.371 39.3842 923.702 36.1926C923.911 35.691 924.095 35.1758 924.29 34.6687C924.172 34.5439 924.056 34.4192 923.938 34.2972C923.586 34.5385 923.056 34.7066 922.913 35.0348C921.37 38.6331 919.773 42.2152 918.434 45.8868C917.414 48.6825 918.549 51.7494 920.834 53.3547H920.829ZM903.876 43.2239C904.346 46.0576 906.678 48.3273 909.523 48.7205C912.526 49.1381 915.443 47.5978 916.782 44.6665C918.302 41.3366 919.671 37.9417 921.06 34.5575C921.225 34.1535 921.082 33.6301 921.082 33.161C920.875 33.1393 920.666 33.1149 920.46 33.0932C920.012 34.0911 919.547 35.0836 919.116 36.0896C917.958 38.8012 916.9 41.5563 915.641 44.2218C914.601 46.421 912.759 47.6331 910.225 47.5653C908.014 47.5056 906.112 46.0739 905.322 43.9751C904.335 41.3448 905.661 38.362 908.553 37.0821C911.742 35.672 914.997 34.4084 918.222 33.0742C918.731 32.8627 919.226 32.6187 919.729 32.3909C919.729 32.2119 919.729 32.0357 919.729 31.8567C919.253 31.8187 918.709 31.6127 918.313 31.7699C914.83 33.1475 911.338 34.5141 907.918 36.0381C904.962 37.3586 903.395 40.3252 903.876 43.2267V43.2239ZM917.485 35.6666C917.354 35.5527 917.219 35.4415 917.087 35.3276C914.318 36.4963 911.506 37.5756 908.795 38.869C907.126 39.6663 906.48 41.3068 906.807 42.9392C907.096 44.3737 908.311 45.5533 909.809 45.8542C911.305 46.1552 913.07 45.4665 913.823 43.9344C915.151 41.2309 916.273 38.4297 917.483 35.6666H917.485ZM899.145 24.2478C897.443 26.5744 897.465 29.7498 899.2 32.0791C900.893 34.3487 904.047 35.3846 906.947 34.3324C910.565 33.02 914.109 31.5042 917.659 30.0209C918.022 29.8691 918.222 29.3376 918.5 28.9824C918.365 28.8549 918.231 28.7275 918.093 28.6027C915.157 29.7904 912.221 30.9808 909.281 32.1685C908.473 32.4967 907.67 32.8465 906.846 33.1285C904.245 34.0098 901.625 33.3047 900.173 31.3632C898.749 29.4596 898.738 26.9025 900.143 24.961C901.567 22.9977 904.181 22.1842 906.782 23.1279C909.774 24.2153 912.693 25.4897 915.643 26.6802C916.443 27.0028 917.249 27.3201 918.052 27.6401C918.189 27.5398 918.324 27.4394 918.461 27.3391C918.22 26.9703 918.06 26.409 917.719 26.2653C914.12 24.7603 910.532 23.2174 906.862 21.8995C903.97 20.8637 900.822 21.951 899.142 24.2478H899.145ZM913.958 28.3397C913.942 28.196 913.925 28.0495 913.909 27.9058C911.25 26.8429 908.616 25.704 905.919 24.744C904.253 24.1502 902.546 24.7793 901.63 26.0212C900.715 27.2659 900.695 28.8685 901.578 30.1565C902.458 31.4418 904.129 32.1143 905.82 31.5286C908.569 30.5741 911.247 29.4135 913.955 28.3397H913.958ZM909.468 7.54404C906.606 7.96977 904.333 10.2259 903.876 13.0921C903.42 15.9556 904.913 18.8489 907.835 20.1722C911.291 21.7368 914.841 23.1035 918.368 24.5054C918.745 24.6546 919.256 24.4702 919.704 24.4403C919.704 24.2261 919.704 24.0146 919.704 23.8004C916.388 22.4446 913.051 21.143 909.771 19.7085C908.572 19.1852 907.332 18.5235 906.433 17.6151C904.388 15.5488 904.594 12.1701 906.678 10.2096C908.836 8.18128 912.24 8.16501 914.332 10.2584C914.964 10.8929 915.495 11.6929 915.858 12.5118C917.241 15.6248 918.533 18.773 919.866 21.9077C920.042 22.3198 920.254 22.713 920.452 23.1171C920.62 23.1279 920.79 23.1387 920.958 23.1469C921.013 22.6913 921.244 22.168 921.093 21.7938C919.693 18.3581 918.305 14.9143 916.754 11.5437C915.407 8.61515 912.462 7.09933 909.471 7.54404H909.468ZM917.505 20.5681C916.202 17.6856 915.033 14.7326 913.54 11.9478C912.812 10.5865 911.256 10.0849 909.633 10.4726C908.163 10.8251 907.176 11.7688 906.846 13.225C906.488 14.8031 906.928 16.3434 908.36 17.0701C911.201 18.5127 914.189 19.6787 917.114 20.9586C917.246 20.8284 917.376 20.6956 917.507 20.5654L917.505 20.5681ZM928.634 2.83391C926.308 1.24488 923.094 1.28284 920.809 2.9261C918.527 4.56936 917.417 7.61183 918.437 10.4075C919.762 14.033 921.337 17.569 922.855 21.124C923.012 21.4901 923.507 21.7151 923.842 22.0053C923.999 21.886 924.158 21.7667 924.315 21.6501C924.067 21.0182 923.834 20.3783 923.572 19.7519C922.316 16.7501 920.977 13.7781 919.809 10.7438C918.308 6.84715 920.548 3.09694 924.403 2.87729C928.596 2.63867 931.356 6.49192 929.813 10.6055C928.634 13.7456 927.24 16.8043 925.945 19.901C925.714 20.4515 925.494 21.0101 925.272 21.5633C925.384 21.6907 925.5 21.8155 925.612 21.9429C925.967 21.7124 926.512 21.5633 926.649 21.2433C928.211 17.5988 929.852 13.9761 931.177 10.2476C932.183 7.42202 930.976 4.4392 928.634 2.83662V2.83391ZM945.691 12.9511C945.221 10.1933 942.925 7.96978 940.121 7.55489C937.16 7.11832 934.201 8.58803 932.898 11.4027C931.317 14.8167 929.899 18.3039 928.469 21.7829C928.315 22.1598 928.546 22.694 928.598 23.155C928.788 23.1577 928.978 23.1604 929.167 23.1632C930.314 20.4651 931.458 17.7643 932.607 15.0662C933.066 13.9896 933.476 12.8887 934.009 11.8501C935.186 9.56694 937.619 8.34669 940.013 8.75886C942.323 9.15747 944.126 10.958 944.487 13.2222C944.866 15.6112 943.645 18.0083 941.248 19.074C937.968 20.5356 934.611 21.829 931.29 23.2038C930.792 23.4099 930.314 23.6621 929.824 23.8926C929.841 24.0716 929.855 24.2478 929.871 24.4268C930.314 24.4647 930.82 24.66 931.185 24.5136C934.759 23.0845 938.356 21.6907 941.856 20.0963C944.729 18.7893 946.18 15.8444 945.685 12.9457L945.691 12.9511ZM932.148 20.4515C932.291 20.6115 932.436 20.7715 932.579 20.9315C935.502 19.6407 938.496 18.4828 941.317 17.0023C942.702 16.2729 943.153 14.7082 942.708 13.1219C942.287 11.6278 941.281 10.6868 939.689 10.4455C937.973 10.1852 936.525 10.798 935.785 12.2732C934.452 14.9414 933.349 17.7182 932.15 20.4515H932.148ZM942.361 21.9999C938.9 23.2933 935.491 24.7224 932.084 26.1541C931.661 26.3331 931.397 26.8835 931.062 27.2632C931.188 27.3988 931.315 27.5316 931.441 27.6672C934.949 26.249 938.419 24.7224 941.987 23.4669C943.37 22.9815 945.047 22.7537 946.466 23.033C949.529 23.6377 951.137 26.8157 950.205 29.7959C949.303 32.6783 946.056 34.2972 942.969 33.1935C939.78 32.0547 936.676 30.688 933.533 29.4244C932.832 29.1423 932.128 28.8685 931.427 28.5892C931.298 28.7247 931.172 28.8603 931.042 28.9959C931.348 29.3593 931.579 29.8935 931.972 30.0562C935.474 31.5232 938.969 33.0173 942.537 34.3162C945.567 35.4198 948.811 34.3324 950.508 31.9136C952.127 29.606 952.08 26.4307 950.392 24.2153C948.567 21.8182 945.399 20.8691 942.364 22.0053L942.361 21.9999ZM935.65 28.3614C938.405 29.4433 941.127 30.6202 943.926 31.5693C945.526 32.1116 947.211 31.3903 948.008 30.1484C948.853 28.8332 948.899 27.4638 948.028 26.1405C947.159 24.8227 945.476 24.1393 943.81 24.7142C941.061 25.6633 938.386 26.8212 935.678 27.8896C935.67 28.0468 935.659 28.2041 935.65 28.3614Z" fill="url(#paint5_linear_129_15683)"/>
<path d="M861.273 27.6564C861.369 32.7895 858.367 35.5174 853.316 36.5885C856.027 40.4174 856.39 44.2435 853.171 47.69C849.607 51.5053 845.453 51.2884 841.277 48.4791C839.641 53.7804 837.12 56.2263 833.07 56.2697C827.858 56.3266 825.128 53.3709 824.094 48.4412C820.228 51.0579 816.335 51.5135 812.824 48.3463C808.994 44.8916 809.096 40.8187 811.986 36.5885C807.425 35.5879 804.31 33.2668 804.123 28.5404C803.919 23.3801 807.045 20.7335 811.854 19.695C809.393 13.9598 809.412 11.2807 812.17 8.51482C815.81 4.86222 819.86 4.98695 824.105 7.77996C825.078 3.13761 827.602 0.119541 832.419 0.00565338C837.535 -0.113659 840.241 2.93966 841.252 7.84775C844.931 5.24998 848.678 4.78358 852.159 7.62811C856.407 11.0963 856.258 15.3211 853.415 19.6597C858.733 21.3138 861.201 23.7353 861.273 27.6618V27.6564ZM848.106 48.6906C850.872 48.2351 853.176 45.9302 853.591 43.205C854.039 40.2574 852.481 37.3288 849.531 36.0245C846.108 34.5114 842.613 33.1502 839.133 31.7672C838.737 31.6099 838.22 31.7455 837.761 31.7455L837.653 32.3068C838.121 32.54 838.577 32.8004 839.061 33.001C842.239 34.308 845.442 35.5635 848.604 36.9085C851.851 38.286 853.286 41.5373 851.961 44.3628C851.007 46.3939 849.371 47.5219 847.117 47.5599C844.672 47.6033 842.828 46.4291 841.832 44.2598C840.329 40.9814 838.99 37.6298 837.574 34.3107C837.4 33.904 837.192 33.5081 837.002 33.1095C836.834 33.1041 836.664 33.0959 836.496 33.0905C836.441 33.5461 836.205 34.0694 836.356 34.4436C837.774 37.9254 839.174 41.418 840.755 44.8292C842.094 47.7144 845.11 49.1896 848.106 48.6961V48.6906ZM832.424 38.8582C831.338 41.5183 830.153 44.1459 829.199 46.8521C828.622 48.49 829.339 50.1875 830.654 51.0037C831.995 51.8389 833.381 51.8199 834.714 50.9874C835.974 50.201 836.71 48.5144 836.169 46.9742C835.201 44.2191 834.016 41.54 832.922 38.8311C832.757 38.8419 832.592 38.8501 832.427 38.8609L832.424 38.8582ZM832.911 17.4334C834.005 14.7272 835.209 12.0562 836.158 9.30119C836.727 7.6498 835.949 5.96315 834.607 5.20118C833.246 4.42836 831.85 4.45005 830.541 5.32592C829.251 6.18822 828.63 7.88571 829.227 9.52897C830.192 12.1783 831.349 14.7597 832.424 17.3711C832.586 17.3928 832.749 17.4145 832.911 17.4361V17.4334ZM840.023 35.7262C841.184 38.4135 842.25 41.1414 843.534 43.769C844.334 45.4068 846.086 46.1444 847.622 45.8542C849.168 45.5614 850.408 44.3113 850.655 42.7955C850.927 41.1414 850.111 39.4873 848.387 38.709C845.75 37.5213 843.05 36.4746 840.375 35.3683L840.023 35.7235V35.7262ZM828.715 53.3547C831.055 54.9979 834.203 55.0196 836.537 53.4062C838.921 51.7602 840.07 48.6852 839.023 45.838C837.689 42.2179 836.108 38.6846 834.585 35.1324C834.431 34.7744 833.942 34.5548 833.606 34.2701C833.452 34.3921 833.296 34.5168 833.142 34.6389C833.494 35.5066 833.835 36.3797 834.195 37.242C835.352 40.0079 836.6 42.744 837.664 45.5451C839.218 49.637 836.688 53.4442 832.564 53.3709C828.641 53.3004 826.178 49.6262 827.618 45.7729C828.828 42.5379 830.258 39.3842 831.588 36.1926C831.797 35.691 831.982 35.1758 832.177 34.6687C832.059 34.5439 831.943 34.4192 831.825 34.2972C831.473 34.5385 830.942 34.7066 830.799 35.0348C829.257 38.6331 827.66 42.2152 826.321 45.8868C825.301 48.6825 826.436 51.7494 828.721 53.3547H828.715ZM811.763 43.2239C812.233 46.0576 814.565 48.3273 817.41 48.7205C820.412 49.1381 823.329 47.5978 824.668 44.6665C826.189 41.3366 827.558 37.9417 828.946 34.5575C829.111 34.1535 828.968 33.6301 828.968 33.161C828.762 33.1393 828.553 33.1149 828.347 33.0932C827.899 34.0911 827.434 35.0836 827.003 36.0896C825.845 38.8012 824.787 41.5563 823.527 44.2218C822.488 46.421 820.646 47.6331 818.111 47.5653C815.901 47.5056 813.998 46.0739 813.209 43.9751C812.222 41.3448 813.547 38.362 816.44 37.0821C819.629 35.672 822.884 34.4084 826.109 33.0742C826.618 32.8627 827.113 32.6187 827.616 32.3909C827.616 32.2119 827.616 32.0357 827.616 31.8567C827.14 31.8187 826.596 31.6127 826.2 31.7699C822.716 33.1475 819.225 34.5141 815.805 36.0381C812.849 37.3586 811.282 40.3252 811.763 43.2267V43.2239ZM825.372 35.6666C825.24 35.5527 825.106 35.4415 824.974 35.3276C822.205 36.4963 819.392 37.5756 816.682 38.869C815.013 39.6663 814.367 41.3068 814.694 42.9392C814.982 44.3737 816.198 45.5533 817.696 45.8542C819.192 46.1552 820.957 45.4665 821.71 43.9344C823.038 41.2309 824.16 38.4297 825.369 35.6666H825.372ZM807.031 24.2478C805.33 26.5744 805.352 29.7498 807.086 32.0791C808.78 34.3487 811.933 35.3846 814.834 34.3324C818.452 33.02 821.996 31.5042 825.545 30.0209C825.908 29.8691 826.109 29.3376 826.387 28.9824C826.252 28.8549 826.117 28.7275 825.98 28.6027C823.044 29.7904 820.107 30.9808 817.168 32.1685C816.36 32.4967 815.557 32.8465 814.732 33.1285C812.131 34.0098 809.511 33.3047 808.06 31.3632C806.636 29.4596 806.625 26.9025 808.029 24.961C809.454 22.9977 812.068 22.1842 814.669 23.1279C817.66 24.2153 820.58 25.4897 823.53 26.6802C824.33 27.0028 825.136 27.3201 825.939 27.6401C826.076 27.5398 826.211 27.4394 826.348 27.3391C826.106 26.9703 825.947 26.409 825.606 26.2653C822.007 24.7603 818.419 23.2174 814.749 21.8995C811.857 20.8637 808.709 21.951 807.029 24.2478H807.031ZM821.845 28.3397C821.828 28.196 821.812 28.0495 821.795 27.9058C819.137 26.8429 816.503 25.704 813.806 24.744C812.14 24.1502 810.432 24.7793 809.517 26.0212C808.601 27.2659 808.582 28.8685 809.465 30.1565C810.344 31.4418 812.016 32.1143 813.707 31.5286C816.456 30.5741 819.134 29.4135 821.842 28.3397H821.845ZM817.355 7.54404C814.493 7.96977 812.219 10.2259 811.763 13.0921C811.307 15.9556 812.8 18.8489 815.722 20.1722C819.178 21.7368 822.727 23.1035 826.255 24.5054C826.631 24.6546 827.143 24.4702 827.591 24.4403C827.591 24.2261 827.591 24.0146 827.591 23.8004C824.275 22.4446 820.938 21.143 817.658 19.7085C816.459 19.1852 815.219 18.5235 814.32 17.6151C812.274 15.5488 812.481 12.1701 814.565 10.2096C816.723 8.18128 820.126 8.16501 822.219 10.2584C822.851 10.8929 823.382 11.6929 823.745 12.5118C825.128 15.6248 826.42 18.773 827.753 21.9077C827.929 22.3198 828.141 22.713 828.339 23.1171C828.506 23.1279 828.677 23.1387 828.845 23.1469C828.9 22.6913 829.131 22.168 828.979 21.7938C827.58 18.3581 826.191 14.9143 824.641 11.5437C823.294 8.61515 820.349 7.09933 817.358 7.54404H817.355ZM825.391 20.5681C824.088 17.6856 822.92 14.7326 821.427 11.9478C820.698 10.5865 819.142 10.0849 817.52 10.4726C816.049 10.8251 815.062 11.7688 814.732 13.225C814.375 14.8031 814.815 16.3434 816.247 17.0701C819.087 18.5127 822.076 19.6787 825.001 20.9586C825.133 20.8284 825.262 20.6956 825.394 20.5654L825.391 20.5681ZM836.521 2.83391C834.195 1.24488 830.981 1.28284 828.696 2.9261C826.414 4.56936 825.303 7.61183 826.323 10.4075C827.649 14.033 829.224 17.569 830.742 21.124C830.898 21.4901 831.393 21.7151 831.729 22.0053C831.885 21.886 832.045 21.7667 832.202 21.6501C831.954 21.0182 831.72 20.3783 831.459 19.7519C830.203 16.7501 828.864 13.7781 827.695 10.7438C826.194 6.84715 828.435 3.09694 832.289 2.87729C836.482 2.63867 839.243 6.49192 837.7 10.6055C836.521 13.7456 835.127 16.8043 833.832 19.901C833.601 20.4515 833.381 21.0101 833.158 21.5633C833.271 21.6907 833.386 21.8155 833.499 21.9429C833.854 21.7124 834.398 21.5633 834.536 21.2433C836.097 17.5988 837.739 13.9761 839.064 10.2476C840.07 7.42202 838.863 4.4392 836.521 2.83662V2.83391ZM853.578 12.9511C853.107 10.1933 850.812 7.96978 848.007 7.55489C845.046 7.11832 842.088 8.58803 840.785 11.4027C839.204 14.8167 837.785 18.3039 836.356 21.7829C836.202 22.1598 836.433 22.694 836.485 23.155C836.675 23.1577 836.864 23.1604 837.054 23.1632C838.201 20.4651 839.344 17.7643 840.493 15.0662C840.953 13.9896 841.362 12.8887 841.896 11.8501C843.072 9.56694 845.506 8.34669 847.9 8.75886C850.21 9.15747 852.013 10.958 852.373 13.2222C852.753 15.6112 851.532 18.0083 849.135 19.074C845.855 20.5356 842.498 21.829 839.177 23.2038C838.679 23.4099 838.201 23.6621 837.711 23.8926C837.728 24.0716 837.741 24.2478 837.758 24.4268C838.201 24.4647 838.706 24.66 839.072 24.5136C842.646 23.0845 846.242 21.6907 849.742 20.0963C852.615 18.7893 854.067 15.8444 853.572 12.9457L853.578 12.9511ZM840.034 20.4515C840.177 20.6115 840.323 20.7715 840.466 20.9315C843.389 19.6407 846.383 18.4828 849.203 17.0023C850.589 16.2729 851.04 14.7082 850.595 13.1219C850.174 11.6278 849.168 10.6868 847.576 10.4455C845.86 10.1852 844.411 10.798 843.672 12.2732C842.338 14.9414 841.236 17.7182 840.037 20.4515H840.034ZM850.248 21.9999C846.787 23.2933 843.378 24.7224 839.971 26.1541C839.548 26.3331 839.284 26.8835 838.948 27.2632C839.075 27.3988 839.201 27.5316 839.328 27.6672C842.836 26.249 846.306 24.7224 849.874 23.4669C851.257 22.9815 852.934 22.7537 854.353 23.033C857.416 23.6377 859.024 26.8157 858.092 29.7959C857.19 32.6783 853.943 34.2972 850.856 33.1935C847.666 32.0547 844.562 30.688 841.42 29.4244C840.719 29.1423 840.015 28.8685 839.314 28.5892C839.185 28.7247 839.058 28.8603 838.929 28.9959C839.234 29.3593 839.465 29.8935 839.858 30.0562C843.361 31.5232 846.855 33.0173 850.424 34.3162C853.454 35.4198 856.698 34.3324 858.394 31.9136C860.014 29.606 859.967 26.4307 858.279 24.2153C856.453 21.8182 853.286 20.8691 850.251 22.0053L850.248 21.9999ZM843.537 28.3614C846.292 29.4433 849.014 30.6202 851.812 31.5693C853.413 32.1116 855.098 31.3903 855.895 30.1484C856.739 28.8332 856.786 27.4638 855.914 26.1405C855.046 24.8227 853.363 24.1393 851.697 24.7142C848.948 25.6633 846.273 26.8212 843.564 27.8896C843.556 28.0468 843.545 28.2041 843.537 28.3614Z" fill="url(#paint6_linear_129_15683)"/>
<path d="M769.162 27.6564C769.259 32.7895 766.256 35.5174 761.206 36.5885C763.917 40.4174 764.28 44.2435 761.06 47.69C757.497 51.5053 753.343 51.2884 749.167 48.4791C747.531 53.7804 745.007 56.2263 740.96 56.2697C735.747 56.3266 733.017 53.3709 731.983 48.4412C728.118 51.0579 724.225 51.5135 720.714 48.3463C716.884 44.8916 716.986 40.8187 719.875 36.5885C715.311 35.5879 712.196 33.2668 712.009 28.5404C711.806 23.3801 714.932 20.7335 719.74 19.695C717.28 13.9598 717.299 11.2807 720.057 8.51482C723.697 4.86222 727.747 4.98695 731.991 7.77996C732.965 3.13761 735.489 0.119541 740.305 0.00565338C745.422 -0.113659 748.127 2.93966 749.139 7.84775C752.818 5.24998 756.565 4.78358 760.046 7.62811C764.293 11.0963 764.145 15.3211 761.302 19.6597C766.619 21.3138 769.088 23.7353 769.16 27.6618L769.162 27.6564ZM755.996 48.6906C758.762 48.2351 761.066 45.9302 761.481 43.205C761.929 40.2574 760.37 37.3288 757.42 36.0245C753.997 34.5114 750.503 33.1502 747.022 31.7672C746.626 31.6099 746.109 31.7455 745.65 31.7455L745.543 32.3068C746.01 32.54 746.467 32.8004 746.951 33.001C750.129 34.308 753.332 35.5635 756.493 36.9085C759.74 38.286 761.176 41.5373 759.85 44.3628C758.896 46.3939 757.261 47.5219 755.006 47.5599C752.562 47.6033 750.717 46.4291 749.722 44.2598C748.218 40.9814 746.879 37.6298 745.463 34.3107C745.29 33.904 745.081 33.5081 744.891 33.1095C744.724 33.1041 744.553 33.0959 744.385 33.0905C744.33 33.5461 744.094 34.0694 744.245 34.4436C745.664 37.9254 747.063 41.418 748.644 44.8292C749.983 47.7144 752.999 49.1896 755.996 48.6961V48.6906ZM740.314 38.8582C739.228 41.5183 738.043 44.1459 737.089 46.8521C736.511 48.49 737.229 50.1875 738.543 51.0037C739.885 51.8389 741.27 51.8199 742.604 50.9874C743.863 50.201 744.6 48.5144 744.058 46.9742C743.091 44.2191 741.906 41.54 740.811 38.8311C740.646 38.8419 740.481 38.8501 740.316 38.8609L740.314 38.8582ZM740.8 17.4334C741.895 14.7272 743.099 12.0562 744.047 9.30119C744.616 7.6498 743.838 5.96315 742.497 5.20118C741.136 4.42836 739.739 4.45005 738.43 5.32592C737.141 6.18822 736.52 7.88571 737.116 9.52897C738.081 12.1783 739.239 14.7597 740.314 17.3711C740.476 17.3928 740.638 17.4145 740.8 17.4361V17.4334ZM747.913 35.7262C749.073 38.4135 750.14 41.1414 751.424 43.769C752.224 45.4068 753.975 46.1444 755.512 45.8542C757.057 45.5614 758.297 44.3113 758.544 42.7955C758.817 41.1414 758 39.4873 756.276 38.709C753.64 37.5213 750.94 36.4746 748.265 35.3683L747.913 35.7235V35.7262ZM736.602 53.352C738.942 54.9952 742.09 55.0169 744.424 53.4035C746.808 51.7575 747.957 48.6825 746.909 45.8353C745.576 42.2152 743.995 38.6819 742.472 35.1297C742.318 34.7717 741.829 34.5521 741.493 34.2674C741.339 34.3894 741.182 34.5141 741.029 34.6361C741.38 35.5039 741.721 36.377 742.082 37.2393C743.239 40.0052 744.487 42.7413 745.551 45.5424C747.105 49.6343 744.575 53.4414 740.451 53.3682C736.528 53.2977 734.064 49.6234 735.505 45.7702C736.715 42.5352 738.144 39.3815 739.475 36.1899C739.684 35.6883 739.868 35.1731 740.063 34.666C739.945 34.5412 739.83 34.4165 739.712 34.2945C739.36 34.5358 738.829 34.7039 738.686 35.032C737.144 38.6304 735.546 42.2125 734.207 45.8841C733.187 48.6798 734.323 51.7467 736.608 53.352H736.602ZM719.65 43.2212C720.12 46.0549 722.451 48.3246 725.297 48.7178C728.299 49.1353 731.216 47.5951 732.555 44.6638C734.075 41.3339 735.445 37.9389 736.833 34.5548C736.998 34.1508 736.855 33.6274 736.855 33.1583C736.649 33.1366 736.44 33.1122 736.234 33.0905C735.786 34.0884 735.321 35.0809 734.889 36.0869C733.732 38.7985 732.673 41.5536 731.414 44.2191C730.375 46.4183 728.533 47.6304 725.998 47.5626C723.787 47.5029 721.885 46.0712 721.096 43.9724C720.109 41.3421 721.434 38.3592 724.326 37.0793C727.516 35.6693 730.771 34.4057 733.996 33.0715C734.504 32.86 734.999 32.616 735.502 32.3882C735.502 32.2092 735.502 32.033 735.502 31.854C735.027 31.816 734.482 31.6099 734.086 31.7672C730.603 33.1447 727.111 34.5114 723.691 36.0354C720.736 37.3559 719.169 40.3225 719.65 43.2239V43.2212ZM733.259 35.6639C733.127 35.55 732.992 35.4388 732.86 35.3249C730.092 36.4936 727.279 37.5729 724.568 38.8663C722.899 39.6635 722.253 41.3041 722.581 42.9365C722.869 44.371 724.084 45.5505 725.583 45.8515C727.078 46.1525 728.843 45.4638 729.597 43.9317C730.925 41.2282 732.046 38.427 733.256 35.6639H733.259ZM714.918 24.2451C713.216 26.5717 713.238 29.747 714.973 32.0763C716.667 34.346 719.82 35.3818 722.721 34.3297C726.339 33.0173 729.883 31.5015 733.432 30.0182C733.795 29.8664 733.996 29.3349 734.273 28.9796C734.139 28.8522 734.004 28.7247 733.867 28.6C730.93 29.7877 727.994 30.9781 725.055 32.1658C724.247 32.4939 723.444 32.8437 722.619 33.1258C720.018 34.007 717.398 33.302 715.946 31.3605C714.522 29.4569 714.511 26.8998 715.916 24.9583C717.34 22.995 719.955 22.1815 722.556 23.1252C725.547 24.2126 728.467 25.487 731.417 26.6775C732.217 27.0001 733.022 27.3174 733.825 27.6374C733.963 27.537 734.097 27.4367 734.235 27.3364C733.993 26.9676 733.834 26.4063 733.493 26.2626C729.894 24.7576 726.306 23.2147 722.636 21.8968C719.743 20.861 716.595 21.9483 714.915 24.2451H714.918ZM729.732 28.337C729.715 28.1933 729.699 28.0468 729.682 27.9031C727.023 26.8402 724.39 25.7013 721.692 24.7413C720.026 24.1475 718.319 24.7766 717.404 26.0185C716.488 27.2632 716.469 28.8658 717.351 30.1538C718.231 31.4391 719.903 32.1116 721.594 31.5259C724.343 30.5714 727.021 29.4108 729.729 28.337H729.732ZM725.242 7.54133C722.38 7.96706 720.106 10.2232 719.65 13.0894C719.193 15.9529 720.686 18.8462 723.609 20.1695C727.065 21.7341 730.614 23.1008 734.141 24.5027C734.518 24.6518 735.029 24.4675 735.478 24.4376C735.478 24.2234 735.478 24.0119 735.478 23.7977C732.162 22.4419 728.824 21.1403 725.544 19.7058C724.346 19.1824 723.106 18.5208 722.207 17.6124C720.161 15.5461 720.367 12.1674 722.451 10.2069C724.61 8.17857 728.013 8.1623 730.105 10.2557C730.738 10.8902 731.268 11.6902 731.631 12.5091C733.014 15.6221 734.306 18.7703 735.64 21.9049C735.816 22.3171 736.027 22.7103 736.225 23.1143C736.393 23.1252 736.564 23.136 736.731 23.1442C736.786 22.6886 737.017 22.1653 736.866 21.7911C735.467 18.3554 734.078 14.9116 732.528 11.541C731.18 8.61243 728.236 7.09662 725.245 7.54133H725.242ZM733.278 20.5654C731.975 17.6829 730.807 14.7299 729.314 11.9451C728.585 10.5838 727.029 10.0821 725.407 10.4699C723.936 10.8224 722.949 11.7661 722.619 13.2222C722.262 14.8004 722.702 16.3406 724.134 17.0674C726.974 18.51 729.962 19.676 732.888 20.9559C733.02 20.8257 733.149 20.6928 733.281 20.5627L733.278 20.5654ZM744.407 2.83119C742.082 1.24216 738.868 1.28013 736.583 2.92339C734.301 4.56665 733.19 7.60912 734.21 10.4048C735.535 14.0303 737.111 17.5663 738.628 21.1213C738.785 21.4874 739.28 21.7124 739.615 22.0026C739.772 21.8833 739.932 21.7639 740.088 21.6473C739.841 21.0155 739.607 20.3756 739.346 19.7492C738.089 16.7474 736.751 13.7754 735.582 10.7411C734.081 6.84444 736.322 3.09422 740.176 2.87458C744.369 2.63596 747.129 6.48921 745.587 10.6028C744.407 13.7429 743.014 16.8016 741.719 19.8983C741.488 20.4488 741.268 21.0074 741.045 21.5606C741.158 21.688 741.273 21.8127 741.386 21.9402C741.741 21.7097 742.285 21.5606 742.422 21.2406C743.984 17.5961 745.625 13.9734 746.951 10.2449C747.957 7.41931 746.75 4.43649 744.407 2.83391V2.83119ZM761.464 12.9484C760.994 10.1906 758.698 7.96706 755.894 7.55218C752.933 7.1156 749.975 8.58532 748.672 11.4C747.091 14.814 745.672 18.3012 744.242 21.7802C744.089 22.1571 744.319 22.6913 744.372 23.1523C744.561 23.155 744.751 23.1577 744.941 23.1604C746.087 20.4623 747.231 17.7615 748.38 15.0634C748.839 13.9869 749.249 12.886 749.782 11.8474C750.959 9.56422 753.392 8.34398 755.787 8.75615C758.096 9.15476 759.9 10.9553 760.26 13.2195C760.639 15.6085 759.419 18.0056 757.021 19.0713C753.741 20.5329 750.384 21.8263 747.063 23.2011C746.566 23.4072 746.087 23.6594 745.598 23.8899C745.614 24.0688 745.628 24.2451 745.645 24.4241C746.087 24.462 746.593 24.6573 746.959 24.5108C750.533 23.0818 754.129 21.688 757.629 20.0936C760.502 18.7865 761.954 15.8417 761.459 12.9429L761.464 12.9484ZM747.921 20.4488C748.064 20.6088 748.21 20.7688 748.353 20.9288C751.275 19.638 754.269 18.4801 757.09 16.9996C758.476 16.2701 758.927 14.7055 758.481 13.1192C758.061 11.6251 757.054 10.6841 755.462 10.4428C753.747 10.1825 752.298 10.7953 751.558 12.2705C750.225 14.9387 749.123 17.7154 747.924 20.4488H747.921ZM758.135 21.9971C754.673 23.2906 751.264 24.7196 747.858 26.1514C747.434 26.3304 747.171 26.8808 746.835 27.2605C746.962 27.396 747.088 27.5289 747.214 27.6645C750.723 26.2463 754.192 24.7196 757.761 23.4641C759.144 22.9788 760.821 22.751 762.24 23.0303C765.302 23.635 766.911 26.813 765.979 29.7931C765.077 32.6756 761.83 34.2945 758.742 33.1908C755.553 32.0519 752.449 30.6853 749.307 29.4216C748.606 29.1396 747.902 28.8658 747.201 28.5865C747.072 28.722 746.945 28.8576 746.816 28.9932C747.121 29.3566 747.352 29.8908 747.745 30.0535C751.248 31.5205 754.742 33.0146 758.311 34.3135C761.341 35.4171 764.585 34.3297 766.281 31.9109C767.9 29.6033 767.854 26.428 766.166 24.2126C764.34 21.8155 761.173 20.8664 758.138 22.0026L758.135 21.9971ZM751.424 28.3587C754.179 29.4406 756.9 30.6175 759.699 31.5666C761.299 32.1089 762.985 31.3876 763.782 30.1457C764.626 28.8305 764.673 27.4611 763.801 26.1378C762.932 24.82 761.25 24.1366 759.584 24.7115C756.834 25.6606 754.159 26.8185 751.451 27.8868C751.443 28.0441 751.432 28.2014 751.424 28.3587Z" fill="url(#paint7_linear_129_15683)"/>
<path d="M786.639 25.8227C787.933 25.8227 788.982 26.8571 788.982 28.133C788.982 29.409 787.933 30.4434 786.639 30.4434C785.346 30.4434 784.297 29.409 784.297 28.133C784.297 26.8571 785.346 25.8227 786.639 25.8227Z" fill="url(#paint8_linear_129_15683)"/>
<path d="M878.749 25.8227C880.042 25.8227 881.091 26.8571 881.091 28.133C881.091 29.409 880.042 30.4434 878.749 30.4434C877.455 30.4434 876.406 29.409 876.406 28.133C876.406 26.8571 877.455 25.8227 878.749 25.8227Z" fill="url(#paint9_linear_129_15683)"/>
<path d="M970.862 25.8227C972.156 25.8227 973.204 26.8571 973.204 28.133C973.204 29.409 972.156 30.4434 970.862 30.4434C969.568 30.4434 968.52 29.409 968.52 28.133C968.52 26.8571 969.568 25.8227 970.862 25.8227Z" fill="url(#paint10_linear_129_15683)"/>
<path d="M1062.98 25.8227C1064.27 25.8227 1065.32 26.8571 1065.32 28.133C1065.32 29.409 1064.27 30.4434 1062.98 30.4434C1061.68 30.4434 1060.63 29.409 1060.63 28.133C1060.63 26.8571 1061.68 25.8227 1062.98 25.8227Z" fill="url(#paint11_linear_129_15683)"/>
</g>
<defs>
<linearGradient id="paint0_linear_129_15683" x1="781.18" y1="80.2119" x2="781.18" y2="126.671" gradientUnits="userSpaceOnUse">
<stop stop-color="#EFD891"/>
<stop offset="1" stop-color="#EDE2B2"/>
</linearGradient>
<linearGradient id="paint1_linear_129_15683" x1="781.18" y1="61.1504" x2="781.18" y2="74.2546" gradientUnits="userSpaceOnUse">
<stop stop-color="#EFD891"/>
<stop offset="1" stop-color="#EDE2B2"/>
</linearGradient>
<linearGradient id="paint2_linear_129_15683" x1="781.18" y1="130.844" x2="781.18" y2="143.948" gradientUnits="userSpaceOnUse">
<stop stop-color="#EFD891"/>
<stop offset="1" stop-color="#EDE2B2"/>
</linearGradient>
<linearGradient id="paint3_linear_129_15683" x1="1109.03" y1="56.2705" x2="1109.03" y2="0.00227737" gradientUnits="userSpaceOnUse">
<stop stop-color="#EFD891"/>
<stop offset="1" stop-color="#EDE2B2"/>
</linearGradient>
<linearGradient id="paint4_linear_129_15683" x1="1016.92" y1="56.2705" x2="1016.92" y2="0.00227737" gradientUnits="userSpaceOnUse">
<stop stop-color="#EFD891"/>
<stop offset="1" stop-color="#EDE2B2"/>
</linearGradient>
<linearGradient id="paint5_linear_129_15683" x1="924.807" y1="56.2705" x2="924.807" y2="0.00227737" gradientUnits="userSpaceOnUse">
<stop stop-color="#EFD891"/>
<stop offset="1" stop-color="#EDE2B2"/>
</linearGradient>
<linearGradient id="paint6_linear_129_15683" x1="832.694" y1="56.2705" x2="832.694" y2="0.00227737" gradientUnits="userSpaceOnUse">
<stop stop-color="#EFD891"/>
<stop offset="1" stop-color="#EDE2B2"/>
</linearGradient>
<linearGradient id="paint7_linear_129_15683" x1="740.582" y1="56.2705" x2="740.582" y2="0.00227737" gradientUnits="userSpaceOnUse">
<stop stop-color="#EFD891"/>
<stop offset="1" stop-color="#EDE2B2"/>
</linearGradient>
<linearGradient id="paint8_linear_129_15683" x1="786.639" y1="30.4434" x2="786.639" y2="25.8227" gradientUnits="userSpaceOnUse">
<stop stop-color="#EFD891"/>
<stop offset="1" stop-color="#EDE2B2"/>
</linearGradient>
<linearGradient id="paint9_linear_129_15683" x1="878.749" y1="30.4434" x2="878.749" y2="25.8227" gradientUnits="userSpaceOnUse">
<stop stop-color="#EFD891"/>
<stop offset="1" stop-color="#EDE2B2"/>
</linearGradient>
<linearGradient id="paint10_linear_129_15683" x1="970.862" y1="30.4434" x2="970.862" y2="25.8227" gradientUnits="userSpaceOnUse">
<stop stop-color="#EFD891"/>
<stop offset="1" stop-color="#EDE2B2"/>
</linearGradient>
<linearGradient id="paint11_linear_129_15683" x1="1062.98" y1="30.4434" x2="1062.98" y2="25.8227" gradientUnits="userSpaceOnUse">
<stop stop-color="#EFD891"/>
<stop offset="1" stop-color="#EDE2B2"/>
</linearGradient>
<clipPath id="clip0_129_15683">
<rect width="978.29" height="56.2695" fill="white" transform="matrix(1 0 0 -1 712 56.2695)"/>
</clipPath>
</defs>
</svg>
