<svg width="57" height="6" viewBox="0 0 57 6" fill="none" xmlns="http://www.w3.org/2000/svg">
<path d="M55.5965 3.66115C55.8541 2.62956 55.0789 1.61582 53.865 1.39693C52.6512 1.17803 51.4583 1.83686 51.2007 2.86846C50.9432 3.90006 51.7184 4.91378 52.9323 5.13268C54.1462 5.35157 55.339 4.69275 55.5965 3.66115Z" fill="white"/>
<path d="M45.7113 3.67432C45.9978 2.64825 45.2514 1.61907 44.044 1.37557C42.8367 1.13208 41.6256 1.76647 41.3391 2.79253C41.0526 3.8186 41.7991 4.84779 43.0064 5.09129C44.2138 5.33478 45.4248 4.70038 45.7113 3.67432Z" fill="white"/>
<path d="M35.8559 3.67627C36.1424 2.6502 35.3959 1.62102 34.1886 1.37753C32.9812 1.13403 31.7702 1.76842 31.4836 2.79449C31.1971 3.82056 31.9436 4.84974 33.151 5.09324C34.3583 5.33674 35.5693 4.70234 35.8559 3.67627Z" fill="white"/>
<path d="M24.649 5.02189C25.7968 4.62122 26.3451 3.50565 25.8736 2.53016C25.4022 1.55468 24.0895 1.08868 22.9416 1.48936C21.7938 1.89003 21.2455 3.00564 21.7169 3.98113C22.1884 4.95661 23.5011 5.42256 24.649 5.02189Z" fill="white"/>
<path d="M14.7935 5.0219C15.9413 4.62122 16.4896 3.50565 16.0182 2.53016C15.5467 1.55468 14.234 1.08869 13.0861 1.48936C11.9383 1.89004 11.39 3.00564 11.8615 3.98113C12.3329 4.95661 13.6456 5.42257 14.7935 5.0219Z" fill="white"/>
<path d="M5.68811 4.58456C6.56555 3.83887 6.56557 2.62989 5.68812 1.8842C4.81068 1.13851 3.38806 1.1385 2.51062 1.88419C1.63318 2.62988 1.63319 3.83889 2.51064 4.58458C3.38808 5.33027 4.81067 5.33025 5.68811 4.58456Z" fill="white"/>
</svg>
