<svg width="395" height="254" viewBox="0 0 395 254" fill="none" xmlns="http://www.w3.org/2000/svg">
<path d="M234.794 96.4333C234.01 95.8725 233.206 95.4069 232.244 95.2535C231.931 95.2059 231.56 95.2747 231.32 94.8885C231.356 94.7033 231.403 94.4863 231.44 94.2694C231.722 92.4917 231.246 91.0209 229.658 90.0844C229.068 89.7352 228.812 89.2802 228.676 88.6294C228.42 87.439 227.678 86.6454 226.534 86.2539C226.058 86.0899 225.588 85.9153 225.102 85.8095C224.512 85.6825 224.261 85.3597 224.282 84.7513C224.319 83.6455 223.958 82.6562 223.383 81.7303C222.913 80.9737 222.286 80.5028 221.424 80.2912C220.113 79.9685 218.901 80.0955 217.762 80.8785C217.385 81.1377 217.15 81.016 217.046 80.5505C216.633 78.6405 215.515 77.4712 213.598 77.1538C213.117 77.0744 212.819 76.831 212.563 76.413C211.973 75.4501 211.043 74.9369 209.987 74.6935C208.812 74.4237 207.678 74.5771 206.597 75.1644C205.959 75.5083 205.891 75.4713 205.593 74.8258C204.778 73.0746 203.415 71.9794 201.597 71.5508C200.667 71.3286 200.484 71.1435 200.484 70.2229C200.484 69.9424 200.411 69.6621 200.416 69.3816C200.432 68.4029 200.076 67.6251 199.261 67.0907C198.786 66.7785 198.634 66.3394 198.64 65.7998C198.65 63.6623 198.655 61.5248 198.66 59.3874C198.66 59.0329 198.744 58.7154 199.052 58.5091C199.993 57.8848 200.698 56.9959 201.497 56.2234C205.708 52.139 209.904 48.0386 214.099 43.9383C217.255 40.8537 220.369 37.7163 223.566 34.6794C225.677 32.6795 227.793 30.6902 229.799 28.5844C230.144 28.2194 230.525 27.886 230.714 27.394C230.876 26.9707 230.75 26.5264 230.379 26.1772C230.097 25.9126 229.815 25.9443 229.334 26.2724C228.274 27.0025 227.349 27.8808 226.435 28.7855C224.643 30.5526 222.783 32.2404 220.996 34.0128C219.449 35.5471 218.033 37.219 216.445 38.7057C212.527 42.3722 208.723 46.1551 204.669 49.6735C202.563 51.4988 200.458 53.34 198.54 55.3822C198.347 55.5833 198.138 55.7738 197.924 55.9484C197.532 56.2658 197.307 56.2605 196.889 55.9166C196.675 55.742 196.461 55.5515 196.273 55.3505C194.533 53.4458 192.548 51.811 190.667 50.065C189.026 48.5466 187.26 47.1762 185.667 45.5996C184.193 44.1446 182.694 42.7267 181.168 41.3299C179.188 39.5205 177.307 37.6052 175.458 35.6582C174.303 34.4413 173.117 33.2562 171.921 32.0869C170.364 30.5632 168.77 29.0765 167.219 27.5475C166.764 27.103 166.2 26.8755 165.677 26.5581C165.312 26.3359 164.758 26.5316 164.486 26.8755C164.267 27.1506 164.298 27.5633 164.585 27.9654C164.716 28.1453 164.867 28.3146 165.019 28.4786C168.964 32.8329 173.007 37.0867 177.375 41.0125C178.953 42.4304 180.421 43.97 181.931 45.462C182.527 46.0493 183.06 46.7159 183.692 47.2503C186.038 49.2396 188.352 51.2501 190.531 53.4247C190.688 53.5834 190.85 53.7421 191.027 53.8744C192.699 55.1018 194.141 56.5885 195.688 57.9588C196.409 58.599 196.821 59.2656 196.806 60.2656C196.774 62.0644 196.79 63.8633 196.874 65.6569C196.91 66.387 196.712 66.8315 196.064 67.1225C195.008 67.5986 194.69 68.5298 194.648 69.5985C194.632 69.9371 194.669 70.2705 194.679 70.6091C194.705 71.3022 194.711 71.3181 194.026 71.5508C192.265 72.1593 190.881 73.2016 190.123 74.9793C190.061 75.1221 189.914 75.228 189.82 75.3338C189.308 75.3549 188.964 75.0269 188.556 74.8682C186.691 74.1169 184.136 74.8205 183.206 76.4395C182.913 76.9474 182.511 77.0956 181.994 77.1855C180.421 77.4554 179.455 78.4659 178.864 79.9102C178.718 80.2647 178.791 80.7092 178.42 80.9896C178.274 80.942 178.112 80.9155 177.966 80.8414C177.767 80.7462 177.584 80.6033 177.386 80.5081C175.254 79.5081 173.091 80.27 172.046 82.3705C171.738 82.9842 171.56 83.635 171.565 84.3175C171.576 85.709 171.419 85.5873 170.332 85.8888C170.066 85.9629 169.799 86.0422 169.533 86.1216C168.201 86.5343 167.313 87.402 167.041 88.7988C166.921 89.4178 166.613 89.7776 166.095 90.0739C164.732 90.8463 164.261 92.1108 164.277 93.6187C164.277 93.788 164.298 93.9572 164.308 94.1213C164.371 95.0418 164.376 95.0736 163.415 95.2641C162.339 95.4757 161.445 96.0154 160.625 96.7085C158.556 98.4597 158.446 101.512 160.39 103.412C160.63 103.645 160.907 103.835 161.174 104.036C161.665 104.41 161.764 104.842 161.471 105.332C161.356 105.523 161.226 105.708 161.121 105.909C160.28 107.555 160.589 109.115 162.057 110.258C163.843 111.65 165.834 111.761 167.898 111.015C168.467 110.808 168.99 110.459 169.533 110.179C170.886 109.486 172.313 109.311 173.734 109.824C175.473 110.454 177.218 110.422 178.99 110.105C180.249 109.877 181.497 109.602 182.762 109.422C184.528 109.168 186.325 108.999 188.039 109.613C189.502 110.136 190.891 110.872 192.067 111.935C192.939 112.718 193.828 113.491 194.648 114.332C195.045 114.739 195.902 115.025 195.635 115.692C195.437 116.194 194.627 115.988 194.094 116.014C192.851 116.078 191.67 116.327 190.609 117.02C189.669 117.633 188.796 118.342 188.086 119.21C186.106 121.639 185.745 124.448 186.78 127.305C187.704 129.86 189.611 131.569 192.302 132.247C193.222 132.479 194.146 132.633 195.097 132.659C195.562 132.675 195.735 132.855 195.682 133.289C195.531 134.448 195.588 135.537 196.435 136.447C196.602 136.627 196.571 136.871 196.471 137.082C196.33 137.389 196.153 137.675 196.022 137.987C194.946 140.463 194.805 142.881 196.508 145.161C196.847 145.616 196.874 145.987 196.513 146.505C195.667 147.743 195.745 148.722 196.649 149.886C196.853 150.151 197.109 150.373 197.333 150.621C197.563 150.87 197.527 151.129 197.312 151.367C197.124 151.574 196.941 151.785 196.732 151.971C193.796 154.563 191.262 157.568 188.41 160.251C188.248 160.404 188.107 160.584 187.939 160.732C187.135 161.441 187.098 162.266 187.589 163.161C187.971 163.848 188.326 164.552 188.765 165.198C189.899 166.869 190.938 168.6 191.868 170.393C193.133 172.832 194.402 175.271 195.823 177.626C196.461 178.684 197.124 179.721 197.741 180.795C198.148 181.504 198.101 181.678 197.38 182.123C196.252 182.816 195.771 183.779 196.001 185.107C196.048 185.377 196.137 185.689 196.053 185.927C195.526 187.387 195.567 188.921 195.432 190.424C195.144 193.614 194.899 196.815 194.716 200.016C194.502 203.667 194.402 207.323 194.193 210.968C194.068 213.158 193.854 215.338 193.66 217.523C193.446 219.931 193.222 222.338 192.981 224.745C192.736 227.205 192.485 229.666 192.182 232.121C192.088 232.904 191.978 233.676 191.978 234.464C191.978 235.306 191.947 236.157 191.456 236.903C189.972 239.157 189.141 241.617 189.068 244.342C189.047 245.183 188.896 246.019 188.817 246.861C188.775 247.31 188.734 247.76 188.734 248.21C188.734 249.231 188.833 249.337 189.805 249.522C190.296 249.612 190.787 249.707 191.262 249.861C191.858 250.046 192.464 250.083 193.075 250.088C193.697 250.093 194.277 249.85 194.815 249.554C195.322 249.273 195.259 248.686 195.384 248.21C195.395 248.173 195.473 248.152 195.573 248.093C195.693 249.342 195.876 250.569 195.912 251.797C195.944 252.818 196.607 253.553 197.647 253.559C198.749 253.559 199.852 253.569 200.964 253.585C202.161 253.601 202.459 253.21 202.542 252.061C202.568 251.67 202.595 251.273 202.61 250.882C202.636 250.099 202.783 249.67 203.702 249.972C203.911 250.04 204.136 250.088 204.355 250.088C205.703 250.12 206.962 249.601 208.274 249.39C208.519 249.347 208.624 249.104 208.645 248.882C208.686 248.437 208.728 247.982 208.692 247.538C208.598 246.247 208.41 244.967 208.357 243.676C208.279 241.776 207.851 239.993 206.853 238.385C205.944 236.919 205.327 235.406 205.547 233.628C205.578 233.359 205.473 233.073 205.437 232.792C205.17 230.618 204.852 228.443 204.648 226.264C204.24 221.899 203.927 217.518 203.498 213.153C203.316 211.301 203.436 209.434 203.195 207.593C202.913 205.407 202.976 203.212 202.788 201.027C202.548 198.228 202.48 195.413 202.281 192.609C202.151 190.757 201.921 188.916 201.722 187.075C201.654 186.456 201.665 185.847 201.785 185.228C202.009 184.027 201.649 183.022 200.729 182.207C200.008 181.567 200.014 181.535 200.473 180.673C200.787 180.081 201.121 179.493 201.477 178.922C203.054 176.403 204.481 173.795 205.839 171.144C206.941 168.996 208.127 166.901 209.528 164.928C210.045 164.192 210.447 163.388 210.766 162.542C210.964 162.018 210.897 161.536 210.52 161.134C209.951 160.52 209.376 159.907 208.775 159.325C206.079 156.727 203.629 153.875 200.787 151.42C200.275 150.981 200.311 150.838 200.792 150.352C202.067 149.055 202.239 148.219 201.388 146.611C201.038 145.939 201.111 145.415 201.341 144.717C202.182 142.14 202.459 139.548 200.876 137.104C200.698 136.828 200.719 136.553 200.928 136.336C201.55 135.68 201.774 134.897 201.706 134.014C201.597 132.553 201.905 132.755 202.892 132.426C203.101 132.358 203.326 132.321 203.54 132.268C205.787 131.755 207.375 130.368 208.624 128.458C210.249 125.972 210.003 121.3 207.568 118.903C207.093 118.432 206.591 117.983 206.074 117.559C204.914 116.618 203.603 116.073 202.093 116.046C201.482 116.036 200.876 115.967 200.264 115.909C200.17 115.898 200.061 115.813 200.003 115.729C199.899 115.57 199.967 115.401 200.092 115.29C201.403 114.078 202.715 112.861 204.047 111.665C205.061 110.755 206.32 110.269 207.511 109.676C208.065 109.401 208.676 109.306 209.293 109.285C210.74 109.232 212.177 109.211 213.608 109.528C214.747 109.782 215.897 109.983 217.051 110.163C218.713 110.422 220.353 110.443 221.983 109.851C223.467 109.311 224.94 109.475 226.335 110.221C226.826 110.486 227.302 110.798 227.819 110.988C229.815 111.74 231.738 111.639 233.54 110.401C235.4 109.121 235.327 107.094 234.585 105.793C234.475 105.597 234.329 105.428 234.209 105.237C233.833 104.634 233.848 104.592 234.402 104.163C234.799 103.856 235.212 103.565 235.562 103.206C236.116 102.639 236.539 101.973 236.649 101.158C236.91 99.2269 236.445 97.6026 234.794 96.4228V96.4333ZM197.166 240.416C196.544 241.803 196.288 243.3 195.818 244.829C195.599 244.279 195.74 243.834 195.797 243.395C196.048 241.411 195.933 239.464 195.264 237.57C195.014 236.861 195.014 236.142 195.082 235.406C195.614 229.697 196.126 223.983 196.659 218.275C196.759 217.222 196.915 216.169 197.041 215.116C197.13 215.127 197.218 215.137 197.302 215.148C197.302 215.534 197.302 215.925 197.302 216.312C197.297 222.666 197.286 229.025 197.286 235.38C197.286 236.56 197.328 237.739 197.318 238.924C197.318 239.427 197.354 239.988 197.161 240.422L197.166 240.416ZM200.52 217.687C200.917 217.851 200.87 218.238 200.897 218.544C201.163 221.454 201.409 224.37 201.67 227.279C201.91 229.967 202.14 232.655 202.401 235.337C202.49 236.247 202.427 237.115 202.124 237.988C201.743 239.088 201.685 240.268 201.534 241.517C200.823 240.866 200.578 240.163 200.573 239.348C200.562 237.946 200.588 236.544 200.531 235.142C200.348 230.814 200.353 226.486 200.364 222.158C200.364 220.92 200.348 219.682 200.364 218.449C200.364 218.195 200.29 217.904 200.526 217.687H200.52Z" fill="#D15454"/>
<path d="M201.539 253.246C201.785 253.231 202.03 253.22 202.276 253.204C202.046 253.511 201.795 253.389 201.539 253.246Z" fill="#D15454"/>
<path d="M209.304 162.261C209.257 162.409 209.22 162.637 209.115 162.827C208.823 163.367 208.541 163.922 208.191 164.425C206.754 166.504 205.547 168.711 204.382 170.949C202.935 173.732 201.43 176.483 199.69 179.096C199.596 179.234 199.518 179.382 199.419 179.52C199.225 179.784 198.901 179.816 198.718 179.583C198.551 179.361 198.405 179.123 198.248 178.89C196.561 176.308 195.082 173.61 193.661 170.875C192.522 168.689 191.346 166.526 189.941 164.494C189.56 163.944 189.262 163.335 188.933 162.753C188.672 162.298 188.76 161.891 189.105 161.526C189.413 161.203 189.706 160.864 190.04 160.568C191.618 159.145 193.065 157.595 194.497 156.023C195.594 154.822 196.811 153.764 198.029 152.695C199.011 151.833 199.032 151.849 200.113 152.732C201.67 154.008 203.044 155.473 204.445 156.917C205.803 158.32 207.198 159.69 208.567 161.081C208.875 161.399 209.22 161.7 209.304 162.256V162.261Z" fill="#EBCE74"/>
<path d="M211.871 91.8936C211.981 93.1475 211.511 94.2374 210.544 95.1209C209.928 95.6871 209.353 96.3061 208.7 96.8193C207.284 97.941 206.062 99.2372 205.184 100.824C204.682 101.729 203.987 102.258 202.984 102.433C202.352 102.539 202.227 102.528 202.033 101.856C201.521 100.041 200.424 98.6764 198.935 97.5971C198.016 96.9357 197.739 96.9251 196.851 97.5706C195.367 98.6499 194.285 100.031 193.705 101.808C193.449 102.592 193.402 102.56 192.629 102.396C191.825 102.226 191.187 101.856 190.769 101.115C189.74 99.2795 188.303 97.8192 186.683 96.5018C185.952 95.9093 185.257 95.2374 184.672 94.4967C183.355 92.8354 183.669 89.9836 185.236 88.6979C186.448 87.7033 188.444 87.5816 189.745 88.4705C190.477 88.9731 191.161 89.5498 191.861 90.0947C192.389 90.5074 192.969 90.3434 193.141 89.6979C193.246 89.3223 193.266 88.9255 193.324 88.534C193.825 85.1373 197.107 84.2326 199.17 84.8516C200.988 85.3966 202.101 86.5922 202.404 88.5181C202.467 88.9043 202.53 89.2958 202.634 89.6715C202.828 90.3646 203.371 90.5551 203.883 90.0789C204.499 89.5075 205.2 89.0577 205.879 88.571C207.138 87.6557 208.517 87.6504 209.823 88.2588C211.25 88.9202 211.955 90.1794 211.866 91.8936H211.871Z" fill="#26AC94"/>
<path d="M197.924 117.385C199.141 117.385 200.364 117.337 201.581 117.396C205.286 117.565 209.131 120.967 208.138 125.945C207.673 128.273 206.106 129.903 203.859 130.734C202.971 131.062 202.036 131.205 201.08 131.205C198.917 131.205 196.749 131.242 194.586 131.194C192.031 131.136 190.056 130.046 188.562 127.877C187.188 125.877 187.501 122.247 188.802 120.544C190.395 118.459 192.417 117.274 195.092 117.396C196.033 117.438 196.978 117.401 197.919 117.401C197.919 117.396 197.919 117.39 197.919 117.385H197.924Z" fill="#26AC94"/>
<path d="M186.949 75.9741C187.785 75.9212 188.449 76.3391 189.081 76.8047C189.436 77.0692 189.739 77.4079 190.1 77.6777C190.648 78.0904 191.181 77.8417 191.301 77.1327C191.338 76.9105 191.343 76.683 191.364 76.4608C191.552 74.5932 192.592 73.3551 194.358 72.8948C195.293 72.6514 200.596 72.6568 201.49 72.916C202.425 73.1858 203.172 73.7731 203.83 74.4715C204.238 74.9054 204.327 75.4609 204.353 76.0323C204.379 76.5349 204.342 77.0481 204.603 77.5137C204.776 77.8206 205.173 77.9898 205.45 77.7941C205.857 77.5031 206.223 77.1592 206.615 76.8524C207.435 76.2122 208.323 75.8206 209.4 76.0111C210.711 76.2386 211.437 77.1751 211.301 78.5242C211.223 79.3337 210.873 80.0321 210.361 80.6458C209.572 81.5929 208.778 82.5346 207.984 83.4711C207.367 84.2012 206.777 84.942 206.401 85.8361C205.962 86.8784 204.969 86.963 204.06 87.1641C203.956 87.1853 203.773 87.0159 203.689 86.8943C203.564 86.7144 203.491 86.4921 203.391 86.2911C202.764 85.0319 201.798 84.2065 200.507 83.6351C198.762 82.868 197.122 82.8415 195.356 83.5928C193.992 84.1748 192.963 85.016 192.373 86.3599C191.902 87.418 191.746 87.2276 190.842 86.9524C190.126 86.7355 189.562 86.3916 189.253 85.6086C188.794 84.4446 187.89 83.5663 187.101 82.6246C186.526 81.9368 185.946 81.2542 185.371 80.5664C185.048 80.1749 184.812 79.7358 184.64 79.2543C183.956 77.3444 185.157 75.9053 186.96 75.9635L186.949 75.9741Z" fill="#26AC94"/>
<path d="M223.208 87.1213C224.159 87.0472 225.089 87.0948 225.977 87.5075C227.576 88.2535 227.9 90.1265 226.62 91.3645C226.212 91.7613 225.721 92.0206 225.199 92.2163C224.472 92.4914 223.741 92.756 223.015 93.0364C222.602 93.1951 222.153 93.3115 221.792 93.5549C220.914 94.1369 220.256 94.0999 219.498 93.2533C218.725 92.391 217.571 92.1793 216.442 92.1105C215.669 92.0629 214.89 92.1105 214.112 92.1052C213.725 92.1052 213.49 91.883 213.427 91.5074C213.37 91.174 213.365 90.8354 213.318 90.5021C213.009 88.444 211.306 86.6875 209.279 86.3383C208.955 86.2801 208.621 86.2483 208.307 86.1531C208.151 86.1108 208.025 85.9309 208.109 85.751C208.245 85.4494 208.386 85.132 208.589 84.878C209.154 84.1849 209.739 83.5077 210.34 82.8464C211.39 81.6877 212.529 80.6031 212.821 78.9471C212.889 78.5714 213.26 78.4656 213.61 78.4709C214.807 78.4868 215.721 79.2857 215.873 80.5078C215.967 81.2856 215.935 82.0792 215.988 82.8623C216.035 83.5183 216.473 83.7352 217.027 83.3649C217.393 83.1162 217.712 82.7988 218.051 82.513C218.349 82.2644 218.631 81.9787 218.966 81.7935C219.864 81.2962 221.254 81.4179 221.881 82.1797C222.722 83.2061 222.915 84.1849 222.294 85.2642C222.069 85.6505 221.771 85.9838 221.531 86.3647C221.327 86.6875 221.52 87.0948 221.886 87.116C222.325 87.1425 222.769 87.1213 223.213 87.1213H223.208Z" fill="#D15454"/>
<path d="M172.763 87.1002C172.992 87.1002 173.431 87.1214 173.875 87.0949C174.236 87.0738 174.429 86.661 174.231 86.3383C174.027 86.005 173.76 85.714 173.552 85.386C172.789 84.1744 172.945 83.111 174.027 82.0634C174.811 81.3015 176.101 81.2486 177.089 81.9681C177.36 82.1639 177.58 82.4231 177.836 82.6401C178.133 82.894 178.421 83.1586 178.75 83.3702C179.309 83.73 179.753 83.5289 179.821 82.8887C179.863 82.4972 179.858 82.1004 179.873 81.7089C179.889 81.3174 179.936 80.9206 179.926 80.529C179.905 79.6561 180.73 78.7355 181.67 78.5291C182.444 78.3598 182.804 78.5133 183.008 79.3016C183.196 80.037 183.572 80.6508 184.027 81.2169C184.549 81.8729 185.124 82.4866 185.673 83.1162C186.185 83.7088 186.733 84.2749 187.203 84.8992C187.789 85.6717 188.139 86.2008 186.686 86.3436C184.56 86.5552 182.951 88.1795 182.459 90.3011C182.324 90.8778 182.58 91.6344 181.953 91.9942C181.462 92.2799 180.861 92.0259 180.312 92.0577C179.978 92.0788 179.643 92.0682 179.314 92.0947C178.008 92.2058 176.796 92.5603 175.897 93.6078C175.5 94.0681 175.082 94.1158 174.576 93.8248C173.457 93.1793 172.204 92.8671 171.023 92.3804C170.458 92.1476 169.894 91.8883 169.393 91.555C168.703 91.0947 168.348 90.3964 168.348 89.5498C168.348 88.6927 168.693 88.0525 169.481 87.6504C170.458 87.1478 171.488 87.0209 172.773 87.1002H172.763Z" fill="#D15454"/>
<path d="M171.04 108.131C169.786 108.555 168.731 109.047 167.707 109.597C166.73 110.121 165.679 110.147 164.624 110.02C163.945 109.941 163.36 109.602 162.848 109.158C161.677 108.147 161.766 106.624 163.046 105.751C163.271 105.597 163.537 105.491 163.793 105.38C164.216 105.195 164.619 104.978 164.619 104.438C164.619 103.766 164.06 103.687 163.59 103.528C162.905 103.301 162.205 103.116 161.615 102.666C160.23 101.624 159.943 99.4916 161.071 98.1795C161.818 97.3118 162.748 96.6981 163.929 96.6187C164.535 96.5764 165.146 96.5975 165.758 96.5922C166.453 96.5816 166.609 96.37 166.212 95.8409C165.538 94.9468 165.559 93.9521 165.679 92.9469C165.726 92.5765 165.904 92.1903 166.113 91.8728C166.578 91.1586 167.095 91.1427 167.675 91.8305C168.344 92.6241 169.164 93.1638 170.12 93.5183C170.951 93.8252 171.787 94.1373 172.613 94.4706C173.078 94.6558 173.527 94.8727 173.976 95.0897C174.687 95.4389 175.063 95.9838 175.047 96.8251C175.037 97.4388 175.173 98.0525 175.209 98.6662C175.225 98.8937 175.11 99.1001 174.864 99.1794C174.708 99.2323 174.546 99.2694 174.384 99.317C174.065 99.4069 173.731 99.4704 173.422 99.5974C170.136 100.931 169.143 103.132 170.329 106.597C170.491 107.068 170.747 107.502 171.045 108.137L171.04 108.131Z" fill="#26AC94"/>
<path d="M230.661 96.5707C231.993 96.4702 233.184 96.8035 234.219 97.6923C235.953 99.1843 235.718 101.83 233.717 102.925C233.331 103.137 232.897 103.258 232.479 103.417C232.166 103.533 231.837 103.613 231.539 103.75C230.959 104.02 230.912 104.745 231.46 105.099C231.831 105.337 232.27 105.47 232.646 105.703C233.373 106.142 233.728 106.793 233.691 107.671C233.665 108.353 233.341 108.845 232.834 109.237C231.523 110.247 230.05 110.332 228.566 109.798C227.364 109.364 226.22 108.782 225.06 108.247C224.835 108.142 224.794 107.909 224.903 107.676C225.05 107.374 225.206 107.078 225.353 106.771C225.818 105.782 225.948 104.734 225.912 103.65C225.88 102.824 225.593 102.121 225.06 101.507C224.276 100.602 223.352 99.9039 222.192 99.5653C221.763 99.4383 221.33 99.3536 220.907 99.2214C220.687 99.1526 220.52 98.9939 220.541 98.7294C220.593 97.9463 220.656 97.1632 220.713 96.3749C220.745 95.9464 220.964 95.6237 221.314 95.4173C221.837 95.1052 222.375 94.7983 222.934 94.5602C223.65 94.2534 224.386 93.9994 225.118 93.7401C226.345 93.3063 227.453 92.719 228.258 91.6291C228.587 91.1794 228.968 91.2165 229.386 91.5974C229.726 91.9096 229.961 92.2852 230.044 92.7402C230.253 93.8777 230.285 94.9782 229.449 95.9252C229.35 96.0363 229.261 96.2321 229.292 96.3644C229.35 96.6342 229.611 96.6289 229.835 96.6183C230.112 96.6078 230.389 96.5918 230.666 96.5813L230.661 96.5707Z" fill="#26AC94"/>
<path d="M186.128 107.464C185.96 107.512 185.856 107.57 185.752 107.565C183.343 107.486 181.013 108.057 178.672 108.491C177.679 108.676 176.682 108.734 175.689 108.628C173.254 108.369 171.514 106.48 171.504 104.173C171.504 103.332 171.786 102.676 172.429 102.115C173.306 101.348 174.263 100.877 175.443 100.888C175.997 100.893 176.551 100.867 177.105 100.809C177.517 100.766 177.831 100.518 177.946 100.1C178.045 99.7504 177.946 99.4224 177.643 99.2055C176.3 98.2373 176.582 96.8246 176.744 95.5125C176.859 94.6025 177.544 94.0628 178.442 93.8776C179.32 93.6978 180.208 93.6555 181.091 93.7771C181.749 93.8671 182.429 94.0575 182.826 94.666C183.918 96.3326 185.448 97.5494 186.927 98.8192C187.653 99.4435 188.28 100.147 188.777 100.967C189.095 101.486 188.928 101.771 188.286 101.819C187.622 101.867 186.953 101.872 186.29 101.935C185.396 102.025 184.545 102.279 183.813 102.835C182.941 103.496 182.883 104.343 183.698 105.105C184.351 105.713 185.062 106.258 185.746 106.829C185.913 106.967 186.122 107.073 186.128 107.475V107.464Z" fill="#26AC94"/>
<path d="M219.017 108.697C218.521 108.649 218.019 108.639 217.528 108.554C215.072 108.147 212.643 107.496 210.125 107.565C209.968 107.565 209.748 107.533 209.743 107.327C209.738 107.189 209.821 107.004 209.926 106.909C210.208 106.644 210.532 106.417 210.83 106.168C211.295 105.771 211.786 105.39 212.204 104.946C212.831 104.285 212.753 103.459 212.042 102.898C211.274 102.295 210.37 102.025 209.419 101.93C208.813 101.867 208.202 101.867 207.591 101.814C206.786 101.745 206.65 101.438 207.126 100.724C207.627 99.9779 208.244 99.3324 208.918 98.7451C209.759 98.015 210.579 97.2584 211.399 96.5018C211.932 96.0097 212.455 95.5071 212.81 94.8564C213.035 94.4437 213.385 94.1792 213.818 94.0257C215.182 93.539 216.551 93.6025 217.883 94.0945C218.693 94.3961 219.048 95.1262 219.09 95.9622C219.121 96.5759 219.053 97.1949 219.006 97.8139C218.959 98.4224 218.567 98.7927 218.134 99.1789C217.481 99.7662 217.716 100.618 218.578 100.782C219.174 100.893 219.79 100.898 220.401 100.898C221.582 100.898 222.528 101.406 223.395 102.168C224.142 102.824 224.377 103.623 224.273 104.581C224.038 106.697 222.24 108.422 220.015 108.644C219.686 108.676 219.351 108.644 219.017 108.644C219.017 108.66 219.017 108.681 219.017 108.697Z" fill="#26AC94"/>
<path d="M188.317 103.417C190.177 103.438 191.974 103.671 193.594 104.692C193.777 104.808 193.991 104.893 194.205 104.951C194.743 105.094 195.234 104.756 195.271 104.211C195.292 103.93 195.261 103.65 195.245 103.369C195.14 101.713 195.888 100.449 197.053 99.396C197.664 98.8458 198.087 98.8299 198.662 99.3748C199.931 100.565 200.861 101.92 200.475 103.814C200.454 103.925 200.443 104.036 200.443 104.147C200.454 104.692 200.929 105.099 201.457 104.972C201.723 104.909 201.99 104.798 202.22 104.655C203.589 103.814 205.088 103.475 206.671 103.486C207.612 103.486 208.557 103.523 209.498 103.565C209.822 103.581 210.213 103.586 210.365 103.941C210.537 104.343 210.151 104.539 209.916 104.734C209.278 105.274 208.609 105.782 207.956 106.3C206.995 107.062 206.034 107.824 205.083 108.597C204.623 108.972 204.184 109.216 203.578 108.872C203.024 108.56 202.403 108.613 201.786 108.66C201.352 108.692 200.924 109.015 200.496 108.75C200.14 108.528 200.151 108.068 199.978 107.724C199.952 107.676 199.937 107.618 199.91 107.57C199.472 106.755 198.777 106.343 197.878 106.343C196.906 106.343 196.18 106.793 195.772 107.713C195.684 107.919 195.647 108.147 195.558 108.353C195.355 108.845 195.234 108.935 194.654 108.803C193.709 108.586 192.794 108.533 191.891 108.978C191.556 109.147 191.243 109.041 190.966 108.819C189.137 107.353 187.309 105.898 185.496 104.417C185.156 104.137 185.25 103.734 185.668 103.682C186.546 103.565 187.429 103.502 188.312 103.417H188.317Z" fill="#D15454"/>
<path d="M199.526 211.285C199.526 211.841 199.542 212.179 199.526 212.513C199.145 218.639 199.411 224.766 199.385 230.898C199.385 232.02 199.495 233.147 199.531 234.268C199.547 234.655 199.589 235.067 199.328 235.406C199.27 235.485 199.14 235.549 199.046 235.549C198.951 235.549 198.821 235.485 198.769 235.406C198.544 235.057 198.56 234.649 198.565 234.263C198.565 232.686 198.596 231.115 198.601 229.538C198.601 224.592 198.575 219.639 198.617 214.693C198.638 211.994 198.821 209.301 198.868 206.603C198.936 202.614 198.91 198.619 198.999 194.63C199.046 192.328 199.234 190.027 199.364 187.725C199.364 187.657 199.505 187.54 199.563 187.546C199.646 187.561 199.767 187.657 199.782 187.741C199.835 187.958 199.85 188.186 199.861 188.408C199.923 190.715 199.923 193.016 199.819 195.318C199.688 198.18 199.704 201.053 199.646 203.915C199.615 205.434 199.568 206.952 199.537 208.471C199.516 209.481 199.385 210.492 199.537 211.285H199.526Z" fill="#26AC94"/>
<path d="M197.592 189.376C197.326 192.524 197.018 195.884 196.756 199.249C196.584 201.434 196.448 203.624 196.349 205.815C196.166 209.809 195.837 213.783 195.429 217.761C195.09 221.063 194.876 224.375 194.599 227.681C194.499 228.856 194.395 230.036 194.264 231.21C194.233 231.48 194.113 231.739 193.998 231.988C193.967 232.057 193.805 232.099 193.71 232.089C193.616 232.078 193.481 231.999 193.454 231.919C193.387 231.713 193.319 231.485 193.334 231.274C193.381 230.66 193.475 230.046 193.538 229.433C193.909 225.681 194.264 221.93 194.651 218.184C194.97 215.105 195.116 212.015 195.356 208.931C195.738 204.106 196.02 199.28 196.344 194.45C196.495 192.207 196.72 189.969 196.918 187.731C196.939 187.514 197.023 187.302 197.091 187.096C197.101 187.059 197.18 187.011 197.211 187.017C197.305 187.048 197.446 187.085 197.477 187.159C197.728 187.81 197.561 188.493 197.592 189.376Z" fill="#26AC94"/>
<path d="M201.265 198.191C201.38 199.127 201.563 200.064 201.594 201.006C201.699 203.868 201.965 206.72 202.211 209.571C202.378 211.529 202.383 213.497 202.597 215.449C202.921 218.407 203.162 221.375 203.454 224.333C203.679 226.624 203.94 228.909 204.175 231.2C204.233 231.756 204.008 232.184 203.736 232.11C203.329 231.999 203.308 231.634 203.261 231.311C203.156 230.533 203.031 229.756 202.989 228.967C202.743 224.311 202.179 219.682 201.793 215.042C201.348 209.725 200.852 204.413 200.993 199.069C200.998 198.794 200.993 198.514 200.993 198.239C201.082 198.223 201.171 198.207 201.26 198.191H201.265Z" fill="#26AC94"/>
<path d="M200.598 141.421C200.65 142.22 200.54 143.114 200.196 143.955C199.699 145.177 198.607 145.368 197.693 144.416C197.129 143.828 196.815 143.109 196.69 142.326C196.465 140.95 196.721 139.649 197.343 138.405C197.86 137.374 198.983 137.326 199.71 137.998C200.049 138.31 200.253 138.696 200.384 139.135C200.593 139.85 200.593 140.58 200.598 141.416V141.421Z" fill="#26AC94"/>
<path d="M198.995 109.216C198.985 109.708 198.567 110.29 198.076 110.475C197.982 110.512 197.856 110.518 197.762 110.491C197.073 110.29 196.629 109.523 196.785 108.814C196.958 108.031 197.36 107.523 197.841 107.481C198.374 107.433 198.865 108.047 198.975 108.888C198.99 108.999 198.985 109.11 198.99 109.221L198.995 109.216Z" fill="#26AC94"/>
<path d="M200.346 112.411C200.106 112.105 200.273 111.771 200.309 111.459C200.377 110.925 200.236 110.29 200.79 109.935C201.433 109.528 202.148 109.56 202.859 109.745C203.058 109.798 203.136 110.12 203 110.295C202.613 110.798 200.999 112.083 200.346 112.411Z" fill="#26AC94"/>
<path d="M195.431 112.459C194.611 112.232 194.177 111.533 193.581 111.073C193.21 110.787 192.709 110.544 192.672 109.973C192.651 109.65 193.472 109.507 194.329 109.676C194.95 109.798 195.368 110.137 195.353 110.777C195.337 111.316 195.692 111.835 195.441 112.459H195.431Z" fill="#26AC94"/>
<path d="M198.314 243.237C198.304 244.554 198.225 245.861 197.928 247.146C197.719 249.056 197.713 250.961 197.933 252.871L197.954 252.897C198.173 252.887 198.398 252.871 198.617 252.86C198.68 249.173 198.44 245.474 198.873 241.797C198.319 242.136 198.314 242.692 198.309 243.242L198.314 243.237Z" fill="#EBCE74"/>
<path d="M197.113 242.909C196.209 245.766 196.099 249.342 196.888 251.464C196.951 249.316 196.972 247.168 197.285 245.041C197.363 244.496 197.327 243.93 197.327 243.374C197.327 243.279 197.238 243.179 197.107 242.909H197.113Z" fill="#EBCE74"/>
<path d="M199.931 243.131C199.78 243.163 199.586 243.147 199.487 243.237C199.382 243.337 199.33 243.533 199.33 243.686C199.32 246.136 199.315 248.586 199.33 251.035C199.33 251.295 199.513 251.548 199.612 251.808C199.633 250.591 199.654 249.369 199.675 248.147C199.67 247.538 199.644 246.93 199.654 246.327C199.67 245.559 199.576 244.771 199.936 244.046C199.936 243.739 199.931 243.432 199.926 243.131H199.931Z" fill="#EBCE74"/>
<path d="M201.61 246.184C201.578 245.692 201.474 245.2 201.098 244.607C200.889 245.522 200.972 246.274 201.124 247.02C201.291 247.85 201.281 248.691 201.291 249.533C201.302 250.305 201.296 251.083 201.302 251.855C201.411 251.855 201.526 251.861 201.636 251.861C201.72 249.966 201.73 248.072 201.615 246.178L201.61 246.184Z" fill="#EBCE74"/>
<path d="M200.259 249.649C200.217 250.522 200.4 251.421 200.013 252.263L199.992 252.427C200.175 252.792 200.394 252.755 200.635 252.49C200.624 250.85 200.619 249.205 200.609 247.564C200.175 248.205 200.295 248.94 200.264 249.649H200.259Z" fill="#EBCE74"/>
<path d="M203.613 234.11C203.331 234.089 203.096 233.824 203.133 233.56C203.18 233.226 203.488 232.994 203.838 233.047C204.089 233.084 204.204 233.269 204.219 233.502C204.24 233.856 203.953 234.131 203.613 234.11Z" fill="#26AC94"/>
<path d="M193.799 233.046C194.149 233.057 194.436 233.337 194.384 233.655C194.331 233.956 194.133 234.126 193.825 234.094C193.532 234.062 193.354 233.882 193.333 233.565C193.313 233.268 193.522 233.036 193.799 233.046Z" fill="#26AC94"/>
<path d="M198.88 240.946C198.64 240.935 198.452 240.845 198.415 240.58C198.373 240.3 198.598 240.067 198.917 240.062C199.152 240.062 199.371 240.141 199.382 240.416C199.397 240.744 199.194 240.914 198.88 240.946Z" fill="#26AC94"/>
<path d="M199.439 238.845C199.361 239.131 199.199 239.321 198.886 239.332C198.593 239.343 198.358 239.078 198.426 238.813C198.509 238.491 198.75 238.39 199.037 238.411C199.267 238.433 199.413 238.597 199.445 238.845H199.439Z" fill="#26AC94"/>
<path d="M204.509 235.337C204.461 235.671 204.148 235.909 203.819 235.84C203.589 235.792 203.453 235.623 203.453 235.385C203.453 235.067 203.772 234.851 204.148 234.898C204.373 234.925 204.545 235.131 204.514 235.343L204.509 235.337Z" fill="#26AC94"/>
<path d="M193.516 234.882C193.892 234.893 194.169 235.184 194.085 235.496C194.022 235.734 193.845 235.85 193.61 235.85C193.259 235.85 192.977 235.538 193.04 235.221C193.087 234.962 193.296 234.898 193.521 234.877L193.516 234.882Z" fill="#26AC94"/>
<path d="M204.276 239.877C204.276 239.596 204.277 239.316 204.25 239.036C204.235 238.861 204.141 238.713 203.947 238.766C203.874 238.787 203.78 238.94 203.785 239.03C203.885 240.543 203.963 242.051 203.869 243.363C203.864 245.194 203.906 246.824 204.177 248.437C204.214 248.649 204.292 248.866 204.386 249.056C204.418 249.12 204.579 249.162 204.668 249.141C204.757 249.12 204.867 249.019 204.888 248.935C204.924 248.776 204.924 248.601 204.904 248.437C204.564 245.596 204.276 242.75 204.287 239.882L204.276 239.877Z" fill="#EBCE74"/>
<path d="M193.643 239.194C193.643 239.105 193.544 239.009 193.487 238.914C193.429 238.999 193.325 239.083 193.319 239.168C193.304 242.311 192.975 245.432 192.635 248.554C192.619 248.707 192.692 248.871 192.739 249.025C192.755 249.067 192.823 249.125 192.86 249.125C192.959 249.115 193.121 249.109 193.147 249.046C193.241 248.85 193.309 248.638 193.345 248.427C193.857 245.364 193.622 242.274 193.643 239.194Z" fill="#EBCE74"/>
<path d="M205.31 239.522C205.299 239.311 205.19 239.099 205.116 238.893C205.106 238.866 205.017 238.85 204.965 238.856C204.918 238.856 204.845 238.893 204.834 238.924C204.782 239.136 204.678 239.358 204.709 239.564C204.876 240.792 204.871 242.03 204.944 243.263C205.033 244.776 205.216 246.278 205.372 247.786C205.378 247.86 205.519 247.961 205.602 247.966C205.655 247.966 205.728 247.85 205.775 247.765C205.722 246.871 205.686 246.22 205.649 245.569C205.54 243.554 205.43 241.533 205.31 239.517V239.522Z" fill="#EBCE74"/>
<path d="M205.775 247.77C205.775 247.802 205.775 247.834 205.78 247.865C205.78 247.791 205.791 247.754 205.791 247.733C205.791 247.739 205.791 247.749 205.78 247.754C205.78 247.754 205.775 247.765 205.77 247.77H205.775Z" fill="#E6E6E6"/>
<path d="M194.771 239.385C194.724 239.491 194.646 239.591 194.646 239.692C194.63 241.094 194.62 242.496 194.625 243.898C194.625 245.13 194.693 246.363 194.374 247.575C194.327 247.765 194.28 248.009 194.515 248.151C194.745 248.03 194.798 247.802 194.818 247.585C195.001 245.914 195.2 244.247 195.325 242.575C195.377 241.855 195.299 241.12 195.21 240.395C195.169 240.035 195.189 239.596 194.766 239.379L194.771 239.385Z" fill="#EBCE74"/>
<path d="M202.974 243.48C202.974 242.474 202.985 241.469 202.98 240.464C202.98 240.131 202.948 239.797 202.901 239.464C202.891 239.385 202.765 239.274 202.687 239.268C202.609 239.263 202.462 239.353 202.447 239.422C202.384 239.744 202.363 240.078 202.327 240.406C202.269 241.496 202.206 242.586 202.347 243.675C202.29 245.078 202.671 246.437 202.739 247.829C202.739 247.929 202.828 248.03 202.891 248.12C202.917 248.157 202.985 248.183 203.032 248.183C203.074 248.183 203.147 248.151 203.157 248.12C203.194 247.961 203.262 247.786 203.225 247.644C202.901 246.268 202.974 244.871 202.974 243.474V243.48Z" fill="#EBCE74"/>
<path d="M191.783 247.882C192.08 247.829 192.169 247.67 192.18 247.506C192.357 244.723 192.895 241.951 192.472 239.115C192.023 242.004 191.986 244.935 191.777 247.882H191.783Z" fill="#EBCE74"/>
<path d="M190.884 241.083C190.884 241.051 190.811 241.025 190.769 240.999C190.127 242.215 189.792 243.829 189.625 246.511C189.587 247.115 189.686 247.73 189.923 248.358C190.372 246.056 190.383 243.856 190.931 241.739C190.984 241.538 190.91 241.3 190.884 241.083Z" fill="#EBCE74"/>
<path d="M207.954 247.4C207.844 246.284 207.776 245.162 207.583 244.062C207.421 243.141 207.431 242.162 206.851 241.184C206.538 241.654 206.627 241.998 206.695 242.316C207.081 244.014 207.348 245.728 207.358 247.474C207.358 247.691 207.416 247.919 207.489 248.125C207.515 248.204 207.656 248.294 207.734 248.289C207.802 248.284 207.902 248.152 207.917 248.067C207.954 247.85 207.969 247.617 207.949 247.4H207.954Z" fill="#EBCE74"/>
<path d="M206.302 243.781C205.816 245.353 206.328 246.866 206.354 248.405C206.354 248.453 206.396 248.506 206.433 248.548C206.464 248.585 206.522 248.638 206.553 248.628C206.647 248.596 206.793 248.559 206.814 248.49C206.882 248.284 206.955 248.056 206.934 247.85C206.82 246.691 206.689 245.538 206.543 244.384C206.516 244.178 206.386 243.988 206.302 243.792V243.781Z" fill="#EBCE74"/>
<path d="M191.039 244.4C190.918 245.295 190.788 246.152 190.694 247.009C190.636 247.543 190.479 248.104 190.835 248.607C191.545 248.242 191.206 247.543 191.289 247.003C191.389 246.353 191.357 245.681 191.362 245.019C191.362 244.813 191.383 244.58 191.044 244.406L191.039 244.4Z" fill="#EBCE74"/>
<path d="M204.559 236.935C204.496 237.226 204.287 237.374 203.99 237.358C203.754 237.348 203.582 237.189 203.608 236.94C203.639 236.628 203.859 236.464 204.162 236.491C204.387 236.512 204.538 236.665 204.559 236.935Z" fill="#26AC94"/>
<path d="M193.441 237.406C193.133 237.39 192.924 237.232 192.903 236.919C192.888 236.671 193.06 236.523 193.29 236.486C193.64 236.433 193.969 236.734 193.912 237.052C193.865 237.3 193.677 237.39 193.447 237.406H193.441Z" fill="#26AC94"/>
<path d="M198.766 237.559C198.52 237.528 198.374 237.369 198.353 237.131C198.327 236.866 198.625 236.649 198.912 236.702C199.173 236.755 199.257 236.935 199.226 237.178C199.189 237.438 199.001 237.528 198.771 237.554L198.766 237.559Z" fill="#26AC94"/>
<path d="M192.861 97.6023C192.856 97.9356 192.72 98.0997 192.511 98.2108C192.302 98.3219 192.036 98.343 191.895 98.1684C190.954 97.015 190.03 95.8458 189.115 94.6712C188.969 94.486 189.011 94.2321 189.147 94.0469C189.33 93.8035 189.586 93.7348 189.878 93.8406C189.93 93.8617 189.988 93.8723 190.024 93.9094C191.09 94.8776 192.12 95.8775 192.762 97.2055C192.83 97.3484 192.841 97.5229 192.856 97.6023H192.861Z" fill="#D15454"/>
<path d="M206.729 94.3698C206.703 94.4439 206.677 94.682 206.546 94.8354C205.647 95.8883 204.733 96.92 203.96 98.0734C203.829 98.2638 203.589 98.2902 203.359 98.2215C203.046 98.1262 202.931 97.8723 202.952 97.5813C202.962 97.3644 203.025 97.1369 203.124 96.9464C203.782 95.6978 204.801 94.756 205.83 93.8354C206.133 93.5656 206.692 93.8355 206.734 94.3698H206.729Z" fill="#D15454"/>
<path d="M198.62 93.1477C198.62 93.8196 198.641 94.4968 198.61 95.1688C198.594 95.4703 198.395 95.682 198.071 95.6979C197.753 95.7137 197.554 95.5179 197.45 95.2428C197.371 95.0364 197.309 94.809 197.309 94.592C197.293 93.5815 197.293 92.571 197.309 91.5604C197.309 91.3435 197.366 91.1054 197.46 90.9097C197.586 90.6398 197.831 90.4811 198.134 90.5341C198.364 90.5711 198.542 90.7298 198.583 90.9679C198.63 91.243 198.646 91.5234 198.651 91.8038C198.662 92.2535 198.651 92.7032 198.651 93.153C198.641 93.153 198.636 93.153 198.625 93.153L198.62 93.1477Z" fill="#D15454"/>
<path d="M178.523 105.581C177.917 105.581 177.316 105.602 176.715 105.57C176.517 105.56 176.308 105.422 176.141 105.295C175.9 105.11 175.984 104.533 176.271 104.444C176.579 104.348 176.903 104.274 177.227 104.264C178.105 104.237 178.983 104.248 179.86 104.258C180.132 104.258 180.409 104.285 180.676 104.343C180.963 104.407 181.167 104.592 181.151 104.92C181.135 105.227 180.947 105.454 180.66 105.502C180.231 105.57 179.787 105.586 179.354 105.613C179.082 105.629 178.805 105.613 178.528 105.613C178.528 105.602 178.528 105.592 178.528 105.581H178.523Z" fill="#D15454"/>
<path d="M183.917 100.222C183.813 100.401 183.755 100.555 183.651 100.666C183.484 100.835 183.243 100.888 183.045 100.788C182.204 100.38 181.404 99.8936 180.782 99.1793C180.6 98.973 180.589 98.6556 180.777 98.4122C180.976 98.1529 181.268 98.1476 181.514 98.301C182.209 98.7402 182.888 99.2057 183.557 99.6872C183.719 99.8036 183.797 100.031 183.928 100.222H183.917Z" fill="#D15454"/>
<path d="M217.128 105.602C216.632 105.602 216.13 105.613 215.634 105.597C215.415 105.592 215.19 105.555 214.986 105.475C214.704 105.364 214.563 105.105 214.605 104.803C214.636 104.576 214.798 104.396 215.033 104.348C215.305 104.295 215.582 104.253 215.854 104.258C217.014 104.274 218.179 104.301 219.338 104.348C219.574 104.359 219.746 104.565 219.788 104.787C219.851 105.089 219.694 105.348 219.432 105.48C219.239 105.576 219.004 105.607 218.79 105.613C218.236 105.629 217.682 105.618 217.128 105.618V105.607V105.602Z" fill="#D15454"/>
<path d="M214.6 98.1899C214.966 98.2217 215.227 98.6026 215.144 98.8354C215.071 99.0364 214.987 99.2746 214.83 99.3963C214.214 99.8566 213.576 100.29 212.934 100.708C212.803 100.793 212.625 100.814 212.464 100.825C212.228 100.841 212.051 100.708 211.92 100.513C211.769 100.29 211.868 100.084 211.998 99.9041C212.092 99.7719 212.213 99.6449 212.349 99.5549C212.934 99.1475 213.524 98.7402 214.13 98.3592C214.303 98.2481 214.532 98.2217 214.611 98.1952L214.6 98.1899Z" fill="#D15454"/>
<path d="M207.333 105.11C207.37 105.38 207.286 105.65 207.093 105.856C206.361 106.639 205.473 107.158 204.444 107.428C204.224 107.486 204 107.412 203.859 107.221C203.723 107.041 203.639 106.803 203.765 106.602C204.397 105.597 205.212 104.803 206.372 104.454C206.842 104.311 207.312 104.645 207.333 105.11Z" fill="#26AC94"/>
<path d="M189.15 104.396C189.286 104.433 189.51 104.454 189.709 104.544C190.649 104.957 191.344 105.666 191.935 106.491C192.112 106.74 192.07 107.026 191.882 107.269C191.726 107.47 191.501 107.507 191.287 107.433C190.226 107.084 189.244 106.592 188.539 105.671C188.361 105.438 188.319 105.153 188.424 104.877C188.533 104.597 188.784 104.47 189.15 104.401V104.396Z" fill="#26AC94"/>
<path d="M198.613 102.872C198.581 103.719 198.592 104.396 198.226 104.999C198.08 105.237 197.657 105.253 197.536 104.999C197.092 104.073 196.8 103.126 197.165 102.094C197.327 101.639 197.698 101.359 198.012 101.459C198.372 101.57 198.534 101.856 198.576 102.211C198.613 102.486 198.608 102.766 198.613 102.872Z" fill="#26AC94"/>
<path d="M205.602 122.268C205.341 121.686 204.944 121.236 204.375 120.951C203.972 120.75 203.466 120.829 203.33 121.125C203.157 121.506 203.398 121.755 203.633 121.998C203.669 122.04 203.716 122.072 203.753 122.115C204.85 123.368 204.928 124.744 203.957 126.061C203.727 126.374 203.45 126.654 203.241 126.982C203.168 127.093 203.189 127.331 203.262 127.448C203.335 127.564 203.539 127.654 203.68 127.649C204.484 127.628 204.996 127.114 205.393 126.479C205.817 125.797 205.973 125.03 205.968 124.231C205.989 123.548 205.879 122.892 205.597 122.268H205.602Z" fill="#D15454"/>
<path d="M191.934 126.104C191.166 125.369 190.973 124.49 191.286 123.49C191.422 123.062 191.595 122.654 191.736 122.231C191.804 122.025 191.887 121.803 191.887 121.591C191.887 121.448 191.783 121.274 191.678 121.162C191.511 120.993 191.276 120.967 191.072 121.099C190.889 121.221 190.712 121.363 190.571 121.528C189.923 122.289 189.682 123.194 189.688 124.586C189.766 125.681 190.372 126.876 191.715 127.612C191.966 127.749 192.263 127.776 192.467 127.511C192.655 127.268 192.655 126.977 192.483 126.728C192.326 126.501 192.133 126.295 191.934 126.104Z" fill="#D15454"/>
<path d="M198.794 120.496C198.836 120.395 198.841 120.284 198.867 120.183C198.898 119.686 198.611 119.289 198.062 119.056C197.446 118.797 196.871 118.871 196.552 119.263C196.484 119.347 196.432 119.448 196.396 119.549C196.171 120.141 196.458 120.707 197.122 120.998C197.838 121.31 198.548 121.099 198.799 120.496H198.794Z" fill="#D15454"/>
<path d="M198.313 126.665C197.723 126.686 197.305 127.136 197.305 127.749C197.305 128.358 197.733 128.802 198.334 128.813C199.013 128.829 199.609 128.194 199.541 127.527C199.489 127.019 198.95 126.638 198.313 126.66V126.665Z" fill="#D15454"/>
<path d="M194.441 126.892C193.866 126.892 193.438 127.294 193.454 127.802C193.469 128.289 193.913 128.654 194.504 128.67C195.037 128.68 195.486 128.257 195.486 127.744C195.486 127.262 195.031 126.892 194.436 126.897L194.441 126.892Z" fill="#D15454"/>
<path d="M201.877 120.215C201.825 119.702 201.333 119.295 200.842 119.364C200.414 119.422 200.048 119.85 200.043 120.295C200.043 120.766 200.518 121.136 201.098 121.104C201.574 121.078 201.924 120.681 201.877 120.215Z" fill="#D15454"/>
<path d="M194.196 121.395C194.556 121.427 194.927 121.077 194.948 120.686C194.974 120.173 194.572 119.686 194.097 119.649C193.752 119.622 193.37 119.987 193.339 120.379C193.297 120.892 193.679 121.352 194.196 121.4V121.395Z" fill="#D15454"/>
<path d="M201.628 126.712C201.204 126.643 200.839 127.046 200.844 127.58C200.844 127.929 201.163 128.225 201.497 128.199C201.878 128.167 202.218 127.807 202.228 127.416C202.239 127.098 201.957 126.77 201.628 126.718V126.712Z" fill="#D15454"/>
<path d="M198.351 75.4445C197.949 75.0689 197.447 74.9948 196.972 75.2593C196.46 75.545 196.11 75.9683 196 76.5503C195.927 76.9312 195.917 77.328 195.891 77.619C195.917 78.0581 195.932 78.3914 195.964 78.7248C196.037 79.4549 196.194 80.1638 196.512 80.8252C196.862 81.55 197.489 81.6241 197.923 80.9733C198.263 80.4654 198.581 79.931 198.827 79.3702C199.245 78.4179 199.297 77.4232 198.968 76.418C198.842 76.0371 198.639 75.709 198.351 75.4392V75.4445Z" fill="#D15454"/>
<path d="M231.116 98.9672C230.504 98.6603 229.851 98.5757 229.172 98.6445C228.158 98.7503 227.255 99.1841 226.351 99.618C226.095 99.7396 225.896 99.9407 225.891 100.263C225.881 100.655 226.11 100.893 226.429 101.036C227.202 101.38 228.017 101.517 228.911 101.512C229.595 101.544 230.295 101.364 230.98 101.147C231.429 101.004 231.742 100.692 231.821 100.2C231.894 99.745 231.601 99.2212 231.116 98.9725V98.9672Z" fill="#D15454"/>
<path d="M206.386 78.8254C205.931 78.4709 205.163 78.5238 204.557 79.0423C203.596 79.8676 203.031 80.9205 202.969 82.1321C202.99 82.3861 202.99 82.5554 203.016 82.7194C203.141 83.5289 203.784 83.8569 204.463 83.4072C205.492 82.7247 206.318 81.8358 206.767 80.6507C207.039 79.9259 206.861 79.201 206.38 78.8254H206.386Z" fill="#D15454"/>
<path d="M216.287 88.7138C217.578 88.5498 218.858 87.8303 219.929 86.7086C220.039 86.5922 220.107 86.4229 220.159 86.2641C220.462 85.4335 219.96 84.6399 219.088 84.5605C218.57 84.5129 218.09 84.6505 217.661 84.9362C216.674 85.5922 215.864 86.4335 215.279 87.4758C214.898 88.153 215.248 88.7191 216.282 88.7138H216.287Z" fill="#26AC94"/>
<path d="M168.784 100.369C167.703 99.7395 166.532 99.4855 165.289 99.6072C164.84 99.6495 164.448 99.8559 164.119 100.179C163.465 100.819 163.643 101.729 164.484 102.067C165.007 102.279 165.561 102.274 166.067 102.3C167.123 102.306 168.084 102.052 168.789 101.586C169.291 101.258 169.301 100.676 168.784 100.374V100.369Z" fill="#D15454"/>
<path d="M190.544 79.1426C189.964 78.7881 189.102 78.8199 188.674 79.2114C188.198 79.64 188.167 80.2219 188.35 80.7616C188.783 82.0208 189.546 83.026 190.805 83.5392C191.505 83.8249 192.028 83.4387 192.038 82.6927C191.97 81.915 191.928 81.132 191.605 80.3965C191.369 79.8727 191.035 79.4389 190.549 79.1426H190.544Z" fill="#D15454"/>
<path d="M178.533 85.3914C178.204 85.1692 177.849 85.0369 177.457 85.0157C176.49 84.9681 175.91 85.7459 176.265 86.6665C176.798 88.0527 177.896 88.8728 179.17 89.4759C179.531 89.6452 179.923 89.5923 180.288 89.4177C180.56 89.2907 180.706 89.0685 180.753 88.7722C180.743 88.6664 180.759 88.55 180.722 88.4495C180.273 87.2273 179.635 86.1374 178.533 85.3967V85.3914Z" fill="#26AC94"/>
<path d="M222.811 88.915C222.566 88.8039 222.284 88.7351 222.017 88.7192C220.685 88.6346 219.536 89.1372 218.512 89.9467C218.067 90.2959 218.172 90.9202 218.668 91.1953C219.227 91.5075 219.844 91.4334 220.413 91.4705C221.328 91.4599 222.216 91.4546 222.979 90.9096C223.794 90.3276 223.71 89.3171 222.811 88.915Z" fill="#26AC94"/>
<path d="M167.74 104.771C167.578 104.745 167.411 104.74 167.317 104.729C166.366 104.761 165.075 105.47 164.579 106.21C164.281 106.655 164.192 107.131 164.443 107.628C164.647 108.036 165.18 108.269 165.734 108.152C166.773 107.93 167.719 107.528 168.419 106.655C169.172 105.708 168.915 104.983 167.74 104.777V104.771Z" fill="#D15454"/>
<path d="M172.687 88.645C171.788 88.5286 171.135 89.0842 171.344 90.2482C171.448 90.8407 171.835 91.2587 172.342 91.5127C173.251 91.973 174.212 92.1634 175.226 91.8724C175.55 91.7772 175.842 91.6397 176.088 91.4016C176.464 91.0471 176.516 90.5973 176.177 90.2217C175.231 89.1741 174.05 88.6609 172.687 88.6345V88.645Z" fill="#26AC94"/>
<path d="M172.315 97.0095C171.662 96.1101 170.784 95.5757 169.676 95.5017C168.898 95.4488 168.355 95.8561 168.198 96.5492C168.062 97.1365 168.339 97.7344 168.945 98.0836C169.582 98.4539 170.288 98.565 171.124 98.5703C171.286 98.5438 171.563 98.5227 171.824 98.4539C172.503 98.2687 172.743 97.6021 172.315 97.0095Z" fill="#D15454"/>
<path d="M230.892 105.623C230.155 104.724 229.168 104.285 228.139 104.126C227.339 104.094 226.864 104.465 226.9 105.015C227.015 106.724 228.807 108.052 230.422 107.628C230.997 107.48 231.352 106.946 231.221 106.364C231.164 106.099 231.059 105.819 230.892 105.618V105.623Z" fill="#D15454"/>
<path d="M181.964 81.6082C181.494 81.8146 181.248 82.3807 181.358 83.0367C181.384 83.2007 181.421 83.3701 181.494 83.5182C181.912 84.37 182.345 85.2112 182.967 85.936C183.155 86.153 183.39 86.3064 183.693 86.2059C183.981 86.1106 184.143 85.8831 184.211 85.6027C184.273 85.3329 184.284 85.0525 184.305 84.8409C184.258 83.7404 184.023 82.7775 183.307 81.9997C182.904 81.5659 182.382 81.4284 181.959 81.6135L181.964 81.6082Z" fill="#26AC94"/>
<path d="M226.984 95.9306C226.953 95.3062 226.54 94.8512 225.945 94.8671C224.91 94.8936 224.017 95.2904 223.317 96.0681C223.045 96.3644 222.951 96.7454 222.966 97.1528C222.982 97.6395 223.264 98.0045 223.729 98.1051C223.943 98.1527 224.163 98.1633 224.257 98.1738C225.197 98.1738 225.882 97.8511 226.451 97.285C226.822 96.92 227.005 96.4649 226.979 95.9306H226.984Z" fill="#D15454"/>
<path d="M213.191 82.5445C212.199 82.8779 211.713 83.6503 211.436 84.6027C211.19 85.4545 211.765 86.1687 212.648 86.1264C213.641 86.0788 214.769 84.973 214.853 83.9519C214.868 83.7879 214.848 83.6186 214.811 83.4546C214.639 82.6345 213.98 82.2748 213.191 82.5393V82.5445Z" fill="#26AC94"/>
<path d="M187.434 90.4652C186.728 90.4811 186.227 91.0842 186.3 91.8355C186.363 92.4598 186.948 92.9307 187.596 92.8725C188.244 92.8143 188.803 92.1424 188.771 91.4652C188.745 90.9097 188.134 90.4494 187.434 90.4652Z" fill="#D15454"/>
<path d="M215.858 95.4647C215.241 95.507 214.875 95.9938 214.995 96.6181C215.084 97.0837 215.33 97.4328 215.753 97.6392C216.526 98.0148 217.482 97.5069 217.472 96.7292C217.456 95.9408 216.772 95.4012 215.863 95.4594L215.858 95.4647Z" fill="#D15454"/>
<path d="M207.551 90.4598C207.054 90.4809 206.662 90.9994 206.767 91.502C206.877 92.0258 207.195 92.3751 207.671 92.592C208.287 92.8777 208.914 92.465 208.914 91.7772C208.914 91.01 208.313 90.428 207.551 90.4545V90.4598Z" fill="#D15454"/>
<path d="M197.545 86.3169C197.033 86.3169 196.609 86.8618 196.609 87.5073C196.609 88.1052 197.101 88.5814 197.68 88.5497C198.276 88.5179 198.762 87.9359 198.746 87.264C198.736 86.7984 198.119 86.3169 197.545 86.3169Z" fill="#D15454"/>
<path d="M221.059 103.507C220.625 103.771 220.437 104.322 220.631 104.808C220.782 105.195 221.075 105.433 221.467 105.539C222.041 105.697 222.585 105.279 222.59 104.671C222.6 104.322 222.475 104.025 222.24 103.771C221.89 103.396 221.43 103.285 221.064 103.507H221.059Z" fill="#D15454"/>
<path d="M179.751 95.9146C179.281 95.9304 178.837 96.1156 178.529 96.5601C178.273 96.9251 178.424 97.5018 178.821 97.7187C179.432 98.052 180.206 97.7981 180.503 97.1632C180.754 96.6235 180.378 95.9463 179.751 95.9146Z" fill="#D15454"/>
<path d="M173.878 103.824C173.45 103.623 172.964 103.697 172.65 104.025C172.493 104.189 172.405 104.395 172.436 104.634C172.509 105.147 172.864 105.401 173.314 105.533C173.695 105.644 174.092 105.655 174.395 105.321C174.5 105.205 174.536 105.03 174.583 104.93C174.583 104.364 174.317 104.036 173.883 103.829L173.878 103.824Z" fill="#D15454"/>
<path d="M199.112 154.643C198.551 154.659 198.319 155.209 198.157 155.781C197.604 157.696 197.795 159.537 198.506 161.32C198.526 161.368 198.563 161.4 198.587 161.442C198.738 161.675 199.12 161.706 199.266 161.468C199.396 161.257 199.514 161.024 199.595 160.781C199.961 159.722 200.193 158.622 200.168 157.442C200.136 156.95 200.136 156.453 200.063 155.977C199.941 155.183 199.538 154.633 199.103 154.643H199.112Z" fill="#D15454"/>
<path d="M205.175 160.595C204.846 160.309 204.472 160.246 204.041 160.241C202.94 160.288 201.948 160.854 201.074 161.786C200.753 162.124 200.318 162.489 200.542 163.124C200.733 163.674 201.212 163.791 201.639 163.749C202.566 163.648 203.493 163.526 204.354 163.013C204.74 162.786 205.106 162.505 205.366 162.05C205.63 161.579 205.545 160.918 205.175 160.6V160.595Z" fill="#D15454"/>
<path d="M197.226 163.833C197.665 163.542 197.726 162.892 197.312 162.532C196.722 162.013 196.125 161.511 195.503 161.066C194.946 160.664 194.324 160.511 193.686 160.548C193.337 160.564 193.008 160.707 192.845 161.14C192.646 161.68 192.723 162.204 193.016 162.664C193.288 163.093 193.642 163.389 194.036 163.579C194.666 163.886 195.328 164.019 195.877 164.087C196.572 164.114 196.905 164.045 197.222 163.839L197.226 163.833Z" fill="#D15454"/>
<path d="M199.648 167.077C199.644 166.812 199.604 166.532 199.531 166.283C199.494 166.161 199.34 166.04 199.238 166.04C199.136 166.04 199.002 166.156 198.937 166.272C198.868 166.394 198.836 166.574 198.836 166.733C198.828 168.42 198.836 170.103 198.836 171.791C198.836 171.896 198.864 172.002 198.884 172.108C198.929 172.341 199.051 172.51 199.226 172.515C199.401 172.521 199.527 172.351 199.571 172.119C199.742 171.203 199.604 170.277 199.653 169.42C199.653 168.595 199.661 167.828 199.648 167.071V167.077Z" fill="#D15454"/>
<path d="M201.381 165.664C201.198 165.537 201.003 165.431 200.799 165.357C200.633 165.294 200.458 165.347 200.348 165.537C200.234 165.733 200.279 165.944 200.381 166.14C200.405 166.188 200.426 166.235 200.458 166.267C201.141 166.897 201.82 167.532 202.51 168.151C202.604 168.235 202.75 168.262 202.868 168.256C203.047 168.251 203.181 168.124 203.238 167.886C203.275 167.59 203.173 167.357 203.023 167.156C202.555 166.51 201.97 166.082 201.377 165.669L201.381 165.664Z" fill="#D15454"/>
<path d="M197.427 165.585C196.753 166.05 196.184 166.685 195.725 167.479C195.676 167.563 195.647 167.674 195.631 167.78C195.574 168.077 195.656 168.315 195.842 168.489C195.997 168.632 196.188 168.611 196.31 168.463C196.858 167.791 197.391 167.103 197.919 166.405C197.996 166.304 197.996 166.103 198.013 166.024C198.021 165.659 197.667 165.421 197.432 165.585H197.427Z" fill="#D15454"/>
<path d="M199.366 173.981C199.179 173.912 199.017 174.076 198.964 174.272C198.777 174.954 198.736 175.653 198.996 176.325C199.082 176.542 199.261 176.61 199.427 176.563C199.537 176.531 199.679 176.409 199.712 176.282C199.793 175.981 199.817 175.653 199.854 175.425C199.817 174.954 199.862 174.557 199.671 174.235C199.602 174.118 199.48 174.028 199.37 173.986L199.366 173.981Z" fill="#D15454"/>
<path d="M199.726 163.822C199.758 163.346 199.429 162.875 199.039 162.849C198.665 162.822 198.368 163.235 198.352 163.801C198.34 164.288 198.608 164.701 198.933 164.69C199.319 164.68 199.693 164.267 199.726 163.822Z" fill="#D15454"/>
<path d="M394.997 13.891C395.04 14.9331 394.6 15.8959 393.855 16.8164C393.11 17.7474 391.908 18.25 390.275 18.4034C389.242 18.5039 387.999 18.2605 387.228 18.8213C386.551 19.3133 386.983 20.0221 386.797 20.6199C386.551 21.4134 386.018 22.1275 385.172 22.7253C384.461 23.2279 383.691 23.7198 382.845 24.1325C380.424 25.3174 377.369 25.0741 375.414 23.5664C374.737 23.0427 374.179 22.4608 373.493 21.9371C372.19 20.932 370.573 20.8897 369.135 21.8207C368.576 22.1804 368.102 22.5983 367.637 23.0057C365.25 25.1005 362.119 26.5341 358.125 27.1848C357.439 27.2959 356.703 27.3012 355.984 27.3012C350.322 27.3012 344.652 27.28 338.982 27.28C328.361 27.2906 317.748 27.3171 307.128 27.3223C301.102 27.3223 295.068 27.3117 289.043 27.3065C279.776 27.3065 270.509 27.317 261.242 27.3065C250.892 27.2959 240.55 27.2536 230.2 27.2483C221.56 27.2483 212.919 27.2853 204.287 27.2906C192.499 27.2959 180.718 27.2906 168.93 27.2906C161.821 27.2906 154.72 27.2536 147.611 27.2589C135.467 27.2642 123.323 27.2906 111.179 27.3065C99.3057 27.3223 87.4238 27.3435 75.5505 27.3435C66.3768 27.3435 57.203 27.3064 48.0293 27.2959C45.6089 27.2959 43.1885 27.3699 40.7597 27.3646C37.1122 27.3594 33.8795 26.5976 31.146 25.0953C29.9273 24.4287 28.8187 23.6934 27.9216 22.8364C27.4815 22.4185 26.94 22.027 26.3646 21.6832C25.0951 20.9267 23.5124 20.9796 22.353 21.8154C21.7691 22.2386 21.2191 22.6936 20.7451 23.1697C18.9679 24.9313 15.3119 25.6137 12.2061 23.7992C10.2173 22.6354 8.74483 21.3922 8.68559 19.6095C8.6602 18.7948 8.32173 18.6467 7.03538 18.6044C6.23141 18.578 5.41042 18.6044 4.60645 18.5727C3.25239 18.5304 2.16927 18.1759 1.55995 17.393C-0.0479907 15.3405 -0.648877 13.2509 0.899822 11.0608C1.74611 9.8653 3.07485 9.16173 5.20748 9.11412C5.92682 9.09825 6.646 9.08237 7.36534 9.03476C8.31318 8.97128 8.5925 8.79141 8.68559 8.17248C8.77868 7.50065 8.75334 6.82881 9.15956 6.18343C10.0312 4.81861 11.5714 3.80293 13.5009 3.04646C15.7435 2.16831 18.5617 2.5492 20.2881 3.87699C20.9651 4.4007 21.5322 4.97733 22.2007 5.50633C23.5209 6.54846 25.0612 6.61194 26.5253 5.67561C27.0839 5.31589 27.5578 4.90325 28.0317 4.49592C29.4704 3.25805 31.0698 2.10483 33.2702 1.38539C35.7498 0.581303 38.3139 -0.0905161 41.2167 0.00999413C47.0391 0.216305 52.8617 0.0470307 58.6841 0.115801C60.6559 0.136961 62.6362 0.184565 64.6081 0.142245C68.1032 0.0628943 71.5983 0.211022 75.0935 0.0840621C78.047 -0.0217382 81.0174 0.147545 83.9794 0.152835C90.8174 0.168705 97.6469 0.152835 104.485 0.152835C109.698 0.152835 114.911 0.184574 120.124 0.184574C124.787 0.184574 129.459 0.12638 134.122 0.14754C137.625 0.15812 141.138 0.099914 144.633 0.131654C148.314 0.163394 152.004 0.205739 155.685 0.189869C159.189 0.179289 162.684 0.189852 166.188 0.0734717C167.956 0.0152816 169.767 0.105216 171.561 0.110506C180.82 0.126376 190.07 0.173972 199.328 0.195132C206.792 0.211002 214.248 0.195132 221.712 0.195132C227.729 0.195132 233.755 0.221581 239.772 0.226871C245.256 0.232161 250.748 0.343262 256.224 0.205722C262.165 0.0576017 268.089 0.253339 274.029 0.179278C277.618 0.136958 281.223 0.0364571 284.803 0.0893573C288.755 0.152837 292.707 0.189864 296.659 0.184574C301.153 0.173994 305.638 0.115806 310.132 0.121096C314.719 0.121096 319.297 0.184557 323.884 0.200427C325.23 0.205717 326.575 0.147535 327.929 0.142245C329.994 0.131664 332.059 0.1211 334.124 0.15813C337.814 0.22161 341.487 0.269211 345.177 0.115801C346.776 0.0523207 348.401 0.343252 350.017 0.195132C352.167 -0.00059882 354.333 0.110513 356.474 0.184574C359.606 0.295664 362.373 1.1156 364.726 2.41694C365.877 3.05175 366.875 3.77119 367.738 4.56998C368.187 4.9879 368.703 5.38465 369.27 5.73379C370.641 6.5802 372.181 6.51142 373.425 5.55921C373.992 5.12543 374.483 4.64933 375.017 4.19968C377.302 2.2794 380.534 2.05724 383.403 3.59134C385.553 4.73928 386.991 6.07764 386.898 7.94502C386.864 8.65917 387.279 8.85489 388.337 8.89192C388.608 8.9025 388.879 8.89194 389.149 8.88665C392.501 8.75969 393.432 9.76477 394.261 11.2407C394.498 11.6639 394.659 12.1083 394.777 12.5473C394.896 12.9917 394.921 13.4413 394.98 13.891H394.997Z" fill="#D15454"/>
<path d="M269.906 25.0633C265.506 25.0633 261.105 25.0527 256.705 25.0633C254.276 25.0739 251.855 25.1532 249.426 25.1479C241.971 25.1268 234.507 25.0633 227.051 25.058C222.379 25.058 217.699 25.2326 213.036 25.1321C207.908 25.021 202.788 25.1109 197.659 25.0898C193.529 25.0686 189.391 25.148 185.261 25.1638C183.56 25.1691 181.859 25.1109 180.158 25.1056C175.664 25.0844 171.171 25.0633 166.685 25.0633C163.808 25.0633 160.939 25.1109 158.062 25.1109C154.287 25.1109 150.513 25.0845 146.739 25.0845C140.713 25.0845 134.687 25.1056 128.662 25.1056C122.01 25.1056 115.367 25.0951 108.715 25.0898C104.399 25.0898 100.091 25.1056 95.7751 25.0951C94.3364 25.0951 92.9148 25.021 91.4846 24.9046C89.5381 24.7459 87.5409 24.7141 85.5691 24.7353C81.8962 24.7723 78.2148 24.7512 74.542 24.8834C70.6914 25.021 66.807 24.8993 62.9394 24.9046C58.2595 24.9152 53.5879 24.9575 48.908 24.9469C46.1237 24.9416 43.3394 24.8834 40.5635 24.8094C38.981 24.7671 38.8458 24.6877 38.8288 23.7302C38.795 21.593 38.8373 19.4559 38.8288 17.3187C38.8119 13.1555 38.7865 8.99222 38.7695 4.82898C38.7695 4.37933 38.7948 3.92968 38.8625 3.48003C38.9641 2.87168 39.2011 2.69181 40.2421 2.68123C41.9431 2.66536 43.6357 2.35326 45.3452 2.61776C48.9334 2.34268 52.5216 2.6019 56.1099 2.59661C60.6967 2.58603 65.2836 2.59659 69.8705 2.61246C76.4292 2.62833 82.9963 2.64951 89.555 2.66538C89.7328 2.66538 89.9188 2.67596 90.0966 2.66538C96.5368 2.06761 103.028 2.36383 109.494 2.34796C124.879 2.30035 140.273 2.32681 155.658 2.32681C164.57 2.32681 173.473 2.35326 182.384 2.35326C192.463 2.35326 202.534 2.32152 212.613 2.32152C223.682 2.32152 234.752 2.35326 245.821 2.35326C253.827 2.35326 261.842 2.32151 269.847 2.31622C280.282 2.30564 290.717 2.31622 301.151 2.31093C306.906 2.31093 312.669 2.31095 318.424 2.30566C326.244 2.29508 334.063 2.27393 341.883 2.27393C346.199 2.27393 350.507 2.29508 354.823 2.30566C355.271 2.30566 355.728 2.28977 356.168 2.31622C357.201 2.36912 357.548 2.5966 357.641 3.2843C357.683 3.61758 357.683 3.96141 357.683 4.29468C357.683 10.5951 357.683 16.9008 357.683 23.2012C357.683 23.4287 357.683 23.6509 357.675 23.8783C357.59 25.0686 357.378 25.222 355.424 25.2273C347.24 25.2485 339.056 25.2537 330.873 25.2537C325.025 25.2537 319.177 25.2378 313.338 25.2378C305.425 25.2378 297.504 25.2484 289.591 25.2378C284.293 25.2273 278.996 25.185 273.698 25.1585C272.437 25.1532 271.184 25.1585 269.923 25.1585C269.923 25.1321 269.923 25.1109 269.923 25.0845L269.906 25.0633Z" fill="#26AC94"/>
<path d="M36.1235 13.7057C36.1235 16.7421 36.1319 19.7839 36.115 22.8204C36.115 23.2541 36.3606 23.8043 35.6666 24.0688C34.8119 24.3968 34.1602 23.8995 33.5255 23.6298C32.2476 23.0743 31.3421 22.2914 30.5127 21.4926C29.8695 20.8736 29.1079 20.3235 28.2363 19.8368C25.8836 18.5196 22.3798 18.636 20.2811 20.1172C19.5702 20.6197 18.9778 21.191 18.3939 21.7571C17.0483 23.0584 15.1019 22.741 13.8579 21.9316C12.6985 21.1805 11.869 20.3711 11.869 19.2602C11.886 17.2341 11.7507 15.2133 11.7422 13.1872C11.7422 11.4997 11.8775 9.81224 11.8775 8.12472C11.8775 6.72816 13.1384 5.81825 14.7887 5.06178C15.8973 4.55394 16.9976 4.65445 17.8947 5.32099C18.5294 5.7918 19.0708 6.31553 19.604 6.83396C21.0596 8.25168 23.2347 8.56907 25.7143 8.44211C26.4591 8.40508 27.0767 8.18289 27.6606 7.90252C28.82 7.35236 29.7426 6.67523 30.5466 5.91347C31.4944 5.01945 32.5437 4.17307 34.0162 3.58588C34.3209 3.46421 34.6426 3.36368 34.9642 3.26846C35.4127 3.1415 35.9628 3.28963 36.0051 3.57529C36.0728 4.01965 36.1065 4.47461 36.115 4.91897C36.1235 7.84435 36.115 10.7697 36.115 13.6951L36.1235 13.7057Z" fill="#1A1A1A"/>
<path d="M359.632 13.5686C359.632 10.5903 359.624 7.61199 359.641 4.63371C359.641 4.15761 359.311 3.51224 360.216 3.29006C361.029 3.08904 361.714 3.581 362.332 3.88253C363.474 4.43799 364.38 5.14686 365.15 5.90862C365.827 6.58574 366.724 7.12533 367.587 7.69665C369.618 9.02973 374.265 8.49543 375.593 7.25757C376.194 6.69683 376.786 6.13079 377.446 5.60179C378.741 4.55966 379.943 4.49087 381.543 5.35314C382.888 6.07787 383.819 6.93486 383.836 8.09866C383.853 8.99796 383.997 9.89199 383.997 10.7913C383.997 13.2617 383.963 15.7375 383.921 18.2079C383.912 18.7686 383.844 19.3347 383.717 19.8901C383.463 21.0381 382.287 21.8104 380.823 22.4082C379.731 22.8525 378.555 22.6938 377.709 22.0432C377.091 21.5671 376.549 21.0434 376.008 20.5249C374.738 19.3135 372.817 18.9538 370.659 18.922C369.618 18.9062 368.738 19.1707 367.96 19.5833C366.86 20.1705 365.903 20.8317 365.099 21.5882C364.202 22.4293 363.204 23.2334 361.824 23.7941C361.452 23.9422 361.037 24.0639 360.622 24.1486C360.225 24.2226 359.869 24.0851 359.818 23.8418C359.717 23.3445 359.666 22.8367 359.666 22.3341C359.649 19.414 359.666 16.4886 359.666 13.5686H359.658H359.632Z" fill="#1A1A1A"/>
</svg>
