<svg width="26" height="25" viewBox="0 0 26 25" fill="none" xmlns="http://www.w3.org/2000/svg">
<g filter="url(#filter0_d_378_1344)">
<mask id="path-2-outside-1_378_1344" maskUnits="userSpaceOnUse" x="0.296875" y="1.70703" width="24" height="22" fill="black">
<rect fill="white" x="0.296875" y="1.70703" width="24" height="22"/>
<path fill-rule="evenodd" clip-rule="evenodd" d="M17.3587 9.95442C17.3587 5.9518 13.7631 2.70703 9.32776 2.70703C4.89243 2.70703 1.29688 5.9518 1.29688 9.95442C1.29688 13.957 4.89243 17.2018 9.32776 17.2018C11.317 17.2018 13.1455 16.544 14.554 15.4624L14.8876 15.7635V16.6443L21.0652 22.2192L22.9185 20.5468L16.7409 14.9718H15.7648L15.4312 14.6708C16.6297 13.3997 17.3587 11.7495 17.3587 9.95442ZM3.76792 9.95442C3.76792 7.16696 6.23896 4.937 9.32776 4.937C12.4166 4.937 14.8876 7.16696 14.8876 9.95442C14.8876 12.7419 12.4166 14.9718 9.32776 14.9718C6.23896 14.9718 3.76792 12.7419 3.76792 9.95442Z"/>
</mask>
<path fill-rule="evenodd" clip-rule="evenodd" d="M17.3587 9.95442C17.3587 5.9518 13.7631 2.70703 9.32776 2.70703C4.89243 2.70703 1.29688 5.9518 1.29688 9.95442C1.29688 13.957 4.89243 17.2018 9.32776 17.2018C11.317 17.2018 13.1455 16.544 14.554 15.4624L14.8876 15.7635V16.6443L21.0652 22.2192L22.9185 20.5468L16.7409 14.9718H15.7648L15.4312 14.6708C16.6297 13.3997 17.3587 11.7495 17.3587 9.95442ZM3.76792 9.95442C3.76792 7.16696 6.23896 4.937 9.32776 4.937C12.4166 4.937 14.8876 7.16696 14.8876 9.95442C14.8876 12.7419 12.4166 14.9718 9.32776 14.9718C6.23896 14.9718 3.76792 12.7419 3.76792 9.95442Z" fill="#1A1A1A"/>
<path d="M14.554 15.4624L15.224 14.72C14.8657 14.3967 14.3277 14.3754 13.945 14.6693L14.554 15.4624ZM14.8876 15.7635H15.8876C15.8876 15.4805 15.7677 15.2107 15.5576 15.0211L14.8876 15.7635ZM14.8876 16.6443H13.8876C13.8876 16.9273 14.0075 17.1971 14.2176 17.3867L14.8876 16.6443ZM21.0652 22.2192L20.3953 22.9616C20.7759 23.3051 21.3546 23.3051 21.7352 22.9616L21.0652 22.2192ZM22.9185 20.5468L23.5885 21.2891C23.7986 21.0995 23.9185 20.8298 23.9185 20.5468C23.9185 20.2637 23.7986 19.994 23.5885 19.8044L22.9185 20.5468ZM16.7409 14.9718L17.4109 14.2294C17.2271 14.0636 16.9884 13.9718 16.7409 13.9718V14.9718ZM15.7648 14.9718L15.0949 15.7142C15.2786 15.8801 15.5173 15.9718 15.7648 15.9718V14.9718ZM15.4312 14.6708L14.7037 13.9848C14.5191 14.1805 14.4212 14.4423 14.4321 14.7111C14.4429 14.9799 14.5616 15.233 14.7613 15.4132L15.4312 14.6708ZM9.32776 3.70703C13.3099 3.70703 16.3587 6.59818 16.3587 9.95442H18.3587C18.3587 5.30541 14.2163 1.70703 9.32776 1.70703V3.70703ZM2.29688 9.95442C2.29688 6.59818 5.34566 3.70703 9.32776 3.70703V1.70703C4.43919 1.70703 0.296875 5.30541 0.296875 9.95442H2.29688ZM9.32776 16.2018C5.34566 16.2018 2.29688 13.3107 2.29688 9.95442H0.296875C0.296875 14.6034 4.43919 18.2018 9.32776 18.2018V16.2018ZM13.945 14.6693C12.711 15.6168 11.0965 16.2018 9.32776 16.2018V18.2018C11.5374 18.2018 13.58 17.4711 15.163 16.2556L13.945 14.6693ZM15.5576 15.0211L15.224 14.72L13.8841 16.2048L14.2176 16.5059L15.5576 15.0211ZM15.8876 16.6443V15.7635H13.8876V16.6443H15.8876ZM21.7352 21.4768L15.5576 15.9019L14.2176 17.3867L20.3953 22.9616L21.7352 21.4768ZM22.2485 19.8044L20.3953 21.4768L21.7352 22.9616L23.5885 21.2891L22.2485 19.8044ZM16.0709 15.7142L22.2485 21.2891L23.5885 19.8044L17.4109 14.2294L16.0709 15.7142ZM15.7648 15.9718H16.7409V13.9718H15.7648V15.9718ZM14.7613 15.4132L15.0949 15.7142L16.4348 14.2294L16.1012 13.9284L14.7613 15.4132ZM16.3587 9.95442C16.3587 11.4702 15.7445 12.8808 14.7037 13.9848L16.1588 15.3568C17.5149 13.9186 18.3587 12.0288 18.3587 9.95442H16.3587ZM9.32776 3.937C5.78572 3.937 2.76792 6.52058 2.76792 9.95442H4.76792C4.76792 7.81334 6.6922 5.937 9.32776 5.937V3.937ZM15.8876 9.95442C15.8876 6.52058 12.8698 3.937 9.32776 3.937V5.937C11.9633 5.937 13.8876 7.81334 13.8876 9.95442H15.8876ZM9.32776 15.9718C12.8698 15.9718 15.8876 13.3883 15.8876 9.95442H13.8876C13.8876 12.0955 11.9633 13.9718 9.32776 13.9718V15.9718ZM2.76792 9.95442C2.76792 13.3883 5.78572 15.9718 9.32776 15.9718V13.9718C6.6922 13.9718 4.76792 12.0955 4.76792 9.95442H2.76792Z" fill="#1A1A1A" mask="url(#path-2-outside-1_378_1344)"/>
</g>
<defs>
<filter id="filter0_d_378_1344" x="0.296875" y="0.707031" width="25.6211" height="23.5117" filterUnits="userSpaceOnUse" color-interpolation-filters="sRGB">
<feFlood flood-opacity="0" result="BackgroundImageFix"/>
<feColorMatrix in="SourceAlpha" type="matrix" values="0 0 0 0 0 0 0 0 0 0 0 0 0 0 0 0 0 0 127 0" result="hardAlpha"/>
<feOffset dx="1"/>
<feGaussianBlur stdDeviation="0.5"/>
<feComposite in2="hardAlpha" operator="out"/>
<feColorMatrix type="matrix" values="0 0 0 0 0 0 0 0 0 0 0 0 0 0 0 0 0 0 0.25 0"/>
<feBlend mode="normal" in2="BackgroundImageFix" result="effect1_dropShadow_378_1344"/>
<feBlend mode="normal" in="SourceGraphic" in2="effect1_dropShadow_378_1344" result="shape"/>
</filter>
</defs>
</svg>
