<svg width="143" height="166" viewBox="0 0 143 166" fill="none" xmlns="http://www.w3.org/2000/svg">
<g clip-path="url(#clip0_129_15669)">
<path d="M108.748 25.1689L98.0729 27.3102L90.4747 11.9859C88.1261 7.2492 82.3531 5.30786 77.6046 7.65367L11.5554 40.3145C6.80726 42.6624 4.85724 48.4255 7.20377 53.1626L44.4864 128.351L49.258 152.139C50.2972 157.32 55.3678 160.688 60.56 159.646L132.814 145.153C138.008 144.111 141.387 139.048 140.348 133.867L120.051 32.6809C119.011 27.4978 113.94 24.1295 108.746 25.1714L108.748 25.1689ZM28.9626 50.9502L40.5285 108.609L11.8862 50.8476C10.8149 48.6871 11.7055 46.0566 13.8733 44.9852L79.9203 12.3248C82.086 11.2539 84.721 12.1405 85.7927 14.3031L92.7695 28.3762L36.4947 39.6645C31.3026 40.706 27.9233 45.7693 28.963 50.9523L28.9626 50.9502ZM124.235 80.0706L135.232 134.893C135.706 137.258 134.163 139.567 131.793 140.043L59.5372 154.537C57.1687 155.012 54.8551 153.477 54.3806 151.111L34.0835 49.9252C33.609 47.5597 35.1511 45.249 37.5196 44.7739L109.773 30.2804C112.144 29.8049 114.458 31.3421 114.932 33.7076L124.233 80.0731L124.235 80.0706Z" fill="url(#paint0_linear_129_15669)"/>
<path d="M51.4141 77.7772L72.4692 73.5537C73.0107 73.4451 73.3613 72.9198 73.2529 72.3794C72.4169 68.212 68.3554 65.514 64.1789 66.3517L56.2833 67.9355C52.1089 68.7729 49.4 72.829 50.236 76.9965C50.3444 77.5368 50.8704 77.8863 51.412 77.7776L51.4141 77.7772Z" fill="url(#paint1_linear_129_15669)"/>
<path d="M59.7599 64.7901C63.6016 64.0195 66.0925 60.2873 65.3235 56.454C64.5546 52.6207 60.817 50.1378 56.9754 50.9084C53.1338 51.679 50.6429 55.4112 51.4118 59.2446C52.1807 63.0779 55.9183 65.5607 59.7599 64.7901Z" fill="url(#paint2_linear_129_15669)"/>
<path d="M104.826 39.6564L77.2321 45.1915C75.8182 45.4751 74.9013 46.8489 75.1843 48.2598C75.4673 49.6707 76.8431 50.5846 78.257 50.301L105.851 44.7659C107.265 44.4822 108.182 43.1085 107.899 41.6976C107.616 40.2867 106.24 39.3728 104.826 39.6564Z" fill="url(#paint3_linear_129_15669)"/>
<path d="M107.361 52.3039L79.7673 57.839C78.3533 58.1226 77.4365 59.4964 77.7195 60.9073C78.0025 62.3181 79.3783 63.232 80.7922 62.9484L108.386 57.4133C109.8 57.1297 110.717 55.7559 110.434 54.345C110.151 52.9342 108.775 52.0203 107.361 52.3039Z" fill="url(#paint4_linear_129_15669)"/>
<path d="M109.9 64.9514L82.3063 70.4864C80.8924 70.7701 79.9755 72.1438 80.2586 73.5547C80.5416 74.9656 81.9173 75.8795 83.3312 75.5959L110.925 70.0608C112.339 69.7772 113.256 68.4034 112.973 66.9925C112.69 65.5816 111.314 64.6677 109.9 64.9514Z" fill="url(#paint5_linear_129_15669)"/>
<path d="M112.436 77.6009L53.3102 89.461C51.8963 89.7447 50.9794 91.1185 51.2625 92.5293C51.5455 93.9402 52.9212 94.8541 54.3352 94.5705L113.463 82.7099C114.877 82.4263 115.794 81.0525 115.511 79.6416C115.228 78.2307 113.852 77.3168 112.438 77.6004L112.436 77.6009Z" fill="url(#paint6_linear_129_15669)"/>
<path d="M114.975 90.2483L55.8493 102.109C54.4354 102.392 53.5185 103.766 53.8015 105.177C54.0845 106.588 55.4603 107.502 56.8742 107.218L116.002 95.3573C117.416 95.0737 118.333 93.6999 118.05 92.2891C117.767 90.8782 116.391 89.9643 114.977 90.2479L114.975 90.2483Z" fill="url(#paint7_linear_129_15669)"/>
<path d="M117.51 102.898L58.3845 114.758C56.9705 115.042 56.0537 116.415 56.3367 117.826C56.6197 119.237 57.9954 120.151 59.4094 119.867L118.537 108.007C119.951 107.723 120.868 106.349 120.585 104.938C120.302 103.528 118.926 102.614 117.512 102.897L117.51 102.898Z" fill="url(#paint8_linear_129_15669)"/>
<path d="M120.049 115.545L60.9235 127.405C59.5096 127.689 58.5927 129.063 58.8757 130.474C59.1588 131.885 60.5345 132.798 61.9484 132.515L121.076 120.654C122.49 120.371 123.407 118.997 123.124 117.586C122.841 116.175 121.465 115.261 120.051 115.545L120.049 115.545Z" fill="url(#paint9_linear_129_15669)"/>
<path d="M122.584 128.193L63.4587 140.053C62.0448 140.336 61.1279 141.71 61.4109 143.121C61.6939 144.532 63.0697 145.446 64.4836 145.162L123.611 133.302C125.025 133.018 125.942 131.644 125.659 130.233C125.376 128.823 124.001 127.909 122.587 128.192L122.584 128.193Z" fill="url(#paint10_linear_129_15669)"/>
</g>
<defs>
<linearGradient id="paint0_linear_129_15669" x1="15.1228" y1="94.3071" x2="127.876" y2="71.6897" gradientUnits="userSpaceOnUse">
<stop stop-color="#FBD099"/>
<stop offset="0.598958" stop-color="#FCEFDF"/>
<stop offset="1" stop-color="#FFE299"/>
</linearGradient>
<linearGradient id="paint1_linear_129_15669" x1="49.5774" y1="73.7132" x2="72.5943" y2="69.0962" gradientUnits="userSpaceOnUse">
<stop stop-color="#FBD099"/>
<stop offset="0.598958" stop-color="#FCEFDF"/>
<stop offset="1" stop-color="#FFE299"/>
</linearGradient>
<linearGradient id="paint2_linear_129_15669" x1="51.4118" y1="59.2446" x2="65.3235" y2="56.454" gradientUnits="userSpaceOnUse">
<stop stop-color="#FBD099"/>
<stop offset="0.598958" stop-color="#FCEFDF"/>
<stop offset="1" stop-color="#FFE299"/>
</linearGradient>
<linearGradient id="paint3_linear_129_15669" x1="75.1843" y1="48.2598" x2="107.899" y2="41.6976" gradientUnits="userSpaceOnUse">
<stop stop-color="#FBD099"/>
<stop offset="0.598958" stop-color="#FCEFDF"/>
<stop offset="1" stop-color="#FFE299"/>
</linearGradient>
<linearGradient id="paint4_linear_129_15669" x1="77.7195" y1="60.9073" x2="110.434" y2="54.345" gradientUnits="userSpaceOnUse">
<stop stop-color="#FBD099"/>
<stop offset="0.598958" stop-color="#FCEFDF"/>
<stop offset="1" stop-color="#FFE299"/>
</linearGradient>
<linearGradient id="paint5_linear_129_15669" x1="80.2586" y1="73.5547" x2="112.973" y2="66.9925" gradientUnits="userSpaceOnUse">
<stop stop-color="#FBD099"/>
<stop offset="0.598958" stop-color="#FCEFDF"/>
<stop offset="1" stop-color="#FFE299"/>
</linearGradient>
<linearGradient id="paint6_linear_129_15669" x1="51.2625" y1="92.5293" x2="115.511" y2="79.6416" gradientUnits="userSpaceOnUse">
<stop stop-color="#FBD099"/>
<stop offset="0.598958" stop-color="#FCEFDF"/>
<stop offset="1" stop-color="#FFE299"/>
</linearGradient>
<linearGradient id="paint7_linear_129_15669" x1="53.8015" y1="105.177" x2="118.05" y2="92.2891" gradientUnits="userSpaceOnUse">
<stop stop-color="#FBD099"/>
<stop offset="0.598958" stop-color="#FCEFDF"/>
<stop offset="1" stop-color="#FFE299"/>
</linearGradient>
<linearGradient id="paint8_linear_129_15669" x1="56.3367" y1="117.826" x2="120.585" y2="104.938" gradientUnits="userSpaceOnUse">
<stop stop-color="#FBD099"/>
<stop offset="0.598958" stop-color="#FCEFDF"/>
<stop offset="1" stop-color="#FFE299"/>
</linearGradient>
<linearGradient id="paint9_linear_129_15669" x1="58.8757" y1="130.474" x2="123.124" y2="117.586" gradientUnits="userSpaceOnUse">
<stop stop-color="#FBD099"/>
<stop offset="0.598958" stop-color="#FCEFDF"/>
<stop offset="1" stop-color="#FFE299"/>
</linearGradient>
<linearGradient id="paint10_linear_129_15669" x1="61.4109" y1="143.121" x2="125.659" y2="130.233" gradientUnits="userSpaceOnUse">
<stop stop-color="#FBD099"/>
<stop offset="0.598958" stop-color="#FCEFDF"/>
<stop offset="1" stop-color="#FFE299"/>
</linearGradient>
<clipPath id="clip0_129_15669">
<rect width="115" height="146" fill="white" transform="translate(0.765625 22.7344) rotate(-11.3426)"/>
</clipPath>
</defs>
</svg>
