<svg width="55" height="50" viewBox="0 0 55 50" fill="none" xmlns="http://www.w3.org/2000/svg">
<g clip-path="url(#clip0_150_16638)">
<rect x="8" y="8.5" width="38.1057" height="33" rx="4.28293" fill="#1A1A1A"/>
<path d="M17.5268 41.5L8 25L17.5268 8.5H36.5805L46.1073 25L36.5805 41.5H17.5268ZM18.4308 39.9333H35.6749L44.2962 25L35.6749 10.0667H18.4308L9.80949 25L18.4308 39.9333Z" fill="url(#paint0_linear_150_16638)"/>
<path d="M29.0227 26.07H26.3891V27.386H29.0227V26.07Z" fill="url(#paint1_linear_150_16638)"/>
<path d="M29.0744 27.4377H26.3374V26.0183H29.0744V27.4377ZM26.4408 27.3343H28.971V26.1202H26.4408V27.3343Z" fill="url(#paint2_linear_150_16638)"/>
<path d="M23.0383 35.4057V23.8454H21.7223V35.4057H23.0383Z" fill="url(#paint3_linear_150_16638)"/>
<path d="M23.09 35.4574H21.6706V23.7937H23.09V35.4574ZM21.774 35.354H22.9881V23.8971H21.774V35.3556V35.354Z" fill="url(#paint4_linear_150_16638)"/>
<path d="M26.3893 30.3799V14.4533H25.0733V30.3799H26.3893Z" fill="url(#paint5_linear_150_16638)"/>
<path d="M26.441 30.43H25.0216V14.4016H26.441V30.43ZM25.125 30.3266H26.3391V14.5034H25.125V30.3266Z" fill="url(#paint6_linear_150_16638)"/>
<path d="M29.0229 26.0685V14.4517H27.7069V26.0685H29.0229Z" fill="url(#paint7_linear_150_16638)"/>
<path d="M29.0745 26.1217H27.6551V14.4016H29.0745V26.1217ZM27.7585 26.0183H28.9726V14.5034H27.7585V26.0183Z" fill="url(#paint8_linear_150_16638)"/>
<path d="M32.3757 35.4057V23.789H31.0597V35.4057H32.3757Z" fill="url(#paint9_linear_150_16638)"/>
<path d="M32.4256 35.4574H31.0063V23.7373H32.4256V35.4574ZM31.1097 35.354H32.3238V23.8407H31.1097V35.3556V35.354Z" fill="url(#paint10_linear_150_16638)"/>
<path d="M26.3891 27.386V26.07H18.37V31.6959H25.0737V35.4057H18.37V36.7233H26.3897V30.3783H19.6875V27.386L26.3891 27.386Z" fill="url(#paint11_linear_150_16638)"/>
<path d="M26.4413 36.775H18.3182V35.3556H25.0204V31.7476H18.3182V26.0183H26.4413V27.4377H19.7392V30.3266H26.4413V36.775ZM18.4216 36.6716H26.3379V30.43H19.6358V27.3343H26.3379V26.1202H18.4216V31.6426H25.1238V35.4559H18.4216V36.6716Z" fill="url(#paint12_linear_150_16638)"/>
<path d="M31.0581 17.8044H23.0384V19.1204H31.0581V17.8044Z" fill="url(#paint13_linear_150_16638)"/>
<path d="M31.1097 19.172H22.9866V17.7527H31.1097V19.172ZM23.09 19.0686H31.0063V17.8545H23.09V19.0686Z" fill="url(#paint14_linear_150_16638)"/>
<path d="M35.7328 27.3954V26.0794H27.7131V36.7233H35.7328V35.4057H29.0291V27.3954H35.7328Z" fill="url(#paint15_linear_150_16638)"/>
<path d="M35.7845 36.775H27.6614V26.0277H35.7845V27.4471H29.0823V35.354H35.7845V36.775ZM27.7648 36.6716H35.6811V35.4574H28.9789V27.3437H35.6811V26.1296H27.7648V36.6716Z" fill="url(#paint16_linear_150_16638)"/>
<path d="M26.3897 14.505V13.1357H18.37V14.505H21.721V22.4714H18.37V23.789H26.3897V22.4714H23.0386V14.505H26.3897Z" fill="url(#paint17_linear_150_16638)"/>
<path d="M26.4413 23.8407H18.3182V22.4213H21.6693V14.5567H18.3182V13.084H26.4413V14.5567H23.0903V22.4197H26.4413V23.8407ZM18.4216 23.7373H26.3379V22.5231H22.9869V14.4533H26.3379V13.1874H18.4216V14.4533H21.7727V22.5231H18.4216V23.7373Z" fill="url(#paint18_linear_150_16638)"/>
<path d="M27.7068 13.1357V14.4533H31.0579V23.789H32.3739V14.4533H35.7249V13.1357H27.7068Z" fill="url(#paint19_linear_150_16638)"/>
<path d="M32.4256 23.8407H31.0062V14.5034H27.6551V13.084H35.7782V14.5034H32.4271V23.8391L32.4256 23.8407ZM31.1096 23.7373H32.3237V14.4016H35.6748V13.1874H27.7585V14.4016H31.1096V23.7373Z" fill="url(#paint20_linear_150_16638)"/>
</g>
<rect x="6.5" y="7" width="41.1057" height="36" rx="5.78293" stroke="#1A1A1A" stroke-width="3"/>
<defs>
<linearGradient id="paint0_linear_150_16638" x1="8" y1="25" x2="46.1057" y2="25" gradientUnits="userSpaceOnUse">
<stop stop-color="#CF9846"/>
<stop offset="0.52" stop-color="#F4C76A"/>
<stop offset="1" stop-color="#F9EEB9"/>
</linearGradient>
<linearGradient id="paint1_linear_150_16638" x1="8" y1="25" x2="46.1073" y2="25" gradientUnits="userSpaceOnUse">
<stop stop-color="#CF9846"/>
<stop offset="0.52" stop-color="#F4C76A" stop-opacity="0.5"/>
<stop offset="1" stop-color="#F9EEB9"/>
</linearGradient>
<linearGradient id="paint2_linear_150_16638" x1="8" y1="25" x2="46.1073" y2="25" gradientUnits="userSpaceOnUse">
<stop stop-color="#CF9846"/>
<stop offset="0.52" stop-color="#F4C76A" stop-opacity="0.5"/>
<stop offset="1" stop-color="#F9EEB9"/>
</linearGradient>
<linearGradient id="paint3_linear_150_16638" x1="27.0562" y1="41.5393" x2="27.0562" y2="8.5" gradientUnits="userSpaceOnUse">
<stop stop-color="#CF9846"/>
<stop offset="0.52" stop-color="#F4C76A" stop-opacity="0.5"/>
<stop offset="1" stop-color="#F9EEB9"/>
</linearGradient>
<linearGradient id="paint4_linear_150_16638" x1="8" y1="25.0022" x2="46.1073" y2="25.0022" gradientUnits="userSpaceOnUse">
<stop stop-color="#CF9846"/>
<stop offset="0.52" stop-color="#F4C76A" stop-opacity="0.5"/>
<stop offset="1" stop-color="#F9EEB9"/>
</linearGradient>
<linearGradient id="paint5_linear_150_16638" x1="27.0499" y1="41.5" x2="27.0499" y2="8.5" gradientUnits="userSpaceOnUse">
<stop stop-color="#CF9846"/>
<stop offset="0.52" stop-color="#F4C76A" stop-opacity="0.5"/>
<stop offset="1" stop-color="#F9EEB9"/>
</linearGradient>
<linearGradient id="paint6_linear_150_16638" x1="8" y1="24.9984" x2="46.1073" y2="24.9984" gradientUnits="userSpaceOnUse">
<stop stop-color="#CF9846"/>
<stop offset="0.52" stop-color="#F4C76A" stop-opacity="0.5"/>
<stop offset="1" stop-color="#F9EEB9"/>
</linearGradient>
<linearGradient id="paint7_linear_150_16638" x1="27.0562" y1="41.5" x2="27.0562" y2="8.5" gradientUnits="userSpaceOnUse">
<stop stop-color="#CF9846"/>
<stop offset="0.52" stop-color="#F4C76A" stop-opacity="0.5"/>
<stop offset="1" stop-color="#F9EEB9"/>
</linearGradient>
<linearGradient id="paint8_linear_150_16638" x1="8" y1="24.9978" x2="46.1073" y2="24.9978" gradientUnits="userSpaceOnUse">
<stop stop-color="#CF9846"/>
<stop offset="0.52" stop-color="#F4C76A" stop-opacity="0.5"/>
<stop offset="1" stop-color="#F9EEB9"/>
</linearGradient>
<linearGradient id="paint9_linear_150_16638" x1="27.0562" y1="41.5393" x2="27.0562" y2="8.53928" gradientUnits="userSpaceOnUse">
<stop stop-color="#CF9846"/>
<stop offset="0.52" stop-color="#F4C76A" stop-opacity="0.5"/>
<stop offset="1" stop-color="#F9EEB9"/>
</linearGradient>
<linearGradient id="paint10_linear_150_16638" x1="8" y1="25.0022" x2="46.1073" y2="25.0022" gradientUnits="userSpaceOnUse">
<stop stop-color="#CF9846"/>
<stop offset="0.52" stop-color="#F4C76A" stop-opacity="0.5"/>
<stop offset="1" stop-color="#F9EEB9"/>
</linearGradient>
<linearGradient id="paint11_linear_150_16638" x1="8" y1="25" x2="46.1073" y2="25" gradientUnits="userSpaceOnUse">
<stop stop-color="#CF9846"/>
<stop offset="0.52" stop-color="#F4C76A"/>
<stop offset="1" stop-color="#F9EEB9"/>
</linearGradient>
<linearGradient id="paint12_linear_150_16638" x1="8" y1="25" x2="46.1073" y2="25" gradientUnits="userSpaceOnUse">
<stop stop-color="#CF9846"/>
<stop offset="0.52" stop-color="#F4C76A"/>
<stop offset="1" stop-color="#F9EEB9"/>
</linearGradient>
<linearGradient id="paint13_linear_150_16638" x1="8" y1="25" x2="46.1073" y2="25" gradientUnits="userSpaceOnUse">
<stop stop-color="#CF9846"/>
<stop offset="0.52" stop-color="#F4C76A" stop-opacity="0.5"/>
<stop offset="1" stop-color="#F9EEB9"/>
</linearGradient>
<linearGradient id="paint14_linear_150_16638" x1="8" y1="25" x2="46.1073" y2="25" gradientUnits="userSpaceOnUse">
<stop stop-color="#CF9846"/>
<stop offset="0.52" stop-color="#F4C76A" stop-opacity="0.5"/>
<stop offset="1" stop-color="#F9EEB9"/>
</linearGradient>
<linearGradient id="paint15_linear_150_16638" x1="8" y1="25" x2="46.1073" y2="25" gradientUnits="userSpaceOnUse">
<stop stop-color="#CF9846"/>
<stop offset="0.52" stop-color="#F4C76A"/>
<stop offset="1" stop-color="#F9EEB9"/>
</linearGradient>
<linearGradient id="paint16_linear_150_16638" x1="8" y1="25" x2="46.1073" y2="25" gradientUnits="userSpaceOnUse">
<stop stop-color="#CF9846"/>
<stop offset="0.52" stop-color="#F4C76A"/>
<stop offset="1" stop-color="#F9EEB9"/>
</linearGradient>
<linearGradient id="paint17_linear_150_16638" x1="8" y1="25" x2="46.1073" y2="25" gradientUnits="userSpaceOnUse">
<stop stop-color="#CF9846"/>
<stop offset="0.52" stop-color="#F4C76A"/>
<stop offset="1" stop-color="#F9EEB9"/>
</linearGradient>
<linearGradient id="paint18_linear_150_16638" x1="8" y1="25" x2="46.1073" y2="25" gradientUnits="userSpaceOnUse">
<stop stop-color="#CF9846"/>
<stop offset="0.52" stop-color="#F4C76A"/>
<stop offset="1" stop-color="#F9EEB9"/>
</linearGradient>
<linearGradient id="paint19_linear_150_16638" x1="8" y1="25" x2="46.1073" y2="25" gradientUnits="userSpaceOnUse">
<stop stop-color="#CF9846"/>
<stop offset="0.52" stop-color="#F4C76A"/>
<stop offset="1" stop-color="#F9EEB9"/>
</linearGradient>
<linearGradient id="paint20_linear_150_16638" x1="27.6549" y1="18.4624" x2="35.7764" y2="18.4624" gradientUnits="userSpaceOnUse">
<stop stop-color="#CF9846"/>
<stop offset="0.52" stop-color="#F4C76A"/>
<stop offset="1" stop-color="#F9EEB9"/>
</linearGradient>
<clipPath id="clip0_150_16638">
<rect x="8" y="8.5" width="38.1057" height="33" rx="4.28293" fill="white"/>
</clipPath>
</defs>
</svg>
