<svg width="3123" height="83" viewBox="0 0 3123 83" fill="none" xmlns="http://www.w3.org/2000/svg">
<path d="M3122.36 0V13.1042H0V0H3122.36Z" fill="url(#paint0_linear_724_15856)"/>
<path d="M3122.36 19.0614V27.4022H3085.52V38.1227H3114.51V65.5208H3034.19V36.3339H3061.36V27.4022H2993.72V38.1227H3022.71V65.5208H2942.39V36.3339H2969.56V27.4022H2901.93V38.1227H2930.91V65.5208H2850.59V36.3339H2877.77V27.4022H2810.13V38.1227H2839.12V65.5208H2758.79V36.3339H2785.97V27.4022H2718.33V38.1227H2747.32V65.5208H2667V36.3339H2694.17V27.4022H2626.53V38.1227H2655.52V65.5208H2575.2V36.3339H2602.38V27.4022H2534.74V38.1227H2563.73V65.5208H2483.4V36.3339H2510.58V27.4022H2442.94V38.1227H2471.93V65.5208H2391.61V36.3339H2418.78V27.4022H2351.14V38.1227H2380.13V65.5208H2299.81V36.3339H2326.99V27.4022H2259.35V38.1227H2288.33V65.5208H2208.01V36.3339H2235.19V27.4022H2167.55V38.1227H2196.54V65.5208H2116.22V36.3339H2143.39V27.4022H2075.75V38.1227H2104.74V65.5208H2024.42V36.3339H2051.59V27.4022H1983.96V38.1227H2012.95V65.5208H1932.62V36.3339H1959.8V27.4022H1892.16V38.1227H1921.15V65.5208H1840.82V36.3339H1868V27.4022H1800.36V38.1227H1829.35V65.5208H1749.03V36.3339H1776.21V27.4022H1708.57V38.1227H1737.55V65.5208H1657.23V36.3339H1684.41V27.4022H1616.77V38.1227H1645.76V65.5208H1565.44V36.3339H1592.61V27.4022H1525.52V38.1227H1554.51V65.5208H1474.19V36.3339H1501.36V27.4022H1433.72V38.1227H1462.71V65.5208H1382.39V36.3339H1409.56V27.4022H1341.93V38.1227H1370.91V65.5208H1290.59V36.3339H1317.77V27.4022H1250.13V38.1227H1279.12V65.5208H1198.79V36.3339H1225.97V27.4022H1158.33V38.1227H1187.32V65.5208H1107V36.3339H1134.17V27.4022H1066.53V38.1227H1095.52V65.5208H1015.2V36.3339H1042.38V27.4022H974.737V38.1227H1003.73V65.5208H923.402V36.3339H950.582V27.4022H882.94V38.1227H911.929V65.5208H831.609V36.3339H858.784V27.4022H791.143V38.1227H820.132V65.5208H739.811V36.3339H766.987V27.4022H699.345V38.1227H728.335V65.5208H648.014V36.3339H675.19V27.4022H607.552V38.1227H636.537V65.5208H556.217V36.3339H583.392V27.4022H515.755V38.1227H544.74V65.5208H464.419V36.3339H491.595V27.4022H423.957V38.1227H452.947V65.5208H372.622V36.3339H399.798V27.4022H332.16V38.1227H361.149V65.5208H280.825V36.3339H308.004V27.4022H240.363V38.1227H269.352V65.5208H189.027V36.3339H216.207V27.4022H148.565V38.1227H177.555V65.5208H97.2341V36.3339H124.41V27.4022H56.7681V38.1227H85.7574V65.5208H5.43677V36.3339H32.6124V27.4022H0V19.0614H41.0692V44.6748H13.8894V57.184H77.3007V46.4595H48.3155V19.0614H132.862V44.6748H105.687V57.184H169.098V46.4595H140.113V19.0614H224.66V44.6748H197.484V57.184H260.895V46.4595H231.906V19.0614H316.457V44.6748H289.281V57.184H352.693V46.4595H323.703V19.0614H408.254V44.6748H381.079V57.184H444.49V46.4595H415.501V19.0614H500.052V44.6748H472.876V57.184H536.287V46.4595H507.298V19.0614H591.849V44.6748H564.673V57.184H628.085V46.4595H599.095V19.0614H683.646V44.6748H656.467V57.184H719.882V46.4595H690.893V19.0614H775.444V44.6748H748.264V57.184H811.679V46.4595H782.69V19.0614H867.237V44.6748H840.061V57.184H903.473V46.4595H874.487V19.0614H959.034V44.6748H931.859V57.184H995.27V46.4595H966.281V19.0614H1050.83V44.6748H1023.66V57.184H1087.07V46.4595H1058.08V19.0614H1142.63V44.6748H1115.45V57.184H1178.86V46.4595H1149.88V19.0614H1234.43V44.6748H1207.25V57.184H1270.66V46.4595H1241.67V19.0614H1326.22V44.6748H1299.05V57.184H1362.46V46.4595H1333.47V19.0614H1418.02V44.6748H1390.85V57.184H1454.26V46.4595H1425.27V19.0614H1509.82V44.6748H1482.64V57.184H1546.05V46.4595H1517.06V19.0614H1601.07V44.6748H1573.89V57.184H1637.3V46.4595H1608.32V19.0614H1692.86V44.6748H1665.69V57.184H1729.1V46.4595H1700.11V19.0614H1784.66V44.6748H1757.48V57.184H1820.9V46.4595H1791.91V19.0614H1876.46V44.6748H1849.28V57.184H1912.69V46.4595H1883.7V19.0614H1968.25V44.6748H1941.08V57.184H2004.49V46.4595H1975.5V19.0614H2060.05V44.6748H2032.88V57.184H2096.29V46.4595H2067.3V19.0614H2151.85V44.6748H2124.67V57.184H2188.08V46.4595H2159.1V19.0614H2243.65V44.6748H2216.47V57.184H2279.88V46.4595H2250.89V19.0614H2335.44V44.6748H2308.26V57.184H2371.68V46.4595H2342.69V19.0614H2427.24V44.6748H2400.06V57.184H2463.47V46.4595H2434.49V19.0614H2519.03V44.6748H2491.86V57.184H2555.27V46.4595H2526.28V19.0614H2610.83V44.6748H2583.66V57.184H2647.07V46.4595H2618.08V19.0614H2702.63V44.6748H2675.45V57.184H2738.86V46.4595H2709.88V19.0614H2794.43V44.6748H2767.25V57.184H2830.66V46.4595H2801.67V19.0614H2886.22V44.6748H2859.05V57.184H2922.46V46.4595H2893.47V19.0614H2978.02V44.6748H2950.85V57.184H3014.26V46.4595H2985.27V19.0614H3069.82V44.6748H3042.64V57.184H3106.05V46.4595H3077.06V19.0614H3122.36Z" fill="url(#paint1_linear_724_15856)"/>
<path d="M3122.36 69.6933H0V82.7975H3122.36V69.6933Z" fill="url(#paint2_linear_724_15856)"/>
<defs>
<linearGradient id="paint0_linear_724_15856" x1="1561.18" y1="0" x2="1561.18" y2="82.7975" gradientUnits="userSpaceOnUse">
<stop stop-color="#EFD891"/>
<stop offset="1" stop-color="#EDE2B2"/>
</linearGradient>
<linearGradient id="paint1_linear_724_15856" x1="1561.18" y1="0" x2="1561.18" y2="82.7975" gradientUnits="userSpaceOnUse">
<stop stop-color="#EFD891"/>
<stop offset="1" stop-color="#EDE2B2"/>
</linearGradient>
<linearGradient id="paint2_linear_724_15856" x1="1561.18" y1="0" x2="1561.18" y2="82.7975" gradientUnits="userSpaceOnUse">
<stop stop-color="#EFD891"/>
<stop offset="1" stop-color="#EDE2B2"/>
</linearGradient>
</defs>
</svg>
