<svg width="269" height="44" viewBox="0 0 269 44" fill="none" xmlns="http://www.w3.org/2000/svg">
<path d="M73.8229 40.9644C74.1613 39.9499 73.468 38.8942 72.2742 38.6065C71.0803 38.3189 69.8381 38.9081 69.4996 39.9227C69.1611 40.9373 69.8545 41.993 71.0484 42.2806C72.2422 42.5683 73.4844 41.979 73.8229 40.9644Z" fill="url(#paint0_linear_129_15634)"/>
<path d="M62.8709 42.1441C63.9634 41.644 64.372 40.4859 63.7835 39.5575C63.195 38.6291 61.8323 38.2818 60.7398 38.782C59.6473 39.2821 59.2388 40.4402 59.8273 41.3686C60.4158 42.297 61.7784 42.6442 62.8709 42.1441Z" fill="url(#paint1_linear_129_15634)"/>
<path d="M52.6699 42.2618C53.8466 41.9272 54.4814 40.8452 54.0876 39.8451C53.6939 38.8451 52.4208 38.3056 51.244 38.6402C50.0672 38.9748 49.4325 40.0568 49.8262 41.0569C50.22 42.057 51.4931 42.5964 52.6699 42.2618Z" fill="url(#paint2_linear_129_15634)"/>
<path d="M93.5444 41.0157C93.8917 40.0033 93.2074 38.9434 92.0161 38.6483C90.8248 38.3532 89.5775 38.9347 89.2303 39.9471C88.8831 40.9595 89.5673 42.0195 90.7586 42.3146C91.95 42.6097 93.1972 42.0282 93.5444 41.0157Z" fill="url(#paint3_linear_129_15634)"/>
<path d="M83.6915 40.9273C84.0035 39.9066 83.2827 38.8643 82.0817 38.5992C80.8807 38.3341 79.6541 38.9466 79.3422 39.9673C79.0302 40.988 79.751 42.0303 80.952 42.2955C82.1531 42.5606 83.3796 41.948 83.6915 40.9273Z" fill="url(#paint4_linear_129_15634)"/>
<path d="M112.68 41.8082C113.558 41.0625 113.558 39.8535 112.68 39.1078C111.803 38.3621 110.38 38.3621 109.503 39.1078C108.625 39.8535 108.625 41.0625 109.503 41.8082C110.38 42.5539 111.803 42.5539 112.68 41.8082Z" fill="url(#paint5_linear_129_15634)"/>
<path d="M102.626 41.9768C103.597 41.3203 103.758 40.1191 102.986 39.2938C102.213 38.4685 100.8 38.3316 99.8287 38.9881C98.8576 39.6446 98.6965 40.8458 99.469 41.6711C100.241 42.4964 101.655 42.6333 102.626 41.9768Z" fill="url(#paint6_linear_129_15634)"/>
<path d="M43.9736 41.4758C44.6552 40.5946 44.3672 39.4107 43.3303 38.8314C42.2934 38.2521 40.9002 38.4969 40.2186 39.3781C39.5369 40.2593 39.825 41.4432 40.8619 42.0225C41.8988 42.6018 43.2919 42.3571 43.9736 41.4758Z" fill="url(#paint7_linear_129_15634)"/>
<path d="M33.596 41.981C34.5832 41.3421 34.7741 40.144 34.0223 39.3051C33.2705 38.4661 31.8607 38.3038 30.8735 38.9428C29.8863 39.5817 29.6954 40.7798 30.4472 41.6187C31.199 42.4577 32.6087 42.6199 33.596 41.981Z" fill="url(#paint8_linear_129_15634)"/>
<path d="M24.5899 40.8714C24.8375 39.8381 24.0525 38.8298 22.8366 38.6194C21.6207 38.4089 20.4342 39.0761 20.1866 40.1094C19.939 41.1428 20.724 42.1511 21.9399 42.3615C23.1559 42.5719 24.3423 41.9048 24.5899 40.8714Z" fill="url(#paint9_linear_129_15634)"/>
<path d="M14.7074 40.8989C14.9939 39.8729 14.2475 38.8437 13.0401 38.6002C11.8328 38.3567 10.6217 38.9911 10.3352 40.0171C10.0487 41.0432 10.7952 42.0724 12.0025 42.3159C13.2099 42.5594 14.4209 41.925 14.7074 40.8989Z" fill="url(#paint10_linear_129_15634)"/>
<path d="M4.85927 40.8354C5.11409 39.8033 4.33619 38.791 3.12174 38.5745C1.9073 38.3579 0.716205 39.0191 0.461388 40.0512C0.206571 41.0832 0.984519 42.0955 2.19896 42.312C3.41341 42.5286 4.60445 41.8675 4.85927 40.8354Z" fill="url(#paint11_linear_129_15634)"/>
<path d="M262.102 39.8302C265.913 39.8302 269.002 37.2051 269.002 33.9668C269.002 30.7286 265.913 28.1035 262.102 28.1035C258.292 28.1035 255.203 30.7286 255.203 33.9668C255.203 37.2051 258.292 39.8302 262.102 39.8302Z" fill="url(#paint12_linear_129_15634)"/>
<path fill-rule="evenodd" clip-rule="evenodd" d="M234.657 40.4043C238.986 40.4043 242.496 37.4226 242.496 33.7425C242.496 30.0624 238.988 27.0807 234.657 27.0807H203.905C199.577 27.0807 196.066 24.099 196.066 20.4189C196.066 16.7388 199.575 13.7571 203.905 13.7571H212.807C217.135 13.7571 220.646 10.7755 220.646 7.09537C220.646 3.41527 217.137 0.433594 212.807 0.433594H72.5263C68.198 0.433594 64.6875 3.41527 64.6875 7.09537C64.6875 10.7755 68.196 13.7571 72.5263 13.7571H171.783C176.111 13.7571 179.621 16.7388 179.621 20.4189C179.621 24.099 176.113 27.0807 171.783 27.0807H149.729C145.401 27.0807 141.89 30.0624 141.89 33.7425C141.89 37.4226 145.399 40.4043 149.729 40.4043H234.657Z" fill="url(#paint13_linear_129_15634)"/>
<defs>
<linearGradient id="paint0_linear_129_15634" x1="71.0483" y1="42.2806" x2="71.9523" y2="38.529" gradientUnits="userSpaceOnUse">
<stop stop-color="#FBD099"/>
<stop offset="0.598958" stop-color="#FCEFDF"/>
<stop offset="1" stop-color="#FFE299"/>
</linearGradient>
<linearGradient id="paint1_linear_129_15634" x1="59.8273" y1="41.3686" x2="63.4685" y2="39.0606" gradientUnits="userSpaceOnUse">
<stop stop-color="#FBD099"/>
<stop offset="0.598958" stop-color="#FCEFDF"/>
<stop offset="1" stop-color="#FFE299"/>
</linearGradient>
<linearGradient id="paint2_linear_129_15634" x1="49.8262" y1="41.0569" x2="53.9288" y2="39.4416" gradientUnits="userSpaceOnUse">
<stop stop-color="#FBD099"/>
<stop offset="0.598958" stop-color="#FCEFDF"/>
<stop offset="1" stop-color="#FFE299"/>
</linearGradient>
<linearGradient id="paint3_linear_129_15634" x1="90.7586" y1="42.3146" x2="91.687" y2="38.5667" gradientUnits="userSpaceOnUse">
<stop stop-color="#FBD099"/>
<stop offset="0.598958" stop-color="#FCEFDF"/>
<stop offset="1" stop-color="#FFE299"/>
</linearGradient>
<linearGradient id="paint4_linear_129_15634" x1="80.952" y1="42.2955" x2="81.7825" y2="38.5331" gradientUnits="userSpaceOnUse">
<stop stop-color="#FBD099"/>
<stop offset="0.598958" stop-color="#FCEFDF"/>
<stop offset="1" stop-color="#FFE299"/>
</linearGradient>
<linearGradient id="paint5_linear_129_15634" x1="109.503" y1="41.8082" x2="112.168" y2="38.6723" gradientUnits="userSpaceOnUse">
<stop stop-color="#FBD099"/>
<stop offset="0.598958" stop-color="#FCEFDF"/>
<stop offset="1" stop-color="#FFE299"/>
</linearGradient>
<linearGradient id="paint6_linear_129_15634" x1="99.469" y1="41.6711" x2="102.53" y2="38.8064" gradientUnits="userSpaceOnUse">
<stop stop-color="#FBD099"/>
<stop offset="0.598958" stop-color="#FCEFDF"/>
<stop offset="1" stop-color="#FFE299"/>
</linearGradient>
<linearGradient id="paint7_linear_129_15634" x1="40.8619" y1="42.0225" x2="42.8077" y2="38.5395" gradientUnits="userSpaceOnUse">
<stop stop-color="#FBD099"/>
<stop offset="0.598958" stop-color="#FCEFDF"/>
<stop offset="1" stop-color="#FFE299"/>
</linearGradient>
<linearGradient id="paint8_linear_129_15634" x1="30.4472" y1="41.6187" x2="33.58" y2="38.8115" gradientUnits="userSpaceOnUse">
<stop stop-color="#FBD099"/>
<stop offset="0.598958" stop-color="#FCEFDF"/>
<stop offset="1" stop-color="#FFE299"/>
</linearGradient>
<linearGradient id="paint9_linear_129_15634" x1="21.9399" y1="42.3615" x2="22.5948" y2="38.5775" gradientUnits="userSpaceOnUse">
<stop stop-color="#FBD099"/>
<stop offset="0.598958" stop-color="#FCEFDF"/>
<stop offset="1" stop-color="#FFE299"/>
</linearGradient>
<linearGradient id="paint10_linear_129_15634" x1="12.0025" y1="42.3159" x2="12.7632" y2="38.5443" gradientUnits="userSpaceOnUse">
<stop stop-color="#FBD099"/>
<stop offset="0.598958" stop-color="#FCEFDF"/>
<stop offset="1" stop-color="#FFE299"/>
</linearGradient>
<linearGradient id="paint11_linear_129_15634" x1="2.19894" y1="42.312" x2="2.8733" y2="38.5302" gradientUnits="userSpaceOnUse">
<stop stop-color="#FBD099"/>
<stop offset="0.598958" stop-color="#FCEFDF"/>
<stop offset="1" stop-color="#FFE299"/>
</linearGradient>
<linearGradient id="paint12_linear_129_15634" x1="255.203" y1="33.9668" x2="269.002" y2="33.9668" gradientUnits="userSpaceOnUse">
<stop stop-color="#EBE3C1"/>
<stop offset="1" stop-color="#EBE3C0"/>
</linearGradient>
<linearGradient id="paint13_linear_129_15634" x1="64.6875" y1="20.4206" x2="242.496" y2="20.4206" gradientUnits="userSpaceOnUse">
<stop stop-color="#F9F7ED"/>
<stop offset="1" stop-color="#EBE3C0"/>
</linearGradient>
</defs>
</svg>
