<svg width="17" height="17" viewBox="0 0 17 17" fill="none" xmlns="http://www.w3.org/2000/svg">
<path d="M8.68945 9.26816C8.42424 9.26816 8.16988 9.16281 7.98235 8.97527C7.79481 8.78773 7.68945 8.53338 7.68945 8.26816C7.68945 8.00295 7.79481 7.74859 7.98235 7.56106C8.16988 7.37352 8.42424 7.26816 8.68945 7.26816C8.95467 7.26816 9.20902 7.37352 9.39656 7.56106C9.5841 7.74859 9.68945 8.00295 9.68945 8.26816C9.68945 8.53338 9.5841 8.78773 9.39656 8.97527C9.20902 9.16281 8.95467 9.26816 8.68945 9.26816ZM8.33745 11.2642C8.45412 11.4042 8.57145 11.5402 8.68945 11.6702C8.80745 11.5402 8.92479 11.4048 9.04145 11.2642C8.80681 11.2691 8.57209 11.2691 8.33745 11.2642V11.2642ZM7.00745 11.1808C6.49549 11.1276 5.98692 11.0456 5.48412 10.9355C5.43412 11.1688 5.39612 11.3955 5.37079 11.6128C5.24412 12.6682 5.42079 13.3095 5.68945 13.4642C5.95812 13.6195 6.60145 13.4515 7.45279 12.8148C7.62812 12.6835 7.80479 12.5375 7.98212 12.3782C7.63512 11.9976 7.30972 11.5978 7.00745 11.1808V11.1808ZM11.8948 10.9355C11.4168 11.0422 10.9061 11.1248 10.3715 11.1808C10.0692 11.5978 9.74379 11.9976 9.39679 12.3782C9.57412 12.5382 9.75079 12.6835 9.92612 12.8148C10.7775 13.4515 11.4208 13.6195 11.6895 13.4642C11.9581 13.3095 12.1341 12.6682 12.0088 11.6128C11.9813 11.3855 11.9435 11.1594 11.8955 10.9355H11.8948ZM12.8615 10.6775C13.2461 12.4368 13.0441 13.8375 12.1895 14.3308C11.3348 14.8242 10.0208 14.2988 8.68945 13.0862C7.35812 14.2988 6.04412 14.8235 5.18945 14.3302C4.33479 13.8368 4.13279 12.4368 4.51679 10.6768C2.80079 10.1308 1.68945 9.25483 1.68945 8.26816C1.68945 7.2815 2.80079 6.40616 4.51679 5.85883C4.13279 4.0995 4.33479 2.69883 5.18945 2.2055C6.04412 1.71216 7.35812 2.2375 8.68945 3.45016C10.0208 2.2375 11.3348 1.71283 12.1895 2.20616C13.0441 2.6995 13.2461 4.0995 12.8621 5.8595C14.5781 6.4055 15.6895 7.2815 15.6895 8.26816C15.6895 9.25483 14.5781 10.1302 12.8621 10.6775H12.8615ZM7.98145 4.15816C7.81191 4.0047 7.63551 3.859 7.45279 3.7215C6.60145 3.08483 5.95812 2.91683 5.68945 3.07216C5.42079 3.22683 5.24479 3.86816 5.37012 4.9235C5.39679 5.1415 5.43412 5.3675 5.48345 5.60083C5.98647 5.49065 6.49527 5.40875 7.00745 5.3555C7.32412 4.92016 7.65079 4.5195 7.98212 4.15816H7.98145ZM10.3715 5.3555C10.9061 5.4115 11.4168 5.49483 11.8948 5.60083C11.9448 5.3675 11.9828 5.14083 12.0081 4.9235C12.1348 3.86816 11.9581 3.22683 11.6895 3.07216C11.4208 2.91683 10.7775 3.08483 9.92612 3.7215C9.74317 3.85898 9.56654 4.00468 9.39679 4.15816C9.72812 4.5195 10.0548 4.92016 10.3715 5.3555V5.3555ZM9.04145 5.27216C8.92479 5.13216 8.80745 4.99616 8.68945 4.86616C8.57145 4.99616 8.45412 5.1315 8.33745 5.27216C8.57209 5.26718 8.80681 5.26718 9.04145 5.27216V5.27216ZM6.27079 10.0708C6.14916 9.87023 6.0318 9.66707 5.91879 9.4615C5.85545 9.63283 5.79679 9.8015 5.74345 9.96883C5.91479 10.0062 6.09079 10.0402 6.27012 10.0708H6.27079ZM7.55879 10.2268C8.31153 10.2827 9.06738 10.2827 9.82012 10.2268C10.2449 9.6028 10.6228 8.94811 10.9508 8.26816C10.6228 7.58821 10.2449 6.93353 9.82012 6.3095C9.06738 6.25359 8.31153 6.25359 7.55879 6.3095C7.13398 6.93353 6.75606 7.58821 6.42812 8.26816C6.75606 8.94811 7.13398 9.6028 7.55879 10.2268V10.2268ZM11.4601 7.07483C11.5235 6.9035 11.5821 6.73483 11.6355 6.5675C11.4607 6.52957 11.2851 6.49556 11.1088 6.4655C11.2302 6.6661 11.3473 6.86926 11.4601 7.07483ZM4.77612 6.82616C4.54945 6.8995 4.33479 6.9795 4.13345 7.06616C3.15679 7.48483 2.68945 7.95816 2.68945 8.26816C2.68945 8.57816 3.15612 9.0515 4.13345 9.47016C4.33479 9.55683 4.54945 9.63683 4.77612 9.71016C4.92412 9.2435 5.10745 8.7595 5.32612 8.26816C5.116 7.79814 4.93238 7.31672 4.77612 6.82616V6.82616ZM5.74279 6.5675C5.79679 6.73416 5.85545 6.9035 5.91879 7.07416C6.03181 6.86881 6.14917 6.66588 6.27079 6.4655C6.09079 6.49616 5.91479 6.53016 5.74345 6.5675H5.74279ZM12.6028 9.71016C12.8295 9.63683 13.0441 9.55683 13.2455 9.47016C14.2221 9.0515 14.6895 8.57816 14.6895 8.26816C14.6895 7.95816 14.2228 7.48483 13.2455 7.06616C13.035 6.9765 12.8205 6.89641 12.6028 6.82616C12.4548 7.29283 12.2715 7.77683 12.0528 8.26816C12.2715 8.7595 12.4548 9.24283 12.6028 9.71016V9.71016ZM11.6361 9.96883C11.5821 9.80216 11.5235 9.63283 11.4601 9.46216C11.3471 9.66752 11.2297 9.87045 11.1081 10.0708C11.2881 10.0402 11.4641 10.0062 11.6355 9.96883H11.6361Z" fill="white"/>
</svg>
