<svg xmlns="http://www.w3.org/2000/svg" xmlns:xlink="http://www.w3.org/1999/xlink" version="1.1" x="0px" y="0px" viewBox="1 -1 512 640" style="enable-background:new 1 -1 512 512;" xml:space="preserve"><g><g><g><g><path fill='#efd891' d="M375.4,491.8H136.7c-22.6,0-41.1-18.4-41.1-41.1s18.4-41.1,41.1-41.1h78.5c1.6,0,2.9,1.3,2.9,2.9      c0,1.6-1.3,2.9-2.9,2.9h-78.5c-19.5,0-35.3,15.9-35.3,35.3c0,19.4,15.8,35.3,35.3,35.3h238.7c19.5,0,35.3-15.9,35.3-35.3      c0-19.4-15.9-35.3-35.3-35.3h-76.6c-1.6,0-2.9-1.3-2.9-2.9c0-1.6,1.3-2.9,2.9-2.9h76.6c22.6,0,41.1,18.4,41.1,41.1      S398,491.8,375.4,491.8z"/></g><g><path fill='#efd891' d="M257,482.3c-1,0-1.9-0.5-2.4-1.3l-75.4-120.5C118.6,331.3,77,269.5,77,198.2c0-99.2,80.7-180,180-180      s180,80.7,180,180c0,71.3-41.6,133.2-102.1,162.3L259.5,481C258.9,481.8,258,482.3,257,482.3z M257,24      c-96.1,0-174.2,78.2-174.2,174.2c0,66.9,39.1,128.8,99.6,157.5c0.5,0.2,0.9,0.6,1.2,1.1L257,474      c78.4-124.9,73.2-117.7,74.6-118.4c60.5-28.7,99.6-90.5,99.6-157.5C431.2,102.2,353.1,24,257,24z"/></g><g><path fill='#efd891' d="M257,320c-64.8,0-117.5-52.7-117.5-117.5S192.2,85.1,257,85.1s117.5,52.7,117.5,117.5      S321.8,320,257,320z M257,90.9c-61.6,0-111.7,50.1-111.7,111.7S195.4,314.3,257,314.3s111.7-50.1,111.7-111.7      S318.6,90.9,257,90.9z"/></g><g><path fill='#efd891' d="M257,272.3c-38.4,0-69.7-31.3-69.7-69.7s31.3-69.7,69.7-69.7s69.7,31.3,69.7,69.7      S295.4,272.3,257,272.3z M257,138.6c-35.3,0-64,28.7-64,64s28.7,64,64,64s64-28.7,64-64S292.3,138.6,257,138.6z"/></g></g></g></g></svg>
