<svg width="62" height="51" viewBox="0 0 62 51" fill="none" xmlns="http://www.w3.org/2000/svg">
<path d="M13.7507 26.3232L13.9103 26.0613L23.7979 10.3891C23.9423 10.1658 24.2843 10.1889 24.3907 10.4353C26.0399 14.1859 27.4687 18.8529 26.7999 21.7563C26.5187 22.95 25.7359 24.5673 24.8543 26.0613C24.7403 26.277 24.6187 26.4926 24.4819 26.7005C24.4211 26.7929 24.3147 26.8468 24.2007 26.8468H14.0395C13.7659 26.8468 13.6063 26.5465 13.7507 26.3232ZM57.8079 31.7141C57.8079 31.8604 57.7243 31.9836 57.6027 32.0375C56.8351 32.3687 54.2131 33.5932 53.1263 35.1258C50.3447 39.0458 48.2243 44.6523 43.4743 44.6523H23.6687C16.6463 44.6523 10.9615 38.8686 10.9615 31.7295V31.4985C10.9615 31.3136 11.1135 31.1596 11.3035 31.1596H22.3387C22.5591 31.1596 22.7187 31.3598 22.7035 31.5832C22.6199 32.3071 22.7567 33.0541 23.0987 33.7318C23.7523 35.0796 25.1127 35.919 26.5795 35.919H29.8837C31.0767 35.919 32.0439 34.9519 32.0439 33.7588C32.0439 32.5657 31.0767 31.5986 29.8837 31.5986H26.6403C26.3667 31.5986 26.1995 31.2751 26.3591 31.0441C26.4199 30.9517 26.4807 30.8592 26.5567 30.7514C27.0659 30.0121 27.7955 28.8723 28.5251 27.5708C29.0191 26.6928 29.4979 25.7533 29.8855 24.8137C29.9615 24.6443 30.0223 24.4671 30.0907 24.2977C30.1971 23.9974 30.3035 23.7124 30.3795 23.4352C30.4555 23.1964 30.5239 22.95 30.5847 22.7189C30.7671 21.918 30.8431 21.0709 30.8431 20.1929C30.8431 19.8463 30.8279 19.4844 30.7975 19.1455C30.7823 18.7682 30.7367 18.3908 30.6911 18.0134C30.6607 17.6823 30.5999 17.3511 30.5391 17.0122C30.4555 16.5117 30.3491 16.0111 30.2275 15.5105L30.1819 15.318C30.0907 14.9714 30.0071 14.6479 29.9007 14.3014C29.5891 13.2232 29.2395 12.1681 28.8595 11.1823C28.7227 10.7896 28.5707 10.4122 28.4111 10.0425C28.1831 9.47264 27.9475 8.95665 27.7347 8.47147C27.6207 8.24813 27.5295 8.04789 27.4383 7.83996C27.3319 7.60892 27.2255 7.37788 27.1115 7.15454C27.0355 6.98511 26.9443 6.82338 26.8835 6.66936L26.2147 5.42174C26.1235 5.25231 26.2755 5.04437 26.4579 5.09828L30.6232 6.24176C30.633 6.24443 30.643 6.24578 30.6531 6.24578C30.6632 6.24578 30.6732 6.24723 30.6829 6.25009L31.2155 6.40751C31.6317 6.52359 32.0439 6.21065 32.0439 5.77853V4.12791C32.0439 2.9111 33.0015 1.92533 34.1947 1.92533C34.7875 1.92533 35.3271 2.17178 35.7071 2.57225C36.0947 2.97272 36.3379 3.51951 36.3379 4.12791V7.45232C36.3379 7.69492 36.5 7.90761 36.734 7.9719C36.7688 7.98146 36.8029 7.99376 36.8351 8.01004C36.8524 8.01879 36.8697 8.0285 36.8851 8.04019C36.9915 8.1172 37.1511 8.24043 37.3487 8.39445C37.5083 8.51767 37.6755 8.6717 37.8731 8.83343C38.2759 9.16459 38.7623 9.58816 39.2867 10.0733C39.4235 10.1966 39.5603 10.3198 39.6895 10.4507C40.3659 11.0899 41.1259 11.8369 41.8555 12.6687C42.0607 12.9074 42.2583 13.1385 42.4635 13.3926C42.6611 13.6468 42.8815 13.8932 43.0639 14.1396C43.3147 14.4708 43.5731 14.8174 43.8087 15.1793C43.9151 15.3488 44.0443 15.5259 44.1431 15.6953C44.4471 16.1497 44.7055 16.6195 44.9563 17.0893C45.0627 17.3049 45.1691 17.5436 45.2603 17.7747C45.5415 18.4062 45.7619 19.0454 45.8987 19.6923C45.9443 19.8309 45.9747 19.9773 45.9899 20.1159C45.9899 20.1363 45.9925 20.1567 45.997 20.1767C46.0372 20.3531 46.0515 20.5429 46.0659 20.7397C46.1267 21.3943 46.0963 22.0566 45.9595 22.7189C45.8987 22.9962 45.8227 23.258 45.7315 23.543C45.6327 23.8125 45.5415 24.0898 45.4199 24.3593C45.1843 24.9061 44.9107 25.4606 44.5839 25.9689C44.4775 26.1614 44.3483 26.3617 44.2267 26.5542C44.0899 26.7544 43.9455 26.947 43.8239 27.1318C43.6491 27.3705 43.4667 27.617 43.2767 27.8403C43.1095 28.0714 42.9423 28.3024 42.7523 28.5103C42.4939 28.8261 42.2431 29.1187 41.9771 29.4037C41.8251 29.5885 41.6579 29.7811 41.4831 29.9505C41.3159 30.143 41.1411 30.3124 40.9891 30.4665C40.7231 30.736 40.5103 30.9363 40.3279 31.1134L39.8947 31.5062C39.8339 31.5678 39.7503 31.5986 39.6667 31.5986H38.4981C37.3051 31.5986 36.3379 32.5657 36.3379 33.7588C36.3379 34.9519 37.3051 35.919 38.4981 35.919H40.5255C41.4603 35.919 42.3495 35.5879 43.0715 34.9641C43.3147 34.7484 44.3863 33.8088 45.6555 32.3918C45.7011 32.3379 45.7543 32.3071 45.8151 32.2917L57.3747 28.9031C57.5951 28.8415 57.8079 29.0032 57.8079 29.2343V31.7141Z" fill="#D15454"/>
</svg>
