<svg width="41" height="41" viewBox="0 0 41 41" fill="none" xmlns="http://www.w3.org/2000/svg">
<g clip-path="url(#clip0_2420_129)">
<path d="M3 20.2682C3 13.0885 8.8203 7.26816 16 7.26816H23C30.1797 7.26816 36 13.0885 36 20.2682C36 27.4479 30.1797 33.2682 23 33.2682H16C8.8203 33.2682 3 27.4479 3 20.2682Z" fill="#D9D9D9"/>
<path d="M20.5 0.268158C-5.14984e-05 0.268158 4.84072e-07 0.268158 1.48248e-10 20.2682C-4.83776e-07 40.2682 3.8147e-06 40.2682 20.5 40.2682C41 40.2682 41 40.2682 41 20.2682C41 0.268158 41 0.268158 20.5 0.268158ZM10.1147 20.9402L10.2008 20.8042L15.5349 12.6642C15.6128 12.5482 15.7973 12.5602 15.8547 12.6882C16.7444 14.6362 17.5152 17.0602 17.1544 18.5682C17.0027 19.1882 16.5804 20.0282 16.1048 20.8042C16.0433 20.9162 15.9777 21.0282 15.9039 21.1362C15.8711 21.1842 15.8137 21.2122 15.7522 21.2122H10.2705C10.1229 21.2122 10.0368 21.0562 10.1147 20.9402ZM33.8824 23.7402C33.8824 23.8162 33.8373 23.8802 33.7717 23.9082C33.3576 24.0802 31.9431 24.7162 31.3568 25.5122C29.8562 27.5482 28.7123 30.4602 26.1498 30.4602H15.4652C11.6768 30.4602 8.61 27.4562 8.61 23.7482V23.6282C8.61 23.5322 8.692 23.4522 8.7945 23.4522H14.7477C14.8666 23.4522 14.9527 23.5562 14.9445 23.6722C14.8994 24.0482 14.9732 24.4362 15.1577 24.7882C15.5103 25.4882 16.2442 25.9242 17.0355 25.9242H18.8614C19.4811 25.9242 19.9834 25.4218 19.9834 24.8022C19.9834 24.1825 19.4811 23.6802 18.8614 23.6802H17.0683C16.9207 23.6802 16.8305 23.5122 16.9166 23.3922C16.9494 23.3442 16.9822 23.2962 17.0232 23.2402C17.2979 22.8562 17.6915 22.2642 18.0851 21.5882C18.3516 21.1322 18.6099 20.6442 18.819 20.1562C18.86 20.0682 18.8928 19.9762 18.9297 19.8882C18.9871 19.7322 19.0445 19.5842 19.0855 19.4402C19.1265 19.3162 19.1634 19.1882 19.1962 19.0682C19.2946 18.6522 19.3356 18.2122 19.3356 17.7562C19.3356 17.5762 19.3274 17.3882 19.311 17.2122C19.3028 17.0162 19.2782 16.8202 19.2536 16.6242C19.2372 16.4522 19.2044 16.2802 19.1716 16.1042C19.1265 15.8442 19.0691 15.5842 19.0035 15.3242L18.9789 15.2242C18.9297 15.0442 18.8846 14.8762 18.8272 14.6962C18.6591 14.1362 18.4705 13.5882 18.2655 13.0762C18.1917 12.8722 18.1097 12.6762 18.0236 12.4842C17.9006 12.1882 17.7735 11.9202 17.6587 11.6682C17.5972 11.5522 17.548 11.4482 17.4988 11.3402C17.4414 11.2202 17.384 11.1002 17.3225 10.9842C17.2815 10.8962 17.2323 10.8122 17.1995 10.7322L16.8387 10.0842C16.7895 9.99616 16.8715 9.88816 16.9699 9.91616L19.217 10.5101C19.2222 10.5115 19.2276 10.5122 19.2331 10.5122C19.2385 10.5122 19.2439 10.5129 19.2492 10.5144L19.5365 10.5962C19.7619 10.6567 19.9834 10.4868 19.9834 10.2534V9.41216C19.9834 8.78016 20.5 8.26816 21.1437 8.26816C21.4635 8.26816 21.7546 8.39616 21.9596 8.60416C22.1687 8.81216 22.2999 9.09616 22.2999 9.41216V11.1302C22.2999 11.261 22.388 11.3755 22.5145 11.4089C22.5327 11.4137 22.5505 11.42 22.5674 11.4281C22.5769 11.4328 22.5866 11.4379 22.5951 11.4442C22.6525 11.4842 22.7386 11.5482 22.8452 11.6282C22.9313 11.6922 23.0215 11.7722 23.1281 11.8562C23.3454 12.0282 23.6078 12.2482 23.8907 12.5002C23.9645 12.5642 24.0383 12.6282 24.108 12.6962C24.4729 13.0282 24.8829 13.4162 25.2765 13.8482C25.3872 13.9722 25.4938 14.0922 25.6045 14.2242C25.7111 14.3562 25.83 14.4842 25.9284 14.6122C26.0637 14.7842 26.2031 14.9642 26.3302 15.1522C26.3876 15.2402 26.4573 15.3322 26.5106 15.4202C26.6746 15.6562 26.814 15.9002 26.9493 16.1442C27.0067 16.2562 27.0641 16.3802 27.1133 16.5002C27.265 16.8282 27.3839 17.1602 27.4577 17.4962C27.4823 17.5682 27.4987 17.6442 27.5069 17.7162C27.5069 17.7268 27.5083 17.7374 27.5107 17.7477C27.5324 17.8393 27.5401 17.938 27.5479 18.0402C27.5807 18.3802 27.5643 18.7242 27.4905 19.0682C27.4577 19.2122 27.4167 19.3482 27.3675 19.4962C27.3142 19.6362 27.265 19.7802 27.1994 19.9202C27.0723 20.2042 26.9247 20.4922 26.7484 20.7562C26.691 20.8562 26.6213 20.9602 26.5557 21.0602C26.4819 21.1642 26.404 21.2642 26.3384 21.3602C26.2441 21.4842 26.1457 21.6122 26.0432 21.7282C25.953 21.8482 25.8628 21.9682 25.7603 22.0762C25.6209 22.2402 25.4856 22.3922 25.3421 22.5402C25.2601 22.6362 25.1699 22.7362 25.0756 22.8242C24.9854 22.9242 24.8911 23.0122 24.8091 23.0922C24.6656 23.2322 24.5508 23.3362 24.4524 23.4282L24.2187 23.6322C24.1859 23.6642 24.1408 23.6802 24.0957 23.6802H23.4219C22.8022 23.6802 22.2999 24.1825 22.2999 24.8022C22.2999 25.4218 22.8022 25.9242 23.4219 25.9242H24.559C25.0633 25.9242 25.543 25.7522 25.9325 25.4282C26.0637 25.3162 26.6418 24.8282 27.3265 24.0922C27.3511 24.0642 27.3798 24.0482 27.4126 24.0402L33.6487 22.2802C33.7676 22.2482 33.8824 22.3322 33.8824 22.4522V23.7402Z" fill="#805AD5"/>
</g>
<defs>
<clipPath id="clip0_2420_129">
<rect width="41" height="40" fill="white" transform="translate(0 0.268158)"/>
</clipPath>
</defs>
</svg>
