<svg width="250" height="71" viewBox="0 0 250 71" fill="none" xmlns="http://www.w3.org/2000/svg">
<path d="M216.67 6.86386C216.943 6.04612 216.384 5.19526 215.422 4.9634C214.459 4.73155 213.458 5.20649 213.185 6.02423C212.913 6.84196 213.471 7.69284 214.434 7.9247C215.396 8.15656 216.397 7.6816 216.67 6.86386Z" fill="url(#paint0_linear_129_15650)"/>
<path d="M207.839 7.81497C208.72 7.41188 209.049 6.47849 208.575 5.73018C208.101 4.98187 207.002 4.70201 206.122 5.1051C205.241 5.50819 204.912 6.4416 205.386 7.18991C205.86 7.93822 206.959 8.21806 207.839 7.81497Z" fill="url(#paint1_linear_129_15650)"/>
<path d="M199.62 7.90914C200.569 7.63944 201.081 6.76739 200.763 5.96134C200.446 5.15529 199.42 4.72048 198.471 4.99018C197.523 5.25988 197.011 6.13196 197.329 6.93801C197.646 7.74406 198.672 8.17884 199.62 7.90914Z" fill="url(#paint2_linear_129_15650)"/>
<path d="M232.562 6.9043C232.842 6.08828 232.29 5.23397 231.33 4.99612C230.37 4.75827 229.365 5.22697 229.085 6.04298C228.805 6.859 229.357 7.71332 230.317 7.95117C231.277 8.18902 232.282 7.72032 232.562 6.9043Z" fill="url(#paint3_linear_129_15650)"/>
<path d="M224.625 6.83402C224.876 6.01134 224.295 5.17122 223.327 4.95754C222.359 4.74386 221.371 5.23754 221.119 6.06022C220.868 6.8829 221.449 7.72303 222.417 7.93671C223.385 8.15038 224.373 7.65669 224.625 6.83402Z" fill="url(#paint4_linear_129_15650)"/>
<path d="M247.986 7.54429C248.693 6.94326 248.693 5.96883 247.986 5.36781C247.279 4.76679 246.132 4.76678 245.425 5.3678C244.718 5.96882 244.718 6.94329 245.425 7.54431C246.132 8.14533 247.279 8.14531 247.986 7.54429Z" fill="url(#paint5_linear_129_15650)"/>
<path d="M239.883 7.68032C240.666 7.1512 240.795 6.18302 240.173 5.51782C239.55 4.85263 238.411 4.74232 237.628 5.27144C236.845 5.80056 236.716 6.76875 237.338 7.43395C237.961 8.09914 239.1 8.20944 239.883 7.68032Z" fill="url(#paint6_linear_129_15650)"/>
<path d="M192.611 7.27587C193.16 6.56562 192.928 5.61137 192.093 5.14446C191.257 4.67756 190.134 4.87482 189.585 5.58507C189.035 6.29533 189.267 7.2496 190.103 7.7165C190.939 8.18341 192.062 7.98612 192.611 7.27587Z" fill="url(#paint7_linear_129_15650)"/>
<path d="M184.244 7.68338C185.04 7.16843 185.194 6.2028 184.588 5.52658C183.982 4.85036 182.846 4.71962 182.05 5.23457C181.254 5.74953 181.101 6.71519 181.707 7.39141C182.312 8.06763 183.449 8.19834 184.244 7.68338Z" fill="url(#paint8_linear_129_15650)"/>
<path d="M176.988 6.78874C177.188 5.95586 176.555 5.14318 175.575 4.97358C174.595 4.80398 173.639 5.34168 173.439 6.17456C173.24 7.00744 173.873 7.82011 174.853 7.98971C175.833 8.15932 176.789 7.62162 176.988 6.78874Z" fill="url(#paint9_linear_129_15650)"/>
<path d="M169.024 6.81095C169.255 5.98394 168.653 5.15442 167.68 4.95816C166.707 4.76191 165.731 5.27323 165.5 6.10024C165.269 6.92724 165.871 7.75676 166.844 7.95302C167.817 8.14927 168.793 7.63795 169.024 6.81095Z" fill="url(#paint10_linear_129_15650)"/>
<path d="M161.085 6.75964C161.29 5.92778 160.663 5.11193 159.684 4.93739C158.705 4.76285 157.745 5.29571 157.54 6.12757C157.334 6.95943 157.961 7.77529 158.94 7.94983C159.919 8.12437 160.879 7.5915 161.085 6.75964Z" fill="url(#paint11_linear_129_15650)"/>
<path d="M7.54186 57.9939C3.38382 57.9939 0 60.8696 0 64.4033C0 67.937 3.38382 70.8127 7.54186 70.8127H178.255C182.413 70.8127 185.797 67.937 185.797 64.4033C185.797 60.8696 182.413 57.9939 178.255 57.9939H170.559C165.666 57.9939 161.685 54.6102 161.685 50.4523C161.685 46.2943 165.666 42.9106 170.559 42.9106H214.557C218.715 42.9106 222.099 40.0349 222.099 36.5012C222.099 32.9675 218.715 30.0918 214.557 30.0918H97.9731C93.8151 30.0918 90.4313 32.9675 90.4313 36.5012C90.4313 40.0349 93.8151 42.9106 97.9731 42.9106H136.926C141.819 42.9106 145.8 46.2943 145.8 50.4523C145.8 54.6102 141.819 57.9939 136.926 57.9939H7.54186Z" fill="url(#paint12_linear_129_15650)"/>
<path d="M241.551 42.7749C245.693 42.7749 249.051 39.9212 249.051 36.4011C249.051 32.881 245.693 30.0273 241.551 30.0273C237.409 30.0273 234.051 32.881 234.051 36.4011C234.051 39.9212 237.409 42.7749 241.551 42.7749Z" fill="url(#paint13_linear_129_15650)"/>
<path fill-rule="evenodd" clip-rule="evenodd" d="M115.018 15.3379C119.723 15.3379 123.539 12.0967 123.539 8.09619C123.539 4.09572 119.725 0.854492 115.018 0.854492H56.3884C51.6833 0.854492 47.8672 4.09572 47.8672 8.09619C47.8672 12.0967 51.6811 15.3379 56.3884 15.3379H115.018Z" fill="url(#paint14_linear_129_15650)"/>
<defs>
<linearGradient id="paint0_linear_129_15650" x1="214.434" y1="7.9247" x2="215.162" y2="4.9009" gradientUnits="userSpaceOnUse">
<stop stop-color="#FBD099"/>
<stop offset="0.598958" stop-color="#FCEFDF"/>
<stop offset="1" stop-color="#FFE299"/>
</linearGradient>
<linearGradient id="paint1_linear_129_15650" x1="205.386" y1="7.1899" x2="208.321" y2="5.32967" gradientUnits="userSpaceOnUse">
<stop stop-color="#FBD099"/>
<stop offset="0.598958" stop-color="#FCEFDF"/>
<stop offset="1" stop-color="#FFE299"/>
</linearGradient>
<linearGradient id="paint2_linear_129_15650" x1="197.329" y1="6.93799" x2="200.635" y2="5.63612" gradientUnits="userSpaceOnUse">
<stop stop-color="#FBD099"/>
<stop offset="0.598958" stop-color="#FCEFDF"/>
<stop offset="1" stop-color="#FFE299"/>
</linearGradient>
<linearGradient id="paint3_linear_129_15650" x1="230.317" y1="7.95117" x2="231.065" y2="4.93042" gradientUnits="userSpaceOnUse">
<stop stop-color="#FBD099"/>
<stop offset="0.598958" stop-color="#FCEFDF"/>
<stop offset="1" stop-color="#FFE299"/>
</linearGradient>
<linearGradient id="paint4_linear_129_15650" x1="222.417" y1="7.9367" x2="223.086" y2="4.9043" gradientUnits="userSpaceOnUse">
<stop stop-color="#FBD099"/>
<stop offset="0.598958" stop-color="#FCEFDF"/>
<stop offset="1" stop-color="#FFE299"/>
</linearGradient>
<linearGradient id="paint5_linear_129_15650" x1="245.425" y1="7.5443" x2="247.573" y2="5.01677" gradientUnits="userSpaceOnUse">
<stop stop-color="#FBD099"/>
<stop offset="0.598958" stop-color="#FCEFDF"/>
<stop offset="1" stop-color="#FFE299"/>
</linearGradient>
<linearGradient id="paint6_linear_129_15650" x1="237.338" y1="7.43393" x2="239.805" y2="5.12501" gradientUnits="userSpaceOnUse">
<stop stop-color="#FBD099"/>
<stop offset="0.598958" stop-color="#FCEFDF"/>
<stop offset="1" stop-color="#FFE299"/>
</linearGradient>
<linearGradient id="paint7_linear_129_15650" x1="190.103" y1="7.71649" x2="191.671" y2="4.90916" gradientUnits="userSpaceOnUse">
<stop stop-color="#FBD099"/>
<stop offset="0.598958" stop-color="#FCEFDF"/>
<stop offset="1" stop-color="#FFE299"/>
</linearGradient>
<linearGradient id="paint8_linear_129_15650" x1="181.707" y1="7.3914" x2="184.232" y2="5.12878" gradientUnits="userSpaceOnUse">
<stop stop-color="#FBD099"/>
<stop offset="0.598958" stop-color="#FCEFDF"/>
<stop offset="1" stop-color="#FFE299"/>
</linearGradient>
<linearGradient id="paint9_linear_129_15650" x1="174.853" y1="7.98971" x2="175.38" y2="4.93985" gradientUnits="userSpaceOnUse">
<stop stop-color="#FBD099"/>
<stop offset="0.598958" stop-color="#FCEFDF"/>
<stop offset="1" stop-color="#FFE299"/>
</linearGradient>
<linearGradient id="paint10_linear_129_15650" x1="166.844" y1="7.95301" x2="167.457" y2="4.91314" gradientUnits="userSpaceOnUse">
<stop stop-color="#FBD099"/>
<stop offset="0.598958" stop-color="#FCEFDF"/>
<stop offset="1" stop-color="#FFE299"/>
</linearGradient>
<linearGradient id="paint11_linear_129_15650" x1="158.94" y1="7.94982" x2="159.484" y2="4.90169" gradientUnits="userSpaceOnUse">
<stop stop-color="#FBD099"/>
<stop offset="0.598958" stop-color="#FCEFDF"/>
<stop offset="1" stop-color="#FFE299"/>
</linearGradient>
<linearGradient id="paint12_linear_129_15650" x1="0" y1="50.4522" x2="222.099" y2="50.4522" gradientUnits="userSpaceOnUse">
<stop stop-color="#FBD099"/>
<stop offset="0.598958" stop-color="#FCEFDF"/>
<stop offset="1" stop-color="#FFE299"/>
</linearGradient>
<linearGradient id="paint13_linear_129_15650" x1="234.051" y1="36.4011" x2="249.051" y2="36.4011" gradientUnits="userSpaceOnUse">
<stop stop-color="#FBD099"/>
<stop offset="0.598958" stop-color="#FCEFDF"/>
<stop offset="1" stop-color="#FFE299"/>
</linearGradient>
<linearGradient id="paint14_linear_129_15650" x1="47.8672" y1="8.09622" x2="123.539" y2="8.09622" gradientUnits="userSpaceOnUse">
<stop stop-color="#FBD099"/>
<stop offset="0.598958" stop-color="#FCEFDF"/>
<stop offset="1" stop-color="#FFE299"/>
</linearGradient>
</defs>
</svg>
