<svg width="76" height="76" viewBox="0 0 76 76" fill="none" xmlns="http://www.w3.org/2000/svg">
<rect x="1.16421" y="0.787744" width="74.048" height="74.048" rx="14.9671" fill="#673EA9"/>
<rect x="1.16421" y="0.787744" width="74.048" height="74.048" rx="14.9671" stroke="#BE97FE" stroke-width="1.57549"/>
<path d="M51.9782 25.2417C56.4342 31.8338 58.6349 39.2696 57.8122 47.8298C57.8088 47.8661 57.79 47.8993 57.7604 47.9212C54.386 50.4143 51.1166 51.9274 47.8931 52.9308C47.868 52.9384 47.8411 52.938 47.8163 52.9296C47.7914 52.9211 47.7698 52.905 47.7545 52.8836C47.0098 51.841 46.3331 50.7418 45.7403 49.5875C45.7062 49.5196 45.7373 49.4377 45.8073 49.4109C46.882 49.0035 47.9039 48.5152 48.8869 47.937C48.9643 47.8914 48.9692 47.7797 48.8977 47.7261C48.6891 47.5703 48.4824 47.4065 48.2847 47.2428C48.2477 47.2125 48.1979 47.2066 48.1559 47.2269C41.7745 50.192 34.7839 50.192 28.327 47.2269C28.2851 47.208 28.2353 47.2145 28.1993 47.2443C28.002 47.408 27.7948 47.5703 27.5882 47.7261C27.5167 47.7797 27.5226 47.8914 27.6005 47.937C28.5835 48.5042 29.6054 49.0035 30.6786 49.4129C30.7481 49.4397 30.7811 49.5196 30.7466 49.5875C30.1666 50.7433 29.49 51.8425 28.7314 52.8851C28.6984 52.9273 28.6441 52.9466 28.5928 52.9308C25.3846 51.9274 22.1152 50.4143 18.7408 47.9212C18.7126 47.8993 18.6924 47.8646 18.6895 47.8284C18.002 40.4239 19.4031 32.9266 24.5181 25.2402C24.5304 25.2198 24.5491 25.204 24.5708 25.1945C27.0876 24.0323 29.7839 23.1773 32.602 22.689C32.6533 22.681 32.7046 22.7049 32.7312 22.7505C33.0794 23.3708 33.4775 24.1663 33.7467 24.8164C36.7173 24.3598 39.7341 24.3598 42.7668 24.8164C43.0361 24.1802 43.4203 23.3708 43.767 22.7505C43.7793 22.7279 43.7985 22.7097 43.8217 22.6987C43.8449 22.6876 43.871 22.6842 43.8962 22.689C46.7158 23.1788 49.4121 24.0338 51.9269 25.1945C51.9491 25.204 51.9674 25.2198 51.9782 25.2417ZM35.2569 39.3202C35.288 37.1313 33.7019 35.32 31.7108 35.32C29.7361 35.32 28.1652 37.1154 28.1652 39.3202C28.1652 41.5245 29.7671 43.3199 31.7108 43.3199C33.6861 43.3199 35.2569 41.5245 35.2569 39.3202ZM48.367 39.3202C48.3981 37.1313 46.812 35.32 44.8214 35.32C42.8462 35.32 41.2754 37.1154 41.2754 39.3202C41.2754 41.5245 42.8773 43.3199 44.8214 43.3199C46.812 43.3199 48.367 41.5245 48.367 39.3202Z" fill="#BE97FE"/>
</svg>
