<svg width="1504" height="769" viewBox="0 0 1504 769" fill="none" xmlns="http://www.w3.org/2000/svg">
<path d="M38.2672 31.6406C39.899 31.6406 41.2219 30.2739 41.2219 28.5879C41.2219 26.9019 39.899 25.5352 38.2672 25.5352C36.6354 25.5352 35.3125 26.9019 35.3125 28.5879C35.3125 30.2739 36.6354 31.6406 38.2672 31.6406Z" fill="#ECE4C3"/>
<path d="M7.38827 227.552C9.0201 227.552 10.3429 226.185 10.3429 224.499C10.3429 222.813 9.0201 221.446 7.38827 221.446C5.75645 221.446 4.43359 222.813 4.43359 224.499C4.43359 226.185 5.75645 227.552 7.38827 227.552Z" fill="#ECE4C3"/>
<path d="M124.88 6.10547C126.512 6.10547 127.835 4.73871 127.835 3.05273C127.835 1.36676 126.512 0 124.88 0C123.249 0 121.926 1.36676 121.926 3.05273C121.926 4.73871 123.249 6.10547 124.88 6.10547Z" fill="#ECE4C3"/>
<path d="M69.4813 310.424C69.4813 311.267 68.8212 311.953 68.0024 311.953C67.1836 311.953 66.5234 311.27 66.5234 310.424C66.5234 309.579 67.1836 308.896 68.0024 308.896C68.8212 308.896 69.4813 309.582 69.4813 310.424Z" fill="#ECE4C3"/>
<path d="M1475.28 513.784C1475.28 514.627 1474.62 515.312 1473.8 515.312C1472.98 515.312 1472.32 514.63 1472.32 513.784C1472.32 512.938 1472.98 512.256 1473.8 512.256C1474.62 512.256 1475.28 512.941 1475.28 513.784Z" fill="#ECE4C3"/>
<path d="M1470.28 766.915C1470.28 767.757 1469.62 768.443 1468.8 768.443C1467.98 768.443 1467.32 767.761 1467.32 766.915C1467.32 766.069 1467.98 765.387 1468.8 765.387C1469.62 765.387 1470.28 766.072 1470.28 766.915Z" fill="#ECE4C3"/>
<path d="M18.4364 4.57781C18.4364 5.42051 17.7731 6.10582 16.9574 6.10582C16.1418 6.10582 15.4785 5.42051 15.4785 4.57781C15.4785 3.73511 16.1418 3.0498 16.9574 3.0498C17.7731 3.0498 18.4364 3.73511 18.4364 4.57781Z" fill="#ECE4C3"/>
<path d="M80.4774 587.958C80.4774 588.8 79.8173 589.486 78.9985 589.486C78.1797 589.486 77.5195 588.8 77.5195 587.958C77.5195 587.115 78.1797 586.43 78.9985 586.43C79.8173 586.43 80.4774 587.112 80.4774 587.958Z" fill="#ECE4C3"/>
<path d="M32.9828 682.044C33.7996 682.044 34.4618 681.36 34.4618 680.516C34.4618 679.672 33.7996 678.988 32.9828 678.988C32.166 678.988 31.5039 679.672 31.5039 680.516C31.5039 681.36 32.166 682.044 32.9828 682.044Z" fill="#ECE4C3"/>
<path d="M301.231 104.068C301.231 104.911 300.571 105.596 299.752 105.596C298.934 105.596 298.273 104.911 298.273 104.068C298.273 103.225 298.934 102.54 299.752 102.54C300.571 102.54 301.231 103.225 301.231 104.068Z" fill="#ECE4C3"/>
<path d="M1124.79 330.6C1124.79 331.443 1124.13 332.128 1123.31 332.128C1122.5 332.128 1121.83 331.446 1121.83 330.6C1121.83 329.754 1122.49 329.072 1123.31 329.072C1124.13 329.072 1124.79 329.758 1124.79 330.6Z" fill="#ECE4C3"/>
<path d="M1097.42 105.875C1097.42 106.717 1096.76 107.403 1095.94 107.403C1095.12 107.403 1094.46 106.721 1094.46 105.875C1094.46 105.029 1095.13 104.347 1095.94 104.347C1096.76 104.347 1097.42 105.032 1097.42 105.875Z" fill="#ECE4C3"/>
<path d="M619.622 194.785C619.622 195.628 618.959 196.313 618.143 196.313C617.327 196.313 616.664 195.628 616.664 194.785C616.664 193.942 617.327 193.257 618.143 193.257C618.959 193.257 619.622 193.942 619.622 194.785Z" fill="#ECE4C3"/>
<path d="M392.595 175.547C392.595 176.389 391.934 177.075 391.116 177.075C390.297 177.075 389.637 176.389 389.637 175.547C389.637 174.704 390.3 174.019 391.116 174.019C391.931 174.019 392.595 174.704 392.595 175.547Z" fill="#ECE4C3"/>
<path d="M1443.62 156.558C1443.62 157.401 1442.95 158.086 1442.14 158.086C1441.32 158.086 1440.66 157.401 1440.66 156.558C1440.66 155.716 1441.32 155.03 1442.14 155.03C1442.96 155.03 1443.62 155.716 1443.62 156.558Z" fill="#ECE4C3"/>
<path d="M1467.35 424.49C1467.35 425.333 1466.69 426.018 1465.88 426.018C1465.06 426.018 1464.4 425.336 1464.4 424.49C1464.4 423.644 1465.06 422.962 1465.88 422.962C1466.69 422.962 1467.35 423.647 1467.35 424.49Z" fill="#ECE4C3"/>
<path d="M1299.5 279.097C1299.5 279.94 1298.84 280.625 1298.02 280.625C1297.2 280.625 1296.54 279.94 1296.54 279.097C1296.54 278.255 1297.2 277.569 1298.02 277.569C1298.84 277.569 1299.5 278.255 1299.5 279.097Z" fill="#ECE4C3"/>
<path d="M1238.98 311.953C1238.98 312.796 1238.32 313.481 1237.5 313.481C1236.68 313.481 1236.02 312.796 1236.02 311.953C1236.02 311.11 1236.68 310.425 1237.5 310.425C1238.32 310.425 1238.98 311.11 1238.98 311.953Z" fill="#ECE4C3"/>
<path d="M1231.26 15.2214C1231.26 16.0641 1230.6 16.7494 1229.78 16.7494C1228.96 16.7494 1228.3 16.0641 1228.3 15.2214C1228.3 14.3787 1228.96 13.6934 1229.78 13.6934C1230.59 13.6934 1231.26 14.3754 1231.26 15.2214Z" fill="#ECE4C3"/>
<path d="M1498.91 102.541C1498.91 103.383 1498.25 104.069 1497.43 104.069C1496.61 104.069 1495.95 103.383 1495.95 102.541C1495.95 101.698 1496.61 101.013 1497.43 101.013C1498.24 101.013 1498.91 101.698 1498.91 102.541Z" fill="#ECE4C3"/>
<path d="M860.927 63.8649C860.927 64.7076 860.263 65.3929 859.448 65.3929C858.632 65.3929 857.969 64.7076 857.969 63.8649C857.969 63.0222 858.629 62.3369 859.448 62.3369C860.267 62.3369 860.927 63.0222 860.927 63.8649Z" fill="#ECE4C3"/>
<path d="M1467.35 3.05242C1467.35 3.89512 1466.69 4.58043 1465.88 4.58043C1465.06 4.58043 1464.4 3.89512 1464.4 3.05242C1464.4 2.20972 1465.06 1.52441 1465.88 1.52441C1466.69 1.52441 1467.35 2.20972 1467.35 3.05242Z" fill="#ECE4C3"/>
<path d="M1353.25 248.996C1353.25 249.838 1352.59 250.524 1351.78 250.524C1350.96 250.524 1350.3 249.838 1350.3 248.996C1350.3 248.153 1350.96 247.468 1351.78 247.468C1352.59 247.468 1353.25 248.153 1353.25 248.996Z" fill="#ECE4C3"/>
<path d="M1503.34 391.161C1503.34 392.004 1502.68 392.689 1501.87 392.689C1501.05 392.689 1500.39 392.004 1500.39 391.161C1500.39 390.318 1501.05 389.633 1501.87 389.633C1502.68 389.633 1503.34 390.318 1503.34 391.161Z" fill="#ECE4C3"/>
<path d="M930.704 175.547C930.704 176.389 930.044 177.075 929.225 177.075C928.406 177.075 927.746 176.389 927.746 175.547C927.746 174.704 928.409 174.019 929.225 174.019C930.041 174.019 930.704 174.704 930.704 175.547Z" fill="#ECE4C3"/>
<path d="M174.856 114.912C174.856 115.754 174.196 116.44 173.377 116.44C172.559 116.44 171.898 115.754 171.898 114.912C171.898 114.069 172.559 113.384 173.377 113.384C174.196 113.384 174.856 114.066 174.856 114.912Z" fill="#ECE4C3"/>
<path d="M790.345 307.528C790.345 308.371 789.681 309.056 788.866 309.056C788.05 309.056 787.387 308.374 787.387 307.528C787.387 306.682 788.047 306 788.866 306C789.684 306 790.345 306.682 790.345 307.528Z" fill="#ECE4C3"/>
<path d="M932.345 321.528C932.345 322.371 931.681 323.056 930.866 323.056C930.05 323.056 929.387 322.374 929.387 321.528C929.387 320.682 930.047 320 930.866 320C931.684 320 932.345 320.682 932.345 321.528Z" fill="#ECE4C3"/>
<path d="M707.911 247.468C707.911 248.311 707.248 248.996 706.432 248.996C705.616 248.996 704.953 248.314 704.953 247.468C704.953 246.622 705.616 245.94 706.432 245.94C707.248 245.94 707.911 246.626 707.911 247.468Z" fill="#ECE4C3"/>
<path d="M1082.48 6.10516C1082.48 6.94785 1081.82 7.63316 1081 7.63316C1080.18 7.63316 1079.52 6.94785 1079.52 6.10516C1079.52 5.26246 1080.18 4.57715 1081 4.57715C1081.82 4.57715 1082.48 5.26246 1082.48 6.10516Z" fill="#ECE4C3"/>
<path d="M1302 37.8161C1302 38.6588 1301.34 39.3441 1300.53 39.3441C1299.71 39.3441 1299.05 38.6588 1299.05 37.8161C1299.05 36.9734 1299.71 36.2881 1300.53 36.2881C1301.34 36.2881 1302 36.9734 1302 37.8161Z" fill="#ECE4C3"/>
<path d="M382.817 16.7487C382.817 17.5914 382.154 18.2767 381.338 18.2767C380.523 18.2767 379.859 17.5947 379.859 16.7487C379.859 15.9027 380.523 15.2207 381.338 15.2207C382.154 15.2207 382.817 15.906 382.817 16.7487Z" fill="#ECE4C3"/>
<path d="M7.38827 159.611C9.0201 159.611 10.3429 158.245 10.3429 156.559C10.3429 154.873 9.0201 153.506 7.38827 153.506C5.75645 153.506 4.43359 154.873 4.43359 156.559C4.43359 158.245 5.75645 159.611 7.38827 159.611Z" fill="#ECE4C3"/>
<path d="M19.5537 294.331C21.0652 293.696 21.792 291.915 21.177 290.353C20.562 288.791 18.8382 288.04 17.3267 288.676C15.8152 289.311 15.0884 291.092 15.7034 292.654C16.3184 294.215 18.0422 294.966 19.5537 294.331Z" fill="#ECE4C3"/>
<path d="M1279.35 743.806C1280.86 743.17 1281.59 741.389 1280.97 739.827C1280.36 738.266 1278.64 737.515 1277.12 738.15C1275.61 738.786 1274.89 740.567 1275.5 742.128C1276.12 743.69 1277.84 744.441 1279.35 743.806Z" fill="#ECE4C3"/>
<path d="M2.95468 543.643C4.5865 543.643 5.90936 542.276 5.90936 540.59C5.90936 538.904 4.5865 537.537 2.95468 537.537C1.32285 537.537 0 538.904 0 540.59C0 542.276 1.32285 543.643 2.95468 543.643Z" fill="#ECE4C3"/>
<path d="M1484.39 663.334C1484.94 663.334 1485.39 662.871 1485.39 662.301C1485.39 661.73 1484.94 661.268 1484.39 661.268C1483.83 661.268 1483.39 661.73 1483.39 662.301C1483.39 662.871 1483.83 663.334 1484.39 663.334Z" fill="#ECE4C3"/>
<path d="M1431.34 700.528C1432.42 700.528 1433.3 699.624 1433.3 698.509C1433.3 697.393 1432.42 696.489 1431.34 696.489C1430.26 696.489 1429.39 697.393 1429.39 698.509C1429.39 699.624 1430.26 700.528 1431.34 700.528Z" fill="#ECE4C3"/>
<path d="M891.412 102.54C893.044 102.54 894.366 101.173 894.366 99.4873C894.366 97.8013 893.044 96.4346 891.412 96.4346C889.78 96.4346 888.457 97.8013 888.457 99.4873C888.457 101.173 889.78 102.54 891.412 102.54Z" fill="#ECE4C3"/>
<path d="M1454.92 387.519C1456.55 387.519 1457.88 386.152 1457.88 384.466C1457.88 382.78 1456.55 381.413 1454.92 381.413C1453.29 381.413 1451.97 382.78 1451.97 384.466C1451.97 386.152 1453.29 387.519 1454.92 387.519Z" fill="#ECE4C3"/>
<path d="M460.724 12.2109C462.356 12.2109 463.679 10.8442 463.679 9.1582C463.679 7.47222 462.356 6.10547 460.724 6.10547C459.092 6.10547 457.77 7.47222 457.77 9.1582C457.77 10.8442 459.092 12.2109 460.724 12.2109Z" fill="#ECE4C3"/>
<path d="M705.396 18.2734C707.028 18.2734 708.351 16.9067 708.351 15.2207C708.351 13.5347 707.028 12.168 705.396 12.168C703.764 12.168 702.441 13.5347 702.441 15.2207C702.441 16.9067 703.764 18.2734 705.396 18.2734Z" fill="#ECE4C3"/>
<path d="M1154.76 48.1719C1156.39 48.1719 1157.71 46.8051 1157.71 45.1191C1157.71 43.4332 1156.39 42.0664 1154.76 42.0664C1153.13 42.0664 1151.8 43.4332 1151.8 45.1191C1151.8 46.8051 1153.13 48.1719 1154.76 48.1719Z" fill="#ECE4C3"/>
<path d="M1333.65 365.114C1334.81 363.922 1334.81 361.989 1333.65 360.796C1332.5 359.604 1330.63 359.604 1329.48 360.796C1328.32 361.989 1328.32 363.922 1329.48 365.114C1330.63 366.306 1332.5 366.306 1333.65 365.114Z" fill="#ECE4C3"/>
<path d="M890.378 309.808C891.886 309.163 892.601 307.377 891.977 305.82C891.353 304.262 889.624 303.522 888.117 304.168C886.609 304.813 885.893 306.599 886.517 308.156C887.142 309.714 888.87 310.454 890.378 309.808Z" fill="#ECE4C3"/>
<path d="M1086.19 296.168C1087.35 294.976 1087.35 293.043 1086.19 291.851C1085.04 290.659 1083.17 290.659 1082.01 291.851C1080.86 293.043 1080.86 294.976 1082.01 296.168C1083.17 297.361 1085.04 297.361 1086.19 296.168Z" fill="#ECE4C3"/>
<path d="M468.938 313.018C468.938 313.608 468.475 314.083 467.906 314.083C467.338 314.083 466.875 313.605 466.875 313.018C466.875 312.431 467.338 311.952 467.906 311.952C468.475 311.952 468.938 312.431 468.938 313.018Z" fill="#ECE4C3"/>
<path d="M19.6291 732.441C20.1987 732.441 20.6605 731.964 20.6605 731.375C20.6605 730.787 20.1987 730.31 19.6291 730.31C19.0594 730.31 18.5977 730.787 18.5977 731.375C18.5977 731.964 19.0594 732.441 19.6291 732.441Z" fill="#ECE4C3"/>
<path d="M330.715 230.05C330.715 230.64 330.252 231.116 329.684 231.116C329.116 231.116 328.652 230.637 328.652 230.05C328.652 229.463 329.116 228.984 329.684 228.984C330.252 228.984 330.715 229.463 330.715 230.05Z" fill="#ECE4C3"/>
<path d="M324.803 503.475C324.803 504.065 324.34 504.541 323.772 504.541C323.204 504.541 322.74 504.062 322.74 503.475C322.74 502.888 323.204 502.409 323.772 502.409C324.34 502.409 324.803 502.888 324.803 503.475Z" fill="#ECE4C3"/>
<path d="M1239.57 48.1711C1239.57 48.7614 1239.1 49.2368 1238.54 49.2368C1237.97 49.2368 1237.5 48.7581 1237.5 48.1711C1237.5 47.5842 1237.97 47.1055 1238.54 47.1055C1239.1 47.1055 1239.57 47.5842 1239.57 48.1711Z" fill="#ECE4C3"/>
<path d="M188.364 195.854C188.364 196.444 187.9 196.919 187.332 196.919C186.764 196.919 186.301 196.441 186.301 195.854C186.301 195.267 186.764 194.788 187.332 194.788C187.9 194.788 188.364 195.267 188.364 195.854Z" fill="#ECE4C3"/>
<path d="M88.4184 410.858C88.4184 411.448 87.955 411.923 87.3869 411.923C86.8188 411.923 86.3555 411.445 86.3555 410.858C86.3555 410.271 86.8188 409.792 87.3869 409.792C87.955 409.792 88.4184 410.271 88.4184 410.858Z" fill="#ECE4C3"/>
<path d="M97.4496 188.194C97.4496 188.784 96.9862 189.259 96.4182 189.259C95.8501 189.259 95.3867 188.781 95.3867 188.194C95.3867 187.607 95.8501 187.128 96.4182 187.128C96.9862 187.128 97.4496 187.607 97.4496 188.194Z" fill="#ECE4C3"/>
<path d="M32.9848 259.86C32.9848 260.45 32.5214 260.925 31.9533 260.925C31.3852 260.925 30.9219 260.447 30.9219 259.86C30.9219 259.273 31.3852 258.794 31.9533 258.794C32.5214 258.794 32.9848 259.273 32.9848 259.86Z" fill="#ECE4C3"/>
<path d="M381.338 78.4299C381.338 79.0201 380.875 79.4956 380.307 79.4956C379.739 79.4956 379.275 79.0169 379.275 78.4299C379.275 77.843 379.739 77.3643 380.307 77.3643C380.875 77.3643 381.338 77.843 381.338 78.4299Z" fill="#ECE4C3"/>
<path d="M706.432 113.843C706.432 114.433 705.969 114.909 705.401 114.909C704.832 114.909 704.369 114.43 704.369 113.843C704.369 113.256 704.832 112.777 705.401 112.777C705.969 112.777 706.432 113.256 706.432 113.843Z" fill="#ECE4C3"/>
<path d="M599.457 165.146C599.457 165.736 598.994 166.211 598.426 166.211C597.858 166.211 597.395 165.733 597.395 165.146C597.395 164.559 597.858 164.08 598.426 164.08C598.994 164.08 599.457 164.559 599.457 165.146Z" fill="#ECE4C3"/>
<path d="M785.289 77.3606C785.289 77.9508 784.826 78.4263 784.258 78.4263C783.69 78.4263 783.227 77.9475 783.227 77.3606C783.227 76.7737 783.69 76.2949 784.258 76.2949C784.826 76.2949 785.289 76.7737 785.289 77.3606Z" fill="#ECE4C3"/>
<path d="M631.483 87.968C631.483 88.5582 631.019 89.0337 630.451 89.0337C629.883 89.0337 629.42 88.5549 629.42 87.968C629.42 87.3811 629.883 86.9023 630.451 86.9023C631.019 86.9023 631.483 87.3811 631.483 87.968Z" fill="#ECE4C3"/>
<path d="M1269.23 715.106C1268.39 715.197 1267.64 714.612 1267.55 713.801C1267.46 712.99 1268.07 712.256 1268.91 712.165C1269.74 712.074 1270.5 712.659 1270.59 713.47C1270.67 714.281 1270.06 715.015 1269.23 715.106Z" fill="#ECE4C3"/>
</svg>
