<svg width="301" height="300" viewBox="0 0 301 300" fill="none" xmlns="http://www.w3.org/2000/svg">
<g filter="url(#filter0_d_715_13318)">
<path d="M4 287.938V268.146C4 266.536 4.63772 264.992 5.77351 263.852L266.836 1.78996C267.977 0.644103 269.526 0 271.143 0H291.938C295.587 0 296.5 2.36568 296.5 3.54853L296.031 34.5334C296.006 36.1188 295.364 37.6322 294.241 38.7512L42.7464 289.246C41.63 290.358 40.131 290.993 38.5554 291.016C27.336 291.179 8.41699 291.356 6.53466 290.979C4.50693 290.574 4 288.782 4 287.938Z" fill="url(#paint0_linear_715_13318)"/>
</g>
<defs>
<filter id="filter0_d_715_13318" x="0" y="0" width="300.5" height="299.203" filterUnits="userSpaceOnUse" color-interpolation-filters="sRGB">
<feFlood flood-opacity="0" result="BackgroundImageFix"/>
<feColorMatrix in="SourceAlpha" type="matrix" values="0 0 0 0 0 0 0 0 0 0 0 0 0 0 0 0 0 0 127 0" result="hardAlpha"/>
<feOffset dy="4"/>
<feGaussianBlur stdDeviation="2"/>
<feComposite in2="hardAlpha" operator="out"/>
<feColorMatrix type="matrix" values="0 0 0 0 0 0 0 0 0 0 0 0 0 0 0 0 0 0 0.25 0"/>
<feBlend mode="normal" in2="BackgroundImageFix" result="effect1_dropShadow_715_13318"/>
<feBlend mode="normal" in="SourceGraphic" in2="effect1_dropShadow_715_13318" result="shape"/>
</filter>
<linearGradient id="paint0_linear_715_13318" x1="4" y1="145.602" x2="296.5" y2="145.602" gradientUnits="userSpaceOnUse">
<stop stop-color="#FBD099"/>
<stop offset="0.598958" stop-color="#FCEFDF"/>
<stop offset="1" stop-color="#FFE299"/>
</linearGradient>
</defs>
</svg>
