<svg width="198" height="53" viewBox="0 0 198 53" fill="none" xmlns="http://www.w3.org/2000/svg">
<path fill-rule="evenodd" clip-rule="evenodd" d="M188.844 52.2556C193.653 52.2556 197.554 48.3576 197.554 43.5464C197.554 38.7352 193.656 34.8371 188.844 34.8371H154.677C149.868 34.8371 145.968 30.939 145.968 26.1278C145.968 21.3166 149.866 17.4185 154.677 17.4185H164.568C169.377 17.4185 173.277 13.5205 173.277 8.70927C173.277 3.89809 169.379 0 164.568 0H8.7093C3.90038 0 0 3.89809 0 8.70927C0 13.5205 3.89812 17.4185 8.7093 17.4185H118.988C123.797 17.4185 127.697 21.3166 127.697 26.1278C127.697 30.939 123.799 34.8371 118.988 34.8371H94.4854C89.6765 34.8371 85.7761 38.7352 85.7761 43.5464C85.7761 48.3576 89.6742 52.2556 94.4854 52.2556H188.844Z" fill="url(#paint0_linear_128_12865)"/>
<defs>
<linearGradient id="paint0_linear_128_12865" x1="0" y1="26.1278" x2="197.554" y2="26.1278" gradientUnits="userSpaceOnUse">
<stop stop-color="#FBD099"/>
<stop offset="0.598958" stop-color="#FCEFDF"/>
<stop offset="1" stop-color="#FFE299"/>
</linearGradient>
</defs>
</svg>
