<svg width="417" height="37" viewBox="0 0 417 37" fill="none" xmlns="http://www.w3.org/2000/svg">
<path d="M2.26152 20.06C1.91036 19.79 1.65953 18.98 1.18797 19.16C1.45886 19.06 2.30165 20.68 2.56251 20.86C3.15447 21.27 4.12769 21.27 4.79991 21.13C5.63266 20.95 6.26475 20.49 6.81657 19.87C7.1878 19.44 7.44866 18.93 7.78979 18.48C7.97039 18.25 9.2446 17.3 8.60248 17.25C9.0339 17.28 9.90679 18.75 10.2178 19.05C10.7696 19.57 11.3516 19.98 12.1141 20.13C14.4016 20.57 15.7662 18.63 16.8798 17C16.9099 16.96 18.1942 15.28 18.2243 15.32C19.5085 17.36 16.9701 15.11 16.92 15.2C16.9099 15.23 17.1106 15.41 17.1507 15.55C17.3213 16.26 18.2644 17.18 18.8263 17.57C22.0369 19.79 25.4281 16.36 27.4448 14.16C26.8327 14.44 26.2107 14.71 25.5987 14.99C24.7759 15.01 25.0468 14.19 25.408 15.64C25.4883 15.97 25.6288 16.32 25.7391 16.64C25.9599 17.27 26.1204 17.91 26.4013 18.52C26.8227 19.43 27.3545 20.3 28.1772 20.89C29.8327 22.08 31.9898 21.86 33.6252 20.77C35.2104 19.72 36.3843 18.09 37.4478 16.56C37.9896 15.79 38.5013 14.99 39.0632 14.23C39.2739 13.94 39.6652 13.6 39.7856 13.27C39.9662 12.79 40.0866 13.18 39.916 13.01C39.4946 12.97 39.0832 12.93 38.6618 12.88C37.2572 12.56 37.0164 12.62 37.9395 13.08C37.9395 13.08 38.3207 13.33 38.3508 13.36C38.7923 13.82 38.9829 14.57 39.1735 15.16C39.6652 16.65 39.8257 18.23 40.2872 19.72C40.8892 21.66 42.5246 23.46 44.461 24.19C48.7953 25.82 51.4842 21.93 52.8487 18.45C53.6915 16.31 54.2734 14.07 54.8955 11.86C55.1764 10.86 55.4373 9.85002 55.7784 8.87002C55.8888 8.54002 56.0995 8.17002 56.1697 7.83002C56.1898 7.73002 56.3102 7.62002 56.3102 7.52002C56.3102 7.92002 55.1664 8.59002 54.1029 8.55002C53.22 8.15002 52.327 7.76002 51.4441 7.36002C52.8788 9.69002 52.9892 13.04 53.4808 15.65C54.0427 18.58 54.7149 21.91 56.8219 24.16C59.6211 27.13 64.5575 27.98 67.2764 24.4C69.5841 21.35 69.7747 16.92 70.2764 13.28C70.5372 11.39 70.7379 9.48002 71.1894 7.62002C71.3499 6.97002 71.7312 6.26002 71.8215 5.61002C71.8215 5.55002 72.0221 5.59002 71.9619 5.37002C71.6208 4.03002 66.233 6.82002 66.2831 5.04002C66.2531 6.02002 67.0557 7.58002 67.2865 8.58002C67.6677 10.25 67.9988 11.94 68.3701 13.61C69.0423 16.65 69.7446 20.51 72.2228 22.68C75.2628 25.34 79.8279 23.88 81.4633 20.4C82.3463 18.53 82.6071 16.34 82.9984 14.33C83.2091 13.25 83.3997 12.16 83.7108 11.1C83.8312 10.68 84.694 8.92002 84.6439 8.78002C84.674 8.87002 81.3931 8.70002 81.373 8.73002C81.2827 8.84002 81.6941 10.38 81.7242 10.64C81.8346 11.68 81.8346 12.73 81.9349 13.77C82.1255 15.63 82.3262 17.78 83.8211 19.06C85.7575 20.72 88.918 21.08 90.9748 19.44C92.5299 18.2 92.9714 16.15 93.3225 14.31C93.5232 13.25 93.6737 12.17 93.9245 11.12C94.0249 10.72 94.2456 10.26 94.2857 9.86002C94.356 9.09002 95.2288 9.77002 93.3526 10.14C92.1386 9.76002 90.9246 9.37002 89.7106 8.99002C91.7072 11.13 92.0283 14.54 93.6235 17C95.3492 19.66 98.4495 21.54 101.57 19.92C102.834 19.26 103.697 18.12 104.55 17.02C104.921 16.54 105.272 16.05 105.693 15.61C106.095 15.19 107.851 14.04 107.6 13.85C107.239 13.57 107.419 14.71 107.459 15.12C107.509 15.72 107.58 16.32 107.861 16.87C108.543 18.22 110.048 18.77 111.503 18.56C114.964 18.07 117.402 14.59 119.91 12.49C120.833 11.72 120.181 12.01 120.242 12.54C120.312 13.16 120.633 13.95 120.884 14.51C121.435 15.77 122.369 16.83 123.693 17.31C124.937 17.77 126.382 17.73 127.576 17.14C128.569 16.65 130.495 15.09 130.887 14.01C130.636 14.7 130.094 12.5 130.385 14.11C130.415 14.3 130.676 14.62 130.786 14.78C131.077 15.21 131.338 15.63 131.709 15.99C132.783 17.05 134.278 17.56 135.783 17.41C137.218 17.26 138.361 16.46 139.335 15.46C139.565 15.23 139.846 14.97 140.027 14.69C140.097 14.6 140.177 14.52 140.248 14.43C140.86 14.02 140.85 13.84 140.218 13.89C139.505 12.91 140.218 14.55 140.187 14.45C140.338 14.9 140.669 15.37 140.92 15.79C142.555 18.58 145.796 19.72 148.475 17.44C148.956 17.03 149.318 16.52 149.719 16.03C149.839 15.88 150.07 15.43 150.261 15.36C151.154 15.02 149.92 15.44 150.261 15.5C150.833 15.59 151.445 16.18 152.057 16.32C152.98 16.54 153.973 16.44 154.866 16.15C156.19 15.73 157.434 14.84 158.438 13.88C158.588 13.73 159.06 13.28 159.271 13.24C158.939 13.3 158.799 13 158.699 13.35C158.548 13.89 158.719 14.8 158.769 15.36C158.97 17.76 159.852 20.43 162.792 20.3C165.501 20.18 166.896 17.43 168.029 15.34C168.702 14.09 169.334 12.63 170.347 11.61C170.417 11.54 171.049 11.05 171.06 11.01C171.14 10.96 171.22 10.91 171.3 10.86C170.929 10.66 170.558 10.46 170.187 10.26C170.096 10.32 170.237 11.11 170.227 11.18C170.056 12.95 170.738 15.13 171.11 16.84C171.993 20.98 173.909 27.88 179.527 26.87C183.019 26.25 184.243 22.47 185.146 19.5C185.778 17.41 186.21 15.27 186.671 13.14C186.952 11.84 187.223 10.54 187.695 9.28002C187.825 8.92002 188.106 8.49002 188.176 8.12002C188.367 7.16002 189.531 7.72002 187.454 7.77002C186.812 7.56002 186.169 7.36002 185.527 7.15002C185.377 7.05002 185.407 10.51 185.447 11C185.588 12.39 185.798 13.77 186.059 15.14C186.571 17.86 187.203 20.63 188.066 23.26C188.979 26.04 190.474 29.64 193.223 31.05C196.754 32.85 199.855 30.36 200.908 27.03C201.48 25.21 201.781 23.25 202.122 21.37C202.403 19.83 202.654 18.27 202.935 16.73C203.105 15.8 203.206 13.36 204.059 12.71C203.426 12.91 202.804 13.12 202.172 13.32C202.313 13.31 202.453 13.3 202.584 13.29C201.952 13.09 201.32 12.88 200.687 12.68C201.179 13 200.858 17.81 200.948 18.45C201.119 19.65 201.38 20.83 201.701 22C202.433 24.63 203.748 27.37 206.948 27.14C210.43 26.89 210.941 23.59 211.373 20.76C211.684 18.71 211.784 16.65 211.905 14.59C211.945 13.84 211.694 9.73002 211.704 9.71002C211.092 10.07 210.49 10.44 209.878 10.8C210.038 10.76 210.199 10.73 210.349 10.69C209.356 10.49 208.363 10.28 207.38 10.08C207.229 9.96002 207.56 10.97 207.65 11.34C207.861 12.25 208.092 13.16 208.373 14.06C208.895 15.74 209.527 17.38 210.299 18.96C211.483 21.37 213.129 23.66 216.108 23.7C218.837 23.73 220.533 21.71 221.597 19.44C222.098 18.36 222.56 17.2 222.911 16.07C223.112 15.43 223.172 12.85 223.794 12.46C223.172 12.66 222.54 12.86 221.918 13.06H222.379C221.757 12.85 221.135 12.65 220.503 12.45C220.864 12.76 220.824 14.13 220.964 14.6C221.205 15.4 221.576 16.16 221.998 16.88C222.841 18.31 224.015 19.58 225.66 20.04C227.356 20.51 229.031 20 230.295 18.83C231.068 18.11 231.61 17.24 232.091 16.31C232.533 15.45 233.676 13.57 233.737 12.58C233.797 11.46 232.382 12.43 232.212 13.22C232.131 13.61 232.332 14.18 232.452 14.54C232.743 15.42 233.235 16.1 233.977 16.65C235.603 17.85 237.91 17.85 239.787 17.32C240.91 17 241.563 16.48 242.486 15.76C242.877 15.46 245.044 14.35 245.215 13.85C245.345 13.49 243.248 12.97 243.088 13.12C243.037 13.17 243.549 14.89 243.569 15.03C243.91 16.6 243.96 18.3 245.546 19.12C246.679 19.7 248.054 19.59 249.188 19.09C251.245 18.18 252.95 16.21 254.676 14.82C254.857 14.67 255.358 14.3 255.609 14.32C254.957 14.26 255.298 14.27 255.499 14.64C256.361 16.27 257.275 17.35 259.191 17.76C262.462 18.45 264.789 16.2 266.886 14.09C267.308 13.67 267.99 13.19 268.311 12.71C268.13 12.98 268.883 12.24 268.883 12.28C268.883 12.38 267.589 11.83 267.569 11.84C266.766 12.31 267.93 16.55 268.401 17.31C269.916 19.75 272.876 19.44 275.194 18.5C276.799 17.85 278.846 16.45 280.17 17.33C281.103 17.95 281.836 19.47 283.01 20.19C284.866 21.33 287.053 20.8 288.648 19.46C289.732 18.55 290.615 17.37 291.447 16.24C292.06 15.4 292.641 14.54 293.213 13.67C293.605 13.08 295.069 11.53 295.029 10.85C295.049 11.27 292.391 10.24 292.361 10.73C292.361 10.84 292.591 11.43 292.661 11.63C293.063 12.87 293.274 14.18 293.514 15.46C294.026 18.17 294.367 21.02 295.34 23.61C297.437 29.23 304.461 31.52 308.313 26.17C310.149 23.62 311.153 20.37 311.995 17.37C312.668 14.97 312.848 12.33 313.852 10.04H308.022C309.537 15.24 309.186 20.96 310.29 26.28C311.223 30.75 313.229 37.38 319.079 36.42C322.952 35.79 324.587 31.7 325.661 28.42C326.624 25.48 327.356 22.47 327.958 19.43C328.239 17.98 328.49 16.53 328.711 15.08C328.801 14.48 328.881 13.87 328.961 13.27C329.032 12.77 329.413 11.73 328.961 12.09C327.477 11.94 325.992 11.79 324.517 11.64C324.998 12.16 324.788 13.76 324.828 14.39C324.898 15.62 325.018 16.85 325.129 18.08C325.34 20.45 325.61 22.81 325.982 25.16C326.574 28.82 328.51 32.06 332.634 32.16C339.557 32.34 340.339 23.76 340.771 18.7C340.961 16.49 341.031 14.29 341.413 12.1C341.593 11.09 341.814 10.1 342.115 9.12002C342.306 8.51002 342.195 8.55002 342.255 8.68002C342.476 9.09002 338.031 8.92002 338.182 8.68002C338.132 8.76002 338.383 9.00002 338.353 8.94002C338.463 9.22002 338.623 9.48002 338.734 9.76002C339.035 10.55 339.205 11.4 339.386 12.22C339.837 14.21 340.229 16.22 340.72 18.21C341.593 21.75 342.797 26.65 346.851 27.71C349.108 28.3 351.315 27.58 352.971 26C355.78 23.33 355.961 19.56 357.084 16.09C357.275 15.5 357.686 14.83 357.777 14.22C357.727 14.5 358.078 13.6 358.078 13.6C358.098 13.68 354.677 13.13 354.596 13.28C354.376 13.69 355.359 17.01 355.459 17.5C356.121 20.64 358.058 23.08 361.539 23.03C365.733 22.97 367.659 20 369.104 16.57C369.385 15.9 369.656 15.21 370.027 14.58C370.128 14.4 370.71 13.75 370.73 13.55C370.8 12.73 368.863 13.16 368.753 13.94C368.512 15.5 369.987 18.15 371.151 19.11C374.944 22.26 379.318 19.12 382.218 16.44C382.498 16.18 382.789 15.88 383.09 15.63C383.271 15.45 383.452 15.28 383.652 15.12C383.863 14.89 383.893 14.92 383.733 15.21C384.465 15.52 384.696 18.17 385.087 18.93C386.03 20.8 387.906 21.99 389.933 22.38C392.461 22.87 394.498 21.97 396.485 20.5C397.037 20.09 397.498 19.41 398.241 19.46C398.993 19.52 399.133 20.11 399.625 20.63C400.357 21.41 401.281 22.09 402.344 22.34C405.023 22.96 406.137 20.05 408.434 20.46C411.023 20.92 412.738 21.85 415.377 20.82C418.086 19.76 415.317 16.97 413.13 17.83C411.775 18.36 409.066 16.68 407.461 16.69C406.538 16.7 405.555 16.86 404.702 17.22C404.29 17.39 403.869 17.63 403.488 17.87C402.123 18.76 403.468 18.54 403.458 18.11C403.418 16.47 400.257 15.25 399.023 15.12C396.445 14.84 394.639 16.21 392.552 17.44C389.793 19.08 389.461 16.52 388.709 14.36C388.057 12.48 386.652 11.05 384.696 10.59C380.983 9.73002 377.994 13.08 375.485 15.26C375.515 15.23 374.843 15.74 374.713 15.73C375.816 15.87 375.094 15.3 375.124 14.91C375.174 14.21 374.713 13.02 374.452 12.38C373.77 10.74 372.355 9.37002 370.569 9.08002C366.776 8.46002 364.569 11.82 363.014 14.69C362.803 15.08 361.088 17.77 361.148 17.91C361.128 17.87 362.432 18.15 362.332 18.25C362.322 18.26 362.051 17.81 362.041 17.75C362.001 17.13 361.579 16.32 361.429 15.7C360.837 13.22 360.486 10.1 357.496 9.41002C354.175 8.65002 352.369 11.78 351.265 14.32C350.864 15.24 350.523 16.2 350.212 17.15C349.871 18.19 349.62 19.28 349.168 20.28C348.907 20.87 347.372 22.31 347.322 22.72C347.433 21.82 349.69 22.71 349.881 22.72C349.83 22.72 349.57 22.46 349.57 22.46C349.58 22.5 349.971 23.07 349.63 22.56C349.419 22.24 349.158 21.95 348.948 21.63C348.275 20.6 347.463 18.45 346.911 16.86C345.817 13.72 345.165 10.21 343.71 7.22002C342.878 5.52002 341.212 4.51002 339.266 4.96002C337.369 5.40002 336.557 7.02002 335.985 8.69002C334.179 13.94 334.46 19.67 332.483 24.86C332.293 25.36 332.042 25.82 331.821 26.3C331.339 27.33 331.099 26.8 332.453 26.69C333.797 26.59 333.486 27.04 333.045 25.93C332.674 25.01 332.513 24.01 332.303 23.05C331.701 20.29 331.199 17.5 330.808 14.71C330.527 12.7 330.517 10.42 328.941 8.94002C327.988 8.05002 325.881 8.07002 324.938 8.94002C323.574 10.19 323.473 11.79 323.102 13.53C322.631 15.71 322.099 17.87 321.477 20.01C320.423 23.61 319.079 26.97 317.413 30.31C317.253 30.55 317.082 30.77 316.902 30.99C316.019 31.63 316.831 31.66 319.33 31.1C319.43 30.65 318.096 28.64 317.885 28.1C317.152 26.23 316.651 24.28 316.239 22.31C315.346 18.05 314.654 13.68 313.942 9.38002C313.46 6.47002 309.256 6.32002 308.002 8.76002C306.437 11.8 305.976 15.48 305.022 18.73C304.511 20.47 303.989 22.41 302.925 23.91C302.614 24.34 302.042 24.76 302.303 24.74C303.136 24.7 301.942 24.19 301.681 23.92C298.441 20.53 300.287 5.51002 293.003 6.96002C290.695 7.42002 289.682 9.74002 288.528 11.51C287.735 12.72 286.933 13.93 286.04 15.07C285.809 15.37 284.535 16.58 284.525 16.74C284.525 16.68 286.3 16.67 286.351 16.97C286.31 16.68 285.628 16.07 285.428 15.84C284.535 14.8 283.551 13.92 282.267 13.37C280.491 12.62 278.424 12.62 276.588 13.13C276.016 13.29 272.053 14.73 272.114 15C272.164 15.24 273.237 15.28 273.187 15.35C273.237 15.29 273.017 14.9 273.037 14.81C273.137 14.2 272.916 13.33 272.906 12.7C272.886 11.22 272.906 10 271.662 8.99002C269.826 7.51002 267.077 7.95002 265.241 9.17002C263.485 10.33 261.659 12.98 260.365 13.74C260.495 13.66 260.786 13.85 260.836 13.96C260.666 13.63 260.495 13.28 260.305 12.96C259.993 12.47 259.652 12.04 259.231 11.65C258.378 10.87 257.395 10.4 256.241 10.25C254.054 9.97002 252.097 10.99 250.412 12.28C249.599 12.9 248.857 13.62 248.084 14.29C247.753 14.58 247.322 14.85 247.041 15.18C246.007 16.38 246.429 13.97 248.495 15.76L249.258 17.19C249.027 15.13 249.148 12.02 247.623 10.41C245.817 8.50002 242.917 9.26002 241.011 10.58C240.369 11.03 239.757 11.57 239.165 12.08C238.864 12.34 238.512 12.78 238.161 12.97C237.248 13.45 237.62 13.8 237.359 12.77C236.957 11.21 237.248 9.85002 235.703 8.80002C233.034 6.99002 229.824 8.87002 228.61 11.41C228.178 12.31 227.877 13.25 227.476 14.16C227.356 14.42 226.493 15.73 226.503 15.88C226.523 16.08 227.095 16.07 227.125 15.8C227.145 15.51 226.252 14.38 226.101 13.96C225.8 13.15 225.74 12.28 225.499 11.46C224.576 8.34002 220.393 8.06002 218.737 10.77C217.975 12.01 217.985 13.54 217.513 14.89C217.383 15.26 215.296 19.15 215.346 19.24C215.567 19.18 215.787 19.12 216.008 19.06C216.68 19.1 216.841 18.94 216.48 18.58C216.48 18.29 216.028 17.73 215.898 17.43C215.456 16.5 215.065 15.53 214.724 14.56C214.042 12.63 213.851 10.53 213.159 8.62002C211.714 4.58002 205.393 5.53002 205.614 9.92002C205.734 12.29 205.704 14.55 205.523 16.93C205.423 18.25 205.303 19.56 205.062 20.86C204.972 21.32 204.731 21.91 204.721 22.38C204.671 23.9 203.557 22.65 205.664 22.36C206.467 22.44 207.269 22.52 208.082 22.61C208.925 22.99 208.212 22.52 208.082 22.05C207.972 21.6 207.701 21.14 207.55 20.7C207.319 20.03 207.089 19.35 206.908 18.67C206.256 16.23 206.968 13.06 205.604 10.86C204.63 9.28002 202.483 8.61002 200.768 9.42002C198.641 10.43 198.42 13.1 197.948 15.11C197.306 17.87 196.764 20.64 196.072 23.39C195.861 24.21 195.681 25.04 195.39 25.83C195.31 26.05 194.979 26.63 194.948 26.91C194.196 27.73 194.738 27.86 196.544 27.32C196.474 27.25 196.403 27.19 196.333 27.12C196.263 26.59 195.229 25.31 194.999 24.76C194.728 24.12 194.497 23.47 194.256 22.82C193.303 20.24 192.48 17.59 191.828 14.91C191.427 13.27 191.106 11.62 190.925 9.95002C190.785 8.68002 190.915 7.30002 190.584 6.06002C190.092 4.20002 188.327 3.16002 186.41 3.60002C182.176 4.57002 181.765 11.24 180.892 14.54C180.521 15.95 180.129 17.37 179.638 18.74C179.327 19.59 178.012 21.37 178.093 22.17C178.133 22.59 178.354 22.68 178.875 22.5C179.527 22.27 179.106 22.98 178.986 22.38C178.905 21.98 178.303 21.41 178.093 21.01C176.638 18.32 175.885 15.01 175.384 12.01C175.213 11.02 175.314 9.72002 174.892 8.81002C173.979 6.87002 171.401 6.66002 169.575 7.20002C167.488 7.81002 166.033 9.41002 164.949 11.22C164.127 12.6 163.123 16.11 161.548 16.78C162.16 16.72 162.782 16.65 163.394 16.59C163.846 16.98 163.926 16.88 163.615 16.3C163.525 15.87 163.474 15.45 163.454 15.01C163.404 14.38 163.434 13.75 163.374 13.13C163.244 11.65 162.642 10.28 161.177 9.67002C159.572 9.00002 157.826 9.51002 156.401 10.34C155.628 10.79 155.006 11.49 154.244 11.92C153.05 12.6 153.05 12.21 151.866 11.73C150.401 11.13 148.736 11.28 147.411 12.14C146.799 12.53 146.308 13.08 145.836 13.63C145.595 13.93 145.365 14.23 145.134 14.52C144.592 15.1 144.712 15 145.505 14.23C144.953 10.67 140.679 8.47002 137.659 10.4C137.047 10.79 136.545 11.3 136.054 11.83C135.753 12.15 135.462 12.48 135.181 12.82C134.288 13.46 134.479 13.62 135.763 13.3C136.134 12.78 133.465 10.36 133.054 10.14C131.609 9.34002 129.783 9.40002 128.338 10.16C127.526 10.58 126.894 11.22 126.281 11.89C125.97 12.26 125.659 12.62 125.348 12.99C124.546 13.61 124.746 13.74 125.94 13.37C126.031 12.13 124.746 9.79002 123.894 8.97002C122.75 7.87002 121.124 7.49002 119.569 7.80002C117.984 8.11002 116.62 9.10002 115.436 10.14C113.931 11.47 112.125 14.05 110.068 14.52C110.931 14.7 111.794 14.87 112.656 15.05C112.967 15.26 112.777 14.46 112.747 13.91C112.707 13.35 112.666 12.77 112.476 12.24C111.934 10.77 110.57 9.96002 109.065 9.73002C105.864 9.25002 102.974 11.26 100.867 13.44C100.376 13.94 99.9545 14.49 99.4929 15.01C99.3826 15.13 98.8408 15.62 98.8207 15.76C98.7404 15.84 98.6501 15.92 98.5699 16C99.0314 16.04 99.4929 16.07 99.9545 16.11C99.9344 16.17 98.59 14.07 98.4896 13.85C98.1084 12.98 97.8475 12.06 97.5565 11.16C96.6536 8.35002 95.3191 4.62002 91.6269 5.26002C87.1722 6.04002 87.5033 11.61 86.3595 14.9C86.2993 15.08 86.1488 15.56 86.1488 15.55C86.1488 15.73 86.0786 15.77 86.0686 15.72C85.9381 15.32 88.9782 14.99 88.8377 15.35C89.219 14.42 88.4765 11.51 88.2859 10.14C87.8143 6.86002 86.4298 3.86002 82.6071 4.23002C77.5905 4.72002 77.1792 11.64 76.1959 15.39C75.9351 16.39 75.6943 17.47 75.2327 18.41C75.1625 18.55 74.9618 19 74.9518 18.84C74.9719 19.16 74.5505 18.79 74.8515 18.95C74.7511 18.9 76.2361 18.76 75.9953 18.76C75.925 18.76 77.8915 19.15 77.6307 19.35C77.6106 19.36 77.1992 18.8 77.1792 18.74C77.0588 18.45 76.6474 17.53 76.4066 16.85C75.1525 13.34 74.6308 9.63002 73.8181 6.01002C73.5572 4.83002 73.2963 3.44002 72.5238 2.46002C71.1191 0.670017 68.1995 0.420017 66.4537 1.85002C63.6043 4.16002 63.514 9.67002 63.0123 12.94C62.6913 15.03 62.3803 17.14 61.7883 19.18C61.5977 19.83 61.2766 20.86 61.106 21.26C60.9756 21.57 60.795 21.44 61.0358 21.5C60.6345 21.39 62.0793 21.34 62.4705 21.2C63.2331 20.92 62.8819 21.74 62.7013 21.12C62.601 20.79 61.7582 20.1 61.5575 19.74C60.6947 18.17 60.183 16.35 59.7716 14.62C59.0593 11.71 58.7984 8.54002 57.3637 5.86002C56.0995 3.51002 52.9089 2.82002 51.0729 5.02002C50.2401 6.02002 49.9191 7.44002 49.588 8.66002C48.6448 12.13 48.1733 16.17 46.3272 19.32C46.2168 19.5 45.9058 19.8 45.8657 19.99C45.7152 20.75 45.5747 19.96 45.8155 20.16C45.8155 20.16 46.6583 20.09 46.6382 20.1C46.8389 19.85 46.6683 20.35 46.4576 19.83C46.267 19.37 45.8155 19 45.6148 18.5C45.364 17.87 45.2637 17.12 45.0931 16.46C44.7319 15.03 44.3507 13.61 43.6483 12.31C41.4912 8.28002 37.3174 8.28002 34.7991 11.82C33.7356 13.31 32.8426 14.91 31.749 16.37C31.6587 16.49 30.1939 18.02 30.1939 18.03C30.1537 17.82 31.448 18.05 31.3978 18.15C31.3577 18.22 30.6754 17.14 30.6253 17.04C29.4614 14.77 28.8795 11.35 25.5786 11.59C24.0837 11.7 23.582 12.7 22.6188 13.71C22.2275 14.11 21.6155 14.47 21.2844 14.9C21.1339 15.09 20.5219 15.12 20.9734 15.15C21.5653 15.18 21.0938 15.12 20.9332 14.75C20.7727 14.36 20.3413 13.88 20.0604 13.57C19.1172 12.59 17.833 12.16 16.5186 12.7C14.813 13.39 14.191 15.25 13.2177 16.64C13.0873 16.82 12.2345 17.5 12.6258 17.51C12.997 17.53 12.5254 17.23 12.4552 17.17C12.094 16.9 11.8231 16.43 11.492 16.12C10.8399 15.51 10.1677 15.01 9.26467 14.88C8.16102 14.73 7.31823 15.14 6.50555 15.86C5.72296 16.57 5.14104 18.51 4.26815 18.9C3.26483 19.34 1.50903 16.66 0.295016 18.05C-0.567836 19.04 0.806708 20.23 1.61939 20.65C2.03075 20.86 2.78324 20.37 2.27155 19.99L2.26152 20.06Z" fill="url(#paint0_linear_2317_15372)"/>
<defs>
<linearGradient id="paint0_linear_2317_15372" x1="208.26" y1="0.926025" x2="208.26" y2="36.5137" gradientUnits="userSpaceOnUse">
<stop stop-color="#E2E8F0"/>
<stop offset="1" stop-color="#BE97FE"/>
</linearGradient>
</defs>
</svg>
